%TF.GenerationSoftware,KiCad,Pcbnew,9.0.1*%
%TF.CreationDate,2025-05-08T16:34:57-07:00*%
%TF.ProjectId,Revision_Board,52657669-7369-46f6-9e5f-426f6172642e,rev?*%
%TF.SameCoordinates,Original*%
%TF.FileFunction,Paste,Top*%
%TF.FilePolarity,Positive*%
%FSLAX46Y46*%
G04 Gerber Fmt 4.6, Leading zero omitted, Abs format (unit mm)*
G04 Created by KiCad (PCBNEW 9.0.1) date 2025-05-08 16:34:57*
%MOMM*%
%LPD*%
G01*
G04 APERTURE LIST*
G04 Aperture macros list*
%AMRoundRect*
0 Rectangle with rounded corners*
0 $1 Rounding radius*
0 $2 $3 $4 $5 $6 $7 $8 $9 X,Y pos of 4 corners*
0 Add a 4 corners polygon primitive as box body*
4,1,4,$2,$3,$4,$5,$6,$7,$8,$9,$2,$3,0*
0 Add four circle primitives for the rounded corners*
1,1,$1+$1,$2,$3*
1,1,$1+$1,$4,$5*
1,1,$1+$1,$6,$7*
1,1,$1+$1,$8,$9*
0 Add four rect primitives between the rounded corners*
20,1,$1+$1,$2,$3,$4,$5,0*
20,1,$1+$1,$4,$5,$6,$7,0*
20,1,$1+$1,$6,$7,$8,$9,0*
20,1,$1+$1,$8,$9,$2,$3,0*%
G04 Aperture macros list end*
%ADD10RoundRect,0.250000X-0.262500X-0.450000X0.262500X-0.450000X0.262500X0.450000X-0.262500X0.450000X0*%
%ADD11RoundRect,0.250000X0.262500X0.450000X-0.262500X0.450000X-0.262500X-0.450000X0.262500X-0.450000X0*%
%ADD12RoundRect,0.250000X0.475000X-0.250000X0.475000X0.250000X-0.475000X0.250000X-0.475000X-0.250000X0*%
%ADD13RoundRect,0.250000X-0.250000X-0.475000X0.250000X-0.475000X0.250000X0.475000X-0.250000X0.475000X0*%
%ADD14RoundRect,0.225000X-0.225000X-0.250000X0.225000X-0.250000X0.225000X0.250000X-0.225000X0.250000X0*%
%ADD15RoundRect,0.250000X-0.450000X0.262500X-0.450000X-0.262500X0.450000X-0.262500X0.450000X0.262500X0*%
%ADD16R,2.800000X2.200000*%
%ADD17R,2.800000X2.800000*%
%ADD18RoundRect,0.225000X0.225000X0.250000X-0.225000X0.250000X-0.225000X-0.250000X0.225000X-0.250000X0*%
%ADD19RoundRect,0.250000X-0.475000X0.250000X-0.475000X-0.250000X0.475000X-0.250000X0.475000X0.250000X0*%
%ADD20RoundRect,0.225000X-0.250000X0.225000X-0.250000X-0.225000X0.250000X-0.225000X0.250000X0.225000X0*%
%ADD21RoundRect,0.250000X-1.500000X-0.550000X1.500000X-0.550000X1.500000X0.550000X-1.500000X0.550000X0*%
%ADD22RoundRect,0.250000X0.250000X0.475000X-0.250000X0.475000X-0.250000X-0.475000X0.250000X-0.475000X0*%
%ADD23R,0.450000X1.475000*%
%ADD24RoundRect,0.087500X0.087500X-0.725000X0.087500X0.725000X-0.087500X0.725000X-0.087500X-0.725000X0*%
%ADD25RoundRect,0.225000X0.250000X-0.225000X0.250000X0.225000X-0.250000X0.225000X-0.250000X-0.225000X0*%
%ADD26RoundRect,0.075000X-0.910000X-0.225000X0.910000X-0.225000X0.910000X0.225000X-0.910000X0.225000X0*%
%ADD27RoundRect,0.250000X-1.250000X-0.550000X1.250000X-0.550000X1.250000X0.550000X-1.250000X0.550000X0*%
%ADD28R,1.200000X1.400000*%
G04 APERTURE END LIST*
D10*
%TO.C,R3*%
X31265000Y-59267500D03*
X33090000Y-59267500D03*
%TD*%
D11*
%TO.C,R7*%
X74075000Y-53345000D03*
X72250000Y-53345000D03*
%TD*%
D12*
%TO.C,C10*%
X18675000Y-65395000D03*
X18675000Y-63495000D03*
%TD*%
D13*
%TO.C,C19*%
X27870000Y-90730000D03*
X29770000Y-90730000D03*
%TD*%
D14*
%TO.C,C5*%
X41575000Y-41932500D03*
X43125000Y-41932500D03*
%TD*%
D15*
%TO.C,R2*%
X47525000Y-33835000D03*
X47525000Y-35660000D03*
%TD*%
D14*
%TO.C,C6*%
X27800000Y-38247500D03*
X29350000Y-38247500D03*
%TD*%
D13*
%TO.C,C15*%
X70875000Y-41432500D03*
X72775000Y-41432500D03*
%TD*%
D16*
%TO.C,J3*%
X42775000Y-16332500D03*
X35375000Y-14332500D03*
D17*
X35375000Y-20832500D03*
%TD*%
D18*
%TO.C,C8*%
X49750000Y-38247500D03*
X48200000Y-38247500D03*
%TD*%
D19*
%TO.C,C3*%
X30575000Y-26432500D03*
X30575000Y-28332500D03*
%TD*%
D20*
%TO.C,C1*%
X27575000Y-33882500D03*
X27575000Y-35432500D03*
%TD*%
D11*
%TO.C,R6*%
X84607500Y-36182500D03*
X82782500Y-36182500D03*
%TD*%
D21*
%TO.C,C17*%
X68275000Y-23432500D03*
X73875000Y-23432500D03*
%TD*%
D22*
%TO.C,C13*%
X84475000Y-16432500D03*
X82575000Y-16432500D03*
%TD*%
D10*
%TO.C,R4*%
X26090000Y-59162500D03*
X27915000Y-59162500D03*
%TD*%
D13*
%TO.C,C9*%
X28140000Y-64267500D03*
X30040000Y-64267500D03*
%TD*%
D20*
%TO.C,C2*%
X50075000Y-33932500D03*
X50075000Y-35482500D03*
%TD*%
D23*
%TO.C,U2*%
X42350000Y-50494500D03*
X41700000Y-50494500D03*
X41050000Y-50494500D03*
X40400000Y-50494500D03*
X39750000Y-50494500D03*
X39100000Y-50494500D03*
X38450000Y-50494500D03*
X37800000Y-50494500D03*
X37800000Y-56370500D03*
X38450000Y-56370500D03*
X39100000Y-56370500D03*
X39750000Y-56370500D03*
X40400000Y-56370500D03*
X41050000Y-56370500D03*
X41700000Y-56370500D03*
X42350000Y-56370500D03*
%TD*%
D11*
%TO.C,R5*%
X84195000Y-32182500D03*
X82370000Y-32182500D03*
%TD*%
D24*
%TO.C,Y1*%
X82575000Y-24657500D03*
X83075000Y-24657500D03*
X83575000Y-24657500D03*
X84075000Y-24657500D03*
X84575000Y-24657500D03*
X84575000Y-20432500D03*
X84075000Y-20432500D03*
X83575000Y-20432500D03*
X83075000Y-20432500D03*
X82575000Y-20432500D03*
%TD*%
D18*
%TO.C,C7*%
X36300000Y-41747500D03*
X34750000Y-41747500D03*
%TD*%
D19*
%TO.C,C4*%
X47575000Y-26787500D03*
X47575000Y-28687500D03*
%TD*%
D25*
%TO.C,C12*%
X29770000Y-85230000D03*
X29770000Y-83680000D03*
%TD*%
D12*
%TO.C,C18*%
X63912500Y-23470000D03*
X63912500Y-21570000D03*
%TD*%
D26*
%TO.C,U1*%
X37525000Y-34342500D03*
X37525000Y-35612500D03*
X37525000Y-36882500D03*
X37525000Y-38152500D03*
X42465000Y-38152500D03*
X42465000Y-36882500D03*
X42465000Y-35612500D03*
X42465000Y-34342500D03*
%TD*%
D22*
%TO.C,C20*%
X84475000Y-13932500D03*
X82575000Y-13932500D03*
%TD*%
D27*
%TO.C,C14*%
X68662500Y-47432500D03*
X73062500Y-47432500D03*
%TD*%
D28*
%TO.C,Y2*%
X76695000Y-26682500D03*
X76695000Y-28882500D03*
X78395000Y-28882500D03*
X78395000Y-26682500D03*
%TD*%
D15*
%TO.C,R1*%
X30525000Y-33747500D03*
X30525000Y-35572500D03*
%TD*%
D13*
%TO.C,C16*%
X70625000Y-34932500D03*
X72525000Y-34932500D03*
%TD*%
%TO.C,C11*%
X31140000Y-68500000D03*
X33040000Y-68500000D03*
%TD*%
M02*
