%TF.GenerationSoftware,KiCad,Pcbnew,9.0.1*%
%TF.CreationDate,2025-05-08T16:34:57-07:00*%
%TF.ProjectId,Revision_Board,52657669-7369-46f6-9e5f-426f6172642e,rev?*%
%TF.SameCoordinates,Original*%
%TF.FileFunction,Copper,L2,Inr*%
%TF.FilePolarity,Positive*%
%FSLAX46Y46*%
G04 Gerber Fmt 4.6, Leading zero omitted, Abs format (unit mm)*
G04 Created by KiCad (PCBNEW 9.0.1) date 2025-05-08 16:34:57*
%MOMM*%
%LPD*%
G01*
G04 APERTURE LIST*
G04 Aperture macros list*
%AMRoundRect*
0 Rectangle with rounded corners*
0 $1 Rounding radius*
0 $2 $3 $4 $5 $6 $7 $8 $9 X,Y pos of 4 corners*
0 Add a 4 corners polygon primitive as box body*
4,1,4,$2,$3,$4,$5,$6,$7,$8,$9,$2,$3,0*
0 Add four circle primitives for the rounded corners*
1,1,$1+$1,$2,$3*
1,1,$1+$1,$4,$5*
1,1,$1+$1,$6,$7*
1,1,$1+$1,$8,$9*
0 Add four rect primitives between the rounded corners*
20,1,$1+$1,$2,$3,$4,$5,0*
20,1,$1+$1,$4,$5,$6,$7,0*
20,1,$1+$1,$6,$7,$8,$9,0*
20,1,$1+$1,$8,$9,$2,$3,0*%
%AMFreePoly0*
4,1,37,0.603843,0.796157,0.639018,0.796157,0.711114,0.766294,0.766294,0.711114,0.796157,0.639018,0.796157,0.603843,0.800000,0.600000,0.800000,-0.600000,0.796157,-0.603843,0.796157,-0.639018,0.766294,-0.711114,0.711114,-0.766294,0.639018,-0.796157,0.603843,-0.796157,0.600000,-0.800000,0.000000,-0.800000,0.000000,-0.796148,-0.078414,-0.796148,-0.232228,-0.765552,-0.377117,-0.705537,
-0.507515,-0.618408,-0.618408,-0.507515,-0.705537,-0.377117,-0.765552,-0.232228,-0.796148,-0.078414,-0.796148,0.078414,-0.765552,0.232228,-0.705537,0.377117,-0.618408,0.507515,-0.507515,0.618408,-0.377117,0.705537,-0.232228,0.765552,-0.078414,0.796148,0.000000,0.796148,0.000000,0.800000,0.600000,0.800000,0.603843,0.796157,0.603843,0.796157,$1*%
%AMFreePoly1*
4,1,37,0.000000,0.796148,0.078414,0.796148,0.232228,0.765552,0.377117,0.705537,0.507515,0.618408,0.618408,0.507515,0.705537,0.377117,0.765552,0.232228,0.796148,0.078414,0.796148,-0.078414,0.765552,-0.232228,0.705537,-0.377117,0.618408,-0.507515,0.507515,-0.618408,0.377117,-0.705537,0.232228,-0.765552,0.078414,-0.796148,0.000000,-0.796148,0.000000,-0.800000,-0.600000,-0.800000,
-0.603843,-0.796157,-0.639018,-0.796157,-0.711114,-0.766294,-0.766294,-0.711114,-0.796157,-0.639018,-0.796157,-0.603843,-0.800000,-0.600000,-0.800000,0.600000,-0.796157,0.603843,-0.796157,0.639018,-0.766294,0.711114,-0.711114,0.766294,-0.639018,0.796157,-0.603843,0.796157,-0.600000,0.800000,0.000000,0.800000,0.000000,0.796148,0.000000,0.796148,$1*%
G04 Aperture macros list end*
%TA.AperFunction,ComponentPad*%
%ADD10R,2.000000X2.000000*%
%TD*%
%TA.AperFunction,ComponentPad*%
%ADD11C,2.400000*%
%TD*%
%TA.AperFunction,ComponentPad*%
%ADD12RoundRect,0.200000X-0.600000X-0.600000X0.600000X-0.600000X0.600000X0.600000X-0.600000X0.600000X0*%
%TD*%
%TA.AperFunction,ComponentPad*%
%ADD13C,1.600000*%
%TD*%
%TA.AperFunction,ComponentPad*%
%ADD14FreePoly0,0.000000*%
%TD*%
%TA.AperFunction,ComponentPad*%
%ADD15FreePoly1,0.000000*%
%TD*%
%TA.AperFunction,ComponentPad*%
%ADD16C,3.556000*%
%TD*%
%TA.AperFunction,ComponentPad*%
%ADD17C,3.810000*%
%TD*%
%TA.AperFunction,ViaPad*%
%ADD18C,0.600000*%
%TD*%
G04 APERTURE END LIST*
D10*
%TO.N,Net-(U1-1IN+)*%
%TO.C,TP8(180)1*%
X14575000Y-40432500D03*
%TD*%
%TO.N,Net-(U1-2OUT)*%
%TO.C,TP1(Q)1*%
X55575000Y-33932500D03*
%TD*%
%TO.N,Net-(U1-2IN-)*%
%TO.C,TP7(90)1*%
X56075000Y-39432500D03*
%TD*%
D11*
%TO.N,Net-(C10-Pad1)*%
%TO.C,L2*%
X31000000Y-77000000D03*
%TO.N,GND*%
X46000000Y-77000000D03*
%TD*%
D10*
%TO.N,Net-(U1-1OUT)*%
%TO.C,TP3(I)1*%
X24575000Y-27932500D03*
%TD*%
%TO.N,Net-(U2-S0)*%
%TO.C,TP9(QLO)1*%
X61075000Y-62932500D03*
%TD*%
%TO.N,Net-(U2-S1)*%
%TO.C,TP10 (ILO)1*%
X55075000Y-50932500D03*
%TD*%
D11*
%TO.N,Net-(C12-Pad2)*%
%TO.C,L3*%
X18675000Y-83670000D03*
%TO.N,Net-(C10-Pad1)*%
X18675000Y-68670000D03*
%TD*%
D10*
%TO.N,Net-(U1-2IN+)*%
%TO.C,TP6*%
X48575000Y-42932500D03*
%TD*%
%TO.N,Net-(U2-1A)*%
%TO.C,TP13(RXNS)1*%
X28575000Y-42432500D03*
%TD*%
D11*
%TO.N,Net-(C10-Pad2)*%
%TO.C,L1*%
X13360000Y-49337500D03*
%TO.N,Net-(U2-1A)*%
X28360000Y-49337500D03*
%TD*%
D10*
%TO.N,Net-(C12-Pad1)*%
%TO.C,TP14(RXIN)1*%
X37105000Y-87715000D03*
%TD*%
D12*
%TO.N,unconnected-(A1-GPIO0-Pad1)*%
%TO.C,A1*%
X90185000Y-13840000D03*
D13*
%TO.N,unconnected-(A1-GPIO1-Pad2)*%
X90185000Y-16380000D03*
D14*
%TO.N,GND*%
X90185000Y-18920000D03*
D13*
%TO.N,GPIO2*%
X90185000Y-21460000D03*
%TO.N,GPIO3*%
X90185000Y-24000000D03*
%TO.N,unconnected-(A1-GPIO4-Pad6)_1*%
X90185000Y-26540000D03*
%TO.N,unconnected-(A1-GPIO5-Pad7)*%
X90185000Y-29080000D03*
D14*
%TO.N,GND*%
X90185000Y-31620000D03*
D13*
%TO.N,unconnected-(A1-GPIO6-Pad9)*%
X90185000Y-34160000D03*
%TO.N,unconnected-(A1-GPIO7-Pad10)_1*%
X90185000Y-36700000D03*
%TO.N,unconnected-(A1-GPIO8-Pad11)*%
X90185000Y-39240000D03*
%TO.N,unconnected-(A1-GPIO9-Pad12)*%
X90185000Y-41780000D03*
D14*
%TO.N,GND*%
X90185000Y-44320000D03*
D13*
%TO.N,unconnected-(A1-GPIO10-Pad14)*%
X90185000Y-46860000D03*
%TO.N,unconnected-(A1-GPIO11-Pad15)_1*%
X90185000Y-49400000D03*
%TO.N,unconnected-(A1-GPIO12-Pad16)_1*%
X90185000Y-51940000D03*
%TO.N,unconnected-(A1-GPIO13-Pad17)*%
X90185000Y-54480000D03*
D14*
%TO.N,GND*%
X90185000Y-57020000D03*
D13*
%TO.N,unconnected-(A1-GPIO14-Pad19)_1*%
X90185000Y-59560000D03*
%TO.N,unconnected-(A1-GPIO15-Pad20)_1*%
X90185000Y-62100000D03*
%TO.N,unconnected-(A1-GPIO16-Pad21)_1*%
X107965000Y-62100000D03*
%TO.N,unconnected-(A1-GPIO17-Pad22)_1*%
X107965000Y-59560000D03*
D15*
%TO.N,GND*%
X107965000Y-57020000D03*
D13*
%TO.N,unconnected-(A1-GPIO18-Pad24)_1*%
X107965000Y-54480000D03*
%TO.N,unconnected-(A1-GPIO19-Pad25)*%
X107965000Y-51940000D03*
%TO.N,unconnected-(A1-GPIO20-Pad26)*%
X107965000Y-49400000D03*
%TO.N,unconnected-(A1-GPIO21-Pad27)*%
X107965000Y-46860000D03*
D15*
%TO.N,GND*%
X107965000Y-44320000D03*
D13*
%TO.N,unconnected-(A1-GPIO22-Pad29)*%
X107965000Y-41780000D03*
%TO.N,unconnected-(A1-RUN-Pad30)_1*%
X107965000Y-39240000D03*
%TO.N,unconnected-(A1-GPIO26_ADC0-Pad31)*%
X107965000Y-36700000D03*
%TO.N,unconnected-(A1-GPIO27_ADC1-Pad32)_1*%
X107965000Y-34160000D03*
D15*
%TO.N,unconnected-(A1-AGND-Pad33)*%
X107965000Y-31620000D03*
D13*
%TO.N,unconnected-(A1-GPIO28_ADC2-Pad34)_1*%
X107965000Y-29080000D03*
%TO.N,unconnected-(A1-ADC_VREF-Pad35)*%
X107965000Y-26540000D03*
%TO.N,+3.3V*%
X107965000Y-24000000D03*
%TO.N,unconnected-(A1-3V3_EN-Pad37)_1*%
X107965000Y-21460000D03*
D15*
%TO.N,GND*%
X107965000Y-18920000D03*
D13*
%TO.N,unconnected-(A1-VSYS-Pad39)*%
X107965000Y-16380000D03*
%TO.N,+5V*%
X107965000Y-13840000D03*
%TD*%
D16*
%TO.N,Net-(J1-In)*%
%TO.C,J1*%
X19000000Y-95845000D03*
D17*
%TO.N,Net-(J1-Ext)*%
X22175000Y-92670000D03*
X15825000Y-92670000D03*
X22175000Y-99020000D03*
X15825000Y-99020000D03*
%TD*%
D10*
%TO.N,Net-(U1-1IN-)*%
%TO.C,TP2(0)1*%
X22075000Y-35932500D03*
%TD*%
D18*
%TO.N,Smoothed 5V*%
X42575000Y-58432500D03*
X44075000Y-33432500D03*
X63912500Y-25070000D03*
X34632500Y-59372500D03*
%TO.N,GND*%
X63875000Y-19895000D03*
X29075000Y-16932500D03*
X42075000Y-58932500D03*
X26075000Y-38932500D03*
X74087500Y-34895000D03*
X83575000Y-18432500D03*
X42575000Y-48932500D03*
X51575000Y-37932500D03*
X38075000Y-40432500D03*
X75875000Y-47395000D03*
X35575000Y-38432500D03*
X19315000Y-106515000D03*
X24075000Y-59432500D03*
X78195000Y-23682500D03*
X34475000Y-68485000D03*
X86695000Y-16682500D03*
X40075000Y-40432500D03*
X74587500Y-41395000D03*
%TO.N,+3.3V*%
X86695000Y-20182500D03*
X105075000Y-24932500D03*
%TO.N,GPIO2*%
X84195000Y-34182500D03*
X86195000Y-34182500D03*
%TO.N,+5V*%
X110775000Y-13932500D03*
X76075000Y-53432500D03*
%TO.N,Net-(U1-2IN-)*%
X39575000Y-44932500D03*
X52575000Y-39432500D03*
X44525000Y-35747500D03*
X44525000Y-37747500D03*
X44575000Y-44932500D03*
%TO.N,Net-(U1-1IN+)*%
X34075000Y-44932500D03*
%TO.N,Net-(Y1-XB)*%
X83475000Y-30182500D03*
X78695000Y-30182500D03*
%TO.N,Net-(Y1-XA)*%
X82970000Y-26682500D03*
X81195000Y-24682500D03*
X81195000Y-26682500D03*
X76695000Y-24682500D03*
%TO.N,Net-(U2-S1)*%
X56575000Y-47932500D03*
X62075000Y-47932500D03*
%TD*%
%TA.AperFunction,Conductor*%
%TO.N,GND*%
G36*
X70943039Y-12519685D02*
G01*
X70988794Y-12572489D01*
X71000000Y-12624000D01*
X71000000Y-17000000D01*
X72000000Y-17000000D01*
X72000000Y-12624000D01*
X72019685Y-12556961D01*
X72072489Y-12511206D01*
X72124000Y-12500000D01*
X89034980Y-12500000D01*
X89102019Y-12519685D01*
X89147774Y-12572489D01*
X89157718Y-12641647D01*
X89128693Y-12705203D01*
X89122661Y-12711681D01*
X89029531Y-12804810D01*
X89029530Y-12804811D01*
X88941522Y-12950393D01*
X88890913Y-13112807D01*
X88884500Y-13183386D01*
X88884500Y-14496613D01*
X88890913Y-14567192D01*
X88890913Y-14567194D01*
X88890914Y-14567196D01*
X88914191Y-14641897D01*
X88941522Y-14729606D01*
X89029530Y-14875188D01*
X89149811Y-14995469D01*
X89149813Y-14995470D01*
X89149815Y-14995472D01*
X89295394Y-15083478D01*
X89382566Y-15110641D01*
X89440712Y-15149378D01*
X89468686Y-15213403D01*
X89457605Y-15282388D01*
X89418560Y-15329344D01*
X89337782Y-15388032D01*
X89193028Y-15532786D01*
X89072715Y-15698386D01*
X88979781Y-15880776D01*
X88916522Y-16075465D01*
X88889120Y-16248477D01*
X88884500Y-16277648D01*
X88884500Y-16482352D01*
X88884603Y-16483000D01*
X88916522Y-16684534D01*
X88979781Y-16879223D01*
X89072715Y-17061613D01*
X89193028Y-17227213D01*
X89337786Y-17371971D01*
X89503388Y-17492286D01*
X89503390Y-17492287D01*
X89589294Y-17536057D01*
X89640090Y-17584031D01*
X89656886Y-17651852D01*
X89634349Y-17717987D01*
X89591455Y-17755899D01*
X89525497Y-17791155D01*
X89456086Y-17837534D01*
X89456085Y-17837534D01*
X90055589Y-18437037D01*
X89992007Y-18454075D01*
X89877993Y-18519901D01*
X89784901Y-18612993D01*
X89719075Y-18727007D01*
X89702037Y-18790588D01*
X89102534Y-18191085D01*
X89102534Y-18191086D01*
X89056158Y-18260493D01*
X89009490Y-18347801D01*
X88949185Y-18493387D01*
X88920444Y-18588135D01*
X88889701Y-18742697D01*
X88889701Y-18742700D01*
X88880000Y-18841210D01*
X88880000Y-18998789D01*
X88889701Y-19097299D01*
X88889701Y-19097302D01*
X88920444Y-19251864D01*
X88949185Y-19346612D01*
X89009490Y-19492198D01*
X89056155Y-19579501D01*
X89056161Y-19579511D01*
X89102534Y-19648912D01*
X89702037Y-19049410D01*
X89719075Y-19112993D01*
X89784901Y-19227007D01*
X89877993Y-19320099D01*
X89992007Y-19385925D01*
X90055589Y-19402962D01*
X89456085Y-20002465D01*
X89525488Y-20048838D01*
X89525498Y-20048844D01*
X89591454Y-20084099D01*
X89641298Y-20133062D01*
X89656758Y-20201200D01*
X89632926Y-20266879D01*
X89589295Y-20303942D01*
X89503386Y-20347715D01*
X89337786Y-20468028D01*
X89193028Y-20612786D01*
X89072715Y-20778386D01*
X88979781Y-20960776D01*
X88916522Y-21155465D01*
X88884500Y-21357648D01*
X88884500Y-21562351D01*
X88916522Y-21764534D01*
X88979781Y-21959223D01*
X89072715Y-22141613D01*
X89193028Y-22307213D01*
X89337786Y-22451971D01*
X89453398Y-22535966D01*
X89503390Y-22572287D01*
X89594840Y-22618883D01*
X89596080Y-22619515D01*
X89646876Y-22667490D01*
X89663671Y-22735311D01*
X89641134Y-22801446D01*
X89596080Y-22840485D01*
X89503386Y-22887715D01*
X89337786Y-23008028D01*
X89193028Y-23152786D01*
X89072715Y-23318386D01*
X88979781Y-23500776D01*
X88916522Y-23695465D01*
X88884500Y-23897648D01*
X88884500Y-24102351D01*
X88916522Y-24304534D01*
X88979781Y-24499223D01*
X89072715Y-24681613D01*
X89193028Y-24847213D01*
X89337786Y-24991971D01*
X89492749Y-25104556D01*
X89503390Y-25112287D01*
X89575137Y-25148844D01*
X89596080Y-25159515D01*
X89646876Y-25207490D01*
X89663671Y-25275311D01*
X89641134Y-25341446D01*
X89596080Y-25380485D01*
X89503386Y-25427715D01*
X89337786Y-25548028D01*
X89193028Y-25692786D01*
X89072715Y-25858386D01*
X88979781Y-26040776D01*
X88916522Y-26235465D01*
X88884500Y-26437648D01*
X88884500Y-26642351D01*
X88916522Y-26844534D01*
X88979781Y-27039223D01*
X89043691Y-27164653D01*
X89058029Y-27192792D01*
X89072715Y-27221613D01*
X89193028Y-27387213D01*
X89337786Y-27531971D01*
X89492749Y-27644556D01*
X89503390Y-27652287D01*
X89594840Y-27698883D01*
X89596080Y-27699515D01*
X89646876Y-27747490D01*
X89663671Y-27815311D01*
X89641134Y-27881446D01*
X89596080Y-27920485D01*
X89503386Y-27967715D01*
X89337786Y-28088028D01*
X89193028Y-28232786D01*
X89072715Y-28398386D01*
X88979781Y-28580776D01*
X88916522Y-28775465D01*
X88884500Y-28977648D01*
X88884500Y-29182351D01*
X88916522Y-29384534D01*
X88979781Y-29579223D01*
X89072715Y-29761613D01*
X89193028Y-29927213D01*
X89337786Y-30071971D01*
X89503388Y-30192286D01*
X89503390Y-30192287D01*
X89589294Y-30236057D01*
X89640090Y-30284031D01*
X89656886Y-30351852D01*
X89634349Y-30417987D01*
X89591455Y-30455899D01*
X89525497Y-30491155D01*
X89456086Y-30537534D01*
X89456085Y-30537534D01*
X90055589Y-31137037D01*
X89992007Y-31154075D01*
X89877993Y-31219901D01*
X89784901Y-31312993D01*
X89719075Y-31427007D01*
X89702037Y-31490588D01*
X89102534Y-30891085D01*
X89102534Y-30891086D01*
X89056158Y-30960493D01*
X89009490Y-31047801D01*
X88949185Y-31193387D01*
X88920444Y-31288135D01*
X88889701Y-31442697D01*
X88889701Y-31442700D01*
X88880000Y-31541210D01*
X88880000Y-31698789D01*
X88889701Y-31797299D01*
X88889701Y-31797302D01*
X88920444Y-31951864D01*
X88949185Y-32046612D01*
X89009490Y-32192198D01*
X89056155Y-32279501D01*
X89056161Y-32279511D01*
X89102534Y-32348912D01*
X89702037Y-31749410D01*
X89719075Y-31812993D01*
X89784901Y-31927007D01*
X89877993Y-32020099D01*
X89992007Y-32085925D01*
X90055589Y-32102962D01*
X89456085Y-32702465D01*
X89525488Y-32748838D01*
X89525498Y-32748844D01*
X89591454Y-32784099D01*
X89641298Y-32833062D01*
X89656758Y-32901200D01*
X89632926Y-32966879D01*
X89589295Y-33003942D01*
X89503386Y-33047715D01*
X89337786Y-33168028D01*
X89193028Y-33312786D01*
X89072715Y-33478386D01*
X88979781Y-33660776D01*
X88916522Y-33855465D01*
X88884500Y-34057648D01*
X88884500Y-34262351D01*
X88916522Y-34464534D01*
X88979781Y-34659223D01*
X88996886Y-34692792D01*
X89064258Y-34825017D01*
X89072715Y-34841613D01*
X89193028Y-35007213D01*
X89337786Y-35151971D01*
X89492749Y-35264556D01*
X89503390Y-35272287D01*
X89594840Y-35318883D01*
X89596080Y-35319515D01*
X89646876Y-35367490D01*
X89663671Y-35435311D01*
X89641134Y-35501446D01*
X89596080Y-35540485D01*
X89503386Y-35587715D01*
X89337786Y-35708028D01*
X89193028Y-35852786D01*
X89072715Y-36018386D01*
X88979781Y-36200776D01*
X88916522Y-36395465D01*
X88884500Y-36597648D01*
X88884500Y-36802351D01*
X88916522Y-37004534D01*
X88979781Y-37199223D01*
X89072714Y-37381612D01*
X89193028Y-37547213D01*
X89337786Y-37691971D01*
X89492749Y-37804556D01*
X89503390Y-37812287D01*
X89594840Y-37858883D01*
X89596080Y-37859515D01*
X89646876Y-37907490D01*
X89663671Y-37975311D01*
X89641134Y-38041446D01*
X89596080Y-38080485D01*
X89503386Y-38127715D01*
X89337786Y-38248028D01*
X89193028Y-38392786D01*
X89072715Y-38558386D01*
X88979781Y-38740776D01*
X88916522Y-38935465D01*
X88884500Y-39137648D01*
X88884500Y-39342351D01*
X88916522Y-39544534D01*
X88979781Y-39739223D01*
X89072715Y-39921613D01*
X89193028Y-40087213D01*
X89337786Y-40231971D01*
X89492749Y-40344556D01*
X89503390Y-40352287D01*
X89594840Y-40398883D01*
X89596080Y-40399515D01*
X89646876Y-40447490D01*
X89663671Y-40515311D01*
X89641134Y-40581446D01*
X89596080Y-40620485D01*
X89503386Y-40667715D01*
X89337786Y-40788028D01*
X89193028Y-40932786D01*
X89072715Y-41098386D01*
X88979781Y-41280776D01*
X88916522Y-41475465D01*
X88900765Y-41574954D01*
X88884500Y-41677648D01*
X88884500Y-41882352D01*
X88884861Y-41884629D01*
X88916522Y-42084534D01*
X88979781Y-42279223D01*
X89072715Y-42461613D01*
X89193028Y-42627213D01*
X89337786Y-42771971D01*
X89503388Y-42892286D01*
X89503390Y-42892287D01*
X89589294Y-42936057D01*
X89640090Y-42984031D01*
X89656886Y-43051852D01*
X89634349Y-43117987D01*
X89591455Y-43155899D01*
X89525497Y-43191155D01*
X89456086Y-43237534D01*
X89456085Y-43237534D01*
X90055589Y-43837037D01*
X89992007Y-43854075D01*
X89877993Y-43919901D01*
X89784901Y-44012993D01*
X89719075Y-44127007D01*
X89702037Y-44190588D01*
X89102534Y-43591085D01*
X89102534Y-43591086D01*
X89056158Y-43660493D01*
X89009490Y-43747801D01*
X88949185Y-43893387D01*
X88920444Y-43988135D01*
X88889701Y-44142697D01*
X88889701Y-44142700D01*
X88880000Y-44241210D01*
X88880000Y-44398789D01*
X88889701Y-44497299D01*
X88889701Y-44497302D01*
X88920444Y-44651864D01*
X88949185Y-44746612D01*
X89009490Y-44892198D01*
X89056155Y-44979501D01*
X89056161Y-44979511D01*
X89102534Y-45048912D01*
X89702037Y-44449410D01*
X89719075Y-44512993D01*
X89784901Y-44627007D01*
X89877993Y-44720099D01*
X89992007Y-44785925D01*
X90055589Y-44802962D01*
X89456085Y-45402465D01*
X89525488Y-45448838D01*
X89525498Y-45448844D01*
X89591454Y-45484099D01*
X89641298Y-45533062D01*
X89656758Y-45601200D01*
X89632926Y-45666879D01*
X89589295Y-45703942D01*
X89503386Y-45747715D01*
X89337786Y-45868028D01*
X89193028Y-46012786D01*
X89072715Y-46178386D01*
X88979781Y-46360776D01*
X88916522Y-46555465D01*
X88884500Y-46757648D01*
X88884500Y-46962351D01*
X88916522Y-47164531D01*
X88979781Y-47359223D01*
X89072715Y-47541613D01*
X89193028Y-47707213D01*
X89337786Y-47851971D01*
X89467129Y-47945942D01*
X89503390Y-47972287D01*
X89594840Y-48018883D01*
X89596080Y-48019515D01*
X89646876Y-48067490D01*
X89663671Y-48135311D01*
X89641134Y-48201446D01*
X89596080Y-48240485D01*
X89503386Y-48287715D01*
X89337786Y-48408028D01*
X89193028Y-48552786D01*
X89072715Y-48718386D01*
X88979781Y-48900776D01*
X88916522Y-49095465D01*
X88884500Y-49297648D01*
X88884500Y-49502351D01*
X88916522Y-49704534D01*
X88979781Y-49899223D01*
X89072715Y-50081613D01*
X89193028Y-50247213D01*
X89337786Y-50391971D01*
X89492749Y-50504556D01*
X89503390Y-50512287D01*
X89594840Y-50558883D01*
X89596080Y-50559515D01*
X89646876Y-50607490D01*
X89663671Y-50675311D01*
X89641134Y-50741446D01*
X89596080Y-50780485D01*
X89503386Y-50827715D01*
X89337786Y-50948028D01*
X89193028Y-51092786D01*
X89072715Y-51258386D01*
X88979781Y-51440776D01*
X88916522Y-51635465D01*
X88884500Y-51837648D01*
X88884500Y-52042351D01*
X88916522Y-52244534D01*
X88979781Y-52439223D01*
X89072715Y-52621613D01*
X89193028Y-52787213D01*
X89337786Y-52931971D01*
X89492749Y-53044556D01*
X89503390Y-53052287D01*
X89594840Y-53098883D01*
X89596080Y-53099515D01*
X89646876Y-53147490D01*
X89663671Y-53215311D01*
X89641134Y-53281446D01*
X89596080Y-53320485D01*
X89503386Y-53367715D01*
X89337786Y-53488028D01*
X89193028Y-53632786D01*
X89072715Y-53798386D01*
X88979781Y-53980776D01*
X88916522Y-54175465D01*
X88884500Y-54377648D01*
X88884500Y-54582351D01*
X88916522Y-54784534D01*
X88979781Y-54979223D01*
X89072715Y-55161613D01*
X89193028Y-55327213D01*
X89337786Y-55471971D01*
X89503388Y-55592286D01*
X89503390Y-55592287D01*
X89589294Y-55636057D01*
X89640090Y-55684031D01*
X89656886Y-55751852D01*
X89634349Y-55817987D01*
X89591455Y-55855899D01*
X89525497Y-55891155D01*
X89456086Y-55937534D01*
X89456085Y-55937534D01*
X90055589Y-56537037D01*
X89992007Y-56554075D01*
X89877993Y-56619901D01*
X89784901Y-56712993D01*
X89719075Y-56827007D01*
X89702037Y-56890588D01*
X89102534Y-56291085D01*
X89102534Y-56291086D01*
X89056158Y-56360493D01*
X89009490Y-56447801D01*
X88949185Y-56593387D01*
X88920444Y-56688135D01*
X88889701Y-56842697D01*
X88889701Y-56842700D01*
X88880000Y-56941210D01*
X88880000Y-57098789D01*
X88889701Y-57197299D01*
X88889701Y-57197302D01*
X88920444Y-57351864D01*
X88949185Y-57446612D01*
X89009490Y-57592198D01*
X89056155Y-57679501D01*
X89056161Y-57679511D01*
X89102534Y-57748912D01*
X89702037Y-57149410D01*
X89719075Y-57212993D01*
X89784901Y-57327007D01*
X89877993Y-57420099D01*
X89992007Y-57485925D01*
X90055589Y-57502962D01*
X89456085Y-58102465D01*
X89525488Y-58148838D01*
X89525498Y-58148844D01*
X89591454Y-58184099D01*
X89641298Y-58233062D01*
X89656758Y-58301200D01*
X89632926Y-58366879D01*
X89589295Y-58403942D01*
X89503386Y-58447715D01*
X89337786Y-58568028D01*
X89193028Y-58712786D01*
X89072715Y-58878386D01*
X88979781Y-59060776D01*
X88916522Y-59255465D01*
X88884500Y-59457648D01*
X88884500Y-59662351D01*
X88916522Y-59864534D01*
X88979781Y-60059223D01*
X89072715Y-60241613D01*
X89193028Y-60407213D01*
X89337786Y-60551971D01*
X89492749Y-60664556D01*
X89503390Y-60672287D01*
X89594840Y-60718883D01*
X89596080Y-60719515D01*
X89646876Y-60767490D01*
X89663671Y-60835311D01*
X89641134Y-60901446D01*
X89596080Y-60940485D01*
X89503386Y-60987715D01*
X89337786Y-61108028D01*
X89193028Y-61252786D01*
X89072715Y-61418386D01*
X88979781Y-61600776D01*
X88916522Y-61795465D01*
X88884500Y-61997648D01*
X88884500Y-62202351D01*
X88916522Y-62404534D01*
X88979781Y-62599223D01*
X89072715Y-62781613D01*
X89193028Y-62947213D01*
X89337786Y-63091971D01*
X89492749Y-63204556D01*
X89503390Y-63212287D01*
X89619607Y-63271503D01*
X89685776Y-63305218D01*
X89685778Y-63305218D01*
X89685781Y-63305220D01*
X89790137Y-63339127D01*
X89880465Y-63368477D01*
X89981557Y-63384488D01*
X90082648Y-63400500D01*
X90082649Y-63400500D01*
X90287351Y-63400500D01*
X90287352Y-63400500D01*
X90489534Y-63368477D01*
X90684219Y-63305220D01*
X90866610Y-63212287D01*
X90959590Y-63144732D01*
X91032213Y-63091971D01*
X91032215Y-63091968D01*
X91032219Y-63091966D01*
X91176966Y-62947219D01*
X91176968Y-62947215D01*
X91176971Y-62947213D01*
X91229732Y-62874590D01*
X91297287Y-62781610D01*
X91390220Y-62599219D01*
X91453477Y-62404534D01*
X91485500Y-62202352D01*
X91485500Y-61997648D01*
X91467597Y-61884616D01*
X91453477Y-61795465D01*
X91390218Y-61600776D01*
X91356503Y-61534607D01*
X91297287Y-61418390D01*
X91289556Y-61407749D01*
X91176971Y-61252786D01*
X91032213Y-61108028D01*
X90866614Y-60987715D01*
X90860006Y-60984348D01*
X90773917Y-60940483D01*
X90723123Y-60892511D01*
X90706328Y-60824690D01*
X90728865Y-60758555D01*
X90773917Y-60719516D01*
X90866610Y-60672287D01*
X90887770Y-60656913D01*
X91032213Y-60551971D01*
X91032215Y-60551968D01*
X91032219Y-60551966D01*
X91176966Y-60407219D01*
X91176968Y-60407215D01*
X91176971Y-60407213D01*
X91229732Y-60334590D01*
X91297287Y-60241610D01*
X91390220Y-60059219D01*
X91453477Y-59864534D01*
X91485500Y-59662352D01*
X91485500Y-59457648D01*
X91462098Y-59309895D01*
X91975000Y-59309895D01*
X96627057Y-62922663D01*
X96667931Y-62979327D01*
X96675000Y-63020597D01*
X96675000Y-63970000D01*
X101475000Y-63970000D01*
X101475000Y-63020597D01*
X101494685Y-62953558D01*
X101522941Y-62922664D01*
X106175000Y-59309895D01*
X106175000Y-54970000D01*
X91975000Y-54970000D01*
X91975000Y-59309895D01*
X91462098Y-59309895D01*
X91453477Y-59255466D01*
X91446177Y-59233000D01*
X91390218Y-59060776D01*
X91355844Y-58993314D01*
X91297287Y-58878390D01*
X91285532Y-58862211D01*
X91176971Y-58712786D01*
X91032217Y-58568032D01*
X90955415Y-58512232D01*
X90912750Y-58456902D01*
X90906771Y-58387288D01*
X90939377Y-58325494D01*
X90997640Y-58291765D01*
X91018039Y-58286559D01*
X91074584Y-58263136D01*
X91074584Y-58263135D01*
X90314410Y-57502962D01*
X90377993Y-57485925D01*
X90492007Y-57420099D01*
X90585099Y-57327007D01*
X90650925Y-57212993D01*
X90667962Y-57149411D01*
X91428135Y-57909584D01*
X91428136Y-57909584D01*
X91451552Y-57853053D01*
X91469544Y-57802053D01*
X91489999Y-57659780D01*
X91490000Y-57659779D01*
X91490000Y-56380214D01*
X91487106Y-56326237D01*
X91487106Y-56326235D01*
X91451561Y-56186969D01*
X91451559Y-56186962D01*
X91428135Y-56130414D01*
X90667962Y-56890588D01*
X90650925Y-56827007D01*
X90585099Y-56712993D01*
X90492007Y-56619901D01*
X90377993Y-56554075D01*
X90314410Y-56537037D01*
X91074584Y-55776862D01*
X91018059Y-55753449D01*
X91018048Y-55753445D01*
X90989374Y-55743329D01*
X90932703Y-55702462D01*
X90907122Y-55637443D01*
X90920754Y-55568916D01*
X90957745Y-55526074D01*
X91032215Y-55471969D01*
X91032215Y-55471968D01*
X91032219Y-55471966D01*
X91176966Y-55327219D01*
X91176968Y-55327215D01*
X91176971Y-55327213D01*
X91229732Y-55254590D01*
X91297287Y-55161610D01*
X91390220Y-54979219D01*
X91453477Y-54784534D01*
X91485500Y-54582352D01*
X91485500Y-54377648D01*
X91462590Y-54233000D01*
X91453477Y-54175465D01*
X91390218Y-53980776D01*
X91356503Y-53914607D01*
X91297287Y-53798390D01*
X91289556Y-53787749D01*
X91176971Y-53632786D01*
X91032213Y-53488028D01*
X90866614Y-53367715D01*
X90860006Y-53364348D01*
X90773917Y-53320483D01*
X90723123Y-53272511D01*
X90706328Y-53204690D01*
X90728865Y-53138555D01*
X90773917Y-53099516D01*
X90866610Y-53052287D01*
X90887770Y-53036913D01*
X91032213Y-52931971D01*
X91032215Y-52931968D01*
X91032219Y-52931966D01*
X91176966Y-52787219D01*
X91176968Y-52787215D01*
X91176971Y-52787213D01*
X91267387Y-52662764D01*
X91297287Y-52621610D01*
X91390220Y-52439219D01*
X91453477Y-52244534D01*
X91485500Y-52042352D01*
X91485500Y-51837648D01*
X91453477Y-51635466D01*
X91390220Y-51440781D01*
X91390218Y-51440778D01*
X91390218Y-51440776D01*
X91356503Y-51374607D01*
X91297287Y-51258390D01*
X91289556Y-51247749D01*
X91176971Y-51092786D01*
X91032213Y-50948028D01*
X90866614Y-50827715D01*
X90860006Y-50824348D01*
X90773917Y-50780483D01*
X90723123Y-50732511D01*
X90706328Y-50664690D01*
X90728865Y-50598555D01*
X90773917Y-50559516D01*
X90866610Y-50512287D01*
X90937024Y-50461129D01*
X91032213Y-50391971D01*
X91032215Y-50391968D01*
X91032219Y-50391966D01*
X91176966Y-50247219D01*
X91176968Y-50247215D01*
X91176971Y-50247213D01*
X91229732Y-50174590D01*
X91297287Y-50081610D01*
X91390220Y-49899219D01*
X91453477Y-49704534D01*
X91485500Y-49502352D01*
X91485500Y-49297648D01*
X91453477Y-49095466D01*
X91390220Y-48900781D01*
X91390218Y-48900778D01*
X91390218Y-48900776D01*
X91333626Y-48789709D01*
X91297287Y-48718390D01*
X91285550Y-48702235D01*
X91176971Y-48552786D01*
X91032213Y-48408028D01*
X90866614Y-48287715D01*
X90860006Y-48284348D01*
X90773917Y-48240483D01*
X90723123Y-48192511D01*
X90706328Y-48124690D01*
X90728865Y-48058555D01*
X90773917Y-48019516D01*
X90866610Y-47972287D01*
X90902871Y-47945942D01*
X91032213Y-47851971D01*
X91032215Y-47851968D01*
X91032219Y-47851966D01*
X91176966Y-47707219D01*
X91176968Y-47707215D01*
X91176971Y-47707213D01*
X91255601Y-47598986D01*
X91297287Y-47541610D01*
X91390220Y-47359219D01*
X91453477Y-47164534D01*
X91453476Y-47164534D01*
X91453478Y-47164531D01*
X91485500Y-46962351D01*
X91485500Y-46757648D01*
X91453477Y-46555465D01*
X91390218Y-46360776D01*
X91356503Y-46294607D01*
X91297287Y-46178390D01*
X91289556Y-46167749D01*
X91176971Y-46012786D01*
X91032217Y-45868032D01*
X90955415Y-45812232D01*
X90912750Y-45756902D01*
X90906771Y-45687288D01*
X90939377Y-45625494D01*
X90997640Y-45591765D01*
X91018039Y-45586559D01*
X91074584Y-45563136D01*
X91074584Y-45563135D01*
X90314410Y-44802962D01*
X90377993Y-44785925D01*
X90492007Y-44720099D01*
X90585099Y-44627007D01*
X90650925Y-44512993D01*
X90667962Y-44449411D01*
X91428135Y-45209584D01*
X91428136Y-45209584D01*
X91451552Y-45153053D01*
X91469544Y-45102053D01*
X91489999Y-44959780D01*
X91490000Y-44959779D01*
X91490000Y-43680224D01*
X91489999Y-43680204D01*
X91487106Y-43626237D01*
X91487106Y-43626235D01*
X91451561Y-43486969D01*
X91451559Y-43486962D01*
X91428135Y-43430414D01*
X90667962Y-44190588D01*
X90650925Y-44127007D01*
X90585099Y-44012993D01*
X90492007Y-43919901D01*
X90377993Y-43854075D01*
X90314410Y-43837037D01*
X91074584Y-43076862D01*
X91018059Y-43053449D01*
X91018048Y-43053445D01*
X90989374Y-43043329D01*
X90932703Y-43002462D01*
X90907122Y-42937443D01*
X90920754Y-42868916D01*
X90957745Y-42826074D01*
X91032215Y-42771969D01*
X91032215Y-42771968D01*
X91032219Y-42771966D01*
X91176966Y-42627219D01*
X91176968Y-42627215D01*
X91176971Y-42627213D01*
X91229732Y-42554590D01*
X91297287Y-42461610D01*
X91390220Y-42279219D01*
X91453477Y-42084534D01*
X91485500Y-41882352D01*
X91485500Y-41677648D01*
X91463696Y-41539983D01*
X91453477Y-41475465D01*
X91390218Y-41280776D01*
X91344048Y-41190164D01*
X91297287Y-41098390D01*
X91280260Y-41074954D01*
X91176971Y-40932786D01*
X91032213Y-40788028D01*
X90866614Y-40667715D01*
X90860006Y-40664348D01*
X90773917Y-40620483D01*
X90723123Y-40572511D01*
X90706328Y-40504690D01*
X90728865Y-40438555D01*
X90773917Y-40399516D01*
X90866610Y-40352287D01*
X90887770Y-40336913D01*
X91032213Y-40231971D01*
X91032215Y-40231968D01*
X91032219Y-40231966D01*
X91176966Y-40087219D01*
X91176968Y-40087215D01*
X91176971Y-40087213D01*
X91229732Y-40014590D01*
X91297287Y-39921610D01*
X91390220Y-39739219D01*
X91453477Y-39544534D01*
X91485500Y-39342352D01*
X91485500Y-39137648D01*
X91453477Y-38935466D01*
X91390220Y-38740781D01*
X91390218Y-38740778D01*
X91390218Y-38740776D01*
X91334793Y-38632000D01*
X91297287Y-38558390D01*
X91267388Y-38517237D01*
X91176971Y-38392786D01*
X91032213Y-38248028D01*
X90866614Y-38127715D01*
X90860006Y-38124348D01*
X90773917Y-38080483D01*
X90723123Y-38032511D01*
X90706328Y-37964690D01*
X90728865Y-37898555D01*
X90773917Y-37859516D01*
X90866610Y-37812287D01*
X90887770Y-37796913D01*
X91032213Y-37691971D01*
X91032215Y-37691968D01*
X91032219Y-37691966D01*
X91176966Y-37547219D01*
X91176968Y-37547215D01*
X91176971Y-37547213D01*
X91297286Y-37381612D01*
X91390218Y-37199223D01*
X91390218Y-37199222D01*
X91390220Y-37199219D01*
X91453477Y-37004534D01*
X91485500Y-36802352D01*
X91485500Y-36597648D01*
X91463207Y-36456897D01*
X91453477Y-36395465D01*
X91390218Y-36200776D01*
X91352463Y-36126679D01*
X91297287Y-36018390D01*
X91270114Y-35980989D01*
X91176971Y-35852786D01*
X91032213Y-35708028D01*
X90866614Y-35587715D01*
X90860006Y-35584348D01*
X90773917Y-35540483D01*
X90723123Y-35492511D01*
X90706328Y-35424690D01*
X90728865Y-35358555D01*
X90773917Y-35319516D01*
X90866610Y-35272287D01*
X90887770Y-35256913D01*
X91032213Y-35151971D01*
X91032215Y-35151968D01*
X91032219Y-35151966D01*
X91176966Y-35007219D01*
X91176968Y-35007215D01*
X91176971Y-35007213D01*
X91229732Y-34934590D01*
X91297287Y-34841610D01*
X91390220Y-34659219D01*
X91453477Y-34464534D01*
X91485500Y-34262352D01*
X91485500Y-34057648D01*
X91453477Y-33855466D01*
X91439247Y-33811672D01*
X91424127Y-33765137D01*
X91390220Y-33660781D01*
X91390218Y-33660778D01*
X91390218Y-33660776D01*
X91356503Y-33594607D01*
X91297287Y-33478390D01*
X91289556Y-33467749D01*
X91176971Y-33312786D01*
X91032217Y-33168032D01*
X90955415Y-33112232D01*
X90912750Y-33056902D01*
X90906771Y-32987288D01*
X90939377Y-32925494D01*
X90997640Y-32891765D01*
X91018039Y-32886559D01*
X91074584Y-32863136D01*
X91074584Y-32863135D01*
X90314410Y-32102962D01*
X90377993Y-32085925D01*
X90492007Y-32020099D01*
X90585099Y-31927007D01*
X90650925Y-31812993D01*
X90667962Y-31749411D01*
X91428135Y-32509584D01*
X91428136Y-32509584D01*
X91451552Y-32453053D01*
X91469544Y-32402053D01*
X91489999Y-32259780D01*
X91490000Y-32259779D01*
X91490000Y-30980224D01*
X91489999Y-30980204D01*
X91487106Y-30926237D01*
X91487106Y-30926235D01*
X91451561Y-30786969D01*
X91451559Y-30786962D01*
X91428135Y-30730414D01*
X90667962Y-31490588D01*
X90650925Y-31427007D01*
X90585099Y-31312993D01*
X90492007Y-31219901D01*
X90377993Y-31154075D01*
X90314410Y-31137037D01*
X91074584Y-30376862D01*
X91018059Y-30353449D01*
X91018048Y-30353445D01*
X90989374Y-30343329D01*
X90932703Y-30302462D01*
X90907122Y-30237443D01*
X90920754Y-30168916D01*
X90957745Y-30126074D01*
X91032215Y-30071969D01*
X91032215Y-30071968D01*
X91032219Y-30071966D01*
X91176966Y-29927219D01*
X91176968Y-29927215D01*
X91176971Y-29927213D01*
X91266982Y-29803321D01*
X91297287Y-29761610D01*
X91390220Y-29579219D01*
X91453477Y-29384534D01*
X91485500Y-29182352D01*
X91485500Y-28977648D01*
X91453477Y-28775466D01*
X91390220Y-28580781D01*
X91390218Y-28580778D01*
X91390218Y-28580776D01*
X91356503Y-28514607D01*
X91297287Y-28398390D01*
X91289556Y-28387749D01*
X91176971Y-28232786D01*
X91032213Y-28088028D01*
X90866614Y-27967715D01*
X90860006Y-27964348D01*
X90773917Y-27920483D01*
X90723123Y-27872511D01*
X90706328Y-27804690D01*
X90728865Y-27738555D01*
X90773917Y-27699516D01*
X90866610Y-27652287D01*
X90887770Y-27636913D01*
X91032213Y-27531971D01*
X91032215Y-27531968D01*
X91032219Y-27531966D01*
X91176966Y-27387219D01*
X91176968Y-27387215D01*
X91176971Y-27387213D01*
X91237220Y-27304286D01*
X91297287Y-27221610D01*
X91390220Y-27039219D01*
X91453477Y-26844534D01*
X91485500Y-26642352D01*
X91485500Y-26437648D01*
X91453477Y-26235466D01*
X91390220Y-26040781D01*
X91390218Y-26040778D01*
X91390218Y-26040776D01*
X91355736Y-25973102D01*
X91297287Y-25858390D01*
X91283735Y-25839737D01*
X91176971Y-25692786D01*
X91032213Y-25548028D01*
X90866614Y-25427715D01*
X90796311Y-25391894D01*
X90773917Y-25380483D01*
X90723123Y-25332511D01*
X90706328Y-25264690D01*
X90728865Y-25198555D01*
X90773917Y-25159516D01*
X90866610Y-25112287D01*
X90887770Y-25096913D01*
X91032213Y-24991971D01*
X91032215Y-24991968D01*
X91032219Y-24991966D01*
X91170532Y-24853653D01*
X104274500Y-24853653D01*
X104274500Y-25011346D01*
X104305261Y-25165989D01*
X104305264Y-25166001D01*
X104365602Y-25311672D01*
X104365609Y-25311685D01*
X104453210Y-25442788D01*
X104453213Y-25442792D01*
X104564707Y-25554286D01*
X104564711Y-25554289D01*
X104695814Y-25641890D01*
X104695827Y-25641897D01*
X104816272Y-25691786D01*
X104841503Y-25702237D01*
X104996153Y-25732999D01*
X104996156Y-25733000D01*
X104996158Y-25733000D01*
X105153844Y-25733000D01*
X105153845Y-25732999D01*
X105308497Y-25702237D01*
X105454179Y-25641894D01*
X105585289Y-25554289D01*
X105696789Y-25442789D01*
X105784394Y-25311679D01*
X105844737Y-25165997D01*
X105875500Y-25011342D01*
X105875500Y-24853658D01*
X105875500Y-24853655D01*
X105875499Y-24853653D01*
X105844738Y-24699010D01*
X105844737Y-24699003D01*
X105844735Y-24698998D01*
X105784397Y-24553327D01*
X105784390Y-24553314D01*
X105696789Y-24422211D01*
X105696786Y-24422207D01*
X105585292Y-24310713D01*
X105585288Y-24310710D01*
X105454185Y-24223109D01*
X105454172Y-24223102D01*
X105308501Y-24162764D01*
X105308489Y-24162761D01*
X105153845Y-24132000D01*
X105153842Y-24132000D01*
X104996158Y-24132000D01*
X104996155Y-24132000D01*
X104841510Y-24162761D01*
X104841498Y-24162764D01*
X104695827Y-24223102D01*
X104695814Y-24223109D01*
X104564711Y-24310710D01*
X104564707Y-24310713D01*
X104453213Y-24422207D01*
X104453210Y-24422211D01*
X104365609Y-24553314D01*
X104365602Y-24553327D01*
X104305264Y-24698998D01*
X104305261Y-24699010D01*
X104274500Y-24853653D01*
X91170532Y-24853653D01*
X91176966Y-24847219D01*
X91297287Y-24681610D01*
X91390220Y-24499219D01*
X91453477Y-24304534D01*
X91485500Y-24102352D01*
X91485500Y-23897648D01*
X91453477Y-23695466D01*
X91390220Y-23500781D01*
X91390218Y-23500778D01*
X91390218Y-23500776D01*
X91356503Y-23434607D01*
X91297287Y-23318390D01*
X91246493Y-23248477D01*
X91176971Y-23152786D01*
X91032213Y-23008028D01*
X90866614Y-22887715D01*
X90860006Y-22884348D01*
X90773917Y-22840483D01*
X90723123Y-22792511D01*
X90706328Y-22724690D01*
X90728865Y-22658555D01*
X90773917Y-22619516D01*
X90866610Y-22572287D01*
X90916602Y-22535966D01*
X91032213Y-22451971D01*
X91032215Y-22451968D01*
X91032219Y-22451966D01*
X91176966Y-22307219D01*
X91176968Y-22307215D01*
X91176971Y-22307213D01*
X91229732Y-22234590D01*
X91297287Y-22141610D01*
X91390220Y-21959219D01*
X91453477Y-21764534D01*
X91485500Y-21562352D01*
X91485500Y-21357648D01*
X91453477Y-21155466D01*
X91390220Y-20960781D01*
X91390218Y-20960778D01*
X91390218Y-20960776D01*
X91355118Y-20891890D01*
X91297287Y-20778390D01*
X91289556Y-20767749D01*
X91176971Y-20612786D01*
X91032217Y-20468032D01*
X90955415Y-20412232D01*
X90912750Y-20356902D01*
X90906771Y-20287288D01*
X90939377Y-20225494D01*
X90997640Y-20191765D01*
X91018039Y-20186559D01*
X91074584Y-20163136D01*
X91074584Y-20163135D01*
X90314410Y-19402962D01*
X90377993Y-19385925D01*
X90492007Y-19320099D01*
X90585099Y-19227007D01*
X90650925Y-19112993D01*
X90667962Y-19049411D01*
X91428135Y-19809584D01*
X91428136Y-19809584D01*
X91451552Y-19753053D01*
X91469544Y-19702053D01*
X91489999Y-19559780D01*
X91490000Y-19559779D01*
X91490000Y-18280224D01*
X91489999Y-18280204D01*
X91487106Y-18226237D01*
X91487106Y-18226235D01*
X91451561Y-18086969D01*
X91451559Y-18086962D01*
X91428135Y-18030414D01*
X90667962Y-18790588D01*
X90650925Y-18727007D01*
X90585099Y-18612993D01*
X90492007Y-18519901D01*
X90377993Y-18454075D01*
X90314410Y-18437037D01*
X91074584Y-17676862D01*
X91018059Y-17653449D01*
X91018048Y-17653445D01*
X90989374Y-17643329D01*
X90932703Y-17602462D01*
X90907122Y-17537443D01*
X90920754Y-17468916D01*
X90957745Y-17426074D01*
X91032215Y-17371969D01*
X91032215Y-17371968D01*
X91032219Y-17371966D01*
X91176966Y-17227219D01*
X91176968Y-17227215D01*
X91176971Y-17227213D01*
X91229732Y-17154590D01*
X91297287Y-17061610D01*
X91373812Y-16911421D01*
X95524500Y-16911421D01*
X95524500Y-17088578D01*
X95552214Y-17263556D01*
X95606956Y-17432039D01*
X95606957Y-17432042D01*
X95687386Y-17589890D01*
X95791517Y-17733214D01*
X95916786Y-17858483D01*
X96060110Y-17962614D01*
X96137529Y-18002061D01*
X96217957Y-18043042D01*
X96217960Y-18043043D01*
X96302201Y-18070414D01*
X96386445Y-18097786D01*
X96561421Y-18125500D01*
X96561422Y-18125500D01*
X96738578Y-18125500D01*
X96738579Y-18125500D01*
X96913555Y-18097786D01*
X97082042Y-18043042D01*
X97239890Y-17962614D01*
X97383214Y-17858483D01*
X97508483Y-17733214D01*
X97612614Y-17589890D01*
X97693042Y-17432042D01*
X97747786Y-17263555D01*
X97775500Y-17088579D01*
X97775500Y-16911421D01*
X100374500Y-16911421D01*
X100374500Y-17088578D01*
X100402214Y-17263556D01*
X100456956Y-17432039D01*
X100456957Y-17432042D01*
X100537386Y-17589890D01*
X100641517Y-17733214D01*
X100766786Y-17858483D01*
X100910110Y-17962614D01*
X100987529Y-18002061D01*
X101067957Y-18043042D01*
X101067960Y-18043043D01*
X101152201Y-18070414D01*
X101236445Y-18097786D01*
X101411421Y-18125500D01*
X101411422Y-18125500D01*
X101588578Y-18125500D01*
X101588579Y-18125500D01*
X101763555Y-18097786D01*
X101932042Y-18043042D01*
X102089890Y-17962614D01*
X102233214Y-17858483D01*
X102358483Y-17733214D01*
X102462614Y-17589890D01*
X102543042Y-17432042D01*
X102597786Y-17263555D01*
X102625500Y-17088579D01*
X102625500Y-16911421D01*
X102597786Y-16736445D01*
X102543042Y-16567958D01*
X102543042Y-16567957D01*
X102502061Y-16487529D01*
X102462614Y-16410110D01*
X102358483Y-16266786D01*
X102233214Y-16141517D01*
X102089890Y-16037386D01*
X101932042Y-15956957D01*
X101932039Y-15956956D01*
X101763556Y-15902214D01*
X101676067Y-15888357D01*
X101588579Y-15874500D01*
X101411421Y-15874500D01*
X101371797Y-15880776D01*
X101236443Y-15902214D01*
X101067960Y-15956956D01*
X101067957Y-15956957D01*
X100910109Y-16037386D01*
X100857697Y-16075466D01*
X100766786Y-16141517D01*
X100766784Y-16141519D01*
X100766783Y-16141519D01*
X100641519Y-16266783D01*
X100641519Y-16266784D01*
X100641517Y-16266786D01*
X100596796Y-16328338D01*
X100537386Y-16410109D01*
X100456957Y-16567957D01*
X100456956Y-16567960D01*
X100402214Y-16736443D01*
X100374500Y-16911421D01*
X97775500Y-16911421D01*
X97747786Y-16736445D01*
X97693042Y-16567958D01*
X97693042Y-16567957D01*
X97652061Y-16487529D01*
X97612614Y-16410110D01*
X97508483Y-16266786D01*
X97383214Y-16141517D01*
X97239890Y-16037386D01*
X97082042Y-15956957D01*
X97082039Y-15956956D01*
X96913556Y-15902214D01*
X96826067Y-15888357D01*
X96738579Y-15874500D01*
X96561421Y-15874500D01*
X96521797Y-15880776D01*
X96386443Y-15902214D01*
X96217960Y-15956956D01*
X96217957Y-15956957D01*
X96060109Y-16037386D01*
X96007697Y-16075466D01*
X95916786Y-16141517D01*
X95916784Y-16141519D01*
X95916783Y-16141519D01*
X95791519Y-16266783D01*
X95791519Y-16266784D01*
X95791517Y-16266786D01*
X95746796Y-16328338D01*
X95687386Y-16410109D01*
X95606957Y-16567957D01*
X95606956Y-16567960D01*
X95552214Y-16736443D01*
X95524500Y-16911421D01*
X91373812Y-16911421D01*
X91390220Y-16879219D01*
X91453477Y-16684534D01*
X91485500Y-16482352D01*
X91485500Y-16277648D01*
X91453477Y-16075466D01*
X91390220Y-15880781D01*
X91390218Y-15880778D01*
X91390218Y-15880776D01*
X91356503Y-15814607D01*
X91297287Y-15698390D01*
X91289556Y-15687749D01*
X91176971Y-15532786D01*
X91032217Y-15388032D01*
X91032212Y-15388028D01*
X90951440Y-15329344D01*
X90908774Y-15274015D01*
X90902795Y-15204401D01*
X90935400Y-15142606D01*
X90987433Y-15110641D01*
X91074606Y-15083478D01*
X91220185Y-14995472D01*
X91340472Y-14875185D01*
X91428478Y-14729606D01*
X91479086Y-14567196D01*
X91485500Y-14496616D01*
X91485500Y-13183384D01*
X91479086Y-13112804D01*
X91428478Y-12950394D01*
X91340472Y-12804815D01*
X91340470Y-12804813D01*
X91340469Y-12804811D01*
X91247339Y-12711681D01*
X91213854Y-12650358D01*
X91218838Y-12580666D01*
X91260710Y-12524733D01*
X91326174Y-12500316D01*
X91335020Y-12500000D01*
X95882785Y-12500000D01*
X95949824Y-12519685D01*
X95995579Y-12572489D01*
X96005523Y-12641647D01*
X95976498Y-12705203D01*
X95921104Y-12741930D01*
X95896742Y-12749846D01*
X95850776Y-12764781D01*
X95668386Y-12857715D01*
X95502786Y-12978028D01*
X95358028Y-13122786D01*
X95237715Y-13288386D01*
X95144781Y-13470776D01*
X95081522Y-13665465D01*
X95049500Y-13867648D01*
X95049500Y-14072351D01*
X95081522Y-14274534D01*
X95144781Y-14469223D01*
X95186582Y-14551260D01*
X95232762Y-14641894D01*
X95237715Y-14651613D01*
X95358028Y-14817213D01*
X95502786Y-14961971D01*
X95657749Y-15074556D01*
X95668390Y-15082287D01*
X95770051Y-15134086D01*
X95850776Y-15175218D01*
X95850778Y-15175218D01*
X95850781Y-15175220D01*
X95940591Y-15204401D01*
X96045465Y-15238477D01*
X96146557Y-15254488D01*
X96247648Y-15270500D01*
X96247649Y-15270500D01*
X96452351Y-15270500D01*
X96452352Y-15270500D01*
X96654534Y-15238477D01*
X96849219Y-15175220D01*
X97031610Y-15082287D01*
X97151106Y-14995469D01*
X97197213Y-14961971D01*
X97197215Y-14961968D01*
X97197219Y-14961966D01*
X97341966Y-14817219D01*
X97341968Y-14817215D01*
X97341971Y-14817213D01*
X97425504Y-14702238D01*
X97462287Y-14651610D01*
X97555220Y-14469219D01*
X97618477Y-14274534D01*
X97650500Y-14072352D01*
X97650500Y-13867648D01*
X97618477Y-13665466D01*
X97555220Y-13470781D01*
X97555218Y-13470778D01*
X97555218Y-13470776D01*
X97521503Y-13404607D01*
X97462287Y-13288390D01*
X97454556Y-13277749D01*
X97341971Y-13122786D01*
X97197213Y-12978028D01*
X97031613Y-12857715D01*
X97031612Y-12857714D01*
X97031610Y-12857713D01*
X96974653Y-12828691D01*
X96849223Y-12764781D01*
X96815807Y-12753923D01*
X96778895Y-12741930D01*
X96721221Y-12702493D01*
X96694023Y-12638134D01*
X96705938Y-12569288D01*
X96753182Y-12517812D01*
X96817215Y-12500000D01*
X101332785Y-12500000D01*
X101399824Y-12519685D01*
X101445579Y-12572489D01*
X101455523Y-12641647D01*
X101426498Y-12705203D01*
X101371104Y-12741930D01*
X101346742Y-12749846D01*
X101300776Y-12764781D01*
X101118386Y-12857715D01*
X100952786Y-12978028D01*
X100808028Y-13122786D01*
X100687715Y-13288386D01*
X100594781Y-13470776D01*
X100531522Y-13665465D01*
X100499500Y-13867648D01*
X100499500Y-14072351D01*
X100531522Y-14274534D01*
X100594781Y-14469223D01*
X100636582Y-14551260D01*
X100682762Y-14641894D01*
X100687715Y-14651613D01*
X100808028Y-14817213D01*
X100952786Y-14961971D01*
X101107749Y-15074556D01*
X101118390Y-15082287D01*
X101220051Y-15134086D01*
X101300776Y-15175218D01*
X101300778Y-15175218D01*
X101300781Y-15175220D01*
X101390591Y-15204401D01*
X101495465Y-15238477D01*
X101596557Y-15254488D01*
X101697648Y-15270500D01*
X101697649Y-15270500D01*
X101902351Y-15270500D01*
X101902352Y-15270500D01*
X102104534Y-15238477D01*
X102299219Y-15175220D01*
X102481610Y-15082287D01*
X102601106Y-14995469D01*
X102647213Y-14961971D01*
X102647215Y-14961968D01*
X102647219Y-14961966D01*
X102791966Y-14817219D01*
X102791968Y-14817215D01*
X102791971Y-14817213D01*
X102875504Y-14702238D01*
X102912287Y-14651610D01*
X103005220Y-14469219D01*
X103068477Y-14274534D01*
X103100500Y-14072352D01*
X103100500Y-13867648D01*
X103068477Y-13665466D01*
X103005220Y-13470781D01*
X103005218Y-13470778D01*
X103005218Y-13470776D01*
X102971503Y-13404607D01*
X102912287Y-13288390D01*
X102904556Y-13277749D01*
X102791971Y-13122786D01*
X102647213Y-12978028D01*
X102481613Y-12857715D01*
X102481612Y-12857714D01*
X102481610Y-12857713D01*
X102424653Y-12828691D01*
X102299223Y-12764781D01*
X102265807Y-12753923D01*
X102228895Y-12741930D01*
X102171221Y-12702493D01*
X102144023Y-12638134D01*
X102155938Y-12569288D01*
X102203182Y-12517812D01*
X102267215Y-12500000D01*
X107215313Y-12500000D01*
X107282352Y-12519685D01*
X107328107Y-12572489D01*
X107338051Y-12641647D01*
X107309026Y-12705203D01*
X107286766Y-12724072D01*
X107287331Y-12724849D01*
X107117786Y-12848028D01*
X106973028Y-12992786D01*
X106852715Y-13158386D01*
X106759781Y-13340776D01*
X106696522Y-13535465D01*
X106664500Y-13737648D01*
X106664500Y-13942351D01*
X106696522Y-14144534D01*
X106759781Y-14339223D01*
X106812553Y-14442792D01*
X106842496Y-14501559D01*
X106852715Y-14521613D01*
X106973028Y-14687213D01*
X107117786Y-14831971D01*
X107259461Y-14934902D01*
X107283390Y-14952287D01*
X107368139Y-14995469D01*
X107376080Y-14999515D01*
X107426876Y-15047490D01*
X107443671Y-15115311D01*
X107421134Y-15181446D01*
X107376080Y-15220485D01*
X107283386Y-15267715D01*
X107117786Y-15388028D01*
X106973028Y-15532786D01*
X106852715Y-15698386D01*
X106759781Y-15880776D01*
X106696522Y-16075465D01*
X106669120Y-16248477D01*
X106664500Y-16277648D01*
X106664500Y-16482352D01*
X106664603Y-16483000D01*
X106696522Y-16684534D01*
X106759781Y-16879223D01*
X106852715Y-17061613D01*
X106973028Y-17227213D01*
X107117782Y-17371967D01*
X107117787Y-17371971D01*
X107194583Y-17427767D01*
X107237249Y-17483097D01*
X107243228Y-17552710D01*
X107210622Y-17614505D01*
X107152365Y-17648233D01*
X107131973Y-17653437D01*
X107131962Y-17653441D01*
X107075415Y-17676863D01*
X107835589Y-18437037D01*
X107772007Y-18454075D01*
X107657993Y-18519901D01*
X107564901Y-18612993D01*
X107499075Y-18727007D01*
X107482037Y-18790589D01*
X106721863Y-18030415D01*
X106721862Y-18030415D01*
X106698446Y-18086947D01*
X106698431Y-18086987D01*
X106680457Y-18137939D01*
X106680455Y-18137946D01*
X106660000Y-18280219D01*
X106660000Y-19559785D01*
X106662893Y-19613762D01*
X106662893Y-19613764D01*
X106698438Y-19753030D01*
X106698442Y-19753043D01*
X106721862Y-19809584D01*
X107482037Y-19049410D01*
X107499075Y-19112993D01*
X107564901Y-19227007D01*
X107657993Y-19320099D01*
X107772007Y-19385925D01*
X107835589Y-19402962D01*
X107075414Y-20163135D01*
X107131960Y-20186557D01*
X107131986Y-20186567D01*
X107160621Y-20196669D01*
X107217294Y-20237534D01*
X107242876Y-20302552D01*
X107229246Y-20371080D01*
X107192256Y-20413924D01*
X107117782Y-20468032D01*
X106973028Y-20612786D01*
X106852715Y-20778386D01*
X106759781Y-20960776D01*
X106696522Y-21155465D01*
X106664500Y-21357648D01*
X106664500Y-21562351D01*
X106696522Y-21764534D01*
X106759781Y-21959223D01*
X106852715Y-22141613D01*
X106973028Y-22307213D01*
X107117786Y-22451971D01*
X107233398Y-22535966D01*
X107283390Y-22572287D01*
X107374840Y-22618883D01*
X107376080Y-22619515D01*
X107426876Y-22667490D01*
X107443671Y-22735311D01*
X107421134Y-22801446D01*
X107376080Y-22840485D01*
X107283386Y-22887715D01*
X107117786Y-23008028D01*
X106973028Y-23152786D01*
X106852715Y-23318386D01*
X106759781Y-23500776D01*
X106696522Y-23695465D01*
X106664500Y-23897648D01*
X106664500Y-24102351D01*
X106696522Y-24304534D01*
X106759781Y-24499223D01*
X106852715Y-24681613D01*
X106973028Y-24847213D01*
X107117786Y-24991971D01*
X107272749Y-25104556D01*
X107283390Y-25112287D01*
X107355137Y-25148844D01*
X107376080Y-25159515D01*
X107426876Y-25207490D01*
X107443671Y-25275311D01*
X107421134Y-25341446D01*
X107376080Y-25380485D01*
X107283386Y-25427715D01*
X107117786Y-25548028D01*
X106973028Y-25692786D01*
X106852715Y-25858386D01*
X106759781Y-26040776D01*
X106696522Y-26235465D01*
X106664500Y-26437648D01*
X106664500Y-26642351D01*
X106696522Y-26844534D01*
X106759781Y-27039223D01*
X106823691Y-27164653D01*
X106838029Y-27192792D01*
X106852715Y-27221613D01*
X106973028Y-27387213D01*
X107117786Y-27531971D01*
X107272749Y-27644556D01*
X107283390Y-27652287D01*
X107374840Y-27698883D01*
X107376080Y-27699515D01*
X107426876Y-27747490D01*
X107443671Y-27815311D01*
X107421134Y-27881446D01*
X107376080Y-27920485D01*
X107283386Y-27967715D01*
X107117786Y-28088028D01*
X106973028Y-28232786D01*
X106852715Y-28398386D01*
X106759781Y-28580776D01*
X106696522Y-28775465D01*
X106664500Y-28977648D01*
X106664500Y-29182351D01*
X106696522Y-29384534D01*
X106759781Y-29579223D01*
X106852715Y-29761613D01*
X106973028Y-29927213D01*
X107117782Y-30071967D01*
X107117787Y-30071971D01*
X107194063Y-30127389D01*
X107236729Y-30182719D01*
X107242708Y-30252332D01*
X107210102Y-30314127D01*
X107151845Y-30347855D01*
X107131776Y-30352977D01*
X107131766Y-30352980D01*
X107058280Y-30383419D01*
X107058252Y-30383431D01*
X107009451Y-30406779D01*
X107009446Y-30406782D01*
X106894268Y-30493005D01*
X106894256Y-30493015D01*
X106838019Y-30549252D01*
X106801843Y-30589524D01*
X106801837Y-30589532D01*
X106728426Y-30713263D01*
X106697978Y-30786774D01*
X106697970Y-30786795D01*
X106679976Y-30837800D01*
X106659500Y-30980219D01*
X106659500Y-32259784D01*
X106662395Y-32313814D01*
X106662396Y-32313818D01*
X106697976Y-32453221D01*
X106697980Y-32453233D01*
X106728419Y-32526719D01*
X106728431Y-32526747D01*
X106751779Y-32575548D01*
X106751781Y-32575551D01*
X106838006Y-32690733D01*
X106838010Y-32690737D01*
X106838015Y-32690743D01*
X106894252Y-32746980D01*
X106894261Y-32746988D01*
X106894267Y-32746994D01*
X106934524Y-32783156D01*
X106934532Y-32783162D01*
X107058263Y-32856573D01*
X107058262Y-32856573D01*
X107065329Y-32859500D01*
X107131774Y-32887022D01*
X107147645Y-32892621D01*
X107160133Y-32897027D01*
X107216805Y-32937894D01*
X107242386Y-33002912D01*
X107228754Y-33071439D01*
X107191765Y-33114281D01*
X107117782Y-33168032D01*
X106973028Y-33312786D01*
X106852715Y-33478386D01*
X106759781Y-33660776D01*
X106696522Y-33855465D01*
X106664500Y-34057648D01*
X106664500Y-34262351D01*
X106696522Y-34464534D01*
X106759781Y-34659223D01*
X106776886Y-34692792D01*
X106844258Y-34825017D01*
X106852715Y-34841613D01*
X106973028Y-35007213D01*
X107117786Y-35151971D01*
X107272749Y-35264556D01*
X107283390Y-35272287D01*
X107374840Y-35318883D01*
X107376080Y-35319515D01*
X107426876Y-35367490D01*
X107443671Y-35435311D01*
X107421134Y-35501446D01*
X107376080Y-35540485D01*
X107283386Y-35587715D01*
X107117786Y-35708028D01*
X106973028Y-35852786D01*
X106852715Y-36018386D01*
X106759781Y-36200776D01*
X106696522Y-36395465D01*
X106664500Y-36597648D01*
X106664500Y-36802351D01*
X106696522Y-37004534D01*
X106759781Y-37199223D01*
X106852714Y-37381612D01*
X106973028Y-37547213D01*
X107117786Y-37691971D01*
X107272749Y-37804556D01*
X107283390Y-37812287D01*
X107374840Y-37858883D01*
X107376080Y-37859515D01*
X107426876Y-37907490D01*
X107443671Y-37975311D01*
X107421134Y-38041446D01*
X107376080Y-38080485D01*
X107283386Y-38127715D01*
X107117786Y-38248028D01*
X106973028Y-38392786D01*
X106852715Y-38558386D01*
X106759781Y-38740776D01*
X106696522Y-38935465D01*
X106664500Y-39137648D01*
X106664500Y-39342351D01*
X106696522Y-39544534D01*
X106759781Y-39739223D01*
X106852715Y-39921613D01*
X106973028Y-40087213D01*
X107117786Y-40231971D01*
X107272749Y-40344556D01*
X107283390Y-40352287D01*
X107374840Y-40398883D01*
X107376080Y-40399515D01*
X107426876Y-40447490D01*
X107443671Y-40515311D01*
X107421134Y-40581446D01*
X107376080Y-40620485D01*
X107283386Y-40667715D01*
X107117786Y-40788028D01*
X106973028Y-40932786D01*
X106852715Y-41098386D01*
X106759781Y-41280776D01*
X106696522Y-41475465D01*
X106680765Y-41574954D01*
X106664500Y-41677648D01*
X106664500Y-41882352D01*
X106664861Y-41884629D01*
X106696522Y-42084534D01*
X106759781Y-42279223D01*
X106852715Y-42461613D01*
X106973028Y-42627213D01*
X107117782Y-42771967D01*
X107117787Y-42771971D01*
X107194583Y-42827767D01*
X107237249Y-42883097D01*
X107243228Y-42952710D01*
X107210622Y-43014505D01*
X107152365Y-43048233D01*
X107131973Y-43053437D01*
X107131962Y-43053441D01*
X107075415Y-43076863D01*
X107835589Y-43837037D01*
X107772007Y-43854075D01*
X107657993Y-43919901D01*
X107564901Y-44012993D01*
X107499075Y-44127007D01*
X107482037Y-44190589D01*
X106721863Y-43430415D01*
X106721862Y-43430415D01*
X106698446Y-43486947D01*
X106698431Y-43486987D01*
X106680457Y-43537939D01*
X106680455Y-43537946D01*
X106660000Y-43680219D01*
X106660000Y-44959785D01*
X106662893Y-45013762D01*
X106662893Y-45013764D01*
X106698438Y-45153030D01*
X106698442Y-45153043D01*
X106721862Y-45209584D01*
X107482037Y-44449410D01*
X107499075Y-44512993D01*
X107564901Y-44627007D01*
X107657993Y-44720099D01*
X107772007Y-44785925D01*
X107835589Y-44802962D01*
X107075414Y-45563135D01*
X107131960Y-45586557D01*
X107131986Y-45586567D01*
X107160621Y-45596669D01*
X107217294Y-45637534D01*
X107242876Y-45702552D01*
X107229246Y-45771080D01*
X107192256Y-45813924D01*
X107117782Y-45868032D01*
X106973028Y-46012786D01*
X106852715Y-46178386D01*
X106759781Y-46360776D01*
X106696522Y-46555465D01*
X106664500Y-46757648D01*
X106664500Y-46962351D01*
X106696522Y-47164531D01*
X106759781Y-47359223D01*
X106852715Y-47541613D01*
X106973028Y-47707213D01*
X107117786Y-47851971D01*
X107247129Y-47945942D01*
X107283390Y-47972287D01*
X107374840Y-48018883D01*
X107376080Y-48019515D01*
X107426876Y-48067490D01*
X107443671Y-48135311D01*
X107421134Y-48201446D01*
X107376080Y-48240485D01*
X107283386Y-48287715D01*
X107117786Y-48408028D01*
X106973028Y-48552786D01*
X106852715Y-48718386D01*
X106759781Y-48900776D01*
X106696522Y-49095465D01*
X106664500Y-49297648D01*
X106664500Y-49502351D01*
X106696522Y-49704534D01*
X106759781Y-49899223D01*
X106852715Y-50081613D01*
X106973028Y-50247213D01*
X107117786Y-50391971D01*
X107272749Y-50504556D01*
X107283390Y-50512287D01*
X107374840Y-50558883D01*
X107376080Y-50559515D01*
X107426876Y-50607490D01*
X107443671Y-50675311D01*
X107421134Y-50741446D01*
X107376080Y-50780485D01*
X107283386Y-50827715D01*
X107117786Y-50948028D01*
X106973028Y-51092786D01*
X106852715Y-51258386D01*
X106759781Y-51440776D01*
X106696522Y-51635465D01*
X106664500Y-51837648D01*
X106664500Y-52042351D01*
X106696522Y-52244534D01*
X106759781Y-52439223D01*
X106852715Y-52621613D01*
X106973028Y-52787213D01*
X107117786Y-52931971D01*
X107272749Y-53044556D01*
X107283390Y-53052287D01*
X107374840Y-53098883D01*
X107376080Y-53099515D01*
X107426876Y-53147490D01*
X107443671Y-53215311D01*
X107421134Y-53281446D01*
X107376080Y-53320485D01*
X107283386Y-53367715D01*
X107117786Y-53488028D01*
X106973028Y-53632786D01*
X106852715Y-53798386D01*
X106759781Y-53980776D01*
X106696522Y-54175465D01*
X106664500Y-54377648D01*
X106664500Y-54582351D01*
X106696522Y-54784534D01*
X106759781Y-54979223D01*
X106852715Y-55161613D01*
X106973028Y-55327213D01*
X107117782Y-55471967D01*
X107117787Y-55471971D01*
X107194583Y-55527767D01*
X107237249Y-55583097D01*
X107243228Y-55652710D01*
X107210622Y-55714505D01*
X107152365Y-55748233D01*
X107131973Y-55753437D01*
X107131962Y-55753441D01*
X107075415Y-55776863D01*
X107835589Y-56537037D01*
X107772007Y-56554075D01*
X107657993Y-56619901D01*
X107564901Y-56712993D01*
X107499075Y-56827007D01*
X107482037Y-56890589D01*
X106721863Y-56130415D01*
X106721862Y-56130415D01*
X106698446Y-56186947D01*
X106698431Y-56186987D01*
X106680457Y-56237939D01*
X106680455Y-56237946D01*
X106660000Y-56380219D01*
X106660000Y-57659785D01*
X106662893Y-57713762D01*
X106662893Y-57713764D01*
X106698438Y-57853030D01*
X106698442Y-57853043D01*
X106721862Y-57909584D01*
X107482037Y-57149410D01*
X107499075Y-57212993D01*
X107564901Y-57327007D01*
X107657993Y-57420099D01*
X107772007Y-57485925D01*
X107835589Y-57502962D01*
X107075414Y-58263135D01*
X107131960Y-58286557D01*
X107131986Y-58286567D01*
X107160621Y-58296669D01*
X107217294Y-58337534D01*
X107242876Y-58402552D01*
X107229246Y-58471080D01*
X107192256Y-58513924D01*
X107117782Y-58568032D01*
X106973028Y-58712786D01*
X106852715Y-58878386D01*
X106759781Y-59060776D01*
X106696522Y-59255465D01*
X106664500Y-59457648D01*
X106664500Y-59662351D01*
X106696522Y-59864534D01*
X106759781Y-60059223D01*
X106852715Y-60241613D01*
X106973028Y-60407213D01*
X107117786Y-60551971D01*
X107272749Y-60664556D01*
X107283390Y-60672287D01*
X107374840Y-60718883D01*
X107376080Y-60719515D01*
X107426876Y-60767490D01*
X107443671Y-60835311D01*
X107421134Y-60901446D01*
X107376080Y-60940485D01*
X107283386Y-60987715D01*
X107117786Y-61108028D01*
X106973028Y-61252786D01*
X106852715Y-61418386D01*
X106759781Y-61600776D01*
X106696522Y-61795465D01*
X106664500Y-61997648D01*
X106664500Y-62202351D01*
X106696522Y-62404534D01*
X106759781Y-62599223D01*
X106852715Y-62781613D01*
X106973028Y-62947213D01*
X107117786Y-63091971D01*
X107272749Y-63204556D01*
X107283390Y-63212287D01*
X107399607Y-63271503D01*
X107465776Y-63305218D01*
X107465778Y-63305218D01*
X107465781Y-63305220D01*
X107570137Y-63339127D01*
X107660465Y-63368477D01*
X107761557Y-63384488D01*
X107862648Y-63400500D01*
X107862649Y-63400500D01*
X108067351Y-63400500D01*
X108067352Y-63400500D01*
X108269534Y-63368477D01*
X108464219Y-63305220D01*
X108646610Y-63212287D01*
X108739590Y-63144732D01*
X108812213Y-63091971D01*
X108812215Y-63091968D01*
X108812219Y-63091966D01*
X108956966Y-62947219D01*
X108956968Y-62947215D01*
X108956971Y-62947213D01*
X109009732Y-62874590D01*
X109077287Y-62781610D01*
X109170220Y-62599219D01*
X109233477Y-62404534D01*
X109265500Y-62202352D01*
X109265500Y-61997648D01*
X109247597Y-61884616D01*
X109233477Y-61795465D01*
X109170218Y-61600776D01*
X109136503Y-61534607D01*
X109077287Y-61418390D01*
X109069556Y-61407749D01*
X108956971Y-61252786D01*
X108812213Y-61108028D01*
X108646614Y-60987715D01*
X108640006Y-60984348D01*
X108553917Y-60940483D01*
X108503123Y-60892511D01*
X108486328Y-60824690D01*
X108508865Y-60758555D01*
X108553917Y-60719516D01*
X108646610Y-60672287D01*
X108667770Y-60656913D01*
X108812213Y-60551971D01*
X108812215Y-60551968D01*
X108812219Y-60551966D01*
X108956966Y-60407219D01*
X108956968Y-60407215D01*
X108956971Y-60407213D01*
X109009732Y-60334590D01*
X109077287Y-60241610D01*
X109170220Y-60059219D01*
X109233477Y-59864534D01*
X109265500Y-59662352D01*
X109265500Y-59457648D01*
X109233477Y-59255466D01*
X109226177Y-59233000D01*
X109170218Y-59060776D01*
X109135844Y-58993314D01*
X109077287Y-58878390D01*
X109065532Y-58862211D01*
X108956971Y-58712786D01*
X108812213Y-58568028D01*
X108646614Y-58447715D01*
X108638410Y-58443535D01*
X108560703Y-58403941D01*
X108509908Y-58355968D01*
X108493113Y-58288147D01*
X108515650Y-58222012D01*
X108558546Y-58184099D01*
X108624503Y-58148843D01*
X108624515Y-58148837D01*
X108693913Y-58102465D01*
X108094410Y-57502962D01*
X108157993Y-57485925D01*
X108272007Y-57420099D01*
X108365099Y-57327007D01*
X108430925Y-57212993D01*
X108447962Y-57149410D01*
X109047464Y-57748913D01*
X109047465Y-57748913D01*
X109093837Y-57679515D01*
X109093838Y-57679511D01*
X109140509Y-57592198D01*
X109200814Y-57446612D01*
X109229555Y-57351864D01*
X109260298Y-57197302D01*
X109260298Y-57197299D01*
X109270000Y-57098789D01*
X109270000Y-56941210D01*
X109260298Y-56842700D01*
X109260298Y-56842697D01*
X109229555Y-56688135D01*
X109200814Y-56593387D01*
X109140509Y-56447801D01*
X109093844Y-56360498D01*
X109093838Y-56360488D01*
X109047465Y-56291085D01*
X108447962Y-56890588D01*
X108430925Y-56827007D01*
X108365099Y-56712993D01*
X108272007Y-56619901D01*
X108157993Y-56554075D01*
X108094410Y-56537037D01*
X108693912Y-55937534D01*
X108624511Y-55891161D01*
X108624500Y-55891155D01*
X108558545Y-55855900D01*
X108508701Y-55806937D01*
X108493241Y-55738799D01*
X108517073Y-55673119D01*
X108560702Y-55636059D01*
X108646610Y-55592287D01*
X108737745Y-55526074D01*
X108812213Y-55471971D01*
X108812215Y-55471968D01*
X108812219Y-55471966D01*
X108956966Y-55327219D01*
X108956968Y-55327215D01*
X108956971Y-55327213D01*
X109009732Y-55254590D01*
X109077287Y-55161610D01*
X109170220Y-54979219D01*
X109233477Y-54784534D01*
X109265500Y-54582352D01*
X109265500Y-54377648D01*
X109242590Y-54233000D01*
X109233477Y-54175465D01*
X109170218Y-53980776D01*
X109136503Y-53914607D01*
X109077287Y-53798390D01*
X109069556Y-53787749D01*
X108956971Y-53632786D01*
X108812213Y-53488028D01*
X108646614Y-53367715D01*
X108640006Y-53364348D01*
X108553917Y-53320483D01*
X108503123Y-53272511D01*
X108486328Y-53204690D01*
X108508865Y-53138555D01*
X108553917Y-53099516D01*
X108646610Y-53052287D01*
X108667770Y-53036913D01*
X108812213Y-52931971D01*
X108812215Y-52931968D01*
X108812219Y-52931966D01*
X108956966Y-52787219D01*
X108956968Y-52787215D01*
X108956971Y-52787213D01*
X109047387Y-52662764D01*
X109077287Y-52621610D01*
X109170220Y-52439219D01*
X109233477Y-52244534D01*
X109265500Y-52042352D01*
X109265500Y-51837648D01*
X109233477Y-51635466D01*
X109170220Y-51440781D01*
X109170218Y-51440778D01*
X109170218Y-51440776D01*
X109136503Y-51374607D01*
X109077287Y-51258390D01*
X109069556Y-51247749D01*
X108956971Y-51092786D01*
X108812213Y-50948028D01*
X108646614Y-50827715D01*
X108640006Y-50824348D01*
X108553917Y-50780483D01*
X108503123Y-50732511D01*
X108486328Y-50664690D01*
X108508865Y-50598555D01*
X108553917Y-50559516D01*
X108646610Y-50512287D01*
X108717024Y-50461129D01*
X108812213Y-50391971D01*
X108812215Y-50391968D01*
X108812219Y-50391966D01*
X108956966Y-50247219D01*
X108956968Y-50247215D01*
X108956971Y-50247213D01*
X109009732Y-50174590D01*
X109077287Y-50081610D01*
X109170220Y-49899219D01*
X109233477Y-49704534D01*
X109265500Y-49502352D01*
X109265500Y-49297648D01*
X109233477Y-49095466D01*
X109170220Y-48900781D01*
X109170218Y-48900778D01*
X109170218Y-48900776D01*
X109113626Y-48789709D01*
X109077287Y-48718390D01*
X109065550Y-48702235D01*
X108956971Y-48552786D01*
X108812213Y-48408028D01*
X108646614Y-48287715D01*
X108640006Y-48284348D01*
X108553917Y-48240483D01*
X108503123Y-48192511D01*
X108486328Y-48124690D01*
X108508865Y-48058555D01*
X108553917Y-48019516D01*
X108646610Y-47972287D01*
X108682871Y-47945942D01*
X108812213Y-47851971D01*
X108812215Y-47851968D01*
X108812219Y-47851966D01*
X108956966Y-47707219D01*
X108956968Y-47707215D01*
X108956971Y-47707213D01*
X109035601Y-47598986D01*
X109077287Y-47541610D01*
X109170220Y-47359219D01*
X109233477Y-47164534D01*
X109233476Y-47164534D01*
X109233478Y-47164531D01*
X109265500Y-46962351D01*
X109265500Y-46757648D01*
X109233477Y-46555465D01*
X109170218Y-46360776D01*
X109136503Y-46294607D01*
X109077287Y-46178390D01*
X109069556Y-46167749D01*
X108956971Y-46012786D01*
X108812213Y-45868028D01*
X108646614Y-45747715D01*
X108617732Y-45732999D01*
X108560703Y-45703941D01*
X108509908Y-45655968D01*
X108493113Y-45588147D01*
X108515650Y-45522012D01*
X108558546Y-45484099D01*
X108624503Y-45448843D01*
X108624515Y-45448837D01*
X108693913Y-45402465D01*
X108094410Y-44802962D01*
X108157993Y-44785925D01*
X108272007Y-44720099D01*
X108365099Y-44627007D01*
X108430925Y-44512993D01*
X108447962Y-44449410D01*
X109047464Y-45048913D01*
X109047465Y-45048913D01*
X109093837Y-44979515D01*
X109093838Y-44979511D01*
X109140509Y-44892198D01*
X109200814Y-44746612D01*
X109229555Y-44651864D01*
X109260298Y-44497302D01*
X109260298Y-44497299D01*
X109270000Y-44398789D01*
X109270000Y-44241210D01*
X109260298Y-44142700D01*
X109260298Y-44142697D01*
X109229555Y-43988135D01*
X109200814Y-43893387D01*
X109140509Y-43747801D01*
X109093844Y-43660498D01*
X109093838Y-43660488D01*
X109047465Y-43591085D01*
X108447962Y-44190588D01*
X108430925Y-44127007D01*
X108365099Y-44012993D01*
X108272007Y-43919901D01*
X108157993Y-43854075D01*
X108094410Y-43837037D01*
X108693912Y-43237534D01*
X108624511Y-43191161D01*
X108624500Y-43191155D01*
X108558545Y-43155900D01*
X108508701Y-43106937D01*
X108493241Y-43038799D01*
X108517073Y-42973119D01*
X108560702Y-42936059D01*
X108646610Y-42892287D01*
X108737745Y-42826074D01*
X108812213Y-42771971D01*
X108812215Y-42771968D01*
X108812219Y-42771966D01*
X108956966Y-42627219D01*
X108956968Y-42627215D01*
X108956971Y-42627213D01*
X109009732Y-42554590D01*
X109077287Y-42461610D01*
X109170220Y-42279219D01*
X109233477Y-42084534D01*
X109265500Y-41882352D01*
X109265500Y-41677648D01*
X109243696Y-41539983D01*
X109233477Y-41475465D01*
X109170218Y-41280776D01*
X109124048Y-41190164D01*
X109077287Y-41098390D01*
X109060260Y-41074954D01*
X108956971Y-40932786D01*
X108812213Y-40788028D01*
X108646614Y-40667715D01*
X108640006Y-40664348D01*
X108553917Y-40620483D01*
X108503123Y-40572511D01*
X108486328Y-40504690D01*
X108508865Y-40438555D01*
X108553917Y-40399516D01*
X108646610Y-40352287D01*
X108667770Y-40336913D01*
X108812213Y-40231971D01*
X108812215Y-40231968D01*
X108812219Y-40231966D01*
X108956966Y-40087219D01*
X108956968Y-40087215D01*
X108956971Y-40087213D01*
X109009732Y-40014590D01*
X109077287Y-39921610D01*
X109170220Y-39739219D01*
X109233477Y-39544534D01*
X109265500Y-39342352D01*
X109265500Y-39137648D01*
X109233477Y-38935466D01*
X109170220Y-38740781D01*
X109170218Y-38740778D01*
X109170218Y-38740776D01*
X109114793Y-38632000D01*
X109077287Y-38558390D01*
X109047388Y-38517237D01*
X108956971Y-38392786D01*
X108812213Y-38248028D01*
X108646614Y-38127715D01*
X108640006Y-38124348D01*
X108553917Y-38080483D01*
X108503123Y-38032511D01*
X108486328Y-37964690D01*
X108508865Y-37898555D01*
X108553917Y-37859516D01*
X108646610Y-37812287D01*
X108667770Y-37796913D01*
X108812213Y-37691971D01*
X108812215Y-37691968D01*
X108812219Y-37691966D01*
X108956966Y-37547219D01*
X108956968Y-37547215D01*
X108956971Y-37547213D01*
X109077286Y-37381612D01*
X109170218Y-37199223D01*
X109170218Y-37199222D01*
X109170220Y-37199219D01*
X109233477Y-37004534D01*
X109265500Y-36802352D01*
X109265500Y-36597648D01*
X109243207Y-36456897D01*
X109233477Y-36395465D01*
X109170218Y-36200776D01*
X109132463Y-36126679D01*
X109077287Y-36018390D01*
X109050114Y-35980989D01*
X108956971Y-35852786D01*
X108812213Y-35708028D01*
X108646614Y-35587715D01*
X108640006Y-35584348D01*
X108553917Y-35540483D01*
X108503123Y-35492511D01*
X108486328Y-35424690D01*
X108508865Y-35358555D01*
X108553917Y-35319516D01*
X108646610Y-35272287D01*
X108667770Y-35256913D01*
X108812213Y-35151971D01*
X108812215Y-35151968D01*
X108812219Y-35151966D01*
X108956966Y-35007219D01*
X108956968Y-35007215D01*
X108956971Y-35007213D01*
X109009732Y-34934590D01*
X109077287Y-34841610D01*
X109170220Y-34659219D01*
X109233477Y-34464534D01*
X109265500Y-34262352D01*
X109265500Y-34057648D01*
X109233477Y-33855466D01*
X109219247Y-33811672D01*
X109204127Y-33765137D01*
X109170220Y-33660781D01*
X109170218Y-33660778D01*
X109170218Y-33660776D01*
X109136503Y-33594607D01*
X109077287Y-33478390D01*
X109069556Y-33467749D01*
X108956971Y-33312786D01*
X108812213Y-33168028D01*
X108646613Y-33047715D01*
X108646612Y-33047714D01*
X108646610Y-33047713D01*
X108593947Y-33020880D01*
X108561245Y-33004217D01*
X108510449Y-32956242D01*
X108493654Y-32888421D01*
X108516192Y-32822286D01*
X108559083Y-32784376D01*
X108624783Y-32749259D01*
X108755811Y-32661709D01*
X108832412Y-32598843D01*
X108943843Y-32487412D01*
X109006709Y-32410811D01*
X109094259Y-32279783D01*
X109140972Y-32192389D01*
X109201278Y-32046798D01*
X109230044Y-31951968D01*
X109260787Y-31797410D01*
X109270500Y-31698793D01*
X109270500Y-31541207D01*
X109260787Y-31442590D01*
X109230044Y-31288032D01*
X109201278Y-31193202D01*
X109140972Y-31047611D01*
X109094259Y-30960217D01*
X109088926Y-30952235D01*
X109006721Y-30829206D01*
X109006712Y-30829194D01*
X109006709Y-30829189D01*
X108943843Y-30752588D01*
X108832412Y-30641157D01*
X108755811Y-30578291D01*
X108755804Y-30578286D01*
X108755793Y-30578278D01*
X108624799Y-30490751D01*
X108624788Y-30490744D01*
X108624783Y-30490741D01*
X108602645Y-30478908D01*
X108559086Y-30455625D01*
X108509242Y-30406662D01*
X108493782Y-30338524D01*
X108517614Y-30272845D01*
X108561246Y-30235782D01*
X108646610Y-30192287D01*
X108737745Y-30126074D01*
X108812213Y-30071971D01*
X108812215Y-30071968D01*
X108812219Y-30071966D01*
X108956966Y-29927219D01*
X108956968Y-29927215D01*
X108956971Y-29927213D01*
X109046982Y-29803321D01*
X109077287Y-29761610D01*
X109170220Y-29579219D01*
X109233477Y-29384534D01*
X109265500Y-29182352D01*
X109265500Y-28977648D01*
X109233477Y-28775466D01*
X109170220Y-28580781D01*
X109170218Y-28580778D01*
X109170218Y-28580776D01*
X109136503Y-28514607D01*
X109077287Y-28398390D01*
X109069556Y-28387749D01*
X108956971Y-28232786D01*
X108812213Y-28088028D01*
X108646614Y-27967715D01*
X108640006Y-27964348D01*
X108553917Y-27920483D01*
X108503123Y-27872511D01*
X108486328Y-27804690D01*
X108508865Y-27738555D01*
X108553917Y-27699516D01*
X108646610Y-27652287D01*
X108667770Y-27636913D01*
X108812213Y-27531971D01*
X108812215Y-27531968D01*
X108812219Y-27531966D01*
X108956966Y-27387219D01*
X108956968Y-27387215D01*
X108956971Y-27387213D01*
X109017220Y-27304286D01*
X109077287Y-27221610D01*
X109170220Y-27039219D01*
X109233477Y-26844534D01*
X109265500Y-26642352D01*
X109265500Y-26437648D01*
X109233477Y-26235466D01*
X109170220Y-26040781D01*
X109170218Y-26040778D01*
X109170218Y-26040776D01*
X109135736Y-25973102D01*
X109077287Y-25858390D01*
X109063735Y-25839737D01*
X108956971Y-25692786D01*
X108812213Y-25548028D01*
X108646614Y-25427715D01*
X108576311Y-25391894D01*
X108553917Y-25380483D01*
X108503123Y-25332511D01*
X108486328Y-25264690D01*
X108508865Y-25198555D01*
X108553917Y-25159516D01*
X108646610Y-25112287D01*
X108667770Y-25096913D01*
X108812213Y-24991971D01*
X108812215Y-24991968D01*
X108812219Y-24991966D01*
X108956966Y-24847219D01*
X108956968Y-24847215D01*
X108956971Y-24847213D01*
X109064650Y-24699003D01*
X109077287Y-24681610D01*
X109170220Y-24499219D01*
X109233477Y-24304534D01*
X109265500Y-24102352D01*
X109265500Y-23897648D01*
X109233477Y-23695466D01*
X109170220Y-23500781D01*
X109170218Y-23500778D01*
X109170218Y-23500776D01*
X109136503Y-23434607D01*
X109077287Y-23318390D01*
X109026493Y-23248477D01*
X108956971Y-23152786D01*
X108812213Y-23008028D01*
X108646614Y-22887715D01*
X108640006Y-22884348D01*
X108553917Y-22840483D01*
X108503123Y-22792511D01*
X108486328Y-22724690D01*
X108508865Y-22658555D01*
X108553917Y-22619516D01*
X108646610Y-22572287D01*
X108696602Y-22535966D01*
X108812213Y-22451971D01*
X108812215Y-22451968D01*
X108812219Y-22451966D01*
X108956966Y-22307219D01*
X108956968Y-22307215D01*
X108956971Y-22307213D01*
X109009732Y-22234590D01*
X109077287Y-22141610D01*
X109170220Y-21959219D01*
X109233477Y-21764534D01*
X109265500Y-21562352D01*
X109265500Y-21357648D01*
X109233477Y-21155466D01*
X109170220Y-20960781D01*
X109170218Y-20960778D01*
X109170218Y-20960776D01*
X109135118Y-20891890D01*
X109077287Y-20778390D01*
X109069556Y-20767749D01*
X108956971Y-20612786D01*
X108812213Y-20468028D01*
X108646614Y-20347715D01*
X108638410Y-20343535D01*
X108560703Y-20303941D01*
X108509908Y-20255968D01*
X108493113Y-20188147D01*
X108515650Y-20122012D01*
X108558546Y-20084099D01*
X108624503Y-20048843D01*
X108624515Y-20048837D01*
X108693913Y-20002465D01*
X108094410Y-19402962D01*
X108157993Y-19385925D01*
X108272007Y-19320099D01*
X108365099Y-19227007D01*
X108430925Y-19112993D01*
X108447962Y-19049410D01*
X109047464Y-19648913D01*
X109047465Y-19648913D01*
X109093837Y-19579515D01*
X109093838Y-19579511D01*
X109140509Y-19492198D01*
X109200814Y-19346612D01*
X109229555Y-19251864D01*
X109260298Y-19097302D01*
X109260298Y-19097299D01*
X109270000Y-18998789D01*
X109270000Y-18841210D01*
X109260298Y-18742700D01*
X109260298Y-18742697D01*
X109229555Y-18588135D01*
X109200814Y-18493387D01*
X109140509Y-18347801D01*
X109093844Y-18260498D01*
X109093838Y-18260488D01*
X109047465Y-18191085D01*
X108447962Y-18790588D01*
X108430925Y-18727007D01*
X108365099Y-18612993D01*
X108272007Y-18519901D01*
X108157993Y-18454075D01*
X108094410Y-18437037D01*
X108693912Y-17837534D01*
X108624511Y-17791161D01*
X108624500Y-17791155D01*
X108558545Y-17755900D01*
X108508701Y-17706937D01*
X108493241Y-17638799D01*
X108517073Y-17573119D01*
X108560702Y-17536059D01*
X108646610Y-17492287D01*
X108737745Y-17426074D01*
X108812213Y-17371971D01*
X108812215Y-17371968D01*
X108812219Y-17371966D01*
X108956966Y-17227219D01*
X108956968Y-17227215D01*
X108956971Y-17227213D01*
X109009732Y-17154590D01*
X109077287Y-17061610D01*
X109170220Y-16879219D01*
X109233477Y-16684534D01*
X109265500Y-16482352D01*
X109265500Y-16277648D01*
X109233477Y-16075466D01*
X109170220Y-15880781D01*
X109170218Y-15880778D01*
X109170218Y-15880776D01*
X109136503Y-15814607D01*
X109077287Y-15698390D01*
X109069556Y-15687749D01*
X108956971Y-15532786D01*
X108812213Y-15388028D01*
X108646614Y-15267715D01*
X108589231Y-15238477D01*
X108553917Y-15220483D01*
X108503123Y-15172511D01*
X108486328Y-15104690D01*
X108508865Y-15038555D01*
X108553917Y-14999516D01*
X108646610Y-14952287D01*
X108752733Y-14875185D01*
X108812213Y-14831971D01*
X108812215Y-14831968D01*
X108812219Y-14831966D01*
X108956966Y-14687219D01*
X108956968Y-14687215D01*
X108956971Y-14687213D01*
X109044170Y-14567192D01*
X109077287Y-14521610D01*
X109170220Y-14339219D01*
X109233477Y-14144534D01*
X109265500Y-13942352D01*
X109265500Y-13737648D01*
X109233477Y-13535466D01*
X109170220Y-13340781D01*
X109170218Y-13340778D01*
X109170218Y-13340776D01*
X109110259Y-13223102D01*
X109077287Y-13158390D01*
X109058114Y-13132000D01*
X108956971Y-12992786D01*
X108812213Y-12848028D01*
X108642669Y-12724849D01*
X108643926Y-12723118D01*
X108603035Y-12677943D01*
X108591596Y-12609017D01*
X108619237Y-12544847D01*
X108677182Y-12505808D01*
X108714687Y-12500000D01*
X111376000Y-12500000D01*
X111443039Y-12519685D01*
X111488794Y-12572489D01*
X111500000Y-12624000D01*
X111500000Y-13226059D01*
X111480315Y-13293098D01*
X111427511Y-13338853D01*
X111358353Y-13348797D01*
X111294797Y-13319772D01*
X111288319Y-13313740D01*
X111285292Y-13310713D01*
X111285288Y-13310710D01*
X111154185Y-13223109D01*
X111154172Y-13223102D01*
X111008501Y-13162764D01*
X111008489Y-13162761D01*
X110853845Y-13132000D01*
X110853842Y-13132000D01*
X110696158Y-13132000D01*
X110696155Y-13132000D01*
X110541510Y-13162761D01*
X110541498Y-13162764D01*
X110395827Y-13223102D01*
X110395814Y-13223109D01*
X110264711Y-13310710D01*
X110264707Y-13310713D01*
X110153213Y-13422207D01*
X110153210Y-13422211D01*
X110065609Y-13553314D01*
X110065602Y-13553327D01*
X110005264Y-13698998D01*
X110005261Y-13699010D01*
X109974500Y-13853653D01*
X109974500Y-14011346D01*
X110005261Y-14165989D01*
X110005264Y-14166001D01*
X110065602Y-14311672D01*
X110065609Y-14311685D01*
X110153210Y-14442788D01*
X110153213Y-14442792D01*
X110264707Y-14554286D01*
X110264711Y-14554289D01*
X110395814Y-14641890D01*
X110395827Y-14641897D01*
X110505246Y-14687219D01*
X110541503Y-14702237D01*
X110696153Y-14732999D01*
X110696156Y-14733000D01*
X110696158Y-14733000D01*
X110853844Y-14733000D01*
X110853845Y-14732999D01*
X111008497Y-14702237D01*
X111154179Y-14641894D01*
X111285289Y-14554289D01*
X111285292Y-14554286D01*
X111288319Y-14551260D01*
X111349642Y-14517775D01*
X111419334Y-14522759D01*
X111475267Y-14564631D01*
X111499684Y-14630095D01*
X111500000Y-14638941D01*
X111500000Y-111376000D01*
X111480315Y-111443039D01*
X111427511Y-111488794D01*
X111376000Y-111500000D01*
X72124000Y-111500000D01*
X72056961Y-111480315D01*
X72011206Y-111427511D01*
X72000000Y-111376000D01*
X72000000Y-53353653D01*
X75274500Y-53353653D01*
X75274500Y-53511346D01*
X75305261Y-53665989D01*
X75305264Y-53666001D01*
X75365602Y-53811672D01*
X75365609Y-53811685D01*
X75453210Y-53942788D01*
X75453213Y-53942792D01*
X75564707Y-54054286D01*
X75564711Y-54054289D01*
X75695814Y-54141890D01*
X75695827Y-54141897D01*
X75841498Y-54202235D01*
X75841503Y-54202237D01*
X75996153Y-54232999D01*
X75996156Y-54233000D01*
X75996158Y-54233000D01*
X76153844Y-54233000D01*
X76153845Y-54232999D01*
X76308497Y-54202237D01*
X76454179Y-54141894D01*
X76585289Y-54054289D01*
X76696789Y-53942789D01*
X76784394Y-53811679D01*
X76789899Y-53798390D01*
X76844735Y-53666001D01*
X76844737Y-53665997D01*
X76875500Y-53511342D01*
X76875500Y-53353658D01*
X76875500Y-53353655D01*
X76875499Y-53353653D01*
X76846924Y-53210000D01*
X76844737Y-53199003D01*
X76803528Y-53099515D01*
X76784397Y-53053327D01*
X76784390Y-53053314D01*
X76696789Y-52922211D01*
X76696786Y-52922207D01*
X76585292Y-52810713D01*
X76585288Y-52810710D01*
X76454185Y-52723109D01*
X76454172Y-52723102D01*
X76308501Y-52662764D01*
X76308489Y-52662761D01*
X76153845Y-52632000D01*
X76153842Y-52632000D01*
X75996158Y-52632000D01*
X75996155Y-52632000D01*
X75841510Y-52662761D01*
X75841498Y-52662764D01*
X75695827Y-52723102D01*
X75695814Y-52723109D01*
X75564711Y-52810710D01*
X75564707Y-52810713D01*
X75453213Y-52922207D01*
X75453210Y-52922211D01*
X75365609Y-53053314D01*
X75365602Y-53053327D01*
X75305264Y-53198998D01*
X75305261Y-53199010D01*
X75274500Y-53353653D01*
X72000000Y-53353653D01*
X72000000Y-34103653D01*
X83394500Y-34103653D01*
X83394500Y-34261346D01*
X83425261Y-34415989D01*
X83425264Y-34416001D01*
X83485602Y-34561672D01*
X83485609Y-34561685D01*
X83573210Y-34692788D01*
X83573213Y-34692792D01*
X83684707Y-34804286D01*
X83684711Y-34804289D01*
X83815814Y-34891890D01*
X83815827Y-34891897D01*
X83961498Y-34952235D01*
X83961503Y-34952237D01*
X84103002Y-34980383D01*
X84116153Y-34982999D01*
X84116156Y-34983000D01*
X84116158Y-34983000D01*
X84273844Y-34983000D01*
X84273845Y-34982999D01*
X84428497Y-34952237D01*
X84574179Y-34891894D01*
X84705289Y-34804289D01*
X84816789Y-34692789D01*
X84904394Y-34561679D01*
X84964737Y-34415997D01*
X84995500Y-34261342D01*
X84995500Y-34103658D01*
X84995500Y-34103656D01*
X84995500Y-34103655D01*
X84995499Y-34103653D01*
X85394500Y-34103653D01*
X85394500Y-34261346D01*
X85425261Y-34415989D01*
X85425264Y-34416001D01*
X85485602Y-34561672D01*
X85485609Y-34561685D01*
X85573210Y-34692788D01*
X85573213Y-34692792D01*
X85684707Y-34804286D01*
X85684711Y-34804289D01*
X85815814Y-34891890D01*
X85815827Y-34891897D01*
X85961498Y-34952235D01*
X85961503Y-34952237D01*
X86103002Y-34980383D01*
X86116153Y-34982999D01*
X86116156Y-34983000D01*
X86116158Y-34983000D01*
X86273844Y-34983000D01*
X86273845Y-34982999D01*
X86428497Y-34952237D01*
X86574179Y-34891894D01*
X86705289Y-34804289D01*
X86816789Y-34692789D01*
X86904394Y-34561679D01*
X86964737Y-34415997D01*
X86995500Y-34261342D01*
X86995500Y-34103658D01*
X86995499Y-34103655D01*
X86990191Y-34076969D01*
X86990191Y-34076967D01*
X86964738Y-33949010D01*
X86964737Y-33949003D01*
X86925993Y-33855465D01*
X86904397Y-33803327D01*
X86904390Y-33803314D01*
X86816789Y-33672211D01*
X86816786Y-33672207D01*
X86705292Y-33560713D01*
X86705288Y-33560710D01*
X86574185Y-33473109D01*
X86574172Y-33473102D01*
X86428501Y-33412764D01*
X86428489Y-33412761D01*
X86273845Y-33382000D01*
X86273842Y-33382000D01*
X86116158Y-33382000D01*
X86116155Y-33382000D01*
X85961510Y-33412761D01*
X85961498Y-33412764D01*
X85815827Y-33473102D01*
X85815814Y-33473109D01*
X85684711Y-33560710D01*
X85684707Y-33560713D01*
X85573213Y-33672207D01*
X85573210Y-33672211D01*
X85485609Y-33803314D01*
X85485602Y-33803327D01*
X85425264Y-33948998D01*
X85425261Y-33949010D01*
X85394500Y-34103653D01*
X84995499Y-34103653D01*
X84964738Y-33949010D01*
X84964737Y-33949003D01*
X84925993Y-33855465D01*
X84904397Y-33803327D01*
X84904390Y-33803314D01*
X84816789Y-33672211D01*
X84816786Y-33672207D01*
X84705292Y-33560713D01*
X84705288Y-33560710D01*
X84574185Y-33473109D01*
X84574172Y-33473102D01*
X84428501Y-33412764D01*
X84428489Y-33412761D01*
X84273845Y-33382000D01*
X84273842Y-33382000D01*
X84116158Y-33382000D01*
X84116155Y-33382000D01*
X83961510Y-33412761D01*
X83961498Y-33412764D01*
X83815827Y-33473102D01*
X83815814Y-33473109D01*
X83684711Y-33560710D01*
X83684707Y-33560713D01*
X83573213Y-33672207D01*
X83573210Y-33672211D01*
X83485609Y-33803314D01*
X83485602Y-33803327D01*
X83425264Y-33948998D01*
X83425261Y-33949010D01*
X83394500Y-34103653D01*
X72000000Y-34103653D01*
X72000000Y-30103653D01*
X77894500Y-30103653D01*
X77894500Y-30261346D01*
X77925261Y-30415989D01*
X77925264Y-30416001D01*
X77985602Y-30561672D01*
X77985609Y-30561685D01*
X78073210Y-30692788D01*
X78073213Y-30692792D01*
X78184707Y-30804286D01*
X78184711Y-30804289D01*
X78315814Y-30891890D01*
X78315827Y-30891897D01*
X78461498Y-30952235D01*
X78461503Y-30952237D01*
X78602102Y-30980204D01*
X78616153Y-30982999D01*
X78616156Y-30983000D01*
X78616158Y-30983000D01*
X78773844Y-30983000D01*
X78773845Y-30982999D01*
X78928497Y-30952237D01*
X79074179Y-30891894D01*
X79205289Y-30804289D01*
X79316789Y-30692789D01*
X79404394Y-30561679D01*
X79464737Y-30415997D01*
X79495500Y-30261342D01*
X79495500Y-30103658D01*
X79495500Y-30103655D01*
X79495499Y-30103653D01*
X82674500Y-30103653D01*
X82674500Y-30261346D01*
X82705261Y-30415989D01*
X82705264Y-30416001D01*
X82765602Y-30561672D01*
X82765609Y-30561685D01*
X82853210Y-30692788D01*
X82853213Y-30692792D01*
X82964707Y-30804286D01*
X82964711Y-30804289D01*
X83095814Y-30891890D01*
X83095827Y-30891897D01*
X83241498Y-30952235D01*
X83241503Y-30952237D01*
X83382102Y-30980204D01*
X83396153Y-30982999D01*
X83396156Y-30983000D01*
X83396158Y-30983000D01*
X83553844Y-30983000D01*
X83553845Y-30982999D01*
X83708497Y-30952237D01*
X83854179Y-30891894D01*
X83985289Y-30804289D01*
X84096789Y-30692789D01*
X84184394Y-30561679D01*
X84244737Y-30415997D01*
X84275500Y-30261342D01*
X84275500Y-30103658D01*
X84275500Y-30103655D01*
X84275499Y-30103653D01*
X84244738Y-29949010D01*
X84244737Y-29949003D01*
X84235711Y-29927213D01*
X84184397Y-29803327D01*
X84184390Y-29803314D01*
X84096789Y-29672211D01*
X84096786Y-29672207D01*
X83985292Y-29560713D01*
X83985288Y-29560710D01*
X83854185Y-29473109D01*
X83854172Y-29473102D01*
X83708501Y-29412764D01*
X83708489Y-29412761D01*
X83553845Y-29382000D01*
X83553842Y-29382000D01*
X83396158Y-29382000D01*
X83396155Y-29382000D01*
X83241510Y-29412761D01*
X83241498Y-29412764D01*
X83095827Y-29473102D01*
X83095814Y-29473109D01*
X82964711Y-29560710D01*
X82964707Y-29560713D01*
X82853213Y-29672207D01*
X82853210Y-29672211D01*
X82765609Y-29803314D01*
X82765602Y-29803327D01*
X82705264Y-29948998D01*
X82705261Y-29949010D01*
X82674500Y-30103653D01*
X79495499Y-30103653D01*
X79464738Y-29949010D01*
X79464737Y-29949003D01*
X79455711Y-29927213D01*
X79404397Y-29803327D01*
X79404390Y-29803314D01*
X79316789Y-29672211D01*
X79316786Y-29672207D01*
X79205292Y-29560713D01*
X79205288Y-29560710D01*
X79074185Y-29473109D01*
X79074172Y-29473102D01*
X78928501Y-29412764D01*
X78928489Y-29412761D01*
X78773845Y-29382000D01*
X78773842Y-29382000D01*
X78616158Y-29382000D01*
X78616155Y-29382000D01*
X78461510Y-29412761D01*
X78461498Y-29412764D01*
X78315827Y-29473102D01*
X78315814Y-29473109D01*
X78184711Y-29560710D01*
X78184707Y-29560713D01*
X78073213Y-29672207D01*
X78073210Y-29672211D01*
X77985609Y-29803314D01*
X77985602Y-29803327D01*
X77925264Y-29948998D01*
X77925261Y-29949010D01*
X77894500Y-30103653D01*
X72000000Y-30103653D01*
X72000000Y-26603653D01*
X80394500Y-26603653D01*
X80394500Y-26761346D01*
X80425261Y-26915989D01*
X80425264Y-26916001D01*
X80485602Y-27061672D01*
X80485609Y-27061685D01*
X80573210Y-27192788D01*
X80573213Y-27192792D01*
X80684707Y-27304286D01*
X80684711Y-27304289D01*
X80815814Y-27391890D01*
X80815827Y-27391897D01*
X80961498Y-27452235D01*
X80961503Y-27452237D01*
X81116153Y-27482999D01*
X81116156Y-27483000D01*
X81116158Y-27483000D01*
X81273844Y-27483000D01*
X81273845Y-27482999D01*
X81428497Y-27452237D01*
X81574179Y-27391894D01*
X81705289Y-27304289D01*
X81816789Y-27192789D01*
X81904394Y-27061679D01*
X81913697Y-27039219D01*
X81967068Y-26910370D01*
X81968955Y-26911151D01*
X82002131Y-26860521D01*
X82065941Y-26832061D01*
X82135009Y-26842616D01*
X82187405Y-26888837D01*
X82197349Y-26910611D01*
X82197932Y-26910370D01*
X82260602Y-27061672D01*
X82260609Y-27061685D01*
X82348210Y-27192788D01*
X82348213Y-27192792D01*
X82459707Y-27304286D01*
X82459711Y-27304289D01*
X82590814Y-27391890D01*
X82590827Y-27391897D01*
X82736498Y-27452235D01*
X82736503Y-27452237D01*
X82891153Y-27482999D01*
X82891156Y-27483000D01*
X82891158Y-27483000D01*
X83048844Y-27483000D01*
X83048845Y-27482999D01*
X83203497Y-27452237D01*
X83349179Y-27391894D01*
X83480289Y-27304289D01*
X83591789Y-27192789D01*
X83679394Y-27061679D01*
X83739737Y-26915997D01*
X83770500Y-26761342D01*
X83770500Y-26603658D01*
X83770500Y-26603655D01*
X83770499Y-26603653D01*
X83747634Y-26488704D01*
X83739737Y-26449003D01*
X83735349Y-26438409D01*
X83679397Y-26303327D01*
X83679390Y-26303314D01*
X83591789Y-26172211D01*
X83591786Y-26172207D01*
X83480292Y-26060713D01*
X83480288Y-26060710D01*
X83349185Y-25973109D01*
X83349172Y-25973102D01*
X83203501Y-25912764D01*
X83203489Y-25912761D01*
X83048845Y-25882000D01*
X83048842Y-25882000D01*
X82891158Y-25882000D01*
X82891155Y-25882000D01*
X82736510Y-25912761D01*
X82736498Y-25912764D01*
X82590827Y-25973102D01*
X82590814Y-25973109D01*
X82459711Y-26060710D01*
X82459707Y-26060713D01*
X82348213Y-26172207D01*
X82348210Y-26172211D01*
X82260609Y-26303314D01*
X82260602Y-26303327D01*
X82197932Y-26454630D01*
X82196047Y-26453849D01*
X82162860Y-26504485D01*
X82099047Y-26532940D01*
X82029981Y-26522378D01*
X81977588Y-26476152D01*
X81967649Y-26454389D01*
X81967068Y-26454630D01*
X81904397Y-26303327D01*
X81904390Y-26303314D01*
X81816789Y-26172211D01*
X81816786Y-26172207D01*
X81705292Y-26060713D01*
X81705288Y-26060710D01*
X81574185Y-25973109D01*
X81574172Y-25973102D01*
X81428501Y-25912764D01*
X81428489Y-25912761D01*
X81273845Y-25882000D01*
X81273842Y-25882000D01*
X81116158Y-25882000D01*
X81116155Y-25882000D01*
X80961510Y-25912761D01*
X80961498Y-25912764D01*
X80815827Y-25973102D01*
X80815814Y-25973109D01*
X80684711Y-26060710D01*
X80684707Y-26060713D01*
X80573213Y-26172207D01*
X80573210Y-26172211D01*
X80485609Y-26303314D01*
X80485602Y-26303327D01*
X80425264Y-26448998D01*
X80425261Y-26449010D01*
X80394500Y-26603653D01*
X72000000Y-26603653D01*
X72000000Y-24603653D01*
X75894500Y-24603653D01*
X75894500Y-24761346D01*
X75925261Y-24915989D01*
X75925264Y-24916001D01*
X75985602Y-25061672D01*
X75985609Y-25061685D01*
X76073210Y-25192788D01*
X76073213Y-25192792D01*
X76184707Y-25304286D01*
X76184711Y-25304289D01*
X76315814Y-25391890D01*
X76315827Y-25391897D01*
X76454103Y-25449172D01*
X76461503Y-25452237D01*
X76616153Y-25482999D01*
X76616156Y-25483000D01*
X76616158Y-25483000D01*
X76773844Y-25483000D01*
X76773845Y-25482999D01*
X76928497Y-25452237D01*
X77074179Y-25391894D01*
X77205289Y-25304289D01*
X77316789Y-25192789D01*
X77404394Y-25061679D01*
X77464737Y-24915997D01*
X77495500Y-24761342D01*
X77495500Y-24603658D01*
X77495500Y-24603655D01*
X77495499Y-24603653D01*
X80394500Y-24603653D01*
X80394500Y-24761346D01*
X80425261Y-24915989D01*
X80425264Y-24916001D01*
X80485602Y-25061672D01*
X80485609Y-25061685D01*
X80573210Y-25192788D01*
X80573213Y-25192792D01*
X80684707Y-25304286D01*
X80684711Y-25304289D01*
X80815814Y-25391890D01*
X80815827Y-25391897D01*
X80954103Y-25449172D01*
X80961503Y-25452237D01*
X81116153Y-25482999D01*
X81116156Y-25483000D01*
X81116158Y-25483000D01*
X81273844Y-25483000D01*
X81273845Y-25482999D01*
X81428497Y-25452237D01*
X81574179Y-25391894D01*
X81705289Y-25304289D01*
X81816789Y-25192789D01*
X81904394Y-25061679D01*
X81964737Y-24915997D01*
X81995500Y-24761342D01*
X81995500Y-24603658D01*
X81995500Y-24603655D01*
X81995499Y-24603653D01*
X81986758Y-24559711D01*
X81964737Y-24449003D01*
X81964409Y-24448210D01*
X81904397Y-24303327D01*
X81904390Y-24303314D01*
X81816789Y-24172211D01*
X81816786Y-24172207D01*
X81705292Y-24060713D01*
X81705288Y-24060710D01*
X81574185Y-23973109D01*
X81574172Y-23973102D01*
X81428501Y-23912764D01*
X81428489Y-23912761D01*
X81273845Y-23882000D01*
X81273842Y-23882000D01*
X81116158Y-23882000D01*
X81116155Y-23882000D01*
X80961510Y-23912761D01*
X80961498Y-23912764D01*
X80815827Y-23973102D01*
X80815814Y-23973109D01*
X80684711Y-24060710D01*
X80684707Y-24060713D01*
X80573213Y-24172207D01*
X80573210Y-24172211D01*
X80485609Y-24303314D01*
X80485602Y-24303327D01*
X80425264Y-24448998D01*
X80425261Y-24449010D01*
X80394500Y-24603653D01*
X77495499Y-24603653D01*
X77486758Y-24559711D01*
X77464737Y-24449003D01*
X77464409Y-24448210D01*
X77404397Y-24303327D01*
X77404390Y-24303314D01*
X77316789Y-24172211D01*
X77316786Y-24172207D01*
X77205292Y-24060713D01*
X77205288Y-24060710D01*
X77074185Y-23973109D01*
X77074172Y-23973102D01*
X76928501Y-23912764D01*
X76928489Y-23912761D01*
X76773845Y-23882000D01*
X76773842Y-23882000D01*
X76616158Y-23882000D01*
X76616155Y-23882000D01*
X76461510Y-23912761D01*
X76461498Y-23912764D01*
X76315827Y-23973102D01*
X76315814Y-23973109D01*
X76184711Y-24060710D01*
X76184707Y-24060713D01*
X76073213Y-24172207D01*
X76073210Y-24172211D01*
X75985609Y-24303314D01*
X75985602Y-24303327D01*
X75925264Y-24448998D01*
X75925261Y-24449010D01*
X75894500Y-24603653D01*
X72000000Y-24603653D01*
X72000000Y-20103653D01*
X85894500Y-20103653D01*
X85894500Y-20261346D01*
X85925261Y-20415989D01*
X85925264Y-20416001D01*
X85985602Y-20561672D01*
X85985609Y-20561685D01*
X86073210Y-20692788D01*
X86073213Y-20692792D01*
X86184707Y-20804286D01*
X86184711Y-20804289D01*
X86315814Y-20891890D01*
X86315827Y-20891897D01*
X86461498Y-20952235D01*
X86461503Y-20952237D01*
X86616153Y-20982999D01*
X86616156Y-20983000D01*
X86616158Y-20983000D01*
X86773844Y-20983000D01*
X86773845Y-20982999D01*
X86928497Y-20952237D01*
X87074179Y-20891894D01*
X87205289Y-20804289D01*
X87316789Y-20692789D01*
X87404394Y-20561679D01*
X87464737Y-20415997D01*
X87495500Y-20261342D01*
X87495500Y-20103658D01*
X87495500Y-20103655D01*
X87495499Y-20103653D01*
X87484597Y-20048844D01*
X87464737Y-19949003D01*
X87464735Y-19948998D01*
X87404397Y-19803327D01*
X87404390Y-19803314D01*
X87316789Y-19672211D01*
X87316786Y-19672207D01*
X87205292Y-19560713D01*
X87205288Y-19560710D01*
X87074185Y-19473109D01*
X87074172Y-19473102D01*
X86928501Y-19412764D01*
X86928489Y-19412761D01*
X86773845Y-19382000D01*
X86773842Y-19382000D01*
X86616158Y-19382000D01*
X86616155Y-19382000D01*
X86461510Y-19412761D01*
X86461498Y-19412764D01*
X86315827Y-19473102D01*
X86315814Y-19473109D01*
X86184711Y-19560710D01*
X86184707Y-19560713D01*
X86073213Y-19672207D01*
X86073210Y-19672211D01*
X85985609Y-19803314D01*
X85985602Y-19803327D01*
X85925264Y-19948998D01*
X85925261Y-19949010D01*
X85894500Y-20103653D01*
X72000000Y-20103653D01*
X72000000Y-19500000D01*
X71000000Y-19500000D01*
X71000000Y-111376000D01*
X70980315Y-111443039D01*
X70927511Y-111488794D01*
X70876000Y-111500000D01*
X13123375Y-111500000D01*
X13056336Y-111480315D01*
X13010581Y-111427511D01*
X12999377Y-111376626D01*
X12948662Y-101335127D01*
X12904216Y-92534905D01*
X13419500Y-92534905D01*
X13419500Y-92805094D01*
X13449749Y-93073558D01*
X13449751Y-93073570D01*
X13509872Y-93336979D01*
X13599106Y-93591996D01*
X13716331Y-93835416D01*
X13716333Y-93835419D01*
X13860077Y-94064187D01*
X14028532Y-94275422D01*
X14219578Y-94466468D01*
X14430813Y-94634923D01*
X14659581Y-94778667D01*
X14903005Y-94895894D01*
X15158020Y-94985127D01*
X15158022Y-94985127D01*
X15158023Y-94985128D01*
X15421429Y-95045249D01*
X15689905Y-95075499D01*
X15689906Y-95075500D01*
X15689910Y-95075500D01*
X15960094Y-95075500D01*
X15960094Y-95075499D01*
X16228571Y-95045249D01*
X16491977Y-94985128D01*
X16695836Y-94913794D01*
X16765614Y-94910233D01*
X16826241Y-94944961D01*
X16858469Y-95006955D01*
X16852064Y-95076530D01*
X16851352Y-95078286D01*
X16837789Y-95111030D01*
X16760487Y-95399530D01*
X16760484Y-95399543D01*
X16721501Y-95695649D01*
X16721500Y-95695665D01*
X16721500Y-95994334D01*
X16721501Y-95994350D01*
X16760484Y-96290456D01*
X16760485Y-96290461D01*
X16760486Y-96290467D01*
X16760487Y-96290469D01*
X16837789Y-96578969D01*
X16851351Y-96611710D01*
X16858820Y-96681179D01*
X16827544Y-96743658D01*
X16767455Y-96779310D01*
X16697630Y-96776816D01*
X16695836Y-96776204D01*
X16491978Y-96704872D01*
X16491980Y-96704872D01*
X16294422Y-96659781D01*
X16228571Y-96644751D01*
X16228567Y-96644750D01*
X16228558Y-96644749D01*
X15960094Y-96614500D01*
X15960090Y-96614500D01*
X15689910Y-96614500D01*
X15689906Y-96614500D01*
X15421441Y-96644749D01*
X15421429Y-96644751D01*
X15158020Y-96704872D01*
X14903003Y-96794106D01*
X14659583Y-96911331D01*
X14430814Y-97055076D01*
X14219578Y-97223531D01*
X14028531Y-97414578D01*
X13860076Y-97625814D01*
X13716331Y-97854583D01*
X13599106Y-98098003D01*
X13509872Y-98353020D01*
X13449751Y-98616429D01*
X13449749Y-98616441D01*
X13419500Y-98884905D01*
X13419500Y-99155094D01*
X13449749Y-99423558D01*
X13449751Y-99423570D01*
X13509872Y-99686979D01*
X13599106Y-99941996D01*
X13716331Y-100185416D01*
X13716333Y-100185419D01*
X13860077Y-100414187D01*
X14028532Y-100625422D01*
X14219578Y-100816468D01*
X14430813Y-100984923D01*
X14659581Y-101128667D01*
X14903005Y-101245894D01*
X15158020Y-101335127D01*
X15158022Y-101335127D01*
X15158023Y-101335128D01*
X15421429Y-101395249D01*
X15689905Y-101425499D01*
X15689906Y-101425500D01*
X15689910Y-101425500D01*
X15960094Y-101425500D01*
X15960094Y-101425499D01*
X16228571Y-101395249D01*
X16491977Y-101335128D01*
X16746995Y-101245894D01*
X16990419Y-101128667D01*
X17219187Y-100984923D01*
X17430422Y-100816468D01*
X17621468Y-100625422D01*
X17789923Y-100414187D01*
X17933667Y-100185419D01*
X18050894Y-99941995D01*
X18140128Y-99686977D01*
X18200249Y-99423571D01*
X18230500Y-99155090D01*
X18230500Y-98884910D01*
X18200249Y-98616429D01*
X18140128Y-98353023D01*
X18068795Y-98149163D01*
X18065234Y-98079385D01*
X18099963Y-98018757D01*
X18161956Y-97986530D01*
X18231532Y-97992935D01*
X18233130Y-97993582D01*
X18266029Y-98007210D01*
X18554533Y-98084514D01*
X18850659Y-98123500D01*
X18850666Y-98123500D01*
X19149334Y-98123500D01*
X19149341Y-98123500D01*
X19445467Y-98084514D01*
X19733971Y-98007210D01*
X19766711Y-97993648D01*
X19836176Y-97986179D01*
X19898656Y-98017453D01*
X19934310Y-98077541D01*
X19931817Y-98147366D01*
X19931204Y-98149163D01*
X19859872Y-98353020D01*
X19799751Y-98616429D01*
X19799749Y-98616441D01*
X19769500Y-98884905D01*
X19769500Y-99155094D01*
X19799749Y-99423558D01*
X19799751Y-99423570D01*
X19859872Y-99686979D01*
X19949106Y-99941996D01*
X20066331Y-100185416D01*
X20066333Y-100185419D01*
X20210077Y-100414187D01*
X20378532Y-100625422D01*
X20569578Y-100816468D01*
X20780813Y-100984923D01*
X21009581Y-101128667D01*
X21253005Y-101245894D01*
X21508020Y-101335127D01*
X21508022Y-101335127D01*
X21508023Y-101335128D01*
X21771429Y-101395249D01*
X22039905Y-101425499D01*
X22039906Y-101425500D01*
X22039910Y-101425500D01*
X22310094Y-101425500D01*
X22310094Y-101425499D01*
X22578571Y-101395249D01*
X22841977Y-101335128D01*
X23096995Y-101245894D01*
X23340419Y-101128667D01*
X23569187Y-100984923D01*
X23780422Y-100816468D01*
X23971468Y-100625422D01*
X24139923Y-100414187D01*
X24283667Y-100185419D01*
X24400894Y-99941995D01*
X24490128Y-99686977D01*
X24550249Y-99423571D01*
X24580500Y-99155090D01*
X24580500Y-98884910D01*
X24550249Y-98616429D01*
X24490128Y-98353023D01*
X24400894Y-98098005D01*
X24283667Y-97854581D01*
X24139923Y-97625813D01*
X23971468Y-97414578D01*
X23780422Y-97223532D01*
X23569187Y-97055077D01*
X23340419Y-96911333D01*
X23340416Y-96911331D01*
X23096996Y-96794106D01*
X22841978Y-96704872D01*
X22841980Y-96704872D01*
X22644422Y-96659781D01*
X22578571Y-96644751D01*
X22578567Y-96644750D01*
X22578558Y-96644749D01*
X22310094Y-96614500D01*
X22310090Y-96614500D01*
X22039910Y-96614500D01*
X22039906Y-96614500D01*
X21771441Y-96644749D01*
X21771429Y-96644751D01*
X21508020Y-96704872D01*
X21304163Y-96776204D01*
X21234384Y-96779765D01*
X21173757Y-96745036D01*
X21141530Y-96683042D01*
X21147936Y-96613467D01*
X21148593Y-96611844D01*
X21162210Y-96578971D01*
X21239514Y-96290467D01*
X21278500Y-95994341D01*
X21278500Y-95695659D01*
X21239514Y-95399533D01*
X21162210Y-95111029D01*
X21148647Y-95078286D01*
X21141179Y-95008821D01*
X21172453Y-94946342D01*
X21232542Y-94910689D01*
X21302367Y-94913182D01*
X21304163Y-94913795D01*
X21508020Y-94985127D01*
X21508022Y-94985127D01*
X21508023Y-94985128D01*
X21771429Y-95045249D01*
X22039905Y-95075499D01*
X22039906Y-95075500D01*
X22039910Y-95075500D01*
X22310094Y-95075500D01*
X22310094Y-95075499D01*
X22578571Y-95045249D01*
X22841977Y-94985128D01*
X23096995Y-94895894D01*
X23340419Y-94778667D01*
X23569187Y-94634923D01*
X23780422Y-94466468D01*
X23971468Y-94275422D01*
X24139923Y-94064187D01*
X24283667Y-93835419D01*
X24400894Y-93591995D01*
X24490128Y-93336977D01*
X24550249Y-93073571D01*
X24580500Y-92805090D01*
X24580500Y-92534910D01*
X24550249Y-92266429D01*
X24490128Y-92003023D01*
X24400894Y-91748005D01*
X24283667Y-91504581D01*
X24139923Y-91275813D01*
X23971468Y-91064578D01*
X23780422Y-90873532D01*
X23569187Y-90705077D01*
X23340419Y-90561333D01*
X23340416Y-90561331D01*
X23096996Y-90444106D01*
X22841978Y-90354872D01*
X22841980Y-90354872D01*
X22644422Y-90309781D01*
X22578571Y-90294751D01*
X22578567Y-90294750D01*
X22578558Y-90294749D01*
X22310094Y-90264500D01*
X22310090Y-90264500D01*
X22039910Y-90264500D01*
X22039906Y-90264500D01*
X21771441Y-90294749D01*
X21771429Y-90294751D01*
X21508020Y-90354872D01*
X21253003Y-90444106D01*
X21009583Y-90561331D01*
X20780814Y-90705076D01*
X20569578Y-90873531D01*
X20378531Y-91064578D01*
X20210076Y-91275814D01*
X20066331Y-91504583D01*
X19949106Y-91748003D01*
X19859872Y-92003020D01*
X19799751Y-92266429D01*
X19799749Y-92266441D01*
X19769500Y-92534905D01*
X19769500Y-92805094D01*
X19799749Y-93073558D01*
X19799751Y-93073570D01*
X19859872Y-93336979D01*
X19931204Y-93540836D01*
X19934765Y-93610615D01*
X19900036Y-93671242D01*
X19838042Y-93703469D01*
X19768467Y-93697063D01*
X19766710Y-93696351D01*
X19733969Y-93682789D01*
X19589719Y-93644138D01*
X19445467Y-93605486D01*
X19445461Y-93605485D01*
X19445456Y-93605484D01*
X19149350Y-93566501D01*
X19149347Y-93566500D01*
X19149341Y-93566500D01*
X18850659Y-93566500D01*
X18850653Y-93566500D01*
X18850649Y-93566501D01*
X18554543Y-93605484D01*
X18554536Y-93605485D01*
X18554533Y-93605486D01*
X18528532Y-93612453D01*
X18266030Y-93682789D01*
X18233286Y-93696352D01*
X18163816Y-93703819D01*
X18101338Y-93672543D01*
X18065687Y-93612453D01*
X18068183Y-93542628D01*
X18068795Y-93540836D01*
X18140128Y-93336977D01*
X18200249Y-93073571D01*
X18230500Y-92805090D01*
X18230500Y-92534910D01*
X18200249Y-92266429D01*
X18140128Y-92003023D01*
X18050894Y-91748005D01*
X17933667Y-91504581D01*
X17789923Y-91275813D01*
X17621468Y-91064578D01*
X17430422Y-90873532D01*
X17219187Y-90705077D01*
X16990419Y-90561333D01*
X16990416Y-90561331D01*
X16746996Y-90444106D01*
X16491978Y-90354872D01*
X16491980Y-90354872D01*
X16294422Y-90309781D01*
X16228571Y-90294751D01*
X16228567Y-90294750D01*
X16228558Y-90294749D01*
X15960094Y-90264500D01*
X15960090Y-90264500D01*
X15689910Y-90264500D01*
X15689906Y-90264500D01*
X15421441Y-90294749D01*
X15421429Y-90294751D01*
X15158020Y-90354872D01*
X14903003Y-90444106D01*
X14659583Y-90561331D01*
X14430814Y-90705076D01*
X14219578Y-90873531D01*
X14028531Y-91064578D01*
X13860076Y-91275814D01*
X13716331Y-91504583D01*
X13599106Y-91748003D01*
X13509872Y-92003020D01*
X13449751Y-92266429D01*
X13449749Y-92266441D01*
X13419500Y-92534905D01*
X12904216Y-92534905D01*
X12884764Y-88683399D01*
X12874582Y-86667135D01*
X35604500Y-86667135D01*
X35604500Y-88762870D01*
X35604501Y-88762876D01*
X35610908Y-88822483D01*
X35661202Y-88957328D01*
X35661206Y-88957335D01*
X35747452Y-89072544D01*
X35747455Y-89072547D01*
X35862664Y-89158793D01*
X35862671Y-89158797D01*
X35997517Y-89209091D01*
X35997516Y-89209091D01*
X36004444Y-89209835D01*
X36057127Y-89215500D01*
X38152872Y-89215499D01*
X38212483Y-89209091D01*
X38347331Y-89158796D01*
X38462546Y-89072546D01*
X38548796Y-88957331D01*
X38599091Y-88822483D01*
X38605500Y-88762873D01*
X38605499Y-86667128D01*
X38599091Y-86607517D01*
X38548796Y-86472669D01*
X38548795Y-86472668D01*
X38548793Y-86472664D01*
X38462547Y-86357455D01*
X38462544Y-86357452D01*
X38347335Y-86271206D01*
X38347328Y-86271202D01*
X38212482Y-86220908D01*
X38212483Y-86220908D01*
X38152883Y-86214501D01*
X38152881Y-86214500D01*
X38152873Y-86214500D01*
X38152864Y-86214500D01*
X36057129Y-86214500D01*
X36057123Y-86214501D01*
X35997516Y-86220908D01*
X35862671Y-86271202D01*
X35862664Y-86271206D01*
X35747455Y-86357452D01*
X35747452Y-86357455D01*
X35661206Y-86472664D01*
X35661202Y-86472671D01*
X35610908Y-86607517D01*
X35604790Y-86664432D01*
X35604501Y-86667123D01*
X35604500Y-86667135D01*
X12874582Y-86667135D01*
X12874568Y-86664432D01*
X12862211Y-84217780D01*
X12858882Y-83558549D01*
X16974500Y-83558549D01*
X16974500Y-83781450D01*
X16974501Y-83781466D01*
X17003594Y-84002452D01*
X17003595Y-84002457D01*
X17003596Y-84002463D01*
X17003597Y-84002465D01*
X17061290Y-84217780D01*
X17061293Y-84217790D01*
X17146593Y-84423722D01*
X17146595Y-84423726D01*
X17258052Y-84616774D01*
X17258057Y-84616780D01*
X17258058Y-84616782D01*
X17393751Y-84793622D01*
X17393757Y-84793629D01*
X17551370Y-84951242D01*
X17551376Y-84951247D01*
X17728226Y-85086948D01*
X17921274Y-85198405D01*
X18127219Y-85283710D01*
X18342537Y-85341404D01*
X18563543Y-85370500D01*
X18563550Y-85370500D01*
X18786450Y-85370500D01*
X18786457Y-85370500D01*
X19007463Y-85341404D01*
X19222781Y-85283710D01*
X19428726Y-85198405D01*
X19621774Y-85086948D01*
X19798624Y-84951247D01*
X19956247Y-84793624D01*
X20091948Y-84616774D01*
X20203405Y-84423726D01*
X20288710Y-84217781D01*
X20346404Y-84002463D01*
X20375500Y-83781457D01*
X20375500Y-83558543D01*
X20346404Y-83337537D01*
X20288710Y-83122219D01*
X20203405Y-82916274D01*
X20091948Y-82723226D01*
X19956247Y-82546376D01*
X19956242Y-82546370D01*
X19798629Y-82388757D01*
X19798622Y-82388751D01*
X19621782Y-82253058D01*
X19621780Y-82253057D01*
X19621774Y-82253052D01*
X19428726Y-82141595D01*
X19428722Y-82141593D01*
X19222790Y-82056293D01*
X19222783Y-82056291D01*
X19222781Y-82056290D01*
X19007463Y-81998596D01*
X19007457Y-81998595D01*
X19007452Y-81998594D01*
X18786466Y-81969501D01*
X18786463Y-81969500D01*
X18786457Y-81969500D01*
X18563543Y-81969500D01*
X18563537Y-81969500D01*
X18563533Y-81969501D01*
X18342547Y-81998594D01*
X18342540Y-81998595D01*
X18342537Y-81998596D01*
X18127219Y-82056290D01*
X18127209Y-82056293D01*
X17921277Y-82141593D01*
X17921273Y-82141595D01*
X17728226Y-82253052D01*
X17728217Y-82253058D01*
X17551377Y-82388751D01*
X17551370Y-82388757D01*
X17393757Y-82546370D01*
X17393751Y-82546377D01*
X17258058Y-82723217D01*
X17258052Y-82723226D01*
X17146595Y-82916273D01*
X17146593Y-82916277D01*
X17061293Y-83122209D01*
X17061290Y-83122219D01*
X17003597Y-83337534D01*
X17003594Y-83337547D01*
X16974501Y-83558533D01*
X16974500Y-83558549D01*
X12858882Y-83558549D01*
X12825195Y-76888549D01*
X29299500Y-76888549D01*
X29299500Y-77111450D01*
X29299501Y-77111466D01*
X29328594Y-77332452D01*
X29328595Y-77332457D01*
X29328596Y-77332463D01*
X29386290Y-77547780D01*
X29386293Y-77547790D01*
X29471593Y-77753722D01*
X29471595Y-77753726D01*
X29583052Y-77946774D01*
X29583057Y-77946780D01*
X29583058Y-77946782D01*
X29718751Y-78123622D01*
X29718757Y-78123629D01*
X29876370Y-78281242D01*
X29876376Y-78281247D01*
X30053226Y-78416948D01*
X30246274Y-78528405D01*
X30376140Y-78582197D01*
X30451074Y-78613236D01*
X30452219Y-78613710D01*
X30667537Y-78671404D01*
X30888543Y-78700500D01*
X30888550Y-78700500D01*
X31111450Y-78700500D01*
X31111457Y-78700500D01*
X31332463Y-78671404D01*
X31547781Y-78613710D01*
X31753726Y-78528405D01*
X31946774Y-78416948D01*
X32123624Y-78281247D01*
X32123629Y-78281242D01*
X32174550Y-78230322D01*
X32281242Y-78123629D01*
X32281247Y-78123624D01*
X32416948Y-77946774D01*
X32528405Y-77753726D01*
X32613710Y-77547781D01*
X32671404Y-77332463D01*
X32700500Y-77111457D01*
X32700500Y-76888575D01*
X44300000Y-76888575D01*
X44300000Y-77111424D01*
X44329085Y-77332354D01*
X44329088Y-77332367D01*
X44386763Y-77547618D01*
X44472045Y-77753502D01*
X44472054Y-77753520D01*
X44583464Y-77946491D01*
X44583473Y-77946504D01*
X44634040Y-78012403D01*
X44634043Y-78012403D01*
X45435387Y-77211058D01*
X45440889Y-77231591D01*
X45519881Y-77368408D01*
X45631592Y-77480119D01*
X45768409Y-77559111D01*
X45788940Y-77564612D01*
X44987595Y-78365955D01*
X44987595Y-78365956D01*
X45053507Y-78416533D01*
X45246485Y-78527949D01*
X45246497Y-78527954D01*
X45452381Y-78613236D01*
X45667632Y-78670911D01*
X45667645Y-78670914D01*
X45888575Y-78700000D01*
X46111425Y-78700000D01*
X46332354Y-78670914D01*
X46332367Y-78670911D01*
X46547618Y-78613236D01*
X46753502Y-78527954D01*
X46753514Y-78527949D01*
X46946498Y-78416530D01*
X47012403Y-78365957D01*
X47012404Y-78365956D01*
X46211059Y-77564612D01*
X46231591Y-77559111D01*
X46368408Y-77480119D01*
X46480119Y-77368408D01*
X46559111Y-77231591D01*
X46564612Y-77211059D01*
X47365956Y-78012404D01*
X47365957Y-78012403D01*
X47416530Y-77946498D01*
X47527949Y-77753514D01*
X47527954Y-77753502D01*
X47613236Y-77547618D01*
X47670911Y-77332367D01*
X47670914Y-77332354D01*
X47700000Y-77111424D01*
X47700000Y-76888575D01*
X47670914Y-76667645D01*
X47670911Y-76667632D01*
X47613236Y-76452381D01*
X47527954Y-76246497D01*
X47527949Y-76246485D01*
X47416533Y-76053507D01*
X47365956Y-75987595D01*
X47365955Y-75987595D01*
X46564612Y-76788939D01*
X46559111Y-76768409D01*
X46480119Y-76631592D01*
X46368408Y-76519881D01*
X46231591Y-76440889D01*
X46211058Y-76435387D01*
X47012403Y-75634043D01*
X47012403Y-75634040D01*
X46946504Y-75583473D01*
X46946491Y-75583464D01*
X46753520Y-75472054D01*
X46753502Y-75472045D01*
X46547618Y-75386763D01*
X46332367Y-75329088D01*
X46332354Y-75329085D01*
X46111425Y-75300000D01*
X45888575Y-75300000D01*
X45667645Y-75329085D01*
X45667632Y-75329088D01*
X45452381Y-75386763D01*
X45246497Y-75472045D01*
X45246479Y-75472054D01*
X45053511Y-75583462D01*
X44987595Y-75634042D01*
X45788941Y-76435387D01*
X45768409Y-76440889D01*
X45631592Y-76519881D01*
X45519881Y-76631592D01*
X45440889Y-76768409D01*
X45435387Y-76788940D01*
X44634042Y-75987595D01*
X44583462Y-76053511D01*
X44472054Y-76246479D01*
X44472045Y-76246497D01*
X44386763Y-76452381D01*
X44329088Y-76667632D01*
X44329085Y-76667645D01*
X44300000Y-76888575D01*
X32700500Y-76888575D01*
X32700500Y-76888543D01*
X32671404Y-76667537D01*
X32613710Y-76452219D01*
X32528405Y-76246274D01*
X32416948Y-76053226D01*
X32281247Y-75876376D01*
X32281242Y-75876370D01*
X32123629Y-75718757D01*
X32123622Y-75718751D01*
X31946782Y-75583058D01*
X31946780Y-75583057D01*
X31946774Y-75583052D01*
X31753726Y-75471595D01*
X31753722Y-75471593D01*
X31547790Y-75386293D01*
X31547783Y-75386291D01*
X31547781Y-75386290D01*
X31332463Y-75328596D01*
X31332457Y-75328595D01*
X31332452Y-75328594D01*
X31111466Y-75299501D01*
X31111463Y-75299500D01*
X31111457Y-75299500D01*
X30888543Y-75299500D01*
X30888537Y-75299500D01*
X30888533Y-75299501D01*
X30667547Y-75328594D01*
X30667540Y-75328595D01*
X30667537Y-75328596D01*
X30452219Y-75386290D01*
X30452209Y-75386293D01*
X30246277Y-75471593D01*
X30246273Y-75471595D01*
X30053226Y-75583052D01*
X30053217Y-75583058D01*
X29876377Y-75718751D01*
X29876370Y-75718757D01*
X29718757Y-75876370D01*
X29718751Y-75876377D01*
X29583058Y-76053217D01*
X29583052Y-76053226D01*
X29471595Y-76246273D01*
X29471593Y-76246277D01*
X29386293Y-76452209D01*
X29386290Y-76452219D01*
X29338228Y-76631592D01*
X29328597Y-76667534D01*
X29328594Y-76667547D01*
X29299501Y-76888533D01*
X29299500Y-76888549D01*
X12825195Y-76888549D01*
X12783124Y-68558549D01*
X16974500Y-68558549D01*
X16974500Y-68781450D01*
X16974501Y-68781466D01*
X17003594Y-69002452D01*
X17003595Y-69002457D01*
X17003596Y-69002463D01*
X17003597Y-69002465D01*
X17061290Y-69217780D01*
X17061293Y-69217790D01*
X17146593Y-69423722D01*
X17146595Y-69423726D01*
X17258052Y-69616774D01*
X17258057Y-69616780D01*
X17258058Y-69616782D01*
X17393751Y-69793622D01*
X17393757Y-69793629D01*
X17551370Y-69951242D01*
X17551376Y-69951247D01*
X17728226Y-70086948D01*
X17921274Y-70198405D01*
X18127219Y-70283710D01*
X18342537Y-70341404D01*
X18563543Y-70370500D01*
X18563550Y-70370500D01*
X18786450Y-70370500D01*
X18786457Y-70370500D01*
X19007463Y-70341404D01*
X19222781Y-70283710D01*
X19428726Y-70198405D01*
X19621774Y-70086948D01*
X19798624Y-69951247D01*
X19956247Y-69793624D01*
X20091948Y-69616774D01*
X20203405Y-69423726D01*
X20288710Y-69217781D01*
X20346404Y-69002463D01*
X20375500Y-68781457D01*
X20375500Y-68558543D01*
X20346404Y-68337537D01*
X20288710Y-68122219D01*
X20203405Y-67916274D01*
X20091948Y-67723226D01*
X19956247Y-67546376D01*
X19956242Y-67546370D01*
X19798629Y-67388757D01*
X19798622Y-67388751D01*
X19621782Y-67253058D01*
X19621780Y-67253057D01*
X19621774Y-67253052D01*
X19428726Y-67141595D01*
X19428722Y-67141593D01*
X19222790Y-67056293D01*
X19222783Y-67056291D01*
X19222781Y-67056290D01*
X19007463Y-66998596D01*
X19007457Y-66998595D01*
X19007452Y-66998594D01*
X18786466Y-66969501D01*
X18786463Y-66969500D01*
X18786457Y-66969500D01*
X18563543Y-66969500D01*
X18563537Y-66969500D01*
X18563533Y-66969501D01*
X18342547Y-66998594D01*
X18342540Y-66998595D01*
X18342537Y-66998596D01*
X18127219Y-67056290D01*
X18127209Y-67056293D01*
X17921277Y-67141593D01*
X17921273Y-67141595D01*
X17728226Y-67253052D01*
X17728217Y-67253058D01*
X17551377Y-67388751D01*
X17551370Y-67388757D01*
X17393757Y-67546370D01*
X17393751Y-67546377D01*
X17258058Y-67723217D01*
X17258052Y-67723226D01*
X17146595Y-67916273D01*
X17146593Y-67916277D01*
X17061293Y-68122209D01*
X17061290Y-68122219D01*
X17003597Y-68337534D01*
X17003594Y-68337547D01*
X16974501Y-68558533D01*
X16974500Y-68558549D01*
X12783124Y-68558549D01*
X12749417Y-61884635D01*
X59574500Y-61884635D01*
X59574500Y-63980370D01*
X59574501Y-63980376D01*
X59580908Y-64039983D01*
X59631202Y-64174828D01*
X59631206Y-64174835D01*
X59717452Y-64290044D01*
X59717455Y-64290047D01*
X59832664Y-64376293D01*
X59832671Y-64376297D01*
X59967517Y-64426591D01*
X59967516Y-64426591D01*
X59974444Y-64427335D01*
X60027127Y-64433000D01*
X62122872Y-64432999D01*
X62182483Y-64426591D01*
X62317331Y-64376296D01*
X62432546Y-64290046D01*
X62518796Y-64174831D01*
X62569091Y-64039983D01*
X62575500Y-63980373D01*
X62575499Y-61884628D01*
X62569091Y-61825017D01*
X62558069Y-61795466D01*
X62518797Y-61690171D01*
X62518793Y-61690164D01*
X62432547Y-61574955D01*
X62432544Y-61574952D01*
X62317335Y-61488706D01*
X62317328Y-61488702D01*
X62182482Y-61438408D01*
X62182483Y-61438408D01*
X62122883Y-61432001D01*
X62122881Y-61432000D01*
X62122873Y-61432000D01*
X62122864Y-61432000D01*
X60027129Y-61432000D01*
X60027123Y-61432001D01*
X59967516Y-61438408D01*
X59832671Y-61488702D01*
X59832664Y-61488706D01*
X59717455Y-61574952D01*
X59717452Y-61574955D01*
X59631206Y-61690164D01*
X59631202Y-61690171D01*
X59580908Y-61825017D01*
X59574501Y-61884616D01*
X59574501Y-61884623D01*
X59574500Y-61884635D01*
X12749417Y-61884635D01*
X12736331Y-59293653D01*
X33832000Y-59293653D01*
X33832000Y-59451346D01*
X33862761Y-59605989D01*
X33862764Y-59606001D01*
X33923102Y-59751672D01*
X33923109Y-59751685D01*
X34010710Y-59882788D01*
X34010713Y-59882792D01*
X34122207Y-59994286D01*
X34122211Y-59994289D01*
X34253314Y-60081890D01*
X34253327Y-60081897D01*
X34398998Y-60142235D01*
X34399003Y-60142237D01*
X34553653Y-60172999D01*
X34553656Y-60173000D01*
X34553658Y-60173000D01*
X34711344Y-60173000D01*
X34711345Y-60172999D01*
X34865997Y-60142237D01*
X35011679Y-60081894D01*
X35142789Y-59994289D01*
X35254289Y-59882789D01*
X35341894Y-59751679D01*
X35402237Y-59605997D01*
X35433000Y-59451342D01*
X35433000Y-59293658D01*
X35433000Y-59293655D01*
X35432999Y-59293653D01*
X35414815Y-59202237D01*
X35402237Y-59139003D01*
X35367148Y-59054289D01*
X35341897Y-58993327D01*
X35341890Y-58993314D01*
X35254289Y-58862211D01*
X35254286Y-58862207D01*
X35142792Y-58750713D01*
X35142788Y-58750710D01*
X35011685Y-58663109D01*
X35011672Y-58663102D01*
X34866001Y-58602764D01*
X34865989Y-58602761D01*
X34711345Y-58572000D01*
X34711342Y-58572000D01*
X34553658Y-58572000D01*
X34553655Y-58572000D01*
X34399010Y-58602761D01*
X34398998Y-58602764D01*
X34253327Y-58663102D01*
X34253314Y-58663109D01*
X34122211Y-58750710D01*
X34122207Y-58750713D01*
X34010713Y-58862207D01*
X34010710Y-58862211D01*
X33923109Y-58993314D01*
X33923102Y-58993327D01*
X33862764Y-59138998D01*
X33862761Y-59139010D01*
X33832000Y-59293653D01*
X12736331Y-59293653D01*
X12731584Y-58353653D01*
X41774500Y-58353653D01*
X41774500Y-58511346D01*
X41805261Y-58665989D01*
X41805264Y-58666001D01*
X41865602Y-58811672D01*
X41865609Y-58811685D01*
X41953210Y-58942788D01*
X41953213Y-58942792D01*
X42064707Y-59054286D01*
X42064711Y-59054289D01*
X42195814Y-59141890D01*
X42195827Y-59141897D01*
X42341498Y-59202235D01*
X42341503Y-59202237D01*
X42496153Y-59232999D01*
X42496156Y-59233000D01*
X42496158Y-59233000D01*
X42653844Y-59233000D01*
X42653845Y-59232999D01*
X42808497Y-59202237D01*
X42954179Y-59141894D01*
X43085289Y-59054289D01*
X43196789Y-58942789D01*
X43284394Y-58811679D01*
X43344737Y-58665997D01*
X43375500Y-58511342D01*
X43375500Y-58353658D01*
X43375500Y-58353655D01*
X43375499Y-58353653D01*
X43364164Y-58296669D01*
X43344737Y-58199003D01*
X43304750Y-58102465D01*
X43284397Y-58053327D01*
X43284390Y-58053314D01*
X43196789Y-57922211D01*
X43196786Y-57922207D01*
X43085292Y-57810713D01*
X43085288Y-57810710D01*
X42954185Y-57723109D01*
X42954172Y-57723102D01*
X42808501Y-57662764D01*
X42808489Y-57662761D01*
X42653845Y-57632000D01*
X42653842Y-57632000D01*
X42496158Y-57632000D01*
X42496155Y-57632000D01*
X42341510Y-57662761D01*
X42341498Y-57662764D01*
X42195827Y-57723102D01*
X42195814Y-57723109D01*
X42064711Y-57810710D01*
X42064707Y-57810713D01*
X41953213Y-57922207D01*
X41953210Y-57922211D01*
X41865609Y-58053314D01*
X41865602Y-58053327D01*
X41805264Y-58198998D01*
X41805261Y-58199010D01*
X41774500Y-58353653D01*
X12731584Y-58353653D01*
X12694858Y-51081982D01*
X12714202Y-51014850D01*
X12766775Y-50968829D01*
X12835882Y-50958537D01*
X12850942Y-50961585D01*
X13027537Y-51008904D01*
X13248543Y-51038000D01*
X13248550Y-51038000D01*
X13471450Y-51038000D01*
X13471457Y-51038000D01*
X13692463Y-51008904D01*
X13907781Y-50951210D01*
X14113726Y-50865905D01*
X14306774Y-50754448D01*
X14483624Y-50618747D01*
X14641247Y-50461124D01*
X14776948Y-50284274D01*
X14888405Y-50091226D01*
X14973710Y-49885281D01*
X15031404Y-49669963D01*
X15060500Y-49448957D01*
X15060500Y-49226049D01*
X26659500Y-49226049D01*
X26659500Y-49448950D01*
X26659501Y-49448966D01*
X26688594Y-49669952D01*
X26688595Y-49669957D01*
X26688596Y-49669963D01*
X26746117Y-49884635D01*
X26746290Y-49885280D01*
X26746293Y-49885290D01*
X26827612Y-50081610D01*
X26831595Y-50091226D01*
X26943052Y-50284274D01*
X26943057Y-50284280D01*
X26943058Y-50284282D01*
X27078751Y-50461122D01*
X27078757Y-50461129D01*
X27236370Y-50618742D01*
X27236377Y-50618748D01*
X27305155Y-50671523D01*
X27413226Y-50754448D01*
X27606274Y-50865905D01*
X27812219Y-50951210D01*
X28027537Y-51008904D01*
X28248543Y-51038000D01*
X28248550Y-51038000D01*
X28471450Y-51038000D01*
X28471457Y-51038000D01*
X28692463Y-51008904D01*
X28907781Y-50951210D01*
X29113726Y-50865905D01*
X29306774Y-50754448D01*
X29483624Y-50618747D01*
X29641247Y-50461124D01*
X29776948Y-50284274D01*
X29888405Y-50091226D01*
X29973710Y-49885281D01*
X29973883Y-49884635D01*
X53574500Y-49884635D01*
X53574500Y-51980370D01*
X53574501Y-51980376D01*
X53580908Y-52039983D01*
X53631202Y-52174828D01*
X53631206Y-52174835D01*
X53717452Y-52290044D01*
X53717455Y-52290047D01*
X53832664Y-52376293D01*
X53832671Y-52376297D01*
X53967517Y-52426591D01*
X53967516Y-52426591D01*
X53974444Y-52427335D01*
X54027127Y-52433000D01*
X56122872Y-52432999D01*
X56182483Y-52426591D01*
X56317331Y-52376296D01*
X56432546Y-52290046D01*
X56518796Y-52174831D01*
X56569091Y-52039983D01*
X56575500Y-51980373D01*
X56575499Y-49884628D01*
X56569091Y-49825017D01*
X56518796Y-49690169D01*
X56518795Y-49690168D01*
X56518793Y-49690164D01*
X56432547Y-49574955D01*
X56432544Y-49574952D01*
X56317335Y-49488706D01*
X56317328Y-49488702D01*
X56182482Y-49438408D01*
X56182483Y-49438408D01*
X56122883Y-49432001D01*
X56122881Y-49432000D01*
X56122873Y-49432000D01*
X56122864Y-49432000D01*
X54027129Y-49432000D01*
X54027123Y-49432001D01*
X53967516Y-49438408D01*
X53832671Y-49488702D01*
X53832664Y-49488706D01*
X53717455Y-49574952D01*
X53717452Y-49574955D01*
X53631206Y-49690164D01*
X53631202Y-49690171D01*
X53580908Y-49825017D01*
X53574501Y-49884616D01*
X53574501Y-49884623D01*
X53574500Y-49884635D01*
X29973883Y-49884635D01*
X30031404Y-49669963D01*
X30060500Y-49448957D01*
X30060500Y-49226043D01*
X30031404Y-49005037D01*
X29973710Y-48789719D01*
X29888405Y-48583774D01*
X29776948Y-48390726D01*
X29716298Y-48311685D01*
X29641248Y-48213877D01*
X29641242Y-48213870D01*
X29483629Y-48056257D01*
X29483622Y-48056251D01*
X29374193Y-47972284D01*
X29306774Y-47920552D01*
X29190902Y-47853653D01*
X55774500Y-47853653D01*
X55774500Y-48011346D01*
X55805261Y-48165989D01*
X55805264Y-48166001D01*
X55865602Y-48311672D01*
X55865609Y-48311685D01*
X55953210Y-48442788D01*
X55953213Y-48442792D01*
X56064707Y-48554286D01*
X56064711Y-48554289D01*
X56195814Y-48641890D01*
X56195827Y-48641897D01*
X56341498Y-48702235D01*
X56341503Y-48702237D01*
X56496153Y-48732999D01*
X56496156Y-48733000D01*
X56496158Y-48733000D01*
X56653844Y-48733000D01*
X56653845Y-48732999D01*
X56808497Y-48702237D01*
X56954179Y-48641894D01*
X57085289Y-48554289D01*
X57196789Y-48442789D01*
X57284394Y-48311679D01*
X57344737Y-48165997D01*
X57375500Y-48011342D01*
X57375500Y-47853658D01*
X57375500Y-47853655D01*
X57375499Y-47853653D01*
X61274500Y-47853653D01*
X61274500Y-48011346D01*
X61305261Y-48165989D01*
X61305264Y-48166001D01*
X61365602Y-48311672D01*
X61365609Y-48311685D01*
X61453210Y-48442788D01*
X61453213Y-48442792D01*
X61564707Y-48554286D01*
X61564711Y-48554289D01*
X61695814Y-48641890D01*
X61695827Y-48641897D01*
X61841498Y-48702235D01*
X61841503Y-48702237D01*
X61996153Y-48732999D01*
X61996156Y-48733000D01*
X61996158Y-48733000D01*
X62153844Y-48733000D01*
X62153845Y-48732999D01*
X62308497Y-48702237D01*
X62454179Y-48641894D01*
X62585289Y-48554289D01*
X62696789Y-48442789D01*
X62784394Y-48311679D01*
X62844737Y-48165997D01*
X62875500Y-48011342D01*
X62875500Y-47853658D01*
X62875500Y-47853655D01*
X62875499Y-47853653D01*
X62849667Y-47723790D01*
X62844737Y-47699003D01*
X62844735Y-47698998D01*
X62784397Y-47553327D01*
X62784390Y-47553314D01*
X62696789Y-47422211D01*
X62696786Y-47422207D01*
X62585292Y-47310713D01*
X62585288Y-47310710D01*
X62454185Y-47223109D01*
X62454172Y-47223102D01*
X62308501Y-47162764D01*
X62308489Y-47162761D01*
X62153845Y-47132000D01*
X62153842Y-47132000D01*
X61996158Y-47132000D01*
X61996155Y-47132000D01*
X61841510Y-47162761D01*
X61841498Y-47162764D01*
X61695827Y-47223102D01*
X61695814Y-47223109D01*
X61564711Y-47310710D01*
X61564707Y-47310713D01*
X61453213Y-47422207D01*
X61453210Y-47422211D01*
X61365609Y-47553314D01*
X61365602Y-47553327D01*
X61305264Y-47698998D01*
X61305261Y-47699010D01*
X61274500Y-47853653D01*
X57375499Y-47853653D01*
X57349667Y-47723790D01*
X57344737Y-47699003D01*
X57344735Y-47698998D01*
X57284397Y-47553327D01*
X57284390Y-47553314D01*
X57196789Y-47422211D01*
X57196786Y-47422207D01*
X57085292Y-47310713D01*
X57085288Y-47310710D01*
X56954185Y-47223109D01*
X56954172Y-47223102D01*
X56808501Y-47162764D01*
X56808489Y-47162761D01*
X56653845Y-47132000D01*
X56653842Y-47132000D01*
X56496158Y-47132000D01*
X56496155Y-47132000D01*
X56341510Y-47162761D01*
X56341498Y-47162764D01*
X56195827Y-47223102D01*
X56195814Y-47223109D01*
X56064711Y-47310710D01*
X56064707Y-47310713D01*
X55953213Y-47422207D01*
X55953210Y-47422211D01*
X55865609Y-47553314D01*
X55865602Y-47553327D01*
X55805264Y-47698998D01*
X55805261Y-47699010D01*
X55774500Y-47853653D01*
X29190902Y-47853653D01*
X29113726Y-47809095D01*
X29113722Y-47809093D01*
X28907790Y-47723793D01*
X28907783Y-47723791D01*
X28907781Y-47723790D01*
X28692463Y-47666096D01*
X28692457Y-47666095D01*
X28692452Y-47666094D01*
X28471466Y-47637001D01*
X28471463Y-47637000D01*
X28471457Y-47637000D01*
X28248543Y-47637000D01*
X28248537Y-47637000D01*
X28248533Y-47637001D01*
X28027547Y-47666094D01*
X28027540Y-47666095D01*
X28027537Y-47666096D01*
X27812219Y-47723790D01*
X27812209Y-47723793D01*
X27606277Y-47809093D01*
X27606273Y-47809095D01*
X27413226Y-47920552D01*
X27413217Y-47920558D01*
X27236377Y-48056251D01*
X27236370Y-48056257D01*
X27078757Y-48213870D01*
X27078751Y-48213877D01*
X26943058Y-48390717D01*
X26943052Y-48390726D01*
X26831595Y-48583773D01*
X26831593Y-48583777D01*
X26746293Y-48789709D01*
X26746290Y-48789719D01*
X26688597Y-49005034D01*
X26688594Y-49005047D01*
X26659501Y-49226033D01*
X26659500Y-49226049D01*
X15060500Y-49226049D01*
X15060500Y-49226043D01*
X15031404Y-49005037D01*
X14973710Y-48789719D01*
X14888405Y-48583774D01*
X14776948Y-48390726D01*
X14716298Y-48311685D01*
X14641248Y-48213877D01*
X14641242Y-48213870D01*
X14483629Y-48056257D01*
X14483622Y-48056251D01*
X14306782Y-47920558D01*
X14306780Y-47920557D01*
X14306774Y-47920552D01*
X14113726Y-47809095D01*
X14113722Y-47809093D01*
X13907790Y-47723793D01*
X13907783Y-47723791D01*
X13907781Y-47723790D01*
X13692463Y-47666096D01*
X13692457Y-47666095D01*
X13692452Y-47666094D01*
X13471466Y-47637001D01*
X13471463Y-47637000D01*
X13471457Y-47637000D01*
X13248543Y-47637000D01*
X13248537Y-47637000D01*
X13248533Y-47637001D01*
X13027547Y-47666094D01*
X13027540Y-47666095D01*
X13027537Y-47666096D01*
X12833357Y-47718125D01*
X12763508Y-47716463D01*
X12705646Y-47677300D01*
X12678142Y-47613072D01*
X12677267Y-47598986D01*
X12663402Y-44853653D01*
X33274500Y-44853653D01*
X33274500Y-45011346D01*
X33305261Y-45165989D01*
X33305264Y-45166001D01*
X33365602Y-45311672D01*
X33365609Y-45311685D01*
X33453210Y-45442788D01*
X33453213Y-45442792D01*
X33564707Y-45554286D01*
X33564711Y-45554289D01*
X33695814Y-45641890D01*
X33695827Y-45641897D01*
X33841498Y-45702235D01*
X33841503Y-45702237D01*
X33996153Y-45732999D01*
X33996156Y-45733000D01*
X33996158Y-45733000D01*
X34153844Y-45733000D01*
X34153845Y-45732999D01*
X34308497Y-45702237D01*
X34454179Y-45641894D01*
X34585289Y-45554289D01*
X34696789Y-45442789D01*
X34784394Y-45311679D01*
X34844737Y-45165997D01*
X34875500Y-45011342D01*
X34875500Y-44853658D01*
X34875500Y-44853655D01*
X34875499Y-44853653D01*
X38774500Y-44853653D01*
X38774500Y-45011346D01*
X38805261Y-45165989D01*
X38805264Y-45166001D01*
X38865602Y-45311672D01*
X38865609Y-45311685D01*
X38953210Y-45442788D01*
X38953213Y-45442792D01*
X39064707Y-45554286D01*
X39064711Y-45554289D01*
X39195814Y-45641890D01*
X39195827Y-45641897D01*
X39341498Y-45702235D01*
X39341503Y-45702237D01*
X39496153Y-45732999D01*
X39496156Y-45733000D01*
X39496158Y-45733000D01*
X39653844Y-45733000D01*
X39653845Y-45732999D01*
X39808497Y-45702237D01*
X39954179Y-45641894D01*
X40085289Y-45554289D01*
X40196789Y-45442789D01*
X40284394Y-45311679D01*
X40344737Y-45165997D01*
X40375500Y-45011342D01*
X40375500Y-44853658D01*
X40375500Y-44853655D01*
X40375499Y-44853653D01*
X43774500Y-44853653D01*
X43774500Y-45011346D01*
X43805261Y-45165989D01*
X43805264Y-45166001D01*
X43865602Y-45311672D01*
X43865609Y-45311685D01*
X43953210Y-45442788D01*
X43953213Y-45442792D01*
X44064707Y-45554286D01*
X44064711Y-45554289D01*
X44195814Y-45641890D01*
X44195827Y-45641897D01*
X44341498Y-45702235D01*
X44341503Y-45702237D01*
X44496153Y-45732999D01*
X44496156Y-45733000D01*
X44496158Y-45733000D01*
X44653844Y-45733000D01*
X44653845Y-45732999D01*
X44808497Y-45702237D01*
X44954179Y-45641894D01*
X45085289Y-45554289D01*
X45196789Y-45442789D01*
X45284394Y-45311679D01*
X45344737Y-45165997D01*
X45375500Y-45011342D01*
X45375500Y-44853658D01*
X45375500Y-44853655D01*
X45375499Y-44853653D01*
X45344738Y-44699010D01*
X45344737Y-44699003D01*
X45314916Y-44627007D01*
X45284397Y-44553327D01*
X45284390Y-44553314D01*
X45196789Y-44422211D01*
X45196786Y-44422207D01*
X45085292Y-44310713D01*
X45085288Y-44310710D01*
X44954185Y-44223109D01*
X44954172Y-44223102D01*
X44808501Y-44162764D01*
X44808489Y-44162761D01*
X44653845Y-44132000D01*
X44653842Y-44132000D01*
X44496158Y-44132000D01*
X44496155Y-44132000D01*
X44341510Y-44162761D01*
X44341498Y-44162764D01*
X44195827Y-44223102D01*
X44195814Y-44223109D01*
X44064711Y-44310710D01*
X44064707Y-44310713D01*
X43953213Y-44422207D01*
X43953210Y-44422211D01*
X43865609Y-44553314D01*
X43865602Y-44553327D01*
X43805264Y-44698998D01*
X43805261Y-44699010D01*
X43774500Y-44853653D01*
X40375499Y-44853653D01*
X40344738Y-44699010D01*
X40344737Y-44699003D01*
X40314916Y-44627007D01*
X40284397Y-44553327D01*
X40284390Y-44553314D01*
X40196789Y-44422211D01*
X40196786Y-44422207D01*
X40085292Y-44310713D01*
X40085288Y-44310710D01*
X39954185Y-44223109D01*
X39954172Y-44223102D01*
X39808501Y-44162764D01*
X39808489Y-44162761D01*
X39653845Y-44132000D01*
X39653842Y-44132000D01*
X39496158Y-44132000D01*
X39496155Y-44132000D01*
X39341510Y-44162761D01*
X39341498Y-44162764D01*
X39195827Y-44223102D01*
X39195814Y-44223109D01*
X39064711Y-44310710D01*
X39064707Y-44310713D01*
X38953213Y-44422207D01*
X38953210Y-44422211D01*
X38865609Y-44553314D01*
X38865602Y-44553327D01*
X38805264Y-44698998D01*
X38805261Y-44699010D01*
X38774500Y-44853653D01*
X34875499Y-44853653D01*
X34844738Y-44699010D01*
X34844737Y-44699003D01*
X34814916Y-44627007D01*
X34784397Y-44553327D01*
X34784390Y-44553314D01*
X34696789Y-44422211D01*
X34696786Y-44422207D01*
X34585292Y-44310713D01*
X34585288Y-44310710D01*
X34454185Y-44223109D01*
X34454172Y-44223102D01*
X34308501Y-44162764D01*
X34308489Y-44162761D01*
X34153845Y-44132000D01*
X34153842Y-44132000D01*
X33996158Y-44132000D01*
X33996155Y-44132000D01*
X33841510Y-44162761D01*
X33841498Y-44162764D01*
X33695827Y-44223102D01*
X33695814Y-44223109D01*
X33564711Y-44310710D01*
X33564707Y-44310713D01*
X33453213Y-44422207D01*
X33453210Y-44422211D01*
X33365609Y-44553314D01*
X33365602Y-44553327D01*
X33305264Y-44698998D01*
X33305261Y-44699010D01*
X33274500Y-44853653D01*
X12663402Y-44853653D01*
X12635781Y-39384635D01*
X13074500Y-39384635D01*
X13074500Y-41480370D01*
X13074501Y-41480376D01*
X13080908Y-41539983D01*
X13131202Y-41674828D01*
X13131206Y-41674835D01*
X13217452Y-41790044D01*
X13217455Y-41790047D01*
X13332664Y-41876293D01*
X13332671Y-41876297D01*
X13467517Y-41926591D01*
X13467516Y-41926591D01*
X13474444Y-41927335D01*
X13527127Y-41933000D01*
X15622872Y-41932999D01*
X15682483Y-41926591D01*
X15817331Y-41876296D01*
X15932546Y-41790046D01*
X16018796Y-41674831D01*
X16069091Y-41539983D01*
X16075500Y-41480373D01*
X16075500Y-41384635D01*
X27074500Y-41384635D01*
X27074500Y-43480370D01*
X27074501Y-43480376D01*
X27080908Y-43539983D01*
X27131202Y-43674828D01*
X27131206Y-43674835D01*
X27217452Y-43790044D01*
X27217455Y-43790047D01*
X27332664Y-43876293D01*
X27332671Y-43876297D01*
X27467517Y-43926591D01*
X27467516Y-43926591D01*
X27474444Y-43927335D01*
X27527127Y-43933000D01*
X29622872Y-43932999D01*
X29682483Y-43926591D01*
X29817331Y-43876296D01*
X29932546Y-43790046D01*
X30018796Y-43674831D01*
X30069091Y-43539983D01*
X30075500Y-43480373D01*
X30075499Y-41884635D01*
X47074500Y-41884635D01*
X47074500Y-43980370D01*
X47074501Y-43980376D01*
X47080908Y-44039983D01*
X47131202Y-44174828D01*
X47131206Y-44174835D01*
X47217452Y-44290044D01*
X47217455Y-44290047D01*
X47332664Y-44376293D01*
X47332671Y-44376297D01*
X47467517Y-44426591D01*
X47467516Y-44426591D01*
X47474444Y-44427335D01*
X47527127Y-44433000D01*
X49622872Y-44432999D01*
X49682483Y-44426591D01*
X49817331Y-44376296D01*
X49932546Y-44290046D01*
X50018796Y-44174831D01*
X50069091Y-44039983D01*
X50075500Y-43980373D01*
X50075499Y-41884628D01*
X50069091Y-41825017D01*
X50018796Y-41690169D01*
X50018795Y-41690168D01*
X50018793Y-41690164D01*
X49932547Y-41574955D01*
X49932544Y-41574952D01*
X49817335Y-41488706D01*
X49817328Y-41488702D01*
X49682482Y-41438408D01*
X49682483Y-41438408D01*
X49622883Y-41432001D01*
X49622881Y-41432000D01*
X49622873Y-41432000D01*
X49622864Y-41432000D01*
X47527129Y-41432000D01*
X47527123Y-41432001D01*
X47467516Y-41438408D01*
X47332671Y-41488702D01*
X47332664Y-41488706D01*
X47217455Y-41574952D01*
X47217452Y-41574955D01*
X47131206Y-41690164D01*
X47131202Y-41690171D01*
X47080908Y-41825017D01*
X47074501Y-41884616D01*
X47074501Y-41884623D01*
X47074500Y-41884635D01*
X30075499Y-41884635D01*
X30075499Y-41384628D01*
X30069091Y-41325017D01*
X30052590Y-41280776D01*
X30018797Y-41190171D01*
X30018793Y-41190164D01*
X29932547Y-41074955D01*
X29932544Y-41074952D01*
X29817335Y-40988706D01*
X29817328Y-40988702D01*
X29682482Y-40938408D01*
X29682483Y-40938408D01*
X29622883Y-40932001D01*
X29622881Y-40932000D01*
X29622873Y-40932000D01*
X29622864Y-40932000D01*
X27527129Y-40932000D01*
X27527123Y-40932001D01*
X27467516Y-40938408D01*
X27332671Y-40988702D01*
X27332664Y-40988706D01*
X27217455Y-41074952D01*
X27217452Y-41074955D01*
X27131206Y-41190164D01*
X27131202Y-41190171D01*
X27080908Y-41325017D01*
X27074857Y-41381306D01*
X27074501Y-41384623D01*
X27074500Y-41384635D01*
X16075500Y-41384635D01*
X16075499Y-40399515D01*
X16075499Y-39384629D01*
X16075498Y-39384621D01*
X16075497Y-39384616D01*
X16074653Y-39376761D01*
X16072940Y-39360818D01*
X16072169Y-39353653D01*
X51774500Y-39353653D01*
X51774500Y-39511346D01*
X51805261Y-39665989D01*
X51805264Y-39666001D01*
X51865602Y-39811672D01*
X51865609Y-39811685D01*
X51953210Y-39942788D01*
X51953213Y-39942792D01*
X52064707Y-40054286D01*
X52064711Y-40054289D01*
X52195814Y-40141890D01*
X52195827Y-40141897D01*
X52341498Y-40202235D01*
X52341503Y-40202237D01*
X52490960Y-40231966D01*
X52496153Y-40232999D01*
X52496156Y-40233000D01*
X52496158Y-40233000D01*
X52653844Y-40233000D01*
X52653845Y-40232999D01*
X52808497Y-40202237D01*
X52954179Y-40141894D01*
X53085289Y-40054289D01*
X53196789Y-39942789D01*
X53284394Y-39811679D01*
X53344737Y-39665997D01*
X53375500Y-39511342D01*
X53375500Y-39353658D01*
X53375500Y-39353655D01*
X53375499Y-39353653D01*
X53344738Y-39199010D01*
X53344737Y-39199003D01*
X53293354Y-39074952D01*
X53284397Y-39053327D01*
X53284390Y-39053314D01*
X53196789Y-38922211D01*
X53196786Y-38922207D01*
X53085292Y-38810713D01*
X53085288Y-38810710D01*
X52954185Y-38723109D01*
X52954172Y-38723102D01*
X52808501Y-38662764D01*
X52808489Y-38662761D01*
X52653845Y-38632000D01*
X52653842Y-38632000D01*
X52496158Y-38632000D01*
X52496155Y-38632000D01*
X52341510Y-38662761D01*
X52341498Y-38662764D01*
X52195827Y-38723102D01*
X52195814Y-38723109D01*
X52064711Y-38810710D01*
X52064707Y-38810713D01*
X51953213Y-38922207D01*
X51953210Y-38922211D01*
X51865609Y-39053314D01*
X51865602Y-39053327D01*
X51805264Y-39198998D01*
X51805261Y-39199010D01*
X51774500Y-39353653D01*
X16072169Y-39353653D01*
X16070954Y-39342351D01*
X16069091Y-39325017D01*
X16033298Y-39229052D01*
X16018797Y-39190171D01*
X16018793Y-39190164D01*
X15932547Y-39074955D01*
X15932544Y-39074952D01*
X15817335Y-38988706D01*
X15817328Y-38988702D01*
X15682482Y-38938408D01*
X15682483Y-38938408D01*
X15622883Y-38932001D01*
X15622881Y-38932000D01*
X15622873Y-38932000D01*
X15622864Y-38932000D01*
X13527129Y-38932000D01*
X13527123Y-38932001D01*
X13467516Y-38938408D01*
X13332671Y-38988702D01*
X13332664Y-38988706D01*
X13217455Y-39074952D01*
X13217452Y-39074955D01*
X13131206Y-39190164D01*
X13131202Y-39190171D01*
X13080908Y-39325017D01*
X13074501Y-39384616D01*
X13074500Y-39384635D01*
X12635781Y-39384635D01*
X12628477Y-37938408D01*
X12627115Y-37668653D01*
X43724500Y-37668653D01*
X43724500Y-37826346D01*
X43755261Y-37980989D01*
X43755264Y-37981001D01*
X43815602Y-38126672D01*
X43815609Y-38126685D01*
X43903210Y-38257788D01*
X43903213Y-38257792D01*
X44014707Y-38369286D01*
X44014711Y-38369289D01*
X44145814Y-38456890D01*
X44145827Y-38456897D01*
X44291498Y-38517235D01*
X44291503Y-38517237D01*
X44446153Y-38547999D01*
X44446156Y-38548000D01*
X44446158Y-38548000D01*
X44603844Y-38548000D01*
X44603845Y-38547999D01*
X44758497Y-38517237D01*
X44904179Y-38456894D01*
X45012322Y-38384635D01*
X54574500Y-38384635D01*
X54574500Y-40480370D01*
X54574501Y-40480376D01*
X54580908Y-40539983D01*
X54631202Y-40674828D01*
X54631206Y-40674835D01*
X54717452Y-40790044D01*
X54717455Y-40790047D01*
X54832664Y-40876293D01*
X54832671Y-40876297D01*
X54967517Y-40926591D01*
X54967516Y-40926591D01*
X54974444Y-40927335D01*
X55027127Y-40933000D01*
X57122872Y-40932999D01*
X57182483Y-40926591D01*
X57317331Y-40876296D01*
X57432546Y-40790046D01*
X57518796Y-40674831D01*
X57569091Y-40539983D01*
X57575500Y-40480373D01*
X57575499Y-38384628D01*
X57569091Y-38325017D01*
X57544016Y-38257788D01*
X57518797Y-38190171D01*
X57518793Y-38190164D01*
X57432547Y-38074955D01*
X57432544Y-38074952D01*
X57317335Y-37988706D01*
X57317328Y-37988702D01*
X57182482Y-37938408D01*
X57182483Y-37938408D01*
X57122883Y-37932001D01*
X57122881Y-37932000D01*
X57122873Y-37932000D01*
X57122864Y-37932000D01*
X55027129Y-37932000D01*
X55027123Y-37932001D01*
X54967516Y-37938408D01*
X54832671Y-37988702D01*
X54832664Y-37988706D01*
X54717455Y-38074952D01*
X54717452Y-38074955D01*
X54631206Y-38190164D01*
X54631202Y-38190171D01*
X54580908Y-38325017D01*
X54576149Y-38369286D01*
X54574501Y-38384623D01*
X54574500Y-38384635D01*
X45012322Y-38384635D01*
X45035289Y-38369289D01*
X45035292Y-38369286D01*
X45110954Y-38293625D01*
X45146786Y-38257792D01*
X45146789Y-38257789D01*
X45234394Y-38126679D01*
X45294737Y-37980997D01*
X45325500Y-37826342D01*
X45325500Y-37668658D01*
X45325500Y-37668655D01*
X45325499Y-37668653D01*
X45294738Y-37514010D01*
X45294737Y-37514003D01*
X45261185Y-37433000D01*
X45234397Y-37368327D01*
X45234390Y-37368314D01*
X45146789Y-37237211D01*
X45146786Y-37237207D01*
X45035292Y-37125713D01*
X45035288Y-37125710D01*
X44904185Y-37038109D01*
X44904172Y-37038102D01*
X44758501Y-36977764D01*
X44758489Y-36977761D01*
X44603845Y-36947000D01*
X44603842Y-36947000D01*
X44446158Y-36947000D01*
X44446155Y-36947000D01*
X44291510Y-36977761D01*
X44291498Y-36977764D01*
X44145827Y-37038102D01*
X44145814Y-37038109D01*
X44014711Y-37125710D01*
X44014707Y-37125713D01*
X43903213Y-37237207D01*
X43903210Y-37237211D01*
X43815609Y-37368314D01*
X43815602Y-37368327D01*
X43755264Y-37513998D01*
X43755261Y-37514010D01*
X43724500Y-37668653D01*
X12627115Y-37668653D01*
X12627087Y-37663192D01*
X12613673Y-35007213D01*
X12613054Y-34884635D01*
X20574500Y-34884635D01*
X20574500Y-36980370D01*
X20574501Y-36980376D01*
X20580908Y-37039983D01*
X20631202Y-37174828D01*
X20631206Y-37174835D01*
X20717452Y-37290044D01*
X20717455Y-37290047D01*
X20832664Y-37376293D01*
X20832671Y-37376297D01*
X20967517Y-37426591D01*
X20967516Y-37426591D01*
X20974444Y-37427335D01*
X21027127Y-37433000D01*
X23122872Y-37432999D01*
X23182483Y-37426591D01*
X23317331Y-37376296D01*
X23432546Y-37290046D01*
X23518796Y-37174831D01*
X23569091Y-37039983D01*
X23575500Y-36980373D01*
X23575499Y-35668653D01*
X43724500Y-35668653D01*
X43724500Y-35826346D01*
X43755261Y-35980989D01*
X43755264Y-35981001D01*
X43815602Y-36126672D01*
X43815609Y-36126685D01*
X43903210Y-36257788D01*
X43903213Y-36257792D01*
X44014707Y-36369286D01*
X44014711Y-36369289D01*
X44145814Y-36456890D01*
X44145827Y-36456897D01*
X44291498Y-36517235D01*
X44291503Y-36517237D01*
X44446153Y-36547999D01*
X44446156Y-36548000D01*
X44446158Y-36548000D01*
X44603844Y-36548000D01*
X44603845Y-36547999D01*
X44758497Y-36517237D01*
X44904179Y-36456894D01*
X45035289Y-36369289D01*
X45146789Y-36257789D01*
X45234394Y-36126679D01*
X45294737Y-35980997D01*
X45325500Y-35826342D01*
X45325500Y-35668658D01*
X45325500Y-35668655D01*
X45325499Y-35668653D01*
X45309399Y-35587713D01*
X45294737Y-35514003D01*
X45261185Y-35433000D01*
X45234397Y-35368327D01*
X45234390Y-35368314D01*
X45146789Y-35237211D01*
X45146786Y-35237207D01*
X45035292Y-35125713D01*
X45035288Y-35125710D01*
X44904185Y-35038109D01*
X44904172Y-35038102D01*
X44758501Y-34977764D01*
X44758489Y-34977761D01*
X44603845Y-34947000D01*
X44603842Y-34947000D01*
X44446158Y-34947000D01*
X44446155Y-34947000D01*
X44291510Y-34977761D01*
X44291498Y-34977764D01*
X44145827Y-35038102D01*
X44145814Y-35038109D01*
X44014711Y-35125710D01*
X44014707Y-35125713D01*
X43903213Y-35237207D01*
X43903210Y-35237211D01*
X43815609Y-35368314D01*
X43815602Y-35368327D01*
X43755264Y-35513998D01*
X43755261Y-35514010D01*
X43724500Y-35668653D01*
X23575499Y-35668653D01*
X23575499Y-34884628D01*
X23569091Y-34825017D01*
X23519774Y-34692792D01*
X23518797Y-34690171D01*
X23518793Y-34690164D01*
X23432547Y-34574955D01*
X23432544Y-34574952D01*
X23317335Y-34488706D01*
X23317328Y-34488702D01*
X23182482Y-34438408D01*
X23182483Y-34438408D01*
X23122883Y-34432001D01*
X23122881Y-34432000D01*
X23122873Y-34432000D01*
X23122864Y-34432000D01*
X21027129Y-34432000D01*
X21027123Y-34432001D01*
X20967516Y-34438408D01*
X20832671Y-34488702D01*
X20832664Y-34488706D01*
X20717455Y-34574952D01*
X20717452Y-34574955D01*
X20631206Y-34690164D01*
X20631202Y-34690171D01*
X20580908Y-34825017D01*
X20574501Y-34884616D01*
X20574501Y-34884623D01*
X20574500Y-34884635D01*
X12613054Y-34884635D01*
X12607593Y-33803327D01*
X12605322Y-33353653D01*
X43274500Y-33353653D01*
X43274500Y-33511346D01*
X43305261Y-33665989D01*
X43305264Y-33666001D01*
X43365602Y-33811672D01*
X43365609Y-33811685D01*
X43453210Y-33942788D01*
X43453213Y-33942792D01*
X43564707Y-34054286D01*
X43564711Y-34054289D01*
X43695814Y-34141890D01*
X43695827Y-34141897D01*
X43841498Y-34202235D01*
X43841503Y-34202237D01*
X43996153Y-34232999D01*
X43996156Y-34233000D01*
X43996158Y-34233000D01*
X44153844Y-34233000D01*
X44153845Y-34232999D01*
X44308497Y-34202237D01*
X44454179Y-34141894D01*
X44585289Y-34054289D01*
X44696789Y-33942789D01*
X44784394Y-33811679D01*
X44787854Y-33803327D01*
X44842163Y-33672211D01*
X44844737Y-33665997D01*
X44875500Y-33511342D01*
X44875500Y-33353658D01*
X44875500Y-33353655D01*
X44875499Y-33353653D01*
X44844738Y-33199010D01*
X44844737Y-33199003D01*
X44831909Y-33168034D01*
X44784397Y-33053327D01*
X44784390Y-33053314D01*
X44715489Y-32950197D01*
X44696789Y-32922211D01*
X44696786Y-32922207D01*
X44659214Y-32884635D01*
X54074500Y-32884635D01*
X54074500Y-34980370D01*
X54074501Y-34980376D01*
X54080908Y-35039983D01*
X54131202Y-35174828D01*
X54131206Y-35174835D01*
X54217452Y-35290044D01*
X54217455Y-35290047D01*
X54332664Y-35376293D01*
X54332671Y-35376297D01*
X54467517Y-35426591D01*
X54467516Y-35426591D01*
X54474444Y-35427335D01*
X54527127Y-35433000D01*
X56622872Y-35432999D01*
X56682483Y-35426591D01*
X56817331Y-35376296D01*
X56932546Y-35290046D01*
X57018796Y-35174831D01*
X57069091Y-35039983D01*
X57075500Y-34980373D01*
X57075499Y-32884628D01*
X57069091Y-32825017D01*
X57068072Y-32822286D01*
X57018797Y-32690171D01*
X57018793Y-32690164D01*
X56932547Y-32574955D01*
X56932544Y-32574952D01*
X56817335Y-32488706D01*
X56817328Y-32488702D01*
X56682482Y-32438408D01*
X56682483Y-32438408D01*
X56622883Y-32432001D01*
X56622881Y-32432000D01*
X56622873Y-32432000D01*
X56622864Y-32432000D01*
X54527129Y-32432000D01*
X54527123Y-32432001D01*
X54467516Y-32438408D01*
X54332671Y-32488702D01*
X54332664Y-32488706D01*
X54217455Y-32574952D01*
X54217452Y-32574955D01*
X54131206Y-32690164D01*
X54131202Y-32690171D01*
X54080908Y-32825017D01*
X54074501Y-32884616D01*
X54074501Y-32884623D01*
X54074500Y-32884635D01*
X44659214Y-32884635D01*
X44585292Y-32810713D01*
X44585288Y-32810710D01*
X44454185Y-32723109D01*
X44454172Y-32723102D01*
X44308501Y-32662764D01*
X44308489Y-32662761D01*
X44153845Y-32632000D01*
X44153842Y-32632000D01*
X43996158Y-32632000D01*
X43996155Y-32632000D01*
X43841510Y-32662761D01*
X43841498Y-32662764D01*
X43695827Y-32723102D01*
X43695814Y-32723109D01*
X43564711Y-32810710D01*
X43564707Y-32810713D01*
X43453213Y-32922207D01*
X43453210Y-32922211D01*
X43365609Y-33053314D01*
X43365602Y-33053327D01*
X43305264Y-33198998D01*
X43305261Y-33199010D01*
X43274500Y-33353653D01*
X12605322Y-33353653D01*
X12605294Y-33348192D01*
X12572650Y-26884635D01*
X23074500Y-26884635D01*
X23074500Y-28980370D01*
X23074501Y-28980376D01*
X23080908Y-29039983D01*
X23131202Y-29174828D01*
X23131206Y-29174835D01*
X23217452Y-29290044D01*
X23217455Y-29290047D01*
X23332664Y-29376293D01*
X23332671Y-29376297D01*
X23467517Y-29426591D01*
X23467516Y-29426591D01*
X23474444Y-29427335D01*
X23527127Y-29433000D01*
X25622872Y-29432999D01*
X25682483Y-29426591D01*
X25817331Y-29376296D01*
X25932546Y-29290046D01*
X26018796Y-29174831D01*
X26069091Y-29039983D01*
X26075500Y-28980373D01*
X26075499Y-26884628D01*
X26069091Y-26825017D01*
X26045343Y-26761346D01*
X26018797Y-26690171D01*
X26018793Y-26690164D01*
X25932547Y-26574955D01*
X25932544Y-26574952D01*
X25817335Y-26488706D01*
X25817328Y-26488702D01*
X25682482Y-26438408D01*
X25682483Y-26438408D01*
X25622883Y-26432001D01*
X25622881Y-26432000D01*
X25622873Y-26432000D01*
X25622864Y-26432000D01*
X23527129Y-26432000D01*
X23527123Y-26432001D01*
X23467516Y-26438408D01*
X23332671Y-26488702D01*
X23332664Y-26488706D01*
X23217455Y-26574952D01*
X23217452Y-26574955D01*
X23131206Y-26690164D01*
X23131202Y-26690171D01*
X23080908Y-26825017D01*
X23074790Y-26881932D01*
X23074501Y-26884623D01*
X23074500Y-26884635D01*
X12572650Y-26884635D01*
X12572636Y-26881932D01*
X12563087Y-24991153D01*
X63112000Y-24991153D01*
X63112000Y-25148846D01*
X63142761Y-25303489D01*
X63142764Y-25303501D01*
X63203102Y-25449172D01*
X63203109Y-25449185D01*
X63290710Y-25580288D01*
X63290713Y-25580292D01*
X63402207Y-25691786D01*
X63402211Y-25691789D01*
X63533314Y-25779390D01*
X63533327Y-25779397D01*
X63678998Y-25839735D01*
X63679003Y-25839737D01*
X63833653Y-25870499D01*
X63833656Y-25870500D01*
X63833658Y-25870500D01*
X63991344Y-25870500D01*
X63991345Y-25870499D01*
X64145997Y-25839737D01*
X64291679Y-25779394D01*
X64422789Y-25691789D01*
X64534289Y-25580289D01*
X64621894Y-25449179D01*
X64682237Y-25303497D01*
X64713000Y-25148842D01*
X64713000Y-24991158D01*
X64713000Y-24991155D01*
X64712999Y-24991153D01*
X64685649Y-24853658D01*
X64682237Y-24836503D01*
X64651106Y-24761346D01*
X64621897Y-24690827D01*
X64621890Y-24690814D01*
X64534289Y-24559711D01*
X64534286Y-24559707D01*
X64422792Y-24448213D01*
X64422788Y-24448210D01*
X64291685Y-24360609D01*
X64291672Y-24360602D01*
X64146001Y-24300264D01*
X64145989Y-24300261D01*
X63991345Y-24269500D01*
X63991342Y-24269500D01*
X63833658Y-24269500D01*
X63833655Y-24269500D01*
X63679010Y-24300261D01*
X63678998Y-24300264D01*
X63533327Y-24360602D01*
X63533314Y-24360609D01*
X63402211Y-24448210D01*
X63402207Y-24448213D01*
X63290713Y-24559707D01*
X63290710Y-24559711D01*
X63203109Y-24690814D01*
X63203102Y-24690827D01*
X63142764Y-24836498D01*
X63142761Y-24836510D01*
X63112000Y-24991153D01*
X12563087Y-24991153D01*
X12563059Y-24985692D01*
X12562305Y-24836498D01*
X12549641Y-22329030D01*
X38024500Y-22329030D01*
X38024500Y-22535969D01*
X38064868Y-22738912D01*
X38064870Y-22738920D01*
X38144058Y-22930096D01*
X38259024Y-23102157D01*
X38405342Y-23248475D01*
X38405345Y-23248477D01*
X38577402Y-23363441D01*
X38768580Y-23442630D01*
X38971530Y-23482999D01*
X38971534Y-23483000D01*
X38971535Y-23483000D01*
X39178466Y-23483000D01*
X39178467Y-23482999D01*
X39381420Y-23442630D01*
X39572598Y-23363441D01*
X39744655Y-23248477D01*
X39890977Y-23102155D01*
X40005941Y-22930098D01*
X40085130Y-22738920D01*
X40125500Y-22535965D01*
X40125500Y-22329035D01*
X40085130Y-22126080D01*
X40005941Y-21934902D01*
X39890977Y-21762845D01*
X39890975Y-21762842D01*
X39744657Y-21616524D01*
X39658626Y-21559041D01*
X39572598Y-21501559D01*
X39381420Y-21422370D01*
X39381412Y-21422368D01*
X39178469Y-21382000D01*
X39178465Y-21382000D01*
X38971535Y-21382000D01*
X38971530Y-21382000D01*
X38768587Y-21422368D01*
X38768579Y-21422370D01*
X38577403Y-21501558D01*
X38405342Y-21616524D01*
X38259024Y-21762842D01*
X38144058Y-21934903D01*
X38064870Y-22126079D01*
X38064868Y-22126087D01*
X38024500Y-22329030D01*
X12549641Y-22329030D01*
X12514288Y-15329030D01*
X38024500Y-15329030D01*
X38024500Y-15535969D01*
X38056807Y-15698386D01*
X38064870Y-15738920D01*
X38144059Y-15930098D01*
X38162006Y-15956958D01*
X38259024Y-16102157D01*
X38405342Y-16248475D01*
X38405345Y-16248477D01*
X38577402Y-16363441D01*
X38768580Y-16442630D01*
X38968272Y-16482351D01*
X38971530Y-16482999D01*
X38971534Y-16483000D01*
X38971535Y-16483000D01*
X39178466Y-16483000D01*
X39178467Y-16482999D01*
X39381420Y-16442630D01*
X39572598Y-16363441D01*
X39744655Y-16248477D01*
X39890977Y-16102155D01*
X40005941Y-15930098D01*
X40085130Y-15738920D01*
X40125500Y-15535965D01*
X40125500Y-15329035D01*
X40085130Y-15126080D01*
X40005941Y-14934902D01*
X39890977Y-14762845D01*
X39890975Y-14762842D01*
X39744657Y-14616524D01*
X39602611Y-14521613D01*
X39572598Y-14501559D01*
X39560657Y-14496613D01*
X39381420Y-14422370D01*
X39381412Y-14422368D01*
X39178469Y-14382000D01*
X39178465Y-14382000D01*
X38971535Y-14382000D01*
X38971530Y-14382000D01*
X38768587Y-14422368D01*
X38768579Y-14422370D01*
X38577403Y-14501558D01*
X38405342Y-14616524D01*
X38259024Y-14762842D01*
X38144058Y-14934903D01*
X38064870Y-15126079D01*
X38064868Y-15126087D01*
X38024500Y-15329030D01*
X12514288Y-15329030D01*
X12500629Y-12624624D01*
X12519974Y-12557488D01*
X12572547Y-12511467D01*
X12624627Y-12500000D01*
X70876000Y-12500000D01*
X70943039Y-12519685D01*
G37*
%TD.AperFunction*%
%TD*%
M02*
