M48
; DRILL file {KiCad 9.0.1} date 2025-05-08T16:35:03-0700
; FORMAT={-:-/ absolute / metric / decimal}
; #@! TF.CreationDate,2025-05-08T16:35:03-07:00
; #@! TF.GenerationSoftware,Kicad,Pcbnew,9.0.1
; #@! TF.FileFunction,Plated,1,4,PTH
FMAT,2
METRIC
; #@! TA.AperFunction,Plated,PTH,ViaDrill
T1C0.300
; #@! TA.AperFunction,Plated,PTH,ComponentDrill
T2C1.000
; #@! TA.AperFunction,Plated,PTH,ComponentDrill
T3C1.200
; #@! TA.AperFunction,Plated,PTH,ComponentDrill
T4C1.270
; #@! TA.AperFunction,Plated,PTH,ComponentDrill
T5C1.524
%
G90
G05
T1
X19.315Y-106.515
X24.075Y-59.432
X26.075Y-38.932
X29.075Y-16.933
X34.075Y-44.932
X34.475Y-68.485
X34.633Y-59.372
X35.575Y-38.432
X38.075Y-40.432
X39.575Y-44.932
X40.075Y-40.432
X42.075Y-58.932
X42.575Y-48.932
X42.575Y-58.432
X44.075Y-33.432
X44.525Y-35.747
X44.525Y-37.747
X44.575Y-44.932
X51.575Y-37.932
X52.575Y-39.432
X56.575Y-47.932
X62.075Y-47.932
X63.875Y-19.895
X63.912Y-25.07
X74.087Y-34.895
X74.587Y-41.395
X75.875Y-47.395
X76.075Y-53.432
X76.695Y-24.682
X78.195Y-23.682
X78.695Y-30.182
X81.195Y-24.682
X81.195Y-26.682
X82.97Y-26.682
X83.475Y-30.182
X83.575Y-18.432
X84.195Y-34.182
X86.195Y-34.182
X86.695Y-16.683
X86.695Y-20.182
X105.075Y-24.932
X110.775Y-13.932
T2
X14.575Y-40.432
X22.075Y-35.932
X24.575Y-27.932
X28.575Y-42.432
X37.105Y-87.715
X48.575Y-42.932
X55.075Y-50.932
X55.575Y-33.932
X56.075Y-39.432
X61.075Y-62.932
X90.185Y-13.84
X90.185Y-16.38
X90.185Y-18.92
X90.185Y-21.46
X90.185Y-24.0
X90.185Y-26.54
X90.185Y-29.08
X90.185Y-31.62
X90.185Y-34.16
X90.185Y-36.7
X90.185Y-39.24
X90.185Y-41.78
X90.185Y-44.32
X90.185Y-46.86
X90.185Y-49.4
X90.185Y-51.94
X90.185Y-54.48
X90.185Y-57.02
X90.185Y-59.56
X90.185Y-62.1
X107.965Y-13.84
X107.965Y-16.38
X107.965Y-18.92
X107.965Y-21.46
X107.965Y-24.0
X107.965Y-26.54
X107.965Y-29.08
X107.965Y-31.62
X107.965Y-34.16
X107.965Y-36.7
X107.965Y-39.24
X107.965Y-41.78
X107.965Y-44.32
X107.965Y-46.86
X107.965Y-49.4
X107.965Y-51.94
X107.965Y-54.48
X107.965Y-57.02
X107.965Y-59.56
X107.965Y-62.1
T3
X13.36Y-49.337
X18.675Y-68.67
X18.675Y-83.67
X28.36Y-49.337
X31.0Y-77.0
X46.0Y-77.0
T4
X19.0Y-95.845
T5
X15.825Y-92.67
X15.825Y-99.02
X22.175Y-92.67
X22.175Y-99.02
M30
