%TF.GenerationSoftware,KiCad,Pcbnew,9.0.1*%
%TF.CreationDate,2025-05-08T16:34:57-07:00*%
%TF.ProjectId,Revision_Board,52657669-7369-46f6-9e5f-426f6172642e,rev?*%
%TF.SameCoordinates,Original*%
%TF.FileFunction,Soldermask,Bot*%
%TF.FilePolarity,Negative*%
%FSLAX46Y46*%
G04 Gerber Fmt 4.6, Leading zero omitted, Abs format (unit mm)*
G04 Created by KiCad (PCBNEW 9.0.1) date 2025-05-08 16:34:57*
%MOMM*%
%LPD*%
G01*
G04 APERTURE LIST*
G04 Aperture macros list*
%AMRoundRect*
0 Rectangle with rounded corners*
0 $1 Rounding radius*
0 $2 $3 $4 $5 $6 $7 $8 $9 X,Y pos of 4 corners*
0 Add a 4 corners polygon primitive as box body*
4,1,4,$2,$3,$4,$5,$6,$7,$8,$9,$2,$3,0*
0 Add four circle primitives for the rounded corners*
1,1,$1+$1,$2,$3*
1,1,$1+$1,$4,$5*
1,1,$1+$1,$6,$7*
1,1,$1+$1,$8,$9*
0 Add four rect primitives between the rounded corners*
20,1,$1+$1,$2,$3,$4,$5,0*
20,1,$1+$1,$4,$5,$6,$7,0*
20,1,$1+$1,$6,$7,$8,$9,0*
20,1,$1+$1,$8,$9,$2,$3,0*%
%AMFreePoly0*
4,1,37,0.603843,0.796157,0.639018,0.796157,0.711114,0.766294,0.766294,0.711114,0.796157,0.639018,0.796157,0.603843,0.800000,0.600000,0.800000,-0.600000,0.796157,-0.603843,0.796157,-0.639018,0.766294,-0.711114,0.711114,-0.766294,0.639018,-0.796157,0.603843,-0.796157,0.600000,-0.800000,0.000000,-0.800000,0.000000,-0.796148,-0.078414,-0.796148,-0.232228,-0.765552,-0.377117,-0.705537,
-0.507515,-0.618408,-0.618408,-0.507515,-0.705537,-0.377117,-0.765552,-0.232228,-0.796148,-0.078414,-0.796148,0.078414,-0.765552,0.232228,-0.705537,0.377117,-0.618408,0.507515,-0.507515,0.618408,-0.377117,0.705537,-0.232228,0.765552,-0.078414,0.796148,0.000000,0.796148,0.000000,0.800000,0.600000,0.800000,0.603843,0.796157,0.603843,0.796157,$1*%
%AMFreePoly1*
4,1,37,0.000000,0.796148,0.078414,0.796148,0.232228,0.765552,0.377117,0.705537,0.507515,0.618408,0.618408,0.507515,0.705537,0.377117,0.765552,0.232228,0.796148,0.078414,0.796148,-0.078414,0.765552,-0.232228,0.705537,-0.377117,0.618408,-0.507515,0.507515,-0.618408,0.377117,-0.705537,0.232228,-0.765552,0.078414,-0.796148,0.000000,-0.796148,0.000000,-0.800000,-0.600000,-0.800000,
-0.603843,-0.796157,-0.639018,-0.796157,-0.711114,-0.766294,-0.766294,-0.711114,-0.796157,-0.639018,-0.796157,-0.603843,-0.800000,-0.600000,-0.800000,0.600000,-0.796157,0.603843,-0.796157,0.639018,-0.766294,0.711114,-0.711114,0.766294,-0.639018,0.796157,-0.603843,0.796157,-0.600000,0.800000,0.000000,0.800000,0.000000,0.796148,0.000000,0.796148,$1*%
G04 Aperture macros list end*
%ADD10R,2.000000X2.000000*%
%ADD11C,2.400000*%
%ADD12C,1.700000*%
%ADD13C,2.200000*%
%ADD14C,1.850000*%
%ADD15RoundRect,0.200000X-0.600000X-0.600000X0.600000X-0.600000X0.600000X0.600000X-0.600000X0.600000X0*%
%ADD16C,1.600000*%
%ADD17FreePoly0,0.000000*%
%ADD18FreePoly1,0.000000*%
%ADD19C,3.556000*%
%ADD20C,3.810000*%
G04 APERTURE END LIST*
D10*
%TO.C,TP8(180)1*%
X14575000Y-40432500D03*
%TD*%
%TO.C,TP1(Q)1*%
X55575000Y-33932500D03*
%TD*%
%TO.C,TP7(90)1*%
X56075000Y-39432500D03*
%TD*%
D11*
%TO.C,L2*%
X31000000Y-77000000D03*
X46000000Y-77000000D03*
%TD*%
D12*
%TO.C,J3*%
X39075000Y-15432500D03*
X39075000Y-22432500D03*
%TD*%
D10*
%TO.C,TP3(I)1*%
X24575000Y-27932500D03*
%TD*%
%TO.C,TP9(QLO)1*%
X61075000Y-62932500D03*
%TD*%
%TO.C,TP10 (ILO)1*%
X55075000Y-50932500D03*
%TD*%
D11*
%TO.C,L3*%
X18675000Y-83670000D03*
X18675000Y-68670000D03*
%TD*%
D10*
%TO.C,TP6*%
X48575000Y-42932500D03*
%TD*%
%TO.C,TP13(RXNS)1*%
X28575000Y-42432500D03*
%TD*%
D11*
%TO.C,L1*%
X13360000Y-49337500D03*
X28360000Y-49337500D03*
%TD*%
D10*
%TO.C,TP14(RXIN)1*%
X37105000Y-87715000D03*
%TD*%
D13*
%TO.C,A1*%
X96350000Y-13970000D03*
D14*
X96650000Y-17000000D03*
X101500000Y-17000000D03*
D13*
X101800000Y-13970000D03*
D15*
X90185000Y-13840000D03*
D16*
X90185000Y-16380000D03*
D17*
X90185000Y-18920000D03*
D16*
X90185000Y-21460000D03*
X90185000Y-24000000D03*
X90185000Y-26540000D03*
X90185000Y-29080000D03*
D17*
X90185000Y-31620000D03*
D16*
X90185000Y-34160000D03*
X90185000Y-36700000D03*
X90185000Y-39240000D03*
X90185000Y-41780000D03*
D17*
X90185000Y-44320000D03*
D16*
X90185000Y-46860000D03*
X90185000Y-49400000D03*
X90185000Y-51940000D03*
X90185000Y-54480000D03*
D17*
X90185000Y-57020000D03*
D16*
X90185000Y-59560000D03*
X90185000Y-62100000D03*
X107965000Y-62100000D03*
X107965000Y-59560000D03*
D18*
X107965000Y-57020000D03*
D16*
X107965000Y-54480000D03*
X107965000Y-51940000D03*
X107965000Y-49400000D03*
X107965000Y-46860000D03*
D18*
X107965000Y-44320000D03*
D16*
X107965000Y-41780000D03*
X107965000Y-39240000D03*
X107965000Y-36700000D03*
X107965000Y-34160000D03*
D18*
X107965000Y-31620000D03*
D16*
X107965000Y-29080000D03*
X107965000Y-26540000D03*
X107965000Y-24000000D03*
X107965000Y-21460000D03*
D18*
X107965000Y-18920000D03*
D16*
X107965000Y-16380000D03*
X107965000Y-13840000D03*
%TD*%
D19*
%TO.C,J1*%
X19000000Y-95845000D03*
D20*
X22175000Y-92670000D03*
X15825000Y-92670000D03*
X22175000Y-99020000D03*
X15825000Y-99020000D03*
%TD*%
D10*
%TO.C,TP2(0)1*%
X22075000Y-35932500D03*
%TD*%
M02*
