%TF.GenerationSoftware,KiCad,Pcbnew,9.0.1*%
%TF.CreationDate,2025-05-08T16:30:00-07:00*%
%TF.ProjectId,Revision_Board,52657669-7369-46f6-9e5f-426f6172642e,rev?*%
%TF.SameCoordinates,Original*%
%TF.FileFunction,Copper,L3,Inr*%
%TF.FilePolarity,Positive*%
%FSLAX46Y46*%
G04 Gerber Fmt 4.6, Leading zero omitted, Abs format (unit mm)*
G04 Created by KiCad (PCBNEW 9.0.1) date 2025-05-08 16:30:00*
%MOMM*%
%LPD*%
G01*
G04 APERTURE LIST*
G04 Aperture macros list*
%AMRoundRect*
0 Rectangle with rounded corners*
0 $1 Rounding radius*
0 $2 $3 $4 $5 $6 $7 $8 $9 X,Y pos of 4 corners*
0 Add a 4 corners polygon primitive as box body*
4,1,4,$2,$3,$4,$5,$6,$7,$8,$9,$2,$3,0*
0 Add four circle primitives for the rounded corners*
1,1,$1+$1,$2,$3*
1,1,$1+$1,$4,$5*
1,1,$1+$1,$6,$7*
1,1,$1+$1,$8,$9*
0 Add four rect primitives between the rounded corners*
20,1,$1+$1,$2,$3,$4,$5,0*
20,1,$1+$1,$4,$5,$6,$7,0*
20,1,$1+$1,$6,$7,$8,$9,0*
20,1,$1+$1,$8,$9,$2,$3,0*%
%AMFreePoly0*
4,1,37,0.603843,0.796157,0.639018,0.796157,0.711114,0.766294,0.766294,0.711114,0.796157,0.639018,0.796157,0.603843,0.800000,0.600000,0.800000,-0.600000,0.796157,-0.603843,0.796157,-0.639018,0.766294,-0.711114,0.711114,-0.766294,0.639018,-0.796157,0.603843,-0.796157,0.600000,-0.800000,0.000000,-0.800000,0.000000,-0.796148,-0.078414,-0.796148,-0.232228,-0.765552,-0.377117,-0.705537,
-0.507515,-0.618408,-0.618408,-0.507515,-0.705537,-0.377117,-0.765552,-0.232228,-0.796148,-0.078414,-0.796148,0.078414,-0.765552,0.232228,-0.705537,0.377117,-0.618408,0.507515,-0.507515,0.618408,-0.377117,0.705537,-0.232228,0.765552,-0.078414,0.796148,0.000000,0.796148,0.000000,0.800000,0.600000,0.800000,0.603843,0.796157,0.603843,0.796157,$1*%
%AMFreePoly1*
4,1,37,0.000000,0.796148,0.078414,0.796148,0.232228,0.765552,0.377117,0.705537,0.507515,0.618408,0.618408,0.507515,0.705537,0.377117,0.765552,0.232228,0.796148,0.078414,0.796148,-0.078414,0.765552,-0.232228,0.705537,-0.377117,0.618408,-0.507515,0.507515,-0.618408,0.377117,-0.705537,0.232228,-0.765552,0.078414,-0.796148,0.000000,-0.796148,0.000000,-0.800000,-0.600000,-0.800000,
-0.603843,-0.796157,-0.639018,-0.796157,-0.711114,-0.766294,-0.766294,-0.711114,-0.796157,-0.639018,-0.796157,-0.603843,-0.800000,-0.600000,-0.800000,0.600000,-0.796157,0.603843,-0.796157,0.639018,-0.766294,0.711114,-0.711114,0.766294,-0.639018,0.796157,-0.603843,0.796157,-0.600000,0.800000,0.000000,0.800000,0.000000,0.796148,0.000000,0.796148,$1*%
G04 Aperture macros list end*
%TA.AperFunction,ComponentPad*%
%ADD10R,2.000000X2.000000*%
%TD*%
%TA.AperFunction,ComponentPad*%
%ADD11C,2.400000*%
%TD*%
%TA.AperFunction,ComponentPad*%
%ADD12RoundRect,0.200000X-0.600000X-0.600000X0.600000X-0.600000X0.600000X0.600000X-0.600000X0.600000X0*%
%TD*%
%TA.AperFunction,ComponentPad*%
%ADD13C,1.600000*%
%TD*%
%TA.AperFunction,ComponentPad*%
%ADD14FreePoly0,0.000000*%
%TD*%
%TA.AperFunction,ComponentPad*%
%ADD15FreePoly1,0.000000*%
%TD*%
%TA.AperFunction,ComponentPad*%
%ADD16C,3.556000*%
%TD*%
%TA.AperFunction,ComponentPad*%
%ADD17C,3.810000*%
%TD*%
%TA.AperFunction,ViaPad*%
%ADD18C,0.600000*%
%TD*%
G04 APERTURE END LIST*
D10*
%TO.N,Net-(U1-1IN+)*%
%TO.C,TP8(180)1*%
X14575000Y-40432500D03*
%TD*%
%TO.N,Net-(U1-2OUT)*%
%TO.C,TP1(Q)1*%
X55575000Y-33932500D03*
%TD*%
%TO.N,Net-(U1-2IN-)*%
%TO.C,TP7(90)1*%
X56075000Y-39432500D03*
%TD*%
D11*
%TO.N,Net-(C10-Pad1)*%
%TO.C,L2*%
X31000000Y-77000000D03*
%TO.N,GND*%
X46000000Y-77000000D03*
%TD*%
D10*
%TO.N,Net-(U1-1OUT)*%
%TO.C,TP3(I)1*%
X24575000Y-27932500D03*
%TD*%
%TO.N,Net-(U2-S0)*%
%TO.C,TP9(QLO)1*%
X61075000Y-62932500D03*
%TD*%
%TO.N,Net-(U2-S1)*%
%TO.C,TP10 (ILO)1*%
X55075000Y-50932500D03*
%TD*%
D11*
%TO.N,Net-(C12-Pad2)*%
%TO.C,L3*%
X18675000Y-83670000D03*
%TO.N,Net-(C10-Pad1)*%
X18675000Y-68670000D03*
%TD*%
D10*
%TO.N,Net-(U1-2IN+)*%
%TO.C,TP6*%
X48575000Y-42932500D03*
%TD*%
%TO.N,Net-(U2-1A)*%
%TO.C,TP13(RXNS)1*%
X28575000Y-42432500D03*
%TD*%
D11*
%TO.N,Net-(C10-Pad2)*%
%TO.C,L1*%
X13360000Y-49337500D03*
%TO.N,Net-(U2-1A)*%
X28360000Y-49337500D03*
%TD*%
D10*
%TO.N,Net-(C12-Pad1)*%
%TO.C,TP14(RXIN)1*%
X37105000Y-87715000D03*
%TD*%
D12*
%TO.N,unconnected-(A1-GPIO0-Pad1)*%
%TO.C,A1*%
X90185000Y-13840000D03*
D13*
%TO.N,unconnected-(A1-GPIO1-Pad2)*%
X90185000Y-16380000D03*
D14*
%TO.N,GND*%
X90185000Y-18920000D03*
D13*
%TO.N,GPIO2*%
X90185000Y-21460000D03*
%TO.N,GPIO3*%
X90185000Y-24000000D03*
%TO.N,unconnected-(A1-GPIO4-Pad6)_1*%
X90185000Y-26540000D03*
%TO.N,unconnected-(A1-GPIO5-Pad7)*%
X90185000Y-29080000D03*
D14*
%TO.N,GND*%
X90185000Y-31620000D03*
D13*
%TO.N,unconnected-(A1-GPIO6-Pad9)*%
X90185000Y-34160000D03*
%TO.N,unconnected-(A1-GPIO7-Pad10)_1*%
X90185000Y-36700000D03*
%TO.N,unconnected-(A1-GPIO8-Pad11)*%
X90185000Y-39240000D03*
%TO.N,unconnected-(A1-GPIO9-Pad12)*%
X90185000Y-41780000D03*
D14*
%TO.N,GND*%
X90185000Y-44320000D03*
D13*
%TO.N,unconnected-(A1-GPIO10-Pad14)*%
X90185000Y-46860000D03*
%TO.N,unconnected-(A1-GPIO11-Pad15)_1*%
X90185000Y-49400000D03*
%TO.N,unconnected-(A1-GPIO12-Pad16)_1*%
X90185000Y-51940000D03*
%TO.N,unconnected-(A1-GPIO13-Pad17)*%
X90185000Y-54480000D03*
D14*
%TO.N,GND*%
X90185000Y-57020000D03*
D13*
%TO.N,unconnected-(A1-GPIO14-Pad19)_1*%
X90185000Y-59560000D03*
%TO.N,unconnected-(A1-GPIO15-Pad20)_1*%
X90185000Y-62100000D03*
%TO.N,unconnected-(A1-GPIO16-Pad21)_1*%
X107965000Y-62100000D03*
%TO.N,unconnected-(A1-GPIO17-Pad22)_1*%
X107965000Y-59560000D03*
D15*
%TO.N,GND*%
X107965000Y-57020000D03*
D13*
%TO.N,unconnected-(A1-GPIO18-Pad24)_1*%
X107965000Y-54480000D03*
%TO.N,unconnected-(A1-GPIO19-Pad25)*%
X107965000Y-51940000D03*
%TO.N,unconnected-(A1-GPIO20-Pad26)*%
X107965000Y-49400000D03*
%TO.N,unconnected-(A1-GPIO21-Pad27)*%
X107965000Y-46860000D03*
D15*
%TO.N,GND*%
X107965000Y-44320000D03*
D13*
%TO.N,unconnected-(A1-GPIO22-Pad29)*%
X107965000Y-41780000D03*
%TO.N,unconnected-(A1-RUN-Pad30)_1*%
X107965000Y-39240000D03*
%TO.N,unconnected-(A1-GPIO26_ADC0-Pad31)*%
X107965000Y-36700000D03*
%TO.N,unconnected-(A1-GPIO27_ADC1-Pad32)_1*%
X107965000Y-34160000D03*
D15*
%TO.N,unconnected-(A1-AGND-Pad33)*%
X107965000Y-31620000D03*
D13*
%TO.N,unconnected-(A1-GPIO28_ADC2-Pad34)_1*%
X107965000Y-29080000D03*
%TO.N,unconnected-(A1-ADC_VREF-Pad35)*%
X107965000Y-26540000D03*
%TO.N,+3.3V*%
X107965000Y-24000000D03*
%TO.N,unconnected-(A1-3V3_EN-Pad37)_1*%
X107965000Y-21460000D03*
D15*
%TO.N,GND*%
X107965000Y-18920000D03*
D13*
%TO.N,unconnected-(A1-VSYS-Pad39)*%
X107965000Y-16380000D03*
%TO.N,+5V*%
X107965000Y-13840000D03*
%TD*%
D16*
%TO.N,Net-(J1-In)*%
%TO.C,J1*%
X19000000Y-95845000D03*
D17*
%TO.N,Net-(J1-Ext)*%
X22175000Y-92670000D03*
X15825000Y-92670000D03*
X22175000Y-99020000D03*
X15825000Y-99020000D03*
%TD*%
D10*
%TO.N,Net-(U1-1IN-)*%
%TO.C,TP2(0)1*%
X22075000Y-35932500D03*
%TD*%
D18*
%TO.N,Smoothed 5V*%
X42575000Y-58432500D03*
X44075000Y-33432500D03*
X63912500Y-25070000D03*
X34632500Y-59372500D03*
%TO.N,GND*%
X63875000Y-19895000D03*
X29075000Y-16932500D03*
X42075000Y-58932500D03*
X26075000Y-38932500D03*
X74087500Y-34895000D03*
X83575000Y-18432500D03*
X42575000Y-48932500D03*
X51575000Y-37932500D03*
X38075000Y-40432500D03*
X75875000Y-47395000D03*
X35575000Y-38432500D03*
X19315000Y-106515000D03*
X24075000Y-59432500D03*
X78195000Y-23682500D03*
X34475000Y-68485000D03*
X86695000Y-16682500D03*
X40075000Y-40432500D03*
X74587500Y-41395000D03*
%TO.N,+3.3V*%
X86695000Y-20182500D03*
X105075000Y-24932500D03*
%TO.N,GPIO2*%
X84195000Y-34182500D03*
X86195000Y-34182500D03*
%TO.N,+5V*%
X110775000Y-13932500D03*
X76075000Y-53432500D03*
%TO.N,Net-(U1-2IN-)*%
X39575000Y-44932500D03*
X52575000Y-39432500D03*
X44525000Y-35747500D03*
X44525000Y-37747500D03*
X44575000Y-44932500D03*
%TO.N,Net-(U1-1IN+)*%
X34075000Y-44932500D03*
%TO.N,Net-(Y1-XB)*%
X83475000Y-30182500D03*
X78695000Y-30182500D03*
%TO.N,Net-(Y1-XA)*%
X82970000Y-26682500D03*
X81195000Y-24682500D03*
X81195000Y-26682500D03*
X76695000Y-24682500D03*
%TO.N,Net-(U2-S1)*%
X56575000Y-47932500D03*
X62075000Y-47932500D03*
%TD*%
%TA.AperFunction,Conductor*%
%TO.N,+3.3V*%
G36*
X89102019Y-12519685D02*
G01*
X89147774Y-12572489D01*
X89157718Y-12641647D01*
X89128693Y-12705203D01*
X89122661Y-12711681D01*
X89029531Y-12804810D01*
X89029530Y-12804811D01*
X88941522Y-12950393D01*
X88890913Y-13112807D01*
X88884500Y-13183386D01*
X88884500Y-14496613D01*
X88890913Y-14567192D01*
X88890913Y-14567194D01*
X88890914Y-14567196D01*
X88914191Y-14641897D01*
X88941522Y-14729606D01*
X89029530Y-14875188D01*
X89149811Y-14995469D01*
X89149813Y-14995470D01*
X89149815Y-14995472D01*
X89295394Y-15083478D01*
X89382566Y-15110641D01*
X89440712Y-15149378D01*
X89468686Y-15213403D01*
X89457605Y-15282388D01*
X89418560Y-15329344D01*
X89337782Y-15388032D01*
X89193028Y-15532786D01*
X89072715Y-15698386D01*
X88979781Y-15880776D01*
X88916522Y-16075465D01*
X88884500Y-16277648D01*
X88884500Y-16482351D01*
X88916522Y-16684534D01*
X88979781Y-16879223D01*
X89072715Y-17061613D01*
X89193028Y-17227213D01*
X89337786Y-17371971D01*
X89503385Y-17492284D01*
X89503387Y-17492285D01*
X89503390Y-17492287D01*
X89588754Y-17535782D01*
X89639550Y-17583757D01*
X89656345Y-17651578D01*
X89633808Y-17717712D01*
X89590914Y-17755624D01*
X89525228Y-17790734D01*
X89525200Y-17790751D01*
X89394206Y-17878278D01*
X89394194Y-17878287D01*
X89394189Y-17878290D01*
X89394189Y-17878291D01*
X89317588Y-17941157D01*
X89317585Y-17941160D01*
X89317582Y-17941162D01*
X89206162Y-18052582D01*
X89206160Y-18052585D01*
X89206157Y-18052588D01*
X89146319Y-18125500D01*
X89143287Y-18129194D01*
X89143278Y-18129206D01*
X89055751Y-18260200D01*
X89055734Y-18260228D01*
X89009037Y-18347593D01*
X89009029Y-18347608D01*
X88948722Y-18493200D01*
X88943218Y-18511346D01*
X88919956Y-18588032D01*
X88919955Y-18588036D01*
X88919955Y-18588037D01*
X88889211Y-18742599D01*
X88889211Y-18742602D01*
X88879500Y-18841209D01*
X88879500Y-18998790D01*
X88889211Y-19097397D01*
X88889211Y-19097400D01*
X88889213Y-19097410D01*
X88919956Y-19251968D01*
X88940954Y-19321190D01*
X88948722Y-19346799D01*
X89009029Y-19492391D01*
X89009031Y-19492396D01*
X89055734Y-19579771D01*
X89055751Y-19579799D01*
X89143278Y-19710793D01*
X89143286Y-19710804D01*
X89143291Y-19710811D01*
X89206157Y-19787412D01*
X89317588Y-19898843D01*
X89394189Y-19961709D01*
X89394198Y-19961715D01*
X89394206Y-19961721D01*
X89525200Y-20049248D01*
X89525205Y-20049251D01*
X89525217Y-20049259D01*
X89525226Y-20049263D01*
X89525228Y-20049265D01*
X89590912Y-20084374D01*
X89640757Y-20133336D01*
X89656217Y-20201474D01*
X89632385Y-20267154D01*
X89588755Y-20304216D01*
X89503388Y-20347713D01*
X89337786Y-20468028D01*
X89193028Y-20612786D01*
X89072715Y-20778386D01*
X88979781Y-20960776D01*
X88916522Y-21155465D01*
X88884500Y-21357648D01*
X88884500Y-21562351D01*
X88916522Y-21764534D01*
X88979781Y-21959223D01*
X89072715Y-22141613D01*
X89193028Y-22307213D01*
X89337786Y-22451971D01*
X89492749Y-22564556D01*
X89503390Y-22572287D01*
X89594840Y-22618883D01*
X89596080Y-22619515D01*
X89646876Y-22667490D01*
X89663671Y-22735311D01*
X89641134Y-22801446D01*
X89596080Y-22840485D01*
X89503386Y-22887715D01*
X89337786Y-23008028D01*
X89193028Y-23152786D01*
X89072715Y-23318386D01*
X88979781Y-23500776D01*
X88916522Y-23695465D01*
X88884500Y-23897648D01*
X88884500Y-24102351D01*
X88916522Y-24304534D01*
X88979781Y-24499223D01*
X89032992Y-24603653D01*
X89072585Y-24681359D01*
X89072715Y-24681613D01*
X89193028Y-24847213D01*
X89337786Y-24991971D01*
X89458226Y-25079474D01*
X89503390Y-25112287D01*
X89594840Y-25158883D01*
X89596080Y-25159515D01*
X89646876Y-25207490D01*
X89663671Y-25275311D01*
X89641134Y-25341446D01*
X89596080Y-25380485D01*
X89503386Y-25427715D01*
X89337786Y-25548028D01*
X89193028Y-25692786D01*
X89072715Y-25858386D01*
X88979781Y-26040776D01*
X88916522Y-26235465D01*
X88884500Y-26437648D01*
X88884500Y-26642351D01*
X88916522Y-26844534D01*
X88979781Y-27039223D01*
X89043691Y-27164653D01*
X89058029Y-27192792D01*
X89072715Y-27221613D01*
X89193028Y-27387213D01*
X89337786Y-27531971D01*
X89492749Y-27644556D01*
X89503390Y-27652287D01*
X89594840Y-27698883D01*
X89596080Y-27699515D01*
X89646876Y-27747490D01*
X89663671Y-27815311D01*
X89641134Y-27881446D01*
X89596080Y-27920485D01*
X89503386Y-27967715D01*
X89337786Y-28088028D01*
X89193028Y-28232786D01*
X89072715Y-28398386D01*
X88979781Y-28580776D01*
X88916522Y-28775465D01*
X88884500Y-28977648D01*
X88884500Y-29182351D01*
X88916522Y-29384534D01*
X88979781Y-29579223D01*
X89072715Y-29761613D01*
X89193028Y-29927213D01*
X89337786Y-30071971D01*
X89503385Y-30192284D01*
X89503387Y-30192285D01*
X89503390Y-30192287D01*
X89588754Y-30235782D01*
X89639550Y-30283757D01*
X89656345Y-30351578D01*
X89633808Y-30417712D01*
X89590914Y-30455624D01*
X89525228Y-30490734D01*
X89525200Y-30490751D01*
X89394206Y-30578278D01*
X89394194Y-30578287D01*
X89394189Y-30578290D01*
X89394189Y-30578291D01*
X89317588Y-30641157D01*
X89317585Y-30641160D01*
X89317582Y-30641162D01*
X89206162Y-30752582D01*
X89206160Y-30752585D01*
X89206157Y-30752588D01*
X89143291Y-30829189D01*
X89143287Y-30829194D01*
X89143278Y-30829206D01*
X89055751Y-30960200D01*
X89055734Y-30960228D01*
X89009031Y-31047603D01*
X89009029Y-31047608D01*
X88948722Y-31193200D01*
X88933186Y-31244416D01*
X88919956Y-31288032D01*
X88919955Y-31288036D01*
X88919955Y-31288037D01*
X88889211Y-31442599D01*
X88889211Y-31442602D01*
X88879500Y-31541209D01*
X88879500Y-31698790D01*
X88889211Y-31797397D01*
X88889211Y-31797400D01*
X88889213Y-31797410D01*
X88919956Y-31951968D01*
X88940954Y-32021190D01*
X88948722Y-32046799D01*
X89009029Y-32192391D01*
X89009031Y-32192396D01*
X89055734Y-32279771D01*
X89055751Y-32279799D01*
X89143278Y-32410793D01*
X89143286Y-32410804D01*
X89143291Y-32410811D01*
X89206157Y-32487412D01*
X89317588Y-32598843D01*
X89394189Y-32661709D01*
X89394198Y-32661715D01*
X89394206Y-32661721D01*
X89525200Y-32749248D01*
X89525205Y-32749251D01*
X89525217Y-32749259D01*
X89525226Y-32749263D01*
X89525228Y-32749265D01*
X89590912Y-32784374D01*
X89640757Y-32833336D01*
X89656217Y-32901474D01*
X89632385Y-32967154D01*
X89588755Y-33004216D01*
X89503388Y-33047713D01*
X89337786Y-33168028D01*
X89193028Y-33312786D01*
X89072715Y-33478386D01*
X88979781Y-33660776D01*
X88916522Y-33855465D01*
X88884500Y-34057648D01*
X88884500Y-34262351D01*
X88916522Y-34464534D01*
X88979781Y-34659223D01*
X88996886Y-34692792D01*
X89053695Y-34804286D01*
X89072715Y-34841613D01*
X89193028Y-35007213D01*
X89337786Y-35151971D01*
X89492749Y-35264556D01*
X89503390Y-35272287D01*
X89594840Y-35318883D01*
X89596080Y-35319515D01*
X89646876Y-35367490D01*
X89663671Y-35435311D01*
X89641134Y-35501446D01*
X89596080Y-35540485D01*
X89503386Y-35587715D01*
X89337786Y-35708028D01*
X89193028Y-35852786D01*
X89072715Y-36018386D01*
X88979781Y-36200776D01*
X88916522Y-36395465D01*
X88884500Y-36597648D01*
X88884500Y-36802351D01*
X88916522Y-37004534D01*
X88979781Y-37199223D01*
X89072715Y-37381613D01*
X89193028Y-37547213D01*
X89337786Y-37691971D01*
X89492749Y-37804556D01*
X89503390Y-37812287D01*
X89594840Y-37858883D01*
X89596080Y-37859515D01*
X89646876Y-37907490D01*
X89663671Y-37975311D01*
X89641134Y-38041446D01*
X89596080Y-38080485D01*
X89503386Y-38127715D01*
X89337786Y-38248028D01*
X89193028Y-38392786D01*
X89072715Y-38558386D01*
X88979781Y-38740776D01*
X88916522Y-38935465D01*
X88884500Y-39137648D01*
X88884500Y-39342351D01*
X88916522Y-39544534D01*
X88979781Y-39739223D01*
X89072715Y-39921613D01*
X89193028Y-40087213D01*
X89337786Y-40231971D01*
X89492749Y-40344556D01*
X89503390Y-40352287D01*
X89594840Y-40398883D01*
X89596080Y-40399515D01*
X89646876Y-40447490D01*
X89663671Y-40515311D01*
X89641134Y-40581446D01*
X89596080Y-40620485D01*
X89503386Y-40667715D01*
X89337786Y-40788028D01*
X89193028Y-40932786D01*
X89072715Y-41098386D01*
X88979781Y-41280776D01*
X88916522Y-41475465D01*
X88884500Y-41677648D01*
X88884500Y-41882351D01*
X88916522Y-42084534D01*
X88979781Y-42279223D01*
X89072715Y-42461613D01*
X89193028Y-42627213D01*
X89337786Y-42771971D01*
X89503385Y-42892284D01*
X89503387Y-42892285D01*
X89503390Y-42892287D01*
X89588754Y-42935782D01*
X89639550Y-42983757D01*
X89656345Y-43051578D01*
X89633808Y-43117712D01*
X89590914Y-43155624D01*
X89525228Y-43190734D01*
X89525200Y-43190751D01*
X89394206Y-43278278D01*
X89394194Y-43278287D01*
X89394189Y-43278290D01*
X89394189Y-43278291D01*
X89317588Y-43341157D01*
X89317585Y-43341160D01*
X89317582Y-43341162D01*
X89206162Y-43452582D01*
X89206160Y-43452585D01*
X89206157Y-43452588D01*
X89178084Y-43486795D01*
X89143287Y-43529194D01*
X89143278Y-43529206D01*
X89055751Y-43660200D01*
X89055734Y-43660228D01*
X89009031Y-43747603D01*
X89009029Y-43747608D01*
X88948722Y-43893200D01*
X88933186Y-43944416D01*
X88919956Y-43988032D01*
X88919955Y-43988036D01*
X88919955Y-43988037D01*
X88889211Y-44142599D01*
X88889211Y-44142602D01*
X88879500Y-44241209D01*
X88879500Y-44398790D01*
X88889211Y-44497397D01*
X88889211Y-44497400D01*
X88889213Y-44497410D01*
X88919956Y-44651968D01*
X88940954Y-44721190D01*
X88948722Y-44746799D01*
X89009029Y-44892391D01*
X89009031Y-44892396D01*
X89055734Y-44979771D01*
X89055751Y-44979799D01*
X89143278Y-45110793D01*
X89143286Y-45110804D01*
X89143291Y-45110811D01*
X89206157Y-45187412D01*
X89317588Y-45298843D01*
X89394189Y-45361709D01*
X89394198Y-45361715D01*
X89394206Y-45361721D01*
X89525200Y-45449248D01*
X89525205Y-45449251D01*
X89525217Y-45449259D01*
X89525226Y-45449263D01*
X89525228Y-45449265D01*
X89590912Y-45484374D01*
X89640757Y-45533336D01*
X89656217Y-45601474D01*
X89632385Y-45667154D01*
X89588755Y-45704216D01*
X89503388Y-45747713D01*
X89337786Y-45868028D01*
X89193028Y-46012786D01*
X89072715Y-46178386D01*
X88979781Y-46360776D01*
X88916522Y-46555465D01*
X88884500Y-46757648D01*
X88884500Y-46962351D01*
X88916522Y-47164534D01*
X88979781Y-47359223D01*
X89072715Y-47541613D01*
X89193028Y-47707213D01*
X89337786Y-47851971D01*
X89492749Y-47964556D01*
X89503390Y-47972287D01*
X89590724Y-48016786D01*
X89596080Y-48019515D01*
X89646876Y-48067490D01*
X89663671Y-48135311D01*
X89641134Y-48201446D01*
X89596080Y-48240485D01*
X89503386Y-48287715D01*
X89337786Y-48408028D01*
X89193028Y-48552786D01*
X89072715Y-48718386D01*
X88979781Y-48900776D01*
X88916522Y-49095465D01*
X88884500Y-49297648D01*
X88884500Y-49502351D01*
X88916522Y-49704534D01*
X88979781Y-49899223D01*
X89072715Y-50081613D01*
X89193028Y-50247213D01*
X89337786Y-50391971D01*
X89492749Y-50504556D01*
X89503390Y-50512287D01*
X89594840Y-50558883D01*
X89596080Y-50559515D01*
X89646876Y-50607490D01*
X89663671Y-50675311D01*
X89641134Y-50741446D01*
X89596080Y-50780485D01*
X89503386Y-50827715D01*
X89337786Y-50948028D01*
X89193028Y-51092786D01*
X89072715Y-51258386D01*
X88979781Y-51440776D01*
X88916522Y-51635465D01*
X88884500Y-51837648D01*
X88884500Y-52042351D01*
X88916522Y-52244534D01*
X88979781Y-52439223D01*
X89072715Y-52621613D01*
X89193028Y-52787213D01*
X89337786Y-52931971D01*
X89492749Y-53044556D01*
X89503390Y-53052287D01*
X89594840Y-53098883D01*
X89596080Y-53099515D01*
X89646876Y-53147490D01*
X89663671Y-53215311D01*
X89641134Y-53281446D01*
X89596080Y-53320485D01*
X89503386Y-53367715D01*
X89337786Y-53488028D01*
X89193028Y-53632786D01*
X89072715Y-53798386D01*
X88979781Y-53980776D01*
X88916522Y-54175465D01*
X88884500Y-54377648D01*
X88884500Y-54582351D01*
X88916522Y-54784534D01*
X88979781Y-54979223D01*
X89072715Y-55161613D01*
X89193028Y-55327213D01*
X89337786Y-55471971D01*
X89503385Y-55592284D01*
X89503387Y-55592285D01*
X89503390Y-55592287D01*
X89588754Y-55635782D01*
X89639550Y-55683757D01*
X89656345Y-55751578D01*
X89633808Y-55817712D01*
X89590914Y-55855624D01*
X89525228Y-55890734D01*
X89525200Y-55890751D01*
X89394206Y-55978278D01*
X89394194Y-55978287D01*
X89394189Y-55978290D01*
X89394189Y-55978291D01*
X89317588Y-56041157D01*
X89317585Y-56041160D01*
X89317582Y-56041162D01*
X89206162Y-56152582D01*
X89206160Y-56152585D01*
X89206157Y-56152588D01*
X89178084Y-56186795D01*
X89143287Y-56229194D01*
X89143278Y-56229206D01*
X89055751Y-56360200D01*
X89055734Y-56360228D01*
X89009031Y-56447603D01*
X89009029Y-56447608D01*
X88948722Y-56593200D01*
X88933186Y-56644416D01*
X88919956Y-56688032D01*
X88919955Y-56688036D01*
X88919955Y-56688037D01*
X88889211Y-56842599D01*
X88889211Y-56842602D01*
X88879500Y-56941209D01*
X88879500Y-57098790D01*
X88889211Y-57197397D01*
X88889211Y-57197400D01*
X88889213Y-57197410D01*
X88919956Y-57351968D01*
X88940954Y-57421190D01*
X88948722Y-57446799D01*
X89009029Y-57592391D01*
X89009031Y-57592396D01*
X89055734Y-57679771D01*
X89055751Y-57679799D01*
X89143278Y-57810793D01*
X89143286Y-57810804D01*
X89143291Y-57810811D01*
X89206157Y-57887412D01*
X89317588Y-57998843D01*
X89394189Y-58061709D01*
X89394198Y-58061715D01*
X89394206Y-58061721D01*
X89525200Y-58149248D01*
X89525205Y-58149251D01*
X89525217Y-58149259D01*
X89525226Y-58149263D01*
X89525228Y-58149265D01*
X89590912Y-58184374D01*
X89640757Y-58233336D01*
X89656217Y-58301474D01*
X89632385Y-58367154D01*
X89588755Y-58404216D01*
X89503388Y-58447713D01*
X89337786Y-58568028D01*
X89193028Y-58712786D01*
X89072715Y-58878386D01*
X88979781Y-59060776D01*
X88916522Y-59255465D01*
X88884500Y-59457648D01*
X88884500Y-59662351D01*
X88916522Y-59864534D01*
X88979781Y-60059223D01*
X89072715Y-60241613D01*
X89193028Y-60407213D01*
X89337786Y-60551971D01*
X89492749Y-60664556D01*
X89503390Y-60672287D01*
X89594840Y-60718883D01*
X89596080Y-60719515D01*
X89646876Y-60767490D01*
X89663671Y-60835311D01*
X89641134Y-60901446D01*
X89596080Y-60940485D01*
X89503386Y-60987715D01*
X89337786Y-61108028D01*
X89193028Y-61252786D01*
X89072715Y-61418386D01*
X88979781Y-61600776D01*
X88916522Y-61795465D01*
X88884500Y-61997648D01*
X88884500Y-62202351D01*
X88916522Y-62404534D01*
X88979781Y-62599223D01*
X89072715Y-62781613D01*
X89193028Y-62947213D01*
X89337786Y-63091971D01*
X89492749Y-63204556D01*
X89503390Y-63212287D01*
X89619607Y-63271503D01*
X89685776Y-63305218D01*
X89685778Y-63305218D01*
X89685781Y-63305220D01*
X89790137Y-63339127D01*
X89880465Y-63368477D01*
X89981557Y-63384488D01*
X90082648Y-63400500D01*
X90082649Y-63400500D01*
X90287351Y-63400500D01*
X90287352Y-63400500D01*
X90489534Y-63368477D01*
X90684219Y-63305220D01*
X90866610Y-63212287D01*
X90959590Y-63144732D01*
X91032213Y-63091971D01*
X91032215Y-63091968D01*
X91032219Y-63091966D01*
X91176966Y-62947219D01*
X91176968Y-62947215D01*
X91176971Y-62947213D01*
X91229732Y-62874590D01*
X91297287Y-62781610D01*
X91390220Y-62599219D01*
X91453477Y-62404534D01*
X91485500Y-62202352D01*
X91485500Y-61997648D01*
X91453477Y-61795466D01*
X91390220Y-61600781D01*
X91390218Y-61600778D01*
X91390218Y-61600776D01*
X91356503Y-61534607D01*
X91297287Y-61418390D01*
X91289556Y-61407749D01*
X91176971Y-61252786D01*
X91032213Y-61108028D01*
X90866614Y-60987715D01*
X90860006Y-60984348D01*
X90773917Y-60940483D01*
X90723123Y-60892511D01*
X90706328Y-60824690D01*
X90728865Y-60758555D01*
X90773917Y-60719516D01*
X90866610Y-60672287D01*
X90887770Y-60656913D01*
X91032213Y-60551971D01*
X91032215Y-60551968D01*
X91032219Y-60551966D01*
X91176966Y-60407219D01*
X91176968Y-60407215D01*
X91176971Y-60407213D01*
X91229732Y-60334590D01*
X91297287Y-60241610D01*
X91390220Y-60059219D01*
X91453477Y-59864534D01*
X91485500Y-59662352D01*
X91485500Y-59457648D01*
X91462098Y-59309895D01*
X91975000Y-59309895D01*
X96627057Y-62922663D01*
X96667931Y-62979327D01*
X96675000Y-63020597D01*
X96675000Y-63970000D01*
X101475000Y-63970000D01*
X101475000Y-63020597D01*
X101494685Y-62953558D01*
X101522941Y-62922664D01*
X106175000Y-59309895D01*
X106175000Y-54970000D01*
X91975000Y-54970000D01*
X91975000Y-59309895D01*
X91462098Y-59309895D01*
X91453477Y-59255466D01*
X91390220Y-59060781D01*
X91390218Y-59060778D01*
X91390218Y-59060776D01*
X91356503Y-58994607D01*
X91297287Y-58878390D01*
X91289556Y-58867749D01*
X91176971Y-58712786D01*
X91032217Y-58568032D01*
X91032212Y-58568028D01*
X90955936Y-58512610D01*
X90913270Y-58457280D01*
X90907291Y-58387667D01*
X90939897Y-58325872D01*
X90998158Y-58292143D01*
X91018226Y-58287022D01*
X91091735Y-58256574D01*
X91140551Y-58233219D01*
X91255733Y-58146994D01*
X91311994Y-58090733D01*
X91348157Y-58050475D01*
X91421574Y-57926735D01*
X91452022Y-57853226D01*
X91470024Y-57802198D01*
X91490500Y-57659782D01*
X91490500Y-56380218D01*
X91487604Y-56326185D01*
X91452022Y-56186774D01*
X91421574Y-56113265D01*
X91398219Y-56064449D01*
X91311994Y-55949267D01*
X91311989Y-55949262D01*
X91311984Y-55949256D01*
X91255747Y-55893019D01*
X91255731Y-55893005D01*
X91215475Y-55856843D01*
X91215467Y-55856837D01*
X91091736Y-55783426D01*
X91091737Y-55783426D01*
X91023001Y-55754956D01*
X91018226Y-55752978D01*
X91018217Y-55752975D01*
X91018205Y-55752970D01*
X90989863Y-55742971D01*
X90933193Y-55702103D01*
X90907613Y-55637084D01*
X90921246Y-55568558D01*
X90958236Y-55525717D01*
X91032215Y-55471969D01*
X91032215Y-55471968D01*
X91032219Y-55471966D01*
X91176966Y-55327219D01*
X91176968Y-55327215D01*
X91176971Y-55327213D01*
X91229732Y-55254590D01*
X91297287Y-55161610D01*
X91390220Y-54979219D01*
X91453477Y-54784534D01*
X91485500Y-54582352D01*
X91485500Y-54377648D01*
X91462590Y-54233000D01*
X91453477Y-54175465D01*
X91390218Y-53980776D01*
X91356503Y-53914607D01*
X91297287Y-53798390D01*
X91289556Y-53787749D01*
X91176971Y-53632786D01*
X91032213Y-53488028D01*
X90866614Y-53367715D01*
X90860006Y-53364348D01*
X90773917Y-53320483D01*
X90723123Y-53272511D01*
X90706328Y-53204690D01*
X90728865Y-53138555D01*
X90773917Y-53099516D01*
X90866610Y-53052287D01*
X90887770Y-53036913D01*
X91032213Y-52931971D01*
X91032215Y-52931968D01*
X91032219Y-52931966D01*
X91176966Y-52787219D01*
X91176968Y-52787215D01*
X91176971Y-52787213D01*
X91267387Y-52662764D01*
X91297287Y-52621610D01*
X91390220Y-52439219D01*
X91453477Y-52244534D01*
X91485500Y-52042352D01*
X91485500Y-51837648D01*
X91453477Y-51635466D01*
X91390220Y-51440781D01*
X91390218Y-51440778D01*
X91390218Y-51440776D01*
X91356503Y-51374607D01*
X91297287Y-51258390D01*
X91289556Y-51247749D01*
X91176971Y-51092786D01*
X91032213Y-50948028D01*
X90866614Y-50827715D01*
X90860006Y-50824348D01*
X90773917Y-50780483D01*
X90723123Y-50732511D01*
X90706328Y-50664690D01*
X90728865Y-50598555D01*
X90773917Y-50559516D01*
X90866610Y-50512287D01*
X90887770Y-50496913D01*
X91032213Y-50391971D01*
X91032215Y-50391968D01*
X91032219Y-50391966D01*
X91176966Y-50247219D01*
X91176968Y-50247215D01*
X91176971Y-50247213D01*
X91229732Y-50174590D01*
X91297287Y-50081610D01*
X91390220Y-49899219D01*
X91453477Y-49704534D01*
X91485500Y-49502352D01*
X91485500Y-49297648D01*
X91453477Y-49095466D01*
X91390220Y-48900781D01*
X91390218Y-48900778D01*
X91390218Y-48900776D01*
X91356503Y-48834607D01*
X91297287Y-48718390D01*
X91289556Y-48707749D01*
X91176971Y-48552786D01*
X91032213Y-48408028D01*
X90866614Y-48287715D01*
X90860006Y-48284348D01*
X90773917Y-48240483D01*
X90723123Y-48192511D01*
X90706328Y-48124690D01*
X90728865Y-48058555D01*
X90773917Y-48019516D01*
X90866610Y-47972287D01*
X90887770Y-47956913D01*
X91032213Y-47851971D01*
X91032215Y-47851968D01*
X91032219Y-47851966D01*
X91176966Y-47707219D01*
X91176968Y-47707215D01*
X91176971Y-47707213D01*
X91229732Y-47634590D01*
X91297287Y-47541610D01*
X91390220Y-47359219D01*
X91453477Y-47164534D01*
X91485500Y-46962352D01*
X91485500Y-46757648D01*
X91474090Y-46685609D01*
X91453477Y-46555465D01*
X91390218Y-46360776D01*
X91356503Y-46294607D01*
X91297287Y-46178390D01*
X91289556Y-46167749D01*
X91176971Y-46012786D01*
X91032217Y-45868032D01*
X91032212Y-45868028D01*
X90955936Y-45812610D01*
X90913270Y-45757280D01*
X90907291Y-45687667D01*
X90939897Y-45625872D01*
X90998158Y-45592143D01*
X91018226Y-45587022D01*
X91091735Y-45556574D01*
X91140551Y-45533219D01*
X91255733Y-45446994D01*
X91311994Y-45390733D01*
X91348157Y-45350475D01*
X91421574Y-45226735D01*
X91452022Y-45153226D01*
X91470024Y-45102198D01*
X91490500Y-44959782D01*
X91490500Y-43680218D01*
X91487604Y-43626185D01*
X91452022Y-43486774D01*
X91421574Y-43413265D01*
X91398219Y-43364449D01*
X91311994Y-43249267D01*
X91311989Y-43249262D01*
X91311984Y-43249256D01*
X91255747Y-43193019D01*
X91255731Y-43193005D01*
X91215475Y-43156843D01*
X91215467Y-43156837D01*
X91091736Y-43083426D01*
X91091737Y-43083426D01*
X91023001Y-43054956D01*
X91018226Y-43052978D01*
X91018217Y-43052975D01*
X91018205Y-43052970D01*
X90989863Y-43042971D01*
X90933193Y-43002103D01*
X90907613Y-42937084D01*
X90921246Y-42868558D01*
X90958236Y-42825717D01*
X91032215Y-42771969D01*
X91032215Y-42771968D01*
X91032219Y-42771966D01*
X91176966Y-42627219D01*
X91176968Y-42627215D01*
X91176971Y-42627213D01*
X91229732Y-42554590D01*
X91297287Y-42461610D01*
X91390220Y-42279219D01*
X91453477Y-42084534D01*
X91485500Y-41882352D01*
X91485500Y-41677648D01*
X91453477Y-41475466D01*
X91452949Y-41473842D01*
X91424127Y-41385137D01*
X91390220Y-41280781D01*
X91390218Y-41280778D01*
X91390218Y-41280776D01*
X91329448Y-41161510D01*
X91297287Y-41098390D01*
X91289556Y-41087749D01*
X91176971Y-40932786D01*
X91032213Y-40788028D01*
X90866614Y-40667715D01*
X90860006Y-40664348D01*
X90773917Y-40620483D01*
X90723123Y-40572511D01*
X90706328Y-40504690D01*
X90728865Y-40438555D01*
X90773917Y-40399516D01*
X90866610Y-40352287D01*
X90887770Y-40336913D01*
X91032213Y-40231971D01*
X91032215Y-40231968D01*
X91032219Y-40231966D01*
X91176966Y-40087219D01*
X91176968Y-40087215D01*
X91176971Y-40087213D01*
X91229732Y-40014590D01*
X91297287Y-39921610D01*
X91390220Y-39739219D01*
X91453477Y-39544534D01*
X91485500Y-39342352D01*
X91485500Y-39137648D01*
X91453477Y-38935466D01*
X91390220Y-38740781D01*
X91390218Y-38740778D01*
X91390218Y-38740776D01*
X91356503Y-38674607D01*
X91297287Y-38558390D01*
X91289556Y-38547749D01*
X91176971Y-38392786D01*
X91032213Y-38248028D01*
X90866614Y-38127715D01*
X90860006Y-38124348D01*
X90773917Y-38080483D01*
X90723123Y-38032511D01*
X90706328Y-37964690D01*
X90728865Y-37898555D01*
X90773917Y-37859516D01*
X90866610Y-37812287D01*
X90887770Y-37796913D01*
X91032213Y-37691971D01*
X91032215Y-37691968D01*
X91032219Y-37691966D01*
X91176966Y-37547219D01*
X91176968Y-37547215D01*
X91176971Y-37547213D01*
X91229732Y-37474590D01*
X91297287Y-37381610D01*
X91390220Y-37199219D01*
X91453477Y-37004534D01*
X91485500Y-36802352D01*
X91485500Y-36597648D01*
X91453477Y-36395466D01*
X91390220Y-36200781D01*
X91390218Y-36200778D01*
X91390218Y-36200776D01*
X91356503Y-36134607D01*
X91297287Y-36018390D01*
X91289556Y-36007749D01*
X91176971Y-35852786D01*
X91032213Y-35708028D01*
X90866614Y-35587715D01*
X90860006Y-35584348D01*
X90773917Y-35540483D01*
X90723123Y-35492511D01*
X90706328Y-35424690D01*
X90728865Y-35358555D01*
X90773917Y-35319516D01*
X90866610Y-35272287D01*
X90887770Y-35256913D01*
X91032213Y-35151971D01*
X91032215Y-35151968D01*
X91032219Y-35151966D01*
X91176966Y-35007219D01*
X91176968Y-35007215D01*
X91176971Y-35007213D01*
X91229732Y-34934590D01*
X91297287Y-34841610D01*
X91390220Y-34659219D01*
X91453477Y-34464534D01*
X91485500Y-34262352D01*
X91485500Y-34057648D01*
X91453477Y-33855466D01*
X91390220Y-33660781D01*
X91390218Y-33660778D01*
X91390218Y-33660776D01*
X91356503Y-33594607D01*
X91297287Y-33478390D01*
X91289556Y-33467749D01*
X91176971Y-33312786D01*
X91032217Y-33168032D01*
X91032212Y-33168028D01*
X90955936Y-33112610D01*
X90913270Y-33057280D01*
X90907291Y-32987667D01*
X90939897Y-32925872D01*
X90998158Y-32892143D01*
X91018226Y-32887022D01*
X91091735Y-32856574D01*
X91140551Y-32833219D01*
X91255733Y-32746994D01*
X91311994Y-32690733D01*
X91348157Y-32650475D01*
X91421574Y-32526735D01*
X91452022Y-32453226D01*
X91470024Y-32402198D01*
X91490500Y-32259782D01*
X91490500Y-30980218D01*
X91487604Y-30926185D01*
X91452022Y-30786774D01*
X91421574Y-30713265D01*
X91398219Y-30664449D01*
X91311994Y-30549267D01*
X91311989Y-30549262D01*
X91311984Y-30549256D01*
X91255747Y-30493019D01*
X91255731Y-30493005D01*
X91215475Y-30456843D01*
X91215467Y-30456837D01*
X91091736Y-30383426D01*
X91091737Y-30383426D01*
X91023001Y-30354956D01*
X91018226Y-30352978D01*
X91018217Y-30352975D01*
X91018205Y-30352970D01*
X90989863Y-30342971D01*
X90933193Y-30302103D01*
X90907613Y-30237084D01*
X90921246Y-30168558D01*
X90958236Y-30125717D01*
X91032215Y-30071969D01*
X91032215Y-30071968D01*
X91032219Y-30071966D01*
X91176966Y-29927219D01*
X91176968Y-29927215D01*
X91176971Y-29927213D01*
X91266982Y-29803321D01*
X91297287Y-29761610D01*
X91390220Y-29579219D01*
X91453477Y-29384534D01*
X91485500Y-29182352D01*
X91485500Y-28977648D01*
X91453477Y-28775466D01*
X91390220Y-28580781D01*
X91390218Y-28580778D01*
X91390218Y-28580776D01*
X91356503Y-28514607D01*
X91297287Y-28398390D01*
X91289556Y-28387749D01*
X91176971Y-28232786D01*
X91032213Y-28088028D01*
X90866614Y-27967715D01*
X90860006Y-27964348D01*
X90773917Y-27920483D01*
X90723123Y-27872511D01*
X90706328Y-27804690D01*
X90728865Y-27738555D01*
X90773917Y-27699516D01*
X90866610Y-27652287D01*
X90887770Y-27636913D01*
X91032213Y-27531971D01*
X91032215Y-27531968D01*
X91032219Y-27531966D01*
X91176966Y-27387219D01*
X91176968Y-27387215D01*
X91176971Y-27387213D01*
X91237220Y-27304286D01*
X91297287Y-27221610D01*
X91390220Y-27039219D01*
X91453477Y-26844534D01*
X91485500Y-26642352D01*
X91485500Y-26437648D01*
X91453477Y-26235466D01*
X91390220Y-26040781D01*
X91390218Y-26040778D01*
X91390218Y-26040776D01*
X91355736Y-25973102D01*
X91297287Y-25858390D01*
X91289556Y-25847749D01*
X91176971Y-25692786D01*
X91032213Y-25548028D01*
X90866614Y-25427715D01*
X90796311Y-25391894D01*
X90773917Y-25380483D01*
X90723123Y-25332511D01*
X90706328Y-25264690D01*
X90728865Y-25198555D01*
X90773917Y-25159516D01*
X90866610Y-25112287D01*
X90911774Y-25079474D01*
X91032213Y-24991971D01*
X91032215Y-24991968D01*
X91032219Y-24991966D01*
X91176966Y-24847219D01*
X91176968Y-24847215D01*
X91176971Y-24847213D01*
X91239359Y-24761342D01*
X91297287Y-24681610D01*
X91390220Y-24499219D01*
X91453477Y-24304534D01*
X91485500Y-24102352D01*
X91485500Y-23897648D01*
X91463911Y-23761342D01*
X91453477Y-23695465D01*
X91401038Y-23534075D01*
X91390220Y-23500781D01*
X91390218Y-23500778D01*
X91390218Y-23500776D01*
X91297419Y-23318650D01*
X91297287Y-23318390D01*
X91265092Y-23274077D01*
X91176971Y-23152786D01*
X91032213Y-23008028D01*
X90866614Y-22887715D01*
X90855398Y-22882000D01*
X90773917Y-22840483D01*
X90723123Y-22792511D01*
X90706328Y-22724690D01*
X90728865Y-22658555D01*
X90773917Y-22619516D01*
X90866610Y-22572287D01*
X90887770Y-22556913D01*
X91032213Y-22451971D01*
X91032215Y-22451968D01*
X91032219Y-22451966D01*
X91176966Y-22307219D01*
X91176968Y-22307215D01*
X91176971Y-22307213D01*
X91229732Y-22234590D01*
X91297287Y-22141610D01*
X91390220Y-21959219D01*
X91453477Y-21764534D01*
X91485500Y-21562352D01*
X91485500Y-21357648D01*
X91453477Y-21155466D01*
X91390220Y-20960781D01*
X91390218Y-20960778D01*
X91390218Y-20960776D01*
X91356503Y-20894607D01*
X91297287Y-20778390D01*
X91289556Y-20767749D01*
X91176971Y-20612786D01*
X91032217Y-20468032D01*
X91032212Y-20468028D01*
X90955936Y-20412610D01*
X90913270Y-20357280D01*
X90907291Y-20287667D01*
X90939897Y-20225872D01*
X90998158Y-20192143D01*
X91018226Y-20187022D01*
X91091735Y-20156574D01*
X91140551Y-20133219D01*
X91255733Y-20046994D01*
X91311994Y-19990733D01*
X91348157Y-19950475D01*
X91421574Y-19826735D01*
X91452022Y-19753226D01*
X91470024Y-19702198D01*
X91490500Y-19559782D01*
X91490500Y-18280218D01*
X91487604Y-18226185D01*
X91452022Y-18086774D01*
X91421574Y-18013265D01*
X91398219Y-17964449D01*
X91396845Y-17962614D01*
X91333718Y-17878287D01*
X91311994Y-17849267D01*
X91311989Y-17849262D01*
X91311984Y-17849256D01*
X91255747Y-17793019D01*
X91255731Y-17793005D01*
X91215475Y-17756843D01*
X91215467Y-17756837D01*
X91091736Y-17683426D01*
X91091737Y-17683426D01*
X91023001Y-17654956D01*
X91018226Y-17652978D01*
X91018217Y-17652975D01*
X91018205Y-17652970D01*
X90989863Y-17642971D01*
X90933193Y-17602103D01*
X90907613Y-17537084D01*
X90921246Y-17468558D01*
X90958236Y-17425717D01*
X91032215Y-17371969D01*
X91032215Y-17371968D01*
X91032219Y-17371966D01*
X91176966Y-17227219D01*
X91176968Y-17227215D01*
X91176971Y-17227213D01*
X91229732Y-17154590D01*
X91297287Y-17061610D01*
X91373812Y-16911421D01*
X95524500Y-16911421D01*
X95524500Y-17088578D01*
X95552214Y-17263556D01*
X95606956Y-17432039D01*
X95606957Y-17432042D01*
X95687386Y-17589890D01*
X95791517Y-17733214D01*
X95916786Y-17858483D01*
X96060110Y-17962614D01*
X96137529Y-18002061D01*
X96217957Y-18043042D01*
X96217960Y-18043043D01*
X96249612Y-18053327D01*
X96386445Y-18097786D01*
X96561421Y-18125500D01*
X96561422Y-18125500D01*
X96738578Y-18125500D01*
X96738579Y-18125500D01*
X96913555Y-18097786D01*
X97082042Y-18043042D01*
X97239890Y-17962614D01*
X97383214Y-17858483D01*
X97508483Y-17733214D01*
X97612614Y-17589890D01*
X97693042Y-17432042D01*
X97747786Y-17263555D01*
X97775500Y-17088579D01*
X97775500Y-16911421D01*
X100374500Y-16911421D01*
X100374500Y-17088578D01*
X100402214Y-17263556D01*
X100456956Y-17432039D01*
X100456957Y-17432042D01*
X100537386Y-17589890D01*
X100641517Y-17733214D01*
X100766786Y-17858483D01*
X100910110Y-17962614D01*
X100987529Y-18002061D01*
X101067957Y-18043042D01*
X101067960Y-18043043D01*
X101099612Y-18053327D01*
X101236445Y-18097786D01*
X101411421Y-18125500D01*
X101411422Y-18125500D01*
X101588578Y-18125500D01*
X101588579Y-18125500D01*
X101763555Y-18097786D01*
X101932042Y-18043042D01*
X102089890Y-17962614D01*
X102233214Y-17858483D01*
X102358483Y-17733214D01*
X102462614Y-17589890D01*
X102543042Y-17432042D01*
X102597786Y-17263555D01*
X102625500Y-17088579D01*
X102625500Y-16911421D01*
X102597786Y-16736445D01*
X102570414Y-16652201D01*
X102543043Y-16567960D01*
X102543042Y-16567957D01*
X102499423Y-16482351D01*
X102462614Y-16410110D01*
X102358483Y-16266786D01*
X102233214Y-16141517D01*
X102089890Y-16037386D01*
X101932042Y-15956957D01*
X101932039Y-15956956D01*
X101763556Y-15902214D01*
X101635931Y-15882000D01*
X101588579Y-15874500D01*
X101411421Y-15874500D01*
X101371797Y-15880776D01*
X101236443Y-15902214D01*
X101067960Y-15956956D01*
X101067957Y-15956957D01*
X100910109Y-16037386D01*
X100857697Y-16075466D01*
X100766786Y-16141517D01*
X100766784Y-16141519D01*
X100766783Y-16141519D01*
X100641519Y-16266783D01*
X100641519Y-16266784D01*
X100641517Y-16266786D01*
X100596796Y-16328338D01*
X100537386Y-16410109D01*
X100456957Y-16567957D01*
X100456956Y-16567960D01*
X100402214Y-16736443D01*
X100374500Y-16911421D01*
X97775500Y-16911421D01*
X97747786Y-16736445D01*
X97720414Y-16652201D01*
X97693043Y-16567960D01*
X97693042Y-16567957D01*
X97649423Y-16482351D01*
X97612614Y-16410110D01*
X97508483Y-16266786D01*
X97383214Y-16141517D01*
X97239890Y-16037386D01*
X97082042Y-15956957D01*
X97082039Y-15956956D01*
X96913556Y-15902214D01*
X96785931Y-15882000D01*
X96738579Y-15874500D01*
X96561421Y-15874500D01*
X96521797Y-15880776D01*
X96386443Y-15902214D01*
X96217960Y-15956956D01*
X96217957Y-15956957D01*
X96060109Y-16037386D01*
X96007697Y-16075466D01*
X95916786Y-16141517D01*
X95916784Y-16141519D01*
X95916783Y-16141519D01*
X95791519Y-16266783D01*
X95791519Y-16266784D01*
X95791517Y-16266786D01*
X95746796Y-16328338D01*
X95687386Y-16410109D01*
X95606957Y-16567957D01*
X95606956Y-16567960D01*
X95552214Y-16736443D01*
X95524500Y-16911421D01*
X91373812Y-16911421D01*
X91390220Y-16879219D01*
X91453477Y-16684534D01*
X91485500Y-16482352D01*
X91485500Y-16277648D01*
X91453477Y-16075466D01*
X91448683Y-16060713D01*
X91400612Y-15912764D01*
X91390220Y-15880781D01*
X91390218Y-15880778D01*
X91390218Y-15880776D01*
X91356503Y-15814607D01*
X91297287Y-15698390D01*
X91289556Y-15687749D01*
X91176971Y-15532786D01*
X91032217Y-15388032D01*
X91032212Y-15388028D01*
X90951440Y-15329344D01*
X90908774Y-15274015D01*
X90902795Y-15204401D01*
X90935400Y-15142606D01*
X90987433Y-15110641D01*
X91074606Y-15083478D01*
X91220185Y-14995472D01*
X91340472Y-14875185D01*
X91428478Y-14729606D01*
X91479086Y-14567196D01*
X91485500Y-14496616D01*
X91485500Y-13183384D01*
X91479086Y-13112804D01*
X91428478Y-12950394D01*
X91340472Y-12804815D01*
X91340470Y-12804813D01*
X91340469Y-12804811D01*
X91247339Y-12711681D01*
X91213854Y-12650358D01*
X91218838Y-12580666D01*
X91260710Y-12524733D01*
X91326174Y-12500316D01*
X91335020Y-12500000D01*
X95882785Y-12500000D01*
X95949824Y-12519685D01*
X95995579Y-12572489D01*
X96005523Y-12641647D01*
X95976498Y-12705203D01*
X95921104Y-12741930D01*
X95896742Y-12749846D01*
X95850776Y-12764781D01*
X95668386Y-12857715D01*
X95502786Y-12978028D01*
X95358028Y-13122786D01*
X95237715Y-13288386D01*
X95144781Y-13470776D01*
X95081522Y-13665465D01*
X95049500Y-13867648D01*
X95049500Y-14072351D01*
X95081522Y-14274534D01*
X95144781Y-14469223D01*
X95186582Y-14551260D01*
X95232762Y-14641894D01*
X95237715Y-14651613D01*
X95358028Y-14817213D01*
X95502786Y-14961971D01*
X95657749Y-15074556D01*
X95668390Y-15082287D01*
X95770051Y-15134086D01*
X95850776Y-15175218D01*
X95850778Y-15175218D01*
X95850781Y-15175220D01*
X95940591Y-15204401D01*
X96045465Y-15238477D01*
X96146557Y-15254488D01*
X96247648Y-15270500D01*
X96247649Y-15270500D01*
X96452351Y-15270500D01*
X96452352Y-15270500D01*
X96654534Y-15238477D01*
X96849219Y-15175220D01*
X97031610Y-15082287D01*
X97151106Y-14995469D01*
X97197213Y-14961971D01*
X97197215Y-14961968D01*
X97197219Y-14961966D01*
X97341966Y-14817219D01*
X97341968Y-14817215D01*
X97341971Y-14817213D01*
X97425504Y-14702238D01*
X97462287Y-14651610D01*
X97555220Y-14469219D01*
X97618477Y-14274534D01*
X97650500Y-14072352D01*
X97650500Y-13867648D01*
X97618477Y-13665466D01*
X97555220Y-13470781D01*
X97555218Y-13470778D01*
X97555218Y-13470776D01*
X97521503Y-13404607D01*
X97462287Y-13288390D01*
X97454556Y-13277749D01*
X97341971Y-13122786D01*
X97197213Y-12978028D01*
X97031613Y-12857715D01*
X97031612Y-12857714D01*
X97031610Y-12857713D01*
X96974653Y-12828691D01*
X96849223Y-12764781D01*
X96815807Y-12753923D01*
X96778895Y-12741930D01*
X96721221Y-12702493D01*
X96694023Y-12638134D01*
X96705938Y-12569288D01*
X96753182Y-12517812D01*
X96817215Y-12500000D01*
X101332785Y-12500000D01*
X101399824Y-12519685D01*
X101445579Y-12572489D01*
X101455523Y-12641647D01*
X101426498Y-12705203D01*
X101371104Y-12741930D01*
X101346742Y-12749846D01*
X101300776Y-12764781D01*
X101118386Y-12857715D01*
X100952786Y-12978028D01*
X100808028Y-13122786D01*
X100687715Y-13288386D01*
X100594781Y-13470776D01*
X100531522Y-13665465D01*
X100499500Y-13867648D01*
X100499500Y-14072351D01*
X100531522Y-14274534D01*
X100594781Y-14469223D01*
X100636582Y-14551260D01*
X100682762Y-14641894D01*
X100687715Y-14651613D01*
X100808028Y-14817213D01*
X100952786Y-14961971D01*
X101107749Y-15074556D01*
X101118390Y-15082287D01*
X101220051Y-15134086D01*
X101300776Y-15175218D01*
X101300778Y-15175218D01*
X101300781Y-15175220D01*
X101390591Y-15204401D01*
X101495465Y-15238477D01*
X101596557Y-15254488D01*
X101697648Y-15270500D01*
X101697649Y-15270500D01*
X101902351Y-15270500D01*
X101902352Y-15270500D01*
X102104534Y-15238477D01*
X102299219Y-15175220D01*
X102481610Y-15082287D01*
X102601106Y-14995469D01*
X102647213Y-14961971D01*
X102647215Y-14961968D01*
X102647219Y-14961966D01*
X102791966Y-14817219D01*
X102791968Y-14817215D01*
X102791971Y-14817213D01*
X102875504Y-14702238D01*
X102912287Y-14651610D01*
X103005220Y-14469219D01*
X103068477Y-14274534D01*
X103100500Y-14072352D01*
X103100500Y-13867648D01*
X103068477Y-13665466D01*
X103005220Y-13470781D01*
X103005218Y-13470778D01*
X103005218Y-13470776D01*
X102971503Y-13404607D01*
X102912287Y-13288390D01*
X102904556Y-13277749D01*
X102791971Y-13122786D01*
X102647213Y-12978028D01*
X102481613Y-12857715D01*
X102481612Y-12857714D01*
X102481610Y-12857713D01*
X102424653Y-12828691D01*
X102299223Y-12764781D01*
X102265807Y-12753923D01*
X102228895Y-12741930D01*
X102171221Y-12702493D01*
X102144023Y-12638134D01*
X102155938Y-12569288D01*
X102203182Y-12517812D01*
X102267215Y-12500000D01*
X107215313Y-12500000D01*
X107282352Y-12519685D01*
X107328107Y-12572489D01*
X107338051Y-12641647D01*
X107309026Y-12705203D01*
X107286766Y-12724072D01*
X107287331Y-12724849D01*
X107117786Y-12848028D01*
X106973028Y-12992786D01*
X106852715Y-13158386D01*
X106759781Y-13340776D01*
X106696522Y-13535465D01*
X106664500Y-13737648D01*
X106664500Y-13942351D01*
X106696522Y-14144534D01*
X106759781Y-14339223D01*
X106812553Y-14442792D01*
X106839976Y-14496613D01*
X106852715Y-14521613D01*
X106973028Y-14687213D01*
X107117786Y-14831971D01*
X107272749Y-14944556D01*
X107283390Y-14952287D01*
X107368139Y-14995469D01*
X107376080Y-14999515D01*
X107426876Y-15047490D01*
X107443671Y-15115311D01*
X107421134Y-15181446D01*
X107376080Y-15220485D01*
X107283386Y-15267715D01*
X107117786Y-15388028D01*
X106973028Y-15532786D01*
X106852715Y-15698386D01*
X106759781Y-15880776D01*
X106696522Y-16075465D01*
X106664500Y-16277648D01*
X106664500Y-16482351D01*
X106696522Y-16684534D01*
X106759781Y-16879223D01*
X106852715Y-17061613D01*
X106973028Y-17227213D01*
X107117782Y-17371967D01*
X107117787Y-17371971D01*
X107194063Y-17427389D01*
X107236729Y-17482719D01*
X107242708Y-17552332D01*
X107210102Y-17614127D01*
X107151845Y-17647855D01*
X107131776Y-17652977D01*
X107131766Y-17652980D01*
X107058280Y-17683419D01*
X107058252Y-17683431D01*
X107009451Y-17706779D01*
X107009446Y-17706782D01*
X106894268Y-17793005D01*
X106894256Y-17793015D01*
X106838019Y-17849252D01*
X106801843Y-17889524D01*
X106801837Y-17889532D01*
X106728426Y-18013263D01*
X106697978Y-18086774D01*
X106697970Y-18086795D01*
X106679976Y-18137800D01*
X106679976Y-18137802D01*
X106659501Y-18280215D01*
X106659500Y-18280219D01*
X106659500Y-19559784D01*
X106662395Y-19613814D01*
X106662396Y-19613818D01*
X106697976Y-19753221D01*
X106697980Y-19753233D01*
X106728419Y-19826719D01*
X106728431Y-19826747D01*
X106751779Y-19875548D01*
X106751781Y-19875551D01*
X106838006Y-19990733D01*
X106838010Y-19990737D01*
X106838015Y-19990743D01*
X106894252Y-20046980D01*
X106894261Y-20046988D01*
X106894267Y-20046994D01*
X106934524Y-20083156D01*
X106934532Y-20083162D01*
X107058263Y-20156573D01*
X107058262Y-20156573D01*
X107058279Y-20156580D01*
X107131774Y-20187022D01*
X107146290Y-20192143D01*
X107160133Y-20197027D01*
X107216805Y-20237894D01*
X107242386Y-20302912D01*
X107228754Y-20371439D01*
X107191765Y-20414281D01*
X107117782Y-20468032D01*
X106973028Y-20612786D01*
X106852715Y-20778386D01*
X106759781Y-20960776D01*
X106696522Y-21155465D01*
X106664500Y-21357648D01*
X106664500Y-21562351D01*
X106696522Y-21764534D01*
X106759781Y-21959223D01*
X106852715Y-22141613D01*
X106973028Y-22307213D01*
X107117786Y-22451971D01*
X107283385Y-22572284D01*
X107283387Y-22572285D01*
X107283390Y-22572287D01*
X107376080Y-22619515D01*
X107376630Y-22619795D01*
X107427426Y-22667770D01*
X107444221Y-22735591D01*
X107421684Y-22801725D01*
X107376630Y-22840765D01*
X107283644Y-22888143D01*
X107239077Y-22920523D01*
X107239077Y-22920524D01*
X107835591Y-23517037D01*
X107772007Y-23534075D01*
X107657993Y-23599901D01*
X107564901Y-23692993D01*
X107499075Y-23807007D01*
X107482037Y-23870590D01*
X106885524Y-23274077D01*
X106885523Y-23274077D01*
X106853143Y-23318644D01*
X106760244Y-23500968D01*
X106697009Y-23695582D01*
X106665000Y-23897682D01*
X106665000Y-24102317D01*
X106697009Y-24304417D01*
X106760244Y-24499031D01*
X106853141Y-24681350D01*
X106853147Y-24681359D01*
X106885523Y-24725921D01*
X106885524Y-24725922D01*
X107482037Y-24129409D01*
X107499075Y-24192993D01*
X107564901Y-24307007D01*
X107657993Y-24400099D01*
X107772007Y-24465925D01*
X107835590Y-24482962D01*
X107239076Y-25079474D01*
X107283652Y-25111861D01*
X107376628Y-25159234D01*
X107427425Y-25207208D01*
X107444220Y-25275029D01*
X107421683Y-25341164D01*
X107376630Y-25380203D01*
X107283388Y-25427713D01*
X107117786Y-25548028D01*
X106973028Y-25692786D01*
X106852715Y-25858386D01*
X106759781Y-26040776D01*
X106696522Y-26235465D01*
X106664500Y-26437648D01*
X106664500Y-26642351D01*
X106696522Y-26844534D01*
X106759781Y-27039223D01*
X106823691Y-27164653D01*
X106838029Y-27192792D01*
X106852715Y-27221613D01*
X106973028Y-27387213D01*
X107117786Y-27531971D01*
X107272749Y-27644556D01*
X107283390Y-27652287D01*
X107374840Y-27698883D01*
X107376080Y-27699515D01*
X107426876Y-27747490D01*
X107443671Y-27815311D01*
X107421134Y-27881446D01*
X107376080Y-27920485D01*
X107283386Y-27967715D01*
X107117786Y-28088028D01*
X106973028Y-28232786D01*
X106852715Y-28398386D01*
X106759781Y-28580776D01*
X106696522Y-28775465D01*
X106664500Y-28977648D01*
X106664500Y-29182351D01*
X106696522Y-29384534D01*
X106759781Y-29579223D01*
X106852715Y-29761613D01*
X106973028Y-29927213D01*
X107117782Y-30071967D01*
X107117787Y-30071971D01*
X107194063Y-30127389D01*
X107236729Y-30182719D01*
X107242708Y-30252332D01*
X107210102Y-30314127D01*
X107151845Y-30347855D01*
X107131776Y-30352977D01*
X107131766Y-30352980D01*
X107058280Y-30383419D01*
X107058252Y-30383431D01*
X107009451Y-30406779D01*
X107009446Y-30406782D01*
X106894268Y-30493005D01*
X106894256Y-30493015D01*
X106838019Y-30549252D01*
X106801843Y-30589524D01*
X106801837Y-30589532D01*
X106728426Y-30713263D01*
X106697978Y-30786774D01*
X106697970Y-30786795D01*
X106679976Y-30837800D01*
X106659500Y-30980219D01*
X106659500Y-32259784D01*
X106662395Y-32313814D01*
X106662396Y-32313818D01*
X106697976Y-32453221D01*
X106697980Y-32453233D01*
X106728419Y-32526719D01*
X106728431Y-32526747D01*
X106751779Y-32575548D01*
X106751781Y-32575551D01*
X106838006Y-32690733D01*
X106838010Y-32690737D01*
X106838015Y-32690743D01*
X106894252Y-32746980D01*
X106894261Y-32746988D01*
X106894267Y-32746994D01*
X106934524Y-32783156D01*
X106934532Y-32783162D01*
X107058263Y-32856573D01*
X107058262Y-32856573D01*
X107058279Y-32856580D01*
X107131774Y-32887022D01*
X107146290Y-32892143D01*
X107160133Y-32897027D01*
X107216805Y-32937894D01*
X107242386Y-33002912D01*
X107228754Y-33071439D01*
X107191765Y-33114281D01*
X107117782Y-33168032D01*
X106973028Y-33312786D01*
X106852715Y-33478386D01*
X106759781Y-33660776D01*
X106696522Y-33855465D01*
X106664500Y-34057648D01*
X106664500Y-34262351D01*
X106696522Y-34464534D01*
X106759781Y-34659223D01*
X106776886Y-34692792D01*
X106833695Y-34804286D01*
X106852715Y-34841613D01*
X106973028Y-35007213D01*
X107117786Y-35151971D01*
X107272749Y-35264556D01*
X107283390Y-35272287D01*
X107374840Y-35318883D01*
X107376080Y-35319515D01*
X107426876Y-35367490D01*
X107443671Y-35435311D01*
X107421134Y-35501446D01*
X107376080Y-35540485D01*
X107283386Y-35587715D01*
X107117786Y-35708028D01*
X106973028Y-35852786D01*
X106852715Y-36018386D01*
X106759781Y-36200776D01*
X106696522Y-36395465D01*
X106664500Y-36597648D01*
X106664500Y-36802351D01*
X106696522Y-37004534D01*
X106759781Y-37199223D01*
X106852715Y-37381613D01*
X106973028Y-37547213D01*
X107117786Y-37691971D01*
X107272749Y-37804556D01*
X107283390Y-37812287D01*
X107374840Y-37858883D01*
X107376080Y-37859515D01*
X107426876Y-37907490D01*
X107443671Y-37975311D01*
X107421134Y-38041446D01*
X107376080Y-38080485D01*
X107283386Y-38127715D01*
X107117786Y-38248028D01*
X106973028Y-38392786D01*
X106852715Y-38558386D01*
X106759781Y-38740776D01*
X106696522Y-38935465D01*
X106664500Y-39137648D01*
X106664500Y-39342351D01*
X106696522Y-39544534D01*
X106759781Y-39739223D01*
X106852715Y-39921613D01*
X106973028Y-40087213D01*
X107117786Y-40231971D01*
X107272749Y-40344556D01*
X107283390Y-40352287D01*
X107374840Y-40398883D01*
X107376080Y-40399515D01*
X107426876Y-40447490D01*
X107443671Y-40515311D01*
X107421134Y-40581446D01*
X107376080Y-40620485D01*
X107283386Y-40667715D01*
X107117786Y-40788028D01*
X106973028Y-40932786D01*
X106852715Y-41098386D01*
X106759781Y-41280776D01*
X106696522Y-41475465D01*
X106664500Y-41677648D01*
X106664500Y-41882351D01*
X106696522Y-42084534D01*
X106759781Y-42279223D01*
X106852715Y-42461613D01*
X106973028Y-42627213D01*
X107117782Y-42771967D01*
X107117787Y-42771971D01*
X107194063Y-42827389D01*
X107236729Y-42882719D01*
X107242708Y-42952332D01*
X107210102Y-43014127D01*
X107151845Y-43047855D01*
X107131776Y-43052977D01*
X107131766Y-43052980D01*
X107058280Y-43083419D01*
X107058252Y-43083431D01*
X107009451Y-43106779D01*
X107009446Y-43106782D01*
X106894268Y-43193005D01*
X106894256Y-43193015D01*
X106838019Y-43249252D01*
X106801843Y-43289524D01*
X106801837Y-43289532D01*
X106728426Y-43413263D01*
X106697978Y-43486774D01*
X106697970Y-43486795D01*
X106679976Y-43537800D01*
X106679976Y-43537802D01*
X106659501Y-43680215D01*
X106659500Y-43680219D01*
X106659500Y-44959784D01*
X106662395Y-45013814D01*
X106662396Y-45013818D01*
X106697976Y-45153221D01*
X106697980Y-45153233D01*
X106728419Y-45226719D01*
X106728431Y-45226747D01*
X106751779Y-45275548D01*
X106751781Y-45275551D01*
X106838006Y-45390733D01*
X106838010Y-45390737D01*
X106838015Y-45390743D01*
X106894252Y-45446980D01*
X106894261Y-45446988D01*
X106894267Y-45446994D01*
X106934524Y-45483156D01*
X106934532Y-45483162D01*
X107058263Y-45556573D01*
X107058262Y-45556573D01*
X107058279Y-45556580D01*
X107131774Y-45587022D01*
X107146290Y-45592143D01*
X107160133Y-45597027D01*
X107216805Y-45637894D01*
X107242386Y-45702912D01*
X107228754Y-45771439D01*
X107191765Y-45814281D01*
X107117782Y-45868032D01*
X106973028Y-46012786D01*
X106852715Y-46178386D01*
X106759781Y-46360776D01*
X106696522Y-46555465D01*
X106664500Y-46757648D01*
X106664500Y-46962351D01*
X106696522Y-47164534D01*
X106759781Y-47359223D01*
X106852715Y-47541613D01*
X106973028Y-47707213D01*
X107117786Y-47851971D01*
X107272749Y-47964556D01*
X107283390Y-47972287D01*
X107370724Y-48016786D01*
X107376080Y-48019515D01*
X107426876Y-48067490D01*
X107443671Y-48135311D01*
X107421134Y-48201446D01*
X107376080Y-48240485D01*
X107283386Y-48287715D01*
X107117786Y-48408028D01*
X106973028Y-48552786D01*
X106852715Y-48718386D01*
X106759781Y-48900776D01*
X106696522Y-49095465D01*
X106664500Y-49297648D01*
X106664500Y-49502351D01*
X106696522Y-49704534D01*
X106759781Y-49899223D01*
X106852715Y-50081613D01*
X106973028Y-50247213D01*
X107117786Y-50391971D01*
X107272749Y-50504556D01*
X107283390Y-50512287D01*
X107374840Y-50558883D01*
X107376080Y-50559515D01*
X107426876Y-50607490D01*
X107443671Y-50675311D01*
X107421134Y-50741446D01*
X107376080Y-50780485D01*
X107283386Y-50827715D01*
X107117786Y-50948028D01*
X106973028Y-51092786D01*
X106852715Y-51258386D01*
X106759781Y-51440776D01*
X106696522Y-51635465D01*
X106664500Y-51837648D01*
X106664500Y-52042351D01*
X106696522Y-52244534D01*
X106759781Y-52439223D01*
X106852715Y-52621613D01*
X106973028Y-52787213D01*
X107117786Y-52931971D01*
X107272749Y-53044556D01*
X107283390Y-53052287D01*
X107374840Y-53098883D01*
X107376080Y-53099515D01*
X107426876Y-53147490D01*
X107443671Y-53215311D01*
X107421134Y-53281446D01*
X107376080Y-53320485D01*
X107283386Y-53367715D01*
X107117786Y-53488028D01*
X106973028Y-53632786D01*
X106852715Y-53798386D01*
X106759781Y-53980776D01*
X106696522Y-54175465D01*
X106664500Y-54377648D01*
X106664500Y-54582351D01*
X106696522Y-54784534D01*
X106759781Y-54979223D01*
X106852715Y-55161613D01*
X106973028Y-55327213D01*
X107117782Y-55471967D01*
X107117787Y-55471971D01*
X107194063Y-55527389D01*
X107236729Y-55582719D01*
X107242708Y-55652332D01*
X107210102Y-55714127D01*
X107151845Y-55747855D01*
X107131776Y-55752977D01*
X107131766Y-55752980D01*
X107058280Y-55783419D01*
X107058252Y-55783431D01*
X107009451Y-55806779D01*
X107009446Y-55806782D01*
X106894268Y-55893005D01*
X106894256Y-55893015D01*
X106838019Y-55949252D01*
X106801843Y-55989524D01*
X106801837Y-55989532D01*
X106728426Y-56113263D01*
X106697978Y-56186774D01*
X106697970Y-56186795D01*
X106679976Y-56237800D01*
X106679976Y-56237802D01*
X106659501Y-56380215D01*
X106659500Y-56380219D01*
X106659500Y-57659784D01*
X106662395Y-57713814D01*
X106662396Y-57713818D01*
X106697976Y-57853221D01*
X106697980Y-57853233D01*
X106728419Y-57926719D01*
X106728431Y-57926747D01*
X106751779Y-57975548D01*
X106751781Y-57975551D01*
X106838006Y-58090733D01*
X106838010Y-58090737D01*
X106838015Y-58090743D01*
X106894252Y-58146980D01*
X106894261Y-58146988D01*
X106894267Y-58146994D01*
X106934524Y-58183156D01*
X106934532Y-58183162D01*
X107058263Y-58256573D01*
X107058262Y-58256573D01*
X107058279Y-58256580D01*
X107131774Y-58287022D01*
X107146290Y-58292143D01*
X107160133Y-58297027D01*
X107216805Y-58337894D01*
X107242386Y-58402912D01*
X107228754Y-58471439D01*
X107191765Y-58514281D01*
X107117782Y-58568032D01*
X106973028Y-58712786D01*
X106852715Y-58878386D01*
X106759781Y-59060776D01*
X106696522Y-59255465D01*
X106664500Y-59457648D01*
X106664500Y-59662351D01*
X106696522Y-59864534D01*
X106759781Y-60059223D01*
X106852715Y-60241613D01*
X106973028Y-60407213D01*
X107117786Y-60551971D01*
X107272749Y-60664556D01*
X107283390Y-60672287D01*
X107374840Y-60718883D01*
X107376080Y-60719515D01*
X107426876Y-60767490D01*
X107443671Y-60835311D01*
X107421134Y-60901446D01*
X107376080Y-60940485D01*
X107283386Y-60987715D01*
X107117786Y-61108028D01*
X106973028Y-61252786D01*
X106852715Y-61418386D01*
X106759781Y-61600776D01*
X106696522Y-61795465D01*
X106664500Y-61997648D01*
X106664500Y-62202351D01*
X106696522Y-62404534D01*
X106759781Y-62599223D01*
X106852715Y-62781613D01*
X106973028Y-62947213D01*
X107117786Y-63091971D01*
X107272749Y-63204556D01*
X107283390Y-63212287D01*
X107399607Y-63271503D01*
X107465776Y-63305218D01*
X107465778Y-63305218D01*
X107465781Y-63305220D01*
X107570137Y-63339127D01*
X107660465Y-63368477D01*
X107761557Y-63384488D01*
X107862648Y-63400500D01*
X107862649Y-63400500D01*
X108067351Y-63400500D01*
X108067352Y-63400500D01*
X108269534Y-63368477D01*
X108464219Y-63305220D01*
X108646610Y-63212287D01*
X108739590Y-63144732D01*
X108812213Y-63091971D01*
X108812215Y-63091968D01*
X108812219Y-63091966D01*
X108956966Y-62947219D01*
X108956968Y-62947215D01*
X108956971Y-62947213D01*
X109009732Y-62874590D01*
X109077287Y-62781610D01*
X109170220Y-62599219D01*
X109233477Y-62404534D01*
X109265500Y-62202352D01*
X109265500Y-61997648D01*
X109233477Y-61795466D01*
X109170220Y-61600781D01*
X109170218Y-61600778D01*
X109170218Y-61600776D01*
X109136503Y-61534607D01*
X109077287Y-61418390D01*
X109069556Y-61407749D01*
X108956971Y-61252786D01*
X108812213Y-61108028D01*
X108646614Y-60987715D01*
X108640006Y-60984348D01*
X108553917Y-60940483D01*
X108503123Y-60892511D01*
X108486328Y-60824690D01*
X108508865Y-60758555D01*
X108553917Y-60719516D01*
X108646610Y-60672287D01*
X108667770Y-60656913D01*
X108812213Y-60551971D01*
X108812215Y-60551968D01*
X108812219Y-60551966D01*
X108956966Y-60407219D01*
X108956968Y-60407215D01*
X108956971Y-60407213D01*
X109009732Y-60334590D01*
X109077287Y-60241610D01*
X109170220Y-60059219D01*
X109233477Y-59864534D01*
X109265500Y-59662352D01*
X109265500Y-59457648D01*
X109233477Y-59255466D01*
X109170220Y-59060781D01*
X109170218Y-59060778D01*
X109170218Y-59060776D01*
X109136503Y-58994607D01*
X109077287Y-58878390D01*
X109069556Y-58867749D01*
X108956971Y-58712786D01*
X108812213Y-58568028D01*
X108646613Y-58447715D01*
X108646612Y-58447714D01*
X108646610Y-58447713D01*
X108593947Y-58420880D01*
X108561245Y-58404217D01*
X108510449Y-58356242D01*
X108493654Y-58288421D01*
X108516192Y-58222286D01*
X108559083Y-58184376D01*
X108624783Y-58149259D01*
X108755811Y-58061709D01*
X108832412Y-57998843D01*
X108943843Y-57887412D01*
X109006709Y-57810811D01*
X109094259Y-57679783D01*
X109140972Y-57592389D01*
X109201278Y-57446798D01*
X109230044Y-57351968D01*
X109260787Y-57197410D01*
X109270500Y-57098793D01*
X109270500Y-56941207D01*
X109260787Y-56842590D01*
X109230044Y-56688032D01*
X109201278Y-56593202D01*
X109140972Y-56447611D01*
X109094259Y-56360217D01*
X109071517Y-56326181D01*
X109006721Y-56229206D01*
X109006712Y-56229194D01*
X109006709Y-56229189D01*
X108943843Y-56152588D01*
X108832412Y-56041157D01*
X108755811Y-55978291D01*
X108755804Y-55978286D01*
X108755793Y-55978278D01*
X108624799Y-55890751D01*
X108624788Y-55890744D01*
X108624783Y-55890741D01*
X108602645Y-55878908D01*
X108559086Y-55855625D01*
X108509242Y-55806662D01*
X108493782Y-55738524D01*
X108517614Y-55672845D01*
X108561246Y-55635782D01*
X108646610Y-55592287D01*
X108735935Y-55527389D01*
X108812213Y-55471971D01*
X108812215Y-55471968D01*
X108812219Y-55471966D01*
X108956966Y-55327219D01*
X108956968Y-55327215D01*
X108956971Y-55327213D01*
X109009732Y-55254590D01*
X109077287Y-55161610D01*
X109170220Y-54979219D01*
X109233477Y-54784534D01*
X109265500Y-54582352D01*
X109265500Y-54377648D01*
X109242590Y-54233000D01*
X109233477Y-54175465D01*
X109170218Y-53980776D01*
X109136503Y-53914607D01*
X109077287Y-53798390D01*
X109069556Y-53787749D01*
X108956971Y-53632786D01*
X108812213Y-53488028D01*
X108646614Y-53367715D01*
X108640006Y-53364348D01*
X108553917Y-53320483D01*
X108503123Y-53272511D01*
X108486328Y-53204690D01*
X108508865Y-53138555D01*
X108553917Y-53099516D01*
X108646610Y-53052287D01*
X108667770Y-53036913D01*
X108812213Y-52931971D01*
X108812215Y-52931968D01*
X108812219Y-52931966D01*
X108956966Y-52787219D01*
X108956968Y-52787215D01*
X108956971Y-52787213D01*
X109047387Y-52662764D01*
X109077287Y-52621610D01*
X109170220Y-52439219D01*
X109233477Y-52244534D01*
X109265500Y-52042352D01*
X109265500Y-51837648D01*
X109233477Y-51635466D01*
X109170220Y-51440781D01*
X109170218Y-51440778D01*
X109170218Y-51440776D01*
X109136503Y-51374607D01*
X109077287Y-51258390D01*
X109069556Y-51247749D01*
X108956971Y-51092786D01*
X108812213Y-50948028D01*
X108646614Y-50827715D01*
X108640006Y-50824348D01*
X108553917Y-50780483D01*
X108503123Y-50732511D01*
X108486328Y-50664690D01*
X108508865Y-50598555D01*
X108553917Y-50559516D01*
X108646610Y-50512287D01*
X108667770Y-50496913D01*
X108812213Y-50391971D01*
X108812215Y-50391968D01*
X108812219Y-50391966D01*
X108956966Y-50247219D01*
X108956968Y-50247215D01*
X108956971Y-50247213D01*
X109009732Y-50174590D01*
X109077287Y-50081610D01*
X109170220Y-49899219D01*
X109233477Y-49704534D01*
X109265500Y-49502352D01*
X109265500Y-49297648D01*
X109233477Y-49095466D01*
X109170220Y-48900781D01*
X109170218Y-48900778D01*
X109170218Y-48900776D01*
X109136503Y-48834607D01*
X109077287Y-48718390D01*
X109069556Y-48707749D01*
X108956971Y-48552786D01*
X108812213Y-48408028D01*
X108646614Y-48287715D01*
X108640006Y-48284348D01*
X108553917Y-48240483D01*
X108503123Y-48192511D01*
X108486328Y-48124690D01*
X108508865Y-48058555D01*
X108553917Y-48019516D01*
X108646610Y-47972287D01*
X108667770Y-47956913D01*
X108812213Y-47851971D01*
X108812215Y-47851968D01*
X108812219Y-47851966D01*
X108956966Y-47707219D01*
X108956968Y-47707215D01*
X108956971Y-47707213D01*
X109009732Y-47634590D01*
X109077287Y-47541610D01*
X109170220Y-47359219D01*
X109233477Y-47164534D01*
X109265500Y-46962352D01*
X109265500Y-46757648D01*
X109254090Y-46685609D01*
X109233477Y-46555465D01*
X109170218Y-46360776D01*
X109136503Y-46294607D01*
X109077287Y-46178390D01*
X109069556Y-46167749D01*
X108956971Y-46012786D01*
X108812213Y-45868028D01*
X108646613Y-45747715D01*
X108646612Y-45747714D01*
X108646610Y-45747713D01*
X108593947Y-45720880D01*
X108561245Y-45704217D01*
X108510449Y-45656242D01*
X108493654Y-45588421D01*
X108516192Y-45522286D01*
X108559083Y-45484376D01*
X108624783Y-45449259D01*
X108755811Y-45361709D01*
X108832412Y-45298843D01*
X108943843Y-45187412D01*
X109006709Y-45110811D01*
X109094259Y-44979783D01*
X109140972Y-44892389D01*
X109201278Y-44746798D01*
X109230044Y-44651968D01*
X109260787Y-44497410D01*
X109270500Y-44398793D01*
X109270500Y-44241207D01*
X109260787Y-44142590D01*
X109230044Y-43988032D01*
X109201278Y-43893202D01*
X109140972Y-43747611D01*
X109094259Y-43660217D01*
X109071517Y-43626181D01*
X109006721Y-43529206D01*
X109006712Y-43529194D01*
X109006709Y-43529189D01*
X108943843Y-43452588D01*
X108832412Y-43341157D01*
X108755811Y-43278291D01*
X108755804Y-43278286D01*
X108755793Y-43278278D01*
X108624799Y-43190751D01*
X108624788Y-43190744D01*
X108624783Y-43190741D01*
X108602645Y-43178908D01*
X108559086Y-43155625D01*
X108509242Y-43106662D01*
X108493782Y-43038524D01*
X108517614Y-42972845D01*
X108561246Y-42935782D01*
X108646610Y-42892287D01*
X108735935Y-42827389D01*
X108812213Y-42771971D01*
X108812215Y-42771968D01*
X108812219Y-42771966D01*
X108956966Y-42627219D01*
X108956968Y-42627215D01*
X108956971Y-42627213D01*
X109009732Y-42554590D01*
X109077287Y-42461610D01*
X109170220Y-42279219D01*
X109233477Y-42084534D01*
X109265500Y-41882352D01*
X109265500Y-41677648D01*
X109233477Y-41475466D01*
X109232949Y-41473842D01*
X109204127Y-41385137D01*
X109170220Y-41280781D01*
X109170218Y-41280778D01*
X109170218Y-41280776D01*
X109109448Y-41161510D01*
X109077287Y-41098390D01*
X109069556Y-41087749D01*
X108956971Y-40932786D01*
X108812213Y-40788028D01*
X108646614Y-40667715D01*
X108640006Y-40664348D01*
X108553917Y-40620483D01*
X108503123Y-40572511D01*
X108486328Y-40504690D01*
X108508865Y-40438555D01*
X108553917Y-40399516D01*
X108646610Y-40352287D01*
X108667770Y-40336913D01*
X108812213Y-40231971D01*
X108812215Y-40231968D01*
X108812219Y-40231966D01*
X108956966Y-40087219D01*
X108956968Y-40087215D01*
X108956971Y-40087213D01*
X109009732Y-40014590D01*
X109077287Y-39921610D01*
X109170220Y-39739219D01*
X109233477Y-39544534D01*
X109265500Y-39342352D01*
X109265500Y-39137648D01*
X109233477Y-38935466D01*
X109170220Y-38740781D01*
X109170218Y-38740778D01*
X109170218Y-38740776D01*
X109136503Y-38674607D01*
X109077287Y-38558390D01*
X109069556Y-38547749D01*
X108956971Y-38392786D01*
X108812213Y-38248028D01*
X108646614Y-38127715D01*
X108640006Y-38124348D01*
X108553917Y-38080483D01*
X108503123Y-38032511D01*
X108486328Y-37964690D01*
X108508865Y-37898555D01*
X108553917Y-37859516D01*
X108646610Y-37812287D01*
X108667770Y-37796913D01*
X108812213Y-37691971D01*
X108812215Y-37691968D01*
X108812219Y-37691966D01*
X108956966Y-37547219D01*
X108956968Y-37547215D01*
X108956971Y-37547213D01*
X109009732Y-37474590D01*
X109077287Y-37381610D01*
X109170220Y-37199219D01*
X109233477Y-37004534D01*
X109265500Y-36802352D01*
X109265500Y-36597648D01*
X109233477Y-36395466D01*
X109170220Y-36200781D01*
X109170218Y-36200778D01*
X109170218Y-36200776D01*
X109136503Y-36134607D01*
X109077287Y-36018390D01*
X109069556Y-36007749D01*
X108956971Y-35852786D01*
X108812213Y-35708028D01*
X108646614Y-35587715D01*
X108640006Y-35584348D01*
X108553917Y-35540483D01*
X108503123Y-35492511D01*
X108486328Y-35424690D01*
X108508865Y-35358555D01*
X108553917Y-35319516D01*
X108646610Y-35272287D01*
X108667770Y-35256913D01*
X108812213Y-35151971D01*
X108812215Y-35151968D01*
X108812219Y-35151966D01*
X108956966Y-35007219D01*
X108956968Y-35007215D01*
X108956971Y-35007213D01*
X109009732Y-34934590D01*
X109077287Y-34841610D01*
X109170220Y-34659219D01*
X109233477Y-34464534D01*
X109265500Y-34262352D01*
X109265500Y-34057648D01*
X109233477Y-33855466D01*
X109170220Y-33660781D01*
X109170218Y-33660778D01*
X109170218Y-33660776D01*
X109136503Y-33594607D01*
X109077287Y-33478390D01*
X109069556Y-33467749D01*
X108956971Y-33312786D01*
X108812213Y-33168028D01*
X108646613Y-33047715D01*
X108646612Y-33047714D01*
X108646610Y-33047713D01*
X108593947Y-33020880D01*
X108561245Y-33004217D01*
X108510449Y-32956242D01*
X108493654Y-32888421D01*
X108516192Y-32822286D01*
X108559083Y-32784376D01*
X108624783Y-32749259D01*
X108755811Y-32661709D01*
X108832412Y-32598843D01*
X108943843Y-32487412D01*
X109006709Y-32410811D01*
X109094259Y-32279783D01*
X109140972Y-32192389D01*
X109201278Y-32046798D01*
X109230044Y-31951968D01*
X109260787Y-31797410D01*
X109270500Y-31698793D01*
X109270500Y-31541207D01*
X109260787Y-31442590D01*
X109230044Y-31288032D01*
X109201278Y-31193202D01*
X109140972Y-31047611D01*
X109094259Y-30960217D01*
X109071517Y-30926181D01*
X109006721Y-30829206D01*
X109006712Y-30829194D01*
X109006709Y-30829189D01*
X108943843Y-30752588D01*
X108832412Y-30641157D01*
X108755811Y-30578291D01*
X108755804Y-30578286D01*
X108755793Y-30578278D01*
X108624799Y-30490751D01*
X108624788Y-30490744D01*
X108624783Y-30490741D01*
X108602645Y-30478908D01*
X108559086Y-30455625D01*
X108509242Y-30406662D01*
X108493782Y-30338524D01*
X108517614Y-30272845D01*
X108561246Y-30235782D01*
X108646610Y-30192287D01*
X108735935Y-30127389D01*
X108812213Y-30071971D01*
X108812215Y-30071968D01*
X108812219Y-30071966D01*
X108956966Y-29927219D01*
X108956968Y-29927215D01*
X108956971Y-29927213D01*
X109046982Y-29803321D01*
X109077287Y-29761610D01*
X109170220Y-29579219D01*
X109233477Y-29384534D01*
X109265500Y-29182352D01*
X109265500Y-28977648D01*
X109233477Y-28775466D01*
X109170220Y-28580781D01*
X109170218Y-28580778D01*
X109170218Y-28580776D01*
X109136503Y-28514607D01*
X109077287Y-28398390D01*
X109069556Y-28387749D01*
X108956971Y-28232786D01*
X108812213Y-28088028D01*
X108646614Y-27967715D01*
X108640006Y-27964348D01*
X108553917Y-27920483D01*
X108503123Y-27872511D01*
X108486328Y-27804690D01*
X108508865Y-27738555D01*
X108553917Y-27699516D01*
X108646610Y-27652287D01*
X108667770Y-27636913D01*
X108812213Y-27531971D01*
X108812215Y-27531968D01*
X108812219Y-27531966D01*
X108956966Y-27387219D01*
X108956968Y-27387215D01*
X108956971Y-27387213D01*
X109017220Y-27304286D01*
X109077287Y-27221610D01*
X109170220Y-27039219D01*
X109233477Y-26844534D01*
X109265500Y-26642352D01*
X109265500Y-26437648D01*
X109233477Y-26235466D01*
X109170220Y-26040781D01*
X109170218Y-26040778D01*
X109170218Y-26040776D01*
X109135736Y-25973102D01*
X109077287Y-25858390D01*
X109069556Y-25847749D01*
X108956971Y-25692786D01*
X108812213Y-25548028D01*
X108646611Y-25427713D01*
X108553369Y-25380203D01*
X108502574Y-25332229D01*
X108485779Y-25264407D01*
X108508317Y-25198273D01*
X108553371Y-25159234D01*
X108646346Y-25111861D01*
X108646347Y-25111861D01*
X108690921Y-25079474D01*
X108094409Y-24482962D01*
X108157993Y-24465925D01*
X108272007Y-24400099D01*
X108365099Y-24307007D01*
X108430925Y-24192993D01*
X108447962Y-24129409D01*
X109044474Y-24725921D01*
X109076859Y-24681349D01*
X109169755Y-24499031D01*
X109232990Y-24304417D01*
X109265000Y-24102317D01*
X109265000Y-23897682D01*
X109232990Y-23695582D01*
X109169755Y-23500968D01*
X109076859Y-23318650D01*
X109044474Y-23274077D01*
X109044474Y-23274076D01*
X108447962Y-23870589D01*
X108430925Y-23807007D01*
X108365099Y-23692993D01*
X108272007Y-23599901D01*
X108157993Y-23534075D01*
X108094408Y-23517037D01*
X108690922Y-22920524D01*
X108690921Y-22920523D01*
X108646359Y-22888147D01*
X108646350Y-22888141D01*
X108553369Y-22840765D01*
X108502573Y-22792790D01*
X108485778Y-22724969D01*
X108508315Y-22658835D01*
X108553370Y-22619795D01*
X108553920Y-22619515D01*
X108646610Y-22572287D01*
X108696144Y-22536298D01*
X108812213Y-22451971D01*
X108812215Y-22451968D01*
X108812219Y-22451966D01*
X108956966Y-22307219D01*
X108956968Y-22307215D01*
X108956971Y-22307213D01*
X109009732Y-22234590D01*
X109077287Y-22141610D01*
X109170220Y-21959219D01*
X109233477Y-21764534D01*
X109265500Y-21562352D01*
X109265500Y-21357648D01*
X109233477Y-21155466D01*
X109170220Y-20960781D01*
X109170218Y-20960778D01*
X109170218Y-20960776D01*
X109136503Y-20894607D01*
X109077287Y-20778390D01*
X109069556Y-20767749D01*
X108956971Y-20612786D01*
X108812213Y-20468028D01*
X108646613Y-20347715D01*
X108646612Y-20347714D01*
X108646610Y-20347713D01*
X108593947Y-20320880D01*
X108561245Y-20304217D01*
X108510449Y-20256242D01*
X108493654Y-20188421D01*
X108516192Y-20122286D01*
X108559083Y-20084376D01*
X108624783Y-20049259D01*
X108755811Y-19961709D01*
X108832412Y-19898843D01*
X108943843Y-19787412D01*
X109006709Y-19710811D01*
X109094259Y-19579783D01*
X109140972Y-19492389D01*
X109201278Y-19346798D01*
X109230044Y-19251968D01*
X109260787Y-19097410D01*
X109270500Y-18998793D01*
X109270500Y-18841207D01*
X109260787Y-18742590D01*
X109230044Y-18588032D01*
X109201278Y-18493202D01*
X109140972Y-18347611D01*
X109140967Y-18347602D01*
X109140963Y-18347593D01*
X109094265Y-18260228D01*
X109094263Y-18260226D01*
X109094259Y-18260217D01*
X109053362Y-18199010D01*
X109006721Y-18129206D01*
X109006712Y-18129194D01*
X109006709Y-18129189D01*
X108943843Y-18052588D01*
X108832412Y-17941157D01*
X108755811Y-17878291D01*
X108755804Y-17878286D01*
X108755793Y-17878278D01*
X108624799Y-17790751D01*
X108624788Y-17790744D01*
X108624783Y-17790741D01*
X108602645Y-17778908D01*
X108559086Y-17755625D01*
X108509242Y-17706662D01*
X108493782Y-17638524D01*
X108517614Y-17572845D01*
X108561246Y-17535782D01*
X108646610Y-17492287D01*
X108735935Y-17427389D01*
X108812213Y-17371971D01*
X108812215Y-17371968D01*
X108812219Y-17371966D01*
X108956966Y-17227219D01*
X108956968Y-17227215D01*
X108956971Y-17227213D01*
X109009732Y-17154590D01*
X109077287Y-17061610D01*
X109170220Y-16879219D01*
X109233477Y-16684534D01*
X109265500Y-16482352D01*
X109265500Y-16277648D01*
X109233477Y-16075466D01*
X109228683Y-16060713D01*
X109180612Y-15912764D01*
X109170220Y-15880781D01*
X109170218Y-15880778D01*
X109170218Y-15880776D01*
X109136503Y-15814607D01*
X109077287Y-15698390D01*
X109069556Y-15687749D01*
X108956971Y-15532786D01*
X108812213Y-15388028D01*
X108646614Y-15267715D01*
X108589231Y-15238477D01*
X108553917Y-15220483D01*
X108503123Y-15172511D01*
X108486328Y-15104690D01*
X108508865Y-15038555D01*
X108553917Y-14999516D01*
X108646610Y-14952287D01*
X108752733Y-14875185D01*
X108812213Y-14831971D01*
X108812215Y-14831968D01*
X108812219Y-14831966D01*
X108956966Y-14687219D01*
X108956968Y-14687215D01*
X108956971Y-14687213D01*
X109044170Y-14567192D01*
X109077287Y-14521610D01*
X109170220Y-14339219D01*
X109233477Y-14144534D01*
X109265500Y-13942352D01*
X109265500Y-13737648D01*
X109233477Y-13535466D01*
X109170220Y-13340781D01*
X109170218Y-13340778D01*
X109170218Y-13340776D01*
X109110259Y-13223102D01*
X109077287Y-13158390D01*
X109058114Y-13132000D01*
X108956971Y-12992786D01*
X108812213Y-12848028D01*
X108642669Y-12724849D01*
X108643926Y-12723118D01*
X108603035Y-12677943D01*
X108591596Y-12609017D01*
X108619237Y-12544847D01*
X108677182Y-12505808D01*
X108714687Y-12500000D01*
X111376000Y-12500000D01*
X111443039Y-12519685D01*
X111488794Y-12572489D01*
X111500000Y-12624000D01*
X111500000Y-13226059D01*
X111480315Y-13293098D01*
X111427511Y-13338853D01*
X111358353Y-13348797D01*
X111294797Y-13319772D01*
X111288319Y-13313740D01*
X111285292Y-13310713D01*
X111285288Y-13310710D01*
X111154185Y-13223109D01*
X111154172Y-13223102D01*
X111008501Y-13162764D01*
X111008489Y-13162761D01*
X110853845Y-13132000D01*
X110853842Y-13132000D01*
X110696158Y-13132000D01*
X110696155Y-13132000D01*
X110541510Y-13162761D01*
X110541498Y-13162764D01*
X110395827Y-13223102D01*
X110395814Y-13223109D01*
X110264711Y-13310710D01*
X110264707Y-13310713D01*
X110153213Y-13422207D01*
X110153210Y-13422211D01*
X110065609Y-13553314D01*
X110065602Y-13553327D01*
X110005264Y-13698998D01*
X110005261Y-13699010D01*
X109974500Y-13853653D01*
X109974500Y-14011346D01*
X110005261Y-14165989D01*
X110005264Y-14166001D01*
X110065602Y-14311672D01*
X110065609Y-14311685D01*
X110153210Y-14442788D01*
X110153213Y-14442792D01*
X110264707Y-14554286D01*
X110264711Y-14554289D01*
X110395814Y-14641890D01*
X110395827Y-14641897D01*
X110505246Y-14687219D01*
X110541503Y-14702237D01*
X110696153Y-14732999D01*
X110696156Y-14733000D01*
X110696158Y-14733000D01*
X110853844Y-14733000D01*
X110853845Y-14732999D01*
X111008497Y-14702237D01*
X111154179Y-14641894D01*
X111285289Y-14554289D01*
X111285292Y-14554286D01*
X111288319Y-14551260D01*
X111349642Y-14517775D01*
X111419334Y-14522759D01*
X111475267Y-14564631D01*
X111499684Y-14630095D01*
X111500000Y-14638941D01*
X111500000Y-111376000D01*
X111480315Y-111443039D01*
X111427511Y-111488794D01*
X111376000Y-111500000D01*
X72124000Y-111500000D01*
X72056961Y-111480315D01*
X72011206Y-111427511D01*
X72000000Y-111376000D01*
X72000000Y-53353653D01*
X75274500Y-53353653D01*
X75274500Y-53511346D01*
X75305261Y-53665989D01*
X75305264Y-53666001D01*
X75365602Y-53811672D01*
X75365609Y-53811685D01*
X75453210Y-53942788D01*
X75453213Y-53942792D01*
X75564707Y-54054286D01*
X75564711Y-54054289D01*
X75695814Y-54141890D01*
X75695827Y-54141897D01*
X75841498Y-54202235D01*
X75841503Y-54202237D01*
X75996153Y-54232999D01*
X75996156Y-54233000D01*
X75996158Y-54233000D01*
X76153844Y-54233000D01*
X76153845Y-54232999D01*
X76308497Y-54202237D01*
X76454179Y-54141894D01*
X76585289Y-54054289D01*
X76696789Y-53942789D01*
X76784394Y-53811679D01*
X76789899Y-53798390D01*
X76844735Y-53666001D01*
X76844737Y-53665997D01*
X76875500Y-53511342D01*
X76875500Y-53353658D01*
X76875500Y-53353655D01*
X76875499Y-53353653D01*
X76846924Y-53210000D01*
X76844737Y-53199003D01*
X76803528Y-53099515D01*
X76784397Y-53053327D01*
X76784390Y-53053314D01*
X76696789Y-52922211D01*
X76696786Y-52922207D01*
X76585292Y-52810713D01*
X76585288Y-52810710D01*
X76454185Y-52723109D01*
X76454172Y-52723102D01*
X76308501Y-52662764D01*
X76308489Y-52662761D01*
X76153845Y-52632000D01*
X76153842Y-52632000D01*
X75996158Y-52632000D01*
X75996155Y-52632000D01*
X75841510Y-52662761D01*
X75841498Y-52662764D01*
X75695827Y-52723102D01*
X75695814Y-52723109D01*
X75564711Y-52810710D01*
X75564707Y-52810713D01*
X75453213Y-52922207D01*
X75453210Y-52922211D01*
X75365609Y-53053314D01*
X75365602Y-53053327D01*
X75305264Y-53198998D01*
X75305261Y-53199010D01*
X75274500Y-53353653D01*
X72000000Y-53353653D01*
X72000000Y-47316153D01*
X75074500Y-47316153D01*
X75074500Y-47473846D01*
X75105261Y-47628489D01*
X75105264Y-47628501D01*
X75165602Y-47774172D01*
X75165609Y-47774185D01*
X75253210Y-47905288D01*
X75253213Y-47905292D01*
X75364707Y-48016786D01*
X75364711Y-48016789D01*
X75495814Y-48104390D01*
X75495827Y-48104397D01*
X75641498Y-48164735D01*
X75641503Y-48164737D01*
X75792538Y-48194780D01*
X75796153Y-48195499D01*
X75796156Y-48195500D01*
X75796158Y-48195500D01*
X75953844Y-48195500D01*
X75953845Y-48195499D01*
X76108497Y-48164737D01*
X76254179Y-48104394D01*
X76385289Y-48016789D01*
X76496789Y-47905289D01*
X76584394Y-47774179D01*
X76644737Y-47628497D01*
X76675500Y-47473842D01*
X76675500Y-47316158D01*
X76675500Y-47316155D01*
X76675499Y-47316153D01*
X76644738Y-47161510D01*
X76644737Y-47161503D01*
X76644735Y-47161498D01*
X76584397Y-47015827D01*
X76584390Y-47015814D01*
X76496789Y-46884711D01*
X76496786Y-46884707D01*
X76385292Y-46773213D01*
X76385288Y-46773210D01*
X76254185Y-46685609D01*
X76254172Y-46685602D01*
X76108501Y-46625264D01*
X76108489Y-46625261D01*
X75953845Y-46594500D01*
X75953842Y-46594500D01*
X75796158Y-46594500D01*
X75796155Y-46594500D01*
X75641510Y-46625261D01*
X75641498Y-46625264D01*
X75495827Y-46685602D01*
X75495814Y-46685609D01*
X75364711Y-46773210D01*
X75364707Y-46773213D01*
X75253213Y-46884707D01*
X75253210Y-46884711D01*
X75165609Y-47015814D01*
X75165602Y-47015827D01*
X75105264Y-47161498D01*
X75105261Y-47161510D01*
X75074500Y-47316153D01*
X72000000Y-47316153D01*
X72000000Y-41316153D01*
X73787000Y-41316153D01*
X73787000Y-41473846D01*
X73817761Y-41628489D01*
X73817764Y-41628501D01*
X73878102Y-41774172D01*
X73878109Y-41774185D01*
X73965710Y-41905288D01*
X73965713Y-41905292D01*
X74077207Y-42016786D01*
X74077211Y-42016789D01*
X74208314Y-42104390D01*
X74208327Y-42104397D01*
X74353998Y-42164735D01*
X74354003Y-42164737D01*
X74508653Y-42195499D01*
X74508656Y-42195500D01*
X74508658Y-42195500D01*
X74666344Y-42195500D01*
X74666345Y-42195499D01*
X74820997Y-42164737D01*
X74966679Y-42104394D01*
X75097789Y-42016789D01*
X75209289Y-41905289D01*
X75296894Y-41774179D01*
X75357237Y-41628497D01*
X75388000Y-41473842D01*
X75388000Y-41316158D01*
X75388000Y-41316155D01*
X75387999Y-41316153D01*
X75357238Y-41161510D01*
X75357237Y-41161503D01*
X75331095Y-41098390D01*
X75296897Y-41015827D01*
X75296890Y-41015814D01*
X75209289Y-40884711D01*
X75209286Y-40884707D01*
X75097792Y-40773213D01*
X75097788Y-40773210D01*
X74966685Y-40685609D01*
X74966672Y-40685602D01*
X74821001Y-40625264D01*
X74820989Y-40625261D01*
X74666345Y-40594500D01*
X74666342Y-40594500D01*
X74508658Y-40594500D01*
X74508655Y-40594500D01*
X74354010Y-40625261D01*
X74353998Y-40625264D01*
X74208327Y-40685602D01*
X74208314Y-40685609D01*
X74077211Y-40773210D01*
X74077207Y-40773213D01*
X73965713Y-40884707D01*
X73965710Y-40884711D01*
X73878109Y-41015814D01*
X73878102Y-41015827D01*
X73817764Y-41161498D01*
X73817761Y-41161510D01*
X73787000Y-41316153D01*
X72000000Y-41316153D01*
X72000000Y-34816153D01*
X73287000Y-34816153D01*
X73287000Y-34973846D01*
X73317761Y-35128489D01*
X73317764Y-35128501D01*
X73378102Y-35274172D01*
X73378109Y-35274185D01*
X73465710Y-35405288D01*
X73465713Y-35405292D01*
X73577207Y-35516786D01*
X73577211Y-35516789D01*
X73708314Y-35604390D01*
X73708327Y-35604397D01*
X73853998Y-35664735D01*
X73854003Y-35664737D01*
X74008653Y-35695499D01*
X74008656Y-35695500D01*
X74008658Y-35695500D01*
X74166344Y-35695500D01*
X74166345Y-35695499D01*
X74320997Y-35664737D01*
X74466679Y-35604394D01*
X74597789Y-35516789D01*
X74709289Y-35405289D01*
X74796894Y-35274179D01*
X74857237Y-35128497D01*
X74888000Y-34973842D01*
X74888000Y-34816158D01*
X74888000Y-34816155D01*
X74887999Y-34816153D01*
X74885638Y-34804286D01*
X74857237Y-34661503D01*
X74856291Y-34659219D01*
X74796897Y-34515827D01*
X74796890Y-34515814D01*
X74709289Y-34384711D01*
X74709286Y-34384707D01*
X74597792Y-34273213D01*
X74597788Y-34273210D01*
X74489222Y-34200668D01*
X74466685Y-34185609D01*
X74466672Y-34185602D01*
X74321001Y-34125264D01*
X74320989Y-34125261D01*
X74212360Y-34103653D01*
X83394500Y-34103653D01*
X83394500Y-34261346D01*
X83425261Y-34415989D01*
X83425264Y-34416001D01*
X83485602Y-34561672D01*
X83485609Y-34561685D01*
X83573210Y-34692788D01*
X83573213Y-34692792D01*
X83684707Y-34804286D01*
X83684711Y-34804289D01*
X83815814Y-34891890D01*
X83815827Y-34891897D01*
X83961498Y-34952235D01*
X83961503Y-34952237D01*
X84116153Y-34982999D01*
X84116156Y-34983000D01*
X84116158Y-34983000D01*
X84273844Y-34983000D01*
X84273845Y-34982999D01*
X84428497Y-34952237D01*
X84574179Y-34891894D01*
X84705289Y-34804289D01*
X84816789Y-34692789D01*
X84904394Y-34561679D01*
X84964737Y-34415997D01*
X84995500Y-34261342D01*
X84995500Y-34103658D01*
X84995500Y-34103655D01*
X84995499Y-34103653D01*
X85394500Y-34103653D01*
X85394500Y-34261346D01*
X85425261Y-34415989D01*
X85425264Y-34416001D01*
X85485602Y-34561672D01*
X85485609Y-34561685D01*
X85573210Y-34692788D01*
X85573213Y-34692792D01*
X85684707Y-34804286D01*
X85684711Y-34804289D01*
X85815814Y-34891890D01*
X85815827Y-34891897D01*
X85961498Y-34952235D01*
X85961503Y-34952237D01*
X86116153Y-34982999D01*
X86116156Y-34983000D01*
X86116158Y-34983000D01*
X86273844Y-34983000D01*
X86273845Y-34982999D01*
X86428497Y-34952237D01*
X86574179Y-34891894D01*
X86705289Y-34804289D01*
X86816789Y-34692789D01*
X86904394Y-34561679D01*
X86964737Y-34415997D01*
X86995500Y-34261342D01*
X86995500Y-34103658D01*
X86995500Y-34103655D01*
X86995499Y-34103653D01*
X86964738Y-33949010D01*
X86964737Y-33949003D01*
X86925993Y-33855465D01*
X86904397Y-33803327D01*
X86904390Y-33803314D01*
X86816789Y-33672211D01*
X86816786Y-33672207D01*
X86705292Y-33560713D01*
X86705288Y-33560710D01*
X86574185Y-33473109D01*
X86574172Y-33473102D01*
X86428501Y-33412764D01*
X86428489Y-33412761D01*
X86273845Y-33382000D01*
X86273842Y-33382000D01*
X86116158Y-33382000D01*
X86116155Y-33382000D01*
X85961510Y-33412761D01*
X85961498Y-33412764D01*
X85815827Y-33473102D01*
X85815814Y-33473109D01*
X85684711Y-33560710D01*
X85684707Y-33560713D01*
X85573213Y-33672207D01*
X85573210Y-33672211D01*
X85485609Y-33803314D01*
X85485602Y-33803327D01*
X85425264Y-33948998D01*
X85425261Y-33949010D01*
X85394500Y-34103653D01*
X84995499Y-34103653D01*
X84964738Y-33949010D01*
X84964737Y-33949003D01*
X84925993Y-33855465D01*
X84904397Y-33803327D01*
X84904390Y-33803314D01*
X84816789Y-33672211D01*
X84816786Y-33672207D01*
X84705292Y-33560713D01*
X84705288Y-33560710D01*
X84574185Y-33473109D01*
X84574172Y-33473102D01*
X84428501Y-33412764D01*
X84428489Y-33412761D01*
X84273845Y-33382000D01*
X84273842Y-33382000D01*
X84116158Y-33382000D01*
X84116155Y-33382000D01*
X83961510Y-33412761D01*
X83961498Y-33412764D01*
X83815827Y-33473102D01*
X83815814Y-33473109D01*
X83684711Y-33560710D01*
X83684707Y-33560713D01*
X83573213Y-33672207D01*
X83573210Y-33672211D01*
X83485609Y-33803314D01*
X83485602Y-33803327D01*
X83425264Y-33948998D01*
X83425261Y-33949010D01*
X83394500Y-34103653D01*
X74212360Y-34103653D01*
X74166345Y-34094500D01*
X74166342Y-34094500D01*
X74008658Y-34094500D01*
X74008655Y-34094500D01*
X73854010Y-34125261D01*
X73853998Y-34125264D01*
X73708327Y-34185602D01*
X73708314Y-34185609D01*
X73577211Y-34273210D01*
X73577207Y-34273213D01*
X73465713Y-34384707D01*
X73465710Y-34384711D01*
X73378109Y-34515814D01*
X73378102Y-34515827D01*
X73317764Y-34661498D01*
X73317761Y-34661510D01*
X73287000Y-34816153D01*
X72000000Y-34816153D01*
X72000000Y-30103653D01*
X77894500Y-30103653D01*
X77894500Y-30261346D01*
X77925261Y-30415989D01*
X77925264Y-30416001D01*
X77985602Y-30561672D01*
X77985609Y-30561685D01*
X78073210Y-30692788D01*
X78073213Y-30692792D01*
X78184707Y-30804286D01*
X78184711Y-30804289D01*
X78315814Y-30891890D01*
X78315827Y-30891897D01*
X78398607Y-30926185D01*
X78461503Y-30952237D01*
X78602112Y-30980206D01*
X78616153Y-30982999D01*
X78616156Y-30983000D01*
X78616158Y-30983000D01*
X78773844Y-30983000D01*
X78773845Y-30982999D01*
X78928497Y-30952237D01*
X79074179Y-30891894D01*
X79205289Y-30804289D01*
X79316789Y-30692789D01*
X79404394Y-30561679D01*
X79464737Y-30415997D01*
X79495500Y-30261342D01*
X79495500Y-30103658D01*
X79495500Y-30103655D01*
X79495499Y-30103653D01*
X82674500Y-30103653D01*
X82674500Y-30261346D01*
X82705261Y-30415989D01*
X82705264Y-30416001D01*
X82765602Y-30561672D01*
X82765609Y-30561685D01*
X82853210Y-30692788D01*
X82853213Y-30692792D01*
X82964707Y-30804286D01*
X82964711Y-30804289D01*
X83095814Y-30891890D01*
X83095827Y-30891897D01*
X83178607Y-30926185D01*
X83241503Y-30952237D01*
X83382112Y-30980206D01*
X83396153Y-30982999D01*
X83396156Y-30983000D01*
X83396158Y-30983000D01*
X83553844Y-30983000D01*
X83553845Y-30982999D01*
X83708497Y-30952237D01*
X83854179Y-30891894D01*
X83985289Y-30804289D01*
X84096789Y-30692789D01*
X84184394Y-30561679D01*
X84244737Y-30415997D01*
X84275500Y-30261342D01*
X84275500Y-30103658D01*
X84275500Y-30103655D01*
X84275499Y-30103653D01*
X84244738Y-29949010D01*
X84244737Y-29949003D01*
X84235711Y-29927213D01*
X84184397Y-29803327D01*
X84184390Y-29803314D01*
X84096789Y-29672211D01*
X84096786Y-29672207D01*
X83985292Y-29560713D01*
X83985288Y-29560710D01*
X83854185Y-29473109D01*
X83854172Y-29473102D01*
X83708501Y-29412764D01*
X83708489Y-29412761D01*
X83553845Y-29382000D01*
X83553842Y-29382000D01*
X83396158Y-29382000D01*
X83396155Y-29382000D01*
X83241510Y-29412761D01*
X83241498Y-29412764D01*
X83095827Y-29473102D01*
X83095814Y-29473109D01*
X82964711Y-29560710D01*
X82964707Y-29560713D01*
X82853213Y-29672207D01*
X82853210Y-29672211D01*
X82765609Y-29803314D01*
X82765602Y-29803327D01*
X82705264Y-29948998D01*
X82705261Y-29949010D01*
X82674500Y-30103653D01*
X79495499Y-30103653D01*
X79464738Y-29949010D01*
X79464737Y-29949003D01*
X79455711Y-29927213D01*
X79404397Y-29803327D01*
X79404390Y-29803314D01*
X79316789Y-29672211D01*
X79316786Y-29672207D01*
X79205292Y-29560713D01*
X79205288Y-29560710D01*
X79074185Y-29473109D01*
X79074172Y-29473102D01*
X78928501Y-29412764D01*
X78928489Y-29412761D01*
X78773845Y-29382000D01*
X78773842Y-29382000D01*
X78616158Y-29382000D01*
X78616155Y-29382000D01*
X78461510Y-29412761D01*
X78461498Y-29412764D01*
X78315827Y-29473102D01*
X78315814Y-29473109D01*
X78184711Y-29560710D01*
X78184707Y-29560713D01*
X78073213Y-29672207D01*
X78073210Y-29672211D01*
X77985609Y-29803314D01*
X77985602Y-29803327D01*
X77925264Y-29948998D01*
X77925261Y-29949010D01*
X77894500Y-30103653D01*
X72000000Y-30103653D01*
X72000000Y-26603653D01*
X80394500Y-26603653D01*
X80394500Y-26761346D01*
X80425261Y-26915989D01*
X80425264Y-26916001D01*
X80485602Y-27061672D01*
X80485609Y-27061685D01*
X80573210Y-27192788D01*
X80573213Y-27192792D01*
X80684707Y-27304286D01*
X80684711Y-27304289D01*
X80815814Y-27391890D01*
X80815827Y-27391897D01*
X80961498Y-27452235D01*
X80961503Y-27452237D01*
X81116153Y-27482999D01*
X81116156Y-27483000D01*
X81116158Y-27483000D01*
X81273844Y-27483000D01*
X81273845Y-27482999D01*
X81428497Y-27452237D01*
X81574179Y-27391894D01*
X81705289Y-27304289D01*
X81816789Y-27192789D01*
X81904394Y-27061679D01*
X81913697Y-27039219D01*
X81967068Y-26910370D01*
X81968955Y-26911151D01*
X82002131Y-26860521D01*
X82065941Y-26832061D01*
X82135009Y-26842616D01*
X82187405Y-26888837D01*
X82197349Y-26910611D01*
X82197932Y-26910370D01*
X82260602Y-27061672D01*
X82260609Y-27061685D01*
X82348210Y-27192788D01*
X82348213Y-27192792D01*
X82459707Y-27304286D01*
X82459711Y-27304289D01*
X82590814Y-27391890D01*
X82590827Y-27391897D01*
X82736498Y-27452235D01*
X82736503Y-27452237D01*
X82891153Y-27482999D01*
X82891156Y-27483000D01*
X82891158Y-27483000D01*
X83048844Y-27483000D01*
X83048845Y-27482999D01*
X83203497Y-27452237D01*
X83349179Y-27391894D01*
X83480289Y-27304289D01*
X83591789Y-27192789D01*
X83679394Y-27061679D01*
X83739737Y-26915997D01*
X83770500Y-26761342D01*
X83770500Y-26603658D01*
X83770500Y-26603655D01*
X83770499Y-26603653D01*
X83739738Y-26449010D01*
X83739737Y-26449003D01*
X83735034Y-26437648D01*
X83679397Y-26303327D01*
X83679390Y-26303314D01*
X83591789Y-26172211D01*
X83591786Y-26172207D01*
X83480292Y-26060713D01*
X83480288Y-26060710D01*
X83349185Y-25973109D01*
X83349172Y-25973102D01*
X83203501Y-25912764D01*
X83203489Y-25912761D01*
X83048845Y-25882000D01*
X83048842Y-25882000D01*
X82891158Y-25882000D01*
X82891155Y-25882000D01*
X82736510Y-25912761D01*
X82736498Y-25912764D01*
X82590827Y-25973102D01*
X82590814Y-25973109D01*
X82459711Y-26060710D01*
X82459707Y-26060713D01*
X82348213Y-26172207D01*
X82348210Y-26172211D01*
X82260609Y-26303314D01*
X82260602Y-26303327D01*
X82197932Y-26454630D01*
X82196047Y-26453849D01*
X82162860Y-26504485D01*
X82099047Y-26532940D01*
X82029981Y-26522378D01*
X81977588Y-26476152D01*
X81967649Y-26454389D01*
X81967068Y-26454630D01*
X81904397Y-26303327D01*
X81904390Y-26303314D01*
X81816789Y-26172211D01*
X81816786Y-26172207D01*
X81705292Y-26060713D01*
X81705288Y-26060710D01*
X81574185Y-25973109D01*
X81574172Y-25973102D01*
X81428501Y-25912764D01*
X81428489Y-25912761D01*
X81273845Y-25882000D01*
X81273842Y-25882000D01*
X81116158Y-25882000D01*
X81116155Y-25882000D01*
X80961510Y-25912761D01*
X80961498Y-25912764D01*
X80815827Y-25973102D01*
X80815814Y-25973109D01*
X80684711Y-26060710D01*
X80684707Y-26060713D01*
X80573213Y-26172207D01*
X80573210Y-26172211D01*
X80485609Y-26303314D01*
X80485602Y-26303327D01*
X80425264Y-26448998D01*
X80425261Y-26449010D01*
X80394500Y-26603653D01*
X72000000Y-26603653D01*
X72000000Y-24603653D01*
X75894500Y-24603653D01*
X75894500Y-24761346D01*
X75925261Y-24915989D01*
X75925264Y-24916001D01*
X75985602Y-25061672D01*
X75985609Y-25061685D01*
X76073210Y-25192788D01*
X76073213Y-25192792D01*
X76184707Y-25304286D01*
X76184711Y-25304289D01*
X76315814Y-25391890D01*
X76315827Y-25391897D01*
X76402296Y-25427713D01*
X76461503Y-25452237D01*
X76616153Y-25482999D01*
X76616156Y-25483000D01*
X76616158Y-25483000D01*
X76773844Y-25483000D01*
X76773845Y-25482999D01*
X76928497Y-25452237D01*
X77074179Y-25391894D01*
X77205289Y-25304289D01*
X77316789Y-25192789D01*
X77404394Y-25061679D01*
X77464737Y-24915997D01*
X77495500Y-24761342D01*
X77495500Y-24603658D01*
X77495500Y-24603655D01*
X77495499Y-24603653D01*
X80394500Y-24603653D01*
X80394500Y-24761346D01*
X80425261Y-24915989D01*
X80425264Y-24916001D01*
X80485602Y-25061672D01*
X80485609Y-25061685D01*
X80573210Y-25192788D01*
X80573213Y-25192792D01*
X80684707Y-25304286D01*
X80684711Y-25304289D01*
X80815814Y-25391890D01*
X80815827Y-25391897D01*
X80902296Y-25427713D01*
X80961503Y-25452237D01*
X81116153Y-25482999D01*
X81116156Y-25483000D01*
X81116158Y-25483000D01*
X81273844Y-25483000D01*
X81273845Y-25482999D01*
X81428497Y-25452237D01*
X81574179Y-25391894D01*
X81705289Y-25304289D01*
X81816789Y-25192789D01*
X81904394Y-25061679D01*
X81964737Y-24915997D01*
X81995500Y-24761342D01*
X81995500Y-24603658D01*
X81995500Y-24603655D01*
X81995499Y-24603653D01*
X81974726Y-24499223D01*
X81964737Y-24449003D01*
X81945425Y-24402380D01*
X81904397Y-24303327D01*
X81904390Y-24303314D01*
X81816789Y-24172211D01*
X81816786Y-24172207D01*
X81705292Y-24060713D01*
X81705288Y-24060710D01*
X81574185Y-23973109D01*
X81574172Y-23973102D01*
X81428501Y-23912764D01*
X81428489Y-23912761D01*
X81273845Y-23882000D01*
X81273842Y-23882000D01*
X81116158Y-23882000D01*
X81116155Y-23882000D01*
X80961510Y-23912761D01*
X80961498Y-23912764D01*
X80815827Y-23973102D01*
X80815814Y-23973109D01*
X80684711Y-24060710D01*
X80684707Y-24060713D01*
X80573213Y-24172207D01*
X80573210Y-24172211D01*
X80485609Y-24303314D01*
X80485602Y-24303327D01*
X80425264Y-24448998D01*
X80425261Y-24449010D01*
X80394500Y-24603653D01*
X77495499Y-24603653D01*
X77474726Y-24499223D01*
X77464737Y-24449003D01*
X77445424Y-24402379D01*
X77437956Y-24332910D01*
X77469231Y-24270431D01*
X77529320Y-24234779D01*
X77599145Y-24237273D01*
X77647667Y-24267246D01*
X77684707Y-24304286D01*
X77684711Y-24304289D01*
X77815814Y-24391890D01*
X77815827Y-24391897D01*
X77953683Y-24448998D01*
X77961503Y-24452237D01*
X78116153Y-24482999D01*
X78116156Y-24483000D01*
X78116158Y-24483000D01*
X78273844Y-24483000D01*
X78273845Y-24482999D01*
X78284179Y-24480943D01*
X78309287Y-24475950D01*
X78309292Y-24475949D01*
X78394800Y-24458939D01*
X78428497Y-24452237D01*
X78574179Y-24391894D01*
X78705289Y-24304289D01*
X78816789Y-24192789D01*
X78904394Y-24061679D01*
X78964737Y-23915997D01*
X78995500Y-23761342D01*
X78995500Y-23603658D01*
X78995500Y-23603655D01*
X78995499Y-23603653D01*
X78981659Y-23534075D01*
X78964737Y-23449003D01*
X78964735Y-23448998D01*
X78904397Y-23303327D01*
X78904390Y-23303314D01*
X78816789Y-23172211D01*
X78816786Y-23172207D01*
X78705292Y-23060713D01*
X78705288Y-23060710D01*
X78574185Y-22973109D01*
X78574172Y-22973102D01*
X78428501Y-22912764D01*
X78428489Y-22912761D01*
X78273845Y-22882000D01*
X78273842Y-22882000D01*
X78116158Y-22882000D01*
X78116155Y-22882000D01*
X77961510Y-22912761D01*
X77961498Y-22912764D01*
X77815827Y-22973102D01*
X77815814Y-22973109D01*
X77684711Y-23060710D01*
X77684707Y-23060713D01*
X77573213Y-23172207D01*
X77573210Y-23172211D01*
X77485609Y-23303314D01*
X77485602Y-23303327D01*
X77425264Y-23448998D01*
X77425261Y-23449010D01*
X77394500Y-23603653D01*
X77394500Y-23761346D01*
X77425261Y-23915989D01*
X77425263Y-23915997D01*
X77444575Y-23962620D01*
X77452043Y-24032090D01*
X77420767Y-24094569D01*
X77360678Y-24130221D01*
X77290853Y-24127726D01*
X77242332Y-24097753D01*
X77205292Y-24060713D01*
X77205288Y-24060710D01*
X77074185Y-23973109D01*
X77074172Y-23973102D01*
X76928501Y-23912764D01*
X76928489Y-23912761D01*
X76773845Y-23882000D01*
X76773842Y-23882000D01*
X76616158Y-23882000D01*
X76616155Y-23882000D01*
X76461510Y-23912761D01*
X76461498Y-23912764D01*
X76315827Y-23973102D01*
X76315814Y-23973109D01*
X76184711Y-24060710D01*
X76184707Y-24060713D01*
X76073213Y-24172207D01*
X76073210Y-24172211D01*
X75985609Y-24303314D01*
X75985602Y-24303327D01*
X75925264Y-24448998D01*
X75925261Y-24449010D01*
X75894500Y-24603653D01*
X72000000Y-24603653D01*
X72000000Y-18353653D01*
X82774500Y-18353653D01*
X82774500Y-18511346D01*
X82805261Y-18665989D01*
X82805264Y-18666001D01*
X82865602Y-18811672D01*
X82865609Y-18811685D01*
X82953210Y-18942788D01*
X82953213Y-18942792D01*
X83064707Y-19054286D01*
X83064711Y-19054289D01*
X83195814Y-19141890D01*
X83195827Y-19141897D01*
X83341498Y-19202235D01*
X83341503Y-19202237D01*
X83496153Y-19232999D01*
X83496156Y-19233000D01*
X83496158Y-19233000D01*
X83653844Y-19233000D01*
X83653845Y-19232999D01*
X83808497Y-19202237D01*
X83954179Y-19141894D01*
X84085289Y-19054289D01*
X84196789Y-18942789D01*
X84284394Y-18811679D01*
X84344737Y-18665997D01*
X84375500Y-18511342D01*
X84375500Y-18353658D01*
X84375500Y-18353655D01*
X84375499Y-18353653D01*
X84344738Y-18199010D01*
X84344737Y-18199003D01*
X84319386Y-18137800D01*
X84284397Y-18053327D01*
X84284390Y-18053314D01*
X84196789Y-17922211D01*
X84196786Y-17922207D01*
X84085292Y-17810713D01*
X84085288Y-17810710D01*
X83954185Y-17723109D01*
X83954172Y-17723102D01*
X83808501Y-17662764D01*
X83808489Y-17662761D01*
X83653845Y-17632000D01*
X83653842Y-17632000D01*
X83496158Y-17632000D01*
X83496155Y-17632000D01*
X83341510Y-17662761D01*
X83341498Y-17662764D01*
X83195827Y-17723102D01*
X83195814Y-17723109D01*
X83064711Y-17810710D01*
X83064707Y-17810713D01*
X82953213Y-17922207D01*
X82953210Y-17922211D01*
X82865609Y-18053314D01*
X82865602Y-18053327D01*
X82805264Y-18198998D01*
X82805261Y-18199010D01*
X82774500Y-18353653D01*
X72000000Y-18353653D01*
X72000000Y-16603653D01*
X85894500Y-16603653D01*
X85894500Y-16761346D01*
X85925261Y-16915989D01*
X85925264Y-16916001D01*
X85985602Y-17061672D01*
X85985609Y-17061685D01*
X86073210Y-17192788D01*
X86073213Y-17192792D01*
X86184707Y-17304286D01*
X86184711Y-17304289D01*
X86315814Y-17391890D01*
X86315827Y-17391897D01*
X86461498Y-17452235D01*
X86461503Y-17452237D01*
X86614745Y-17482719D01*
X86616153Y-17482999D01*
X86616156Y-17483000D01*
X86616158Y-17483000D01*
X86773844Y-17483000D01*
X86773845Y-17482999D01*
X86928497Y-17452237D01*
X87074179Y-17391894D01*
X87205289Y-17304289D01*
X87316789Y-17192789D01*
X87404394Y-17061679D01*
X87464737Y-16915997D01*
X87495500Y-16761342D01*
X87495500Y-16603658D01*
X87495500Y-16603655D01*
X87495499Y-16603653D01*
X87488399Y-16567958D01*
X87464737Y-16449003D01*
X87448627Y-16410109D01*
X87404397Y-16303327D01*
X87404390Y-16303314D01*
X87316789Y-16172211D01*
X87316786Y-16172207D01*
X87205292Y-16060713D01*
X87205288Y-16060710D01*
X87074185Y-15973109D01*
X87074172Y-15973102D01*
X86928501Y-15912764D01*
X86928489Y-15912761D01*
X86773845Y-15882000D01*
X86773842Y-15882000D01*
X86616158Y-15882000D01*
X86616155Y-15882000D01*
X86461510Y-15912761D01*
X86461498Y-15912764D01*
X86315827Y-15973102D01*
X86315814Y-15973109D01*
X86184711Y-16060710D01*
X86184707Y-16060713D01*
X86073213Y-16172207D01*
X86073210Y-16172211D01*
X85985609Y-16303314D01*
X85985602Y-16303327D01*
X85925264Y-16448998D01*
X85925261Y-16449010D01*
X85894500Y-16603653D01*
X72000000Y-16603653D01*
X72000000Y-12624000D01*
X72019685Y-12556961D01*
X72072489Y-12511206D01*
X72124000Y-12500000D01*
X89034980Y-12500000D01*
X89102019Y-12519685D01*
G37*
%TD.AperFunction*%
%TD*%
%TA.AperFunction,Conductor*%
%TO.N,Smoothed 5V*%
G36*
X70943039Y-12519685D02*
G01*
X70988794Y-12572489D01*
X71000000Y-12624000D01*
X71000000Y-111376000D01*
X70980315Y-111443039D01*
X70927511Y-111488794D01*
X70876000Y-111500000D01*
X13123375Y-111500000D01*
X13056336Y-111480315D01*
X13010581Y-111427511D01*
X12999377Y-111376626D01*
X12978866Y-107315499D01*
X12974425Y-106436153D01*
X18514500Y-106436153D01*
X18514500Y-106593846D01*
X18545261Y-106748489D01*
X18545264Y-106748501D01*
X18605602Y-106894172D01*
X18605609Y-106894185D01*
X18693210Y-107025288D01*
X18693213Y-107025292D01*
X18804707Y-107136786D01*
X18804711Y-107136789D01*
X18935814Y-107224390D01*
X18935827Y-107224397D01*
X19081498Y-107284735D01*
X19081503Y-107284737D01*
X19236153Y-107315499D01*
X19236156Y-107315500D01*
X19236158Y-107315500D01*
X19393844Y-107315500D01*
X19393845Y-107315499D01*
X19548497Y-107284737D01*
X19694179Y-107224394D01*
X19825289Y-107136789D01*
X19936789Y-107025289D01*
X20024394Y-106894179D01*
X20084737Y-106748497D01*
X20115500Y-106593842D01*
X20115500Y-106436158D01*
X20115500Y-106436155D01*
X20115499Y-106436153D01*
X20084738Y-106281510D01*
X20084737Y-106281503D01*
X20084735Y-106281498D01*
X20024397Y-106135827D01*
X20024390Y-106135814D01*
X19936789Y-106004711D01*
X19936786Y-106004707D01*
X19825292Y-105893213D01*
X19825288Y-105893210D01*
X19694185Y-105805609D01*
X19694172Y-105805602D01*
X19548501Y-105745264D01*
X19548489Y-105745261D01*
X19393845Y-105714500D01*
X19393842Y-105714500D01*
X19236158Y-105714500D01*
X19236155Y-105714500D01*
X19081510Y-105745261D01*
X19081498Y-105745264D01*
X18935827Y-105805602D01*
X18935814Y-105805609D01*
X18804711Y-105893210D01*
X18804707Y-105893213D01*
X18693213Y-106004707D01*
X18693210Y-106004711D01*
X18605609Y-106135814D01*
X18605602Y-106135827D01*
X18545264Y-106281498D01*
X18545261Y-106281510D01*
X18514500Y-106436153D01*
X12974425Y-106436153D01*
X12904216Y-92534905D01*
X13419500Y-92534905D01*
X13419500Y-92805094D01*
X13449749Y-93073558D01*
X13449751Y-93073570D01*
X13509872Y-93336979D01*
X13599106Y-93591996D01*
X13716331Y-93835416D01*
X13716333Y-93835419D01*
X13860077Y-94064187D01*
X14028532Y-94275422D01*
X14219578Y-94466468D01*
X14430813Y-94634923D01*
X14659581Y-94778667D01*
X14903005Y-94895894D01*
X15158020Y-94985127D01*
X15158022Y-94985127D01*
X15158023Y-94985128D01*
X15421429Y-95045249D01*
X15689905Y-95075499D01*
X15689906Y-95075500D01*
X15689910Y-95075500D01*
X15960094Y-95075500D01*
X15960094Y-95075499D01*
X16228571Y-95045249D01*
X16491977Y-94985128D01*
X16695836Y-94913794D01*
X16765614Y-94910233D01*
X16826241Y-94944961D01*
X16858469Y-95006955D01*
X16852064Y-95076530D01*
X16851352Y-95078286D01*
X16837789Y-95111030D01*
X16760487Y-95399530D01*
X16760484Y-95399543D01*
X16721501Y-95695649D01*
X16721500Y-95695665D01*
X16721500Y-95994334D01*
X16721501Y-95994350D01*
X16760484Y-96290456D01*
X16760485Y-96290461D01*
X16760486Y-96290467D01*
X16760487Y-96290469D01*
X16837789Y-96578969D01*
X16851351Y-96611710D01*
X16858820Y-96681179D01*
X16827544Y-96743658D01*
X16767455Y-96779310D01*
X16697630Y-96776816D01*
X16695836Y-96776204D01*
X16491978Y-96704872D01*
X16491980Y-96704872D01*
X16294422Y-96659781D01*
X16228571Y-96644751D01*
X16228567Y-96644750D01*
X16228558Y-96644749D01*
X15960094Y-96614500D01*
X15960090Y-96614500D01*
X15689910Y-96614500D01*
X15689906Y-96614500D01*
X15421441Y-96644749D01*
X15421429Y-96644751D01*
X15158020Y-96704872D01*
X14903003Y-96794106D01*
X14659583Y-96911331D01*
X14430814Y-97055076D01*
X14219578Y-97223531D01*
X14028531Y-97414578D01*
X13860076Y-97625814D01*
X13716331Y-97854583D01*
X13599106Y-98098003D01*
X13509872Y-98353020D01*
X13449751Y-98616429D01*
X13449749Y-98616441D01*
X13419500Y-98884905D01*
X13419500Y-99155094D01*
X13449749Y-99423558D01*
X13449751Y-99423570D01*
X13509872Y-99686979D01*
X13599106Y-99941996D01*
X13716331Y-100185416D01*
X13716333Y-100185419D01*
X13860077Y-100414187D01*
X14028532Y-100625422D01*
X14219578Y-100816468D01*
X14430813Y-100984923D01*
X14659581Y-101128667D01*
X14903005Y-101245894D01*
X15158020Y-101335127D01*
X15158022Y-101335127D01*
X15158023Y-101335128D01*
X15421429Y-101395249D01*
X15689905Y-101425499D01*
X15689906Y-101425500D01*
X15689910Y-101425500D01*
X15960094Y-101425500D01*
X15960094Y-101425499D01*
X16228571Y-101395249D01*
X16491977Y-101335128D01*
X16746995Y-101245894D01*
X16990419Y-101128667D01*
X17219187Y-100984923D01*
X17430422Y-100816468D01*
X17621468Y-100625422D01*
X17789923Y-100414187D01*
X17933667Y-100185419D01*
X18050894Y-99941995D01*
X18140128Y-99686977D01*
X18200249Y-99423571D01*
X18230500Y-99155090D01*
X18230500Y-98884910D01*
X18200249Y-98616429D01*
X18140128Y-98353023D01*
X18068795Y-98149163D01*
X18065234Y-98079385D01*
X18099963Y-98018757D01*
X18161956Y-97986530D01*
X18231532Y-97992935D01*
X18233130Y-97993582D01*
X18266029Y-98007210D01*
X18554533Y-98084514D01*
X18850659Y-98123500D01*
X18850666Y-98123500D01*
X19149334Y-98123500D01*
X19149341Y-98123500D01*
X19445467Y-98084514D01*
X19733971Y-98007210D01*
X19766711Y-97993648D01*
X19836176Y-97986179D01*
X19898656Y-98017453D01*
X19934310Y-98077541D01*
X19931817Y-98147366D01*
X19931204Y-98149163D01*
X19859872Y-98353020D01*
X19799751Y-98616429D01*
X19799749Y-98616441D01*
X19769500Y-98884905D01*
X19769500Y-99155094D01*
X19799749Y-99423558D01*
X19799751Y-99423570D01*
X19859872Y-99686979D01*
X19949106Y-99941996D01*
X20066331Y-100185416D01*
X20066333Y-100185419D01*
X20210077Y-100414187D01*
X20378532Y-100625422D01*
X20569578Y-100816468D01*
X20780813Y-100984923D01*
X21009581Y-101128667D01*
X21253005Y-101245894D01*
X21508020Y-101335127D01*
X21508022Y-101335127D01*
X21508023Y-101335128D01*
X21771429Y-101395249D01*
X22039905Y-101425499D01*
X22039906Y-101425500D01*
X22039910Y-101425500D01*
X22310094Y-101425500D01*
X22310094Y-101425499D01*
X22578571Y-101395249D01*
X22841977Y-101335128D01*
X23096995Y-101245894D01*
X23340419Y-101128667D01*
X23569187Y-100984923D01*
X23780422Y-100816468D01*
X23971468Y-100625422D01*
X24139923Y-100414187D01*
X24283667Y-100185419D01*
X24400894Y-99941995D01*
X24490128Y-99686977D01*
X24550249Y-99423571D01*
X24580500Y-99155090D01*
X24580500Y-98884910D01*
X24550249Y-98616429D01*
X24490128Y-98353023D01*
X24400894Y-98098005D01*
X24283667Y-97854581D01*
X24139923Y-97625813D01*
X23971468Y-97414578D01*
X23780422Y-97223532D01*
X23569187Y-97055077D01*
X23340419Y-96911333D01*
X23340416Y-96911331D01*
X23096996Y-96794106D01*
X22841978Y-96704872D01*
X22841980Y-96704872D01*
X22644422Y-96659781D01*
X22578571Y-96644751D01*
X22578567Y-96644750D01*
X22578558Y-96644749D01*
X22310094Y-96614500D01*
X22310090Y-96614500D01*
X22039910Y-96614500D01*
X22039906Y-96614500D01*
X21771441Y-96644749D01*
X21771429Y-96644751D01*
X21508020Y-96704872D01*
X21304163Y-96776204D01*
X21234384Y-96779765D01*
X21173757Y-96745036D01*
X21141530Y-96683042D01*
X21147936Y-96613467D01*
X21148593Y-96611844D01*
X21162210Y-96578971D01*
X21239514Y-96290467D01*
X21278500Y-95994341D01*
X21278500Y-95695659D01*
X21239514Y-95399533D01*
X21162210Y-95111029D01*
X21148647Y-95078286D01*
X21141179Y-95008821D01*
X21172453Y-94946342D01*
X21232542Y-94910689D01*
X21302367Y-94913182D01*
X21304163Y-94913795D01*
X21508020Y-94985127D01*
X21508022Y-94985127D01*
X21508023Y-94985128D01*
X21771429Y-95045249D01*
X22039905Y-95075499D01*
X22039906Y-95075500D01*
X22039910Y-95075500D01*
X22310094Y-95075500D01*
X22310094Y-95075499D01*
X22578571Y-95045249D01*
X22841977Y-94985128D01*
X23096995Y-94895894D01*
X23340419Y-94778667D01*
X23569187Y-94634923D01*
X23780422Y-94466468D01*
X23971468Y-94275422D01*
X24139923Y-94064187D01*
X24283667Y-93835419D01*
X24400894Y-93591995D01*
X24490128Y-93336977D01*
X24550249Y-93073571D01*
X24580500Y-92805090D01*
X24580500Y-92534910D01*
X24550249Y-92266429D01*
X24490128Y-92003023D01*
X24400894Y-91748005D01*
X24283667Y-91504581D01*
X24139923Y-91275813D01*
X23971468Y-91064578D01*
X23780422Y-90873532D01*
X23569187Y-90705077D01*
X23340419Y-90561333D01*
X23340416Y-90561331D01*
X23096996Y-90444106D01*
X22841978Y-90354872D01*
X22841980Y-90354872D01*
X22644422Y-90309781D01*
X22578571Y-90294751D01*
X22578567Y-90294750D01*
X22578558Y-90294749D01*
X22310094Y-90264500D01*
X22310090Y-90264500D01*
X22039910Y-90264500D01*
X22039906Y-90264500D01*
X21771441Y-90294749D01*
X21771429Y-90294751D01*
X21508020Y-90354872D01*
X21253003Y-90444106D01*
X21009583Y-90561331D01*
X20780814Y-90705076D01*
X20569578Y-90873531D01*
X20378531Y-91064578D01*
X20210076Y-91275814D01*
X20066331Y-91504583D01*
X19949106Y-91748003D01*
X19859872Y-92003020D01*
X19799751Y-92266429D01*
X19799749Y-92266441D01*
X19769500Y-92534905D01*
X19769500Y-92805094D01*
X19799749Y-93073558D01*
X19799751Y-93073570D01*
X19859872Y-93336979D01*
X19931204Y-93540836D01*
X19934765Y-93610615D01*
X19900036Y-93671242D01*
X19838042Y-93703469D01*
X19768467Y-93697063D01*
X19766710Y-93696351D01*
X19733969Y-93682789D01*
X19589719Y-93644138D01*
X19445467Y-93605486D01*
X19445461Y-93605485D01*
X19445456Y-93605484D01*
X19149350Y-93566501D01*
X19149347Y-93566500D01*
X19149341Y-93566500D01*
X18850659Y-93566500D01*
X18850653Y-93566500D01*
X18850649Y-93566501D01*
X18554543Y-93605484D01*
X18554536Y-93605485D01*
X18554533Y-93605486D01*
X18528532Y-93612453D01*
X18266030Y-93682789D01*
X18233286Y-93696352D01*
X18163816Y-93703819D01*
X18101338Y-93672543D01*
X18065687Y-93612453D01*
X18068183Y-93542628D01*
X18068795Y-93540836D01*
X18140128Y-93336977D01*
X18200249Y-93073571D01*
X18230500Y-92805090D01*
X18230500Y-92534910D01*
X18200249Y-92266429D01*
X18140128Y-92003023D01*
X18050894Y-91748005D01*
X17933667Y-91504581D01*
X17789923Y-91275813D01*
X17621468Y-91064578D01*
X17430422Y-90873532D01*
X17219187Y-90705077D01*
X16990419Y-90561333D01*
X16990416Y-90561331D01*
X16746996Y-90444106D01*
X16491978Y-90354872D01*
X16491980Y-90354872D01*
X16294422Y-90309781D01*
X16228571Y-90294751D01*
X16228567Y-90294750D01*
X16228558Y-90294749D01*
X15960094Y-90264500D01*
X15960090Y-90264500D01*
X15689910Y-90264500D01*
X15689906Y-90264500D01*
X15421441Y-90294749D01*
X15421429Y-90294751D01*
X15158020Y-90354872D01*
X14903003Y-90444106D01*
X14659583Y-90561331D01*
X14430814Y-90705076D01*
X14219578Y-90873531D01*
X14028531Y-91064578D01*
X13860076Y-91275814D01*
X13716331Y-91504583D01*
X13599106Y-91748003D01*
X13509872Y-92003020D01*
X13449751Y-92266429D01*
X13449749Y-92266441D01*
X13419500Y-92534905D01*
X12904216Y-92534905D01*
X12884764Y-88683399D01*
X12874582Y-86667135D01*
X35604500Y-86667135D01*
X35604500Y-88762870D01*
X35604501Y-88762876D01*
X35610908Y-88822483D01*
X35661202Y-88957328D01*
X35661206Y-88957335D01*
X35747452Y-89072544D01*
X35747455Y-89072547D01*
X35862664Y-89158793D01*
X35862671Y-89158797D01*
X35997517Y-89209091D01*
X35997516Y-89209091D01*
X36004444Y-89209835D01*
X36057127Y-89215500D01*
X38152872Y-89215499D01*
X38212483Y-89209091D01*
X38347331Y-89158796D01*
X38462546Y-89072546D01*
X38548796Y-88957331D01*
X38599091Y-88822483D01*
X38605500Y-88762873D01*
X38605499Y-86667128D01*
X38599091Y-86607517D01*
X38548796Y-86472669D01*
X38548795Y-86472668D01*
X38548793Y-86472664D01*
X38462547Y-86357455D01*
X38462544Y-86357452D01*
X38347335Y-86271206D01*
X38347328Y-86271202D01*
X38212482Y-86220908D01*
X38212483Y-86220908D01*
X38152883Y-86214501D01*
X38152881Y-86214500D01*
X38152873Y-86214500D01*
X38152864Y-86214500D01*
X36057129Y-86214500D01*
X36057123Y-86214501D01*
X35997516Y-86220908D01*
X35862671Y-86271202D01*
X35862664Y-86271206D01*
X35747455Y-86357452D01*
X35747452Y-86357455D01*
X35661206Y-86472664D01*
X35661202Y-86472671D01*
X35610908Y-86607517D01*
X35604790Y-86664432D01*
X35604501Y-86667123D01*
X35604500Y-86667135D01*
X12874582Y-86667135D01*
X12874568Y-86664432D01*
X12862211Y-84217780D01*
X12858882Y-83558549D01*
X16974500Y-83558549D01*
X16974500Y-83781450D01*
X16974501Y-83781466D01*
X17003594Y-84002452D01*
X17003595Y-84002457D01*
X17003596Y-84002463D01*
X17003597Y-84002465D01*
X17061290Y-84217780D01*
X17061293Y-84217790D01*
X17146593Y-84423722D01*
X17146595Y-84423726D01*
X17258052Y-84616774D01*
X17258057Y-84616780D01*
X17258058Y-84616782D01*
X17393751Y-84793622D01*
X17393757Y-84793629D01*
X17551370Y-84951242D01*
X17551376Y-84951247D01*
X17728226Y-85086948D01*
X17921274Y-85198405D01*
X18127219Y-85283710D01*
X18342537Y-85341404D01*
X18563543Y-85370500D01*
X18563550Y-85370500D01*
X18786450Y-85370500D01*
X18786457Y-85370500D01*
X19007463Y-85341404D01*
X19222781Y-85283710D01*
X19428726Y-85198405D01*
X19621774Y-85086948D01*
X19798624Y-84951247D01*
X19956247Y-84793624D01*
X20091948Y-84616774D01*
X20203405Y-84423726D01*
X20288710Y-84217781D01*
X20346404Y-84002463D01*
X20375500Y-83781457D01*
X20375500Y-83558543D01*
X20346404Y-83337537D01*
X20288710Y-83122219D01*
X20203405Y-82916274D01*
X20091948Y-82723226D01*
X19956247Y-82546376D01*
X19956242Y-82546370D01*
X19798629Y-82388757D01*
X19798622Y-82388751D01*
X19621782Y-82253058D01*
X19621780Y-82253057D01*
X19621774Y-82253052D01*
X19428726Y-82141595D01*
X19428722Y-82141593D01*
X19222790Y-82056293D01*
X19222783Y-82056291D01*
X19222781Y-82056290D01*
X19007463Y-81998596D01*
X19007457Y-81998595D01*
X19007452Y-81998594D01*
X18786466Y-81969501D01*
X18786463Y-81969500D01*
X18786457Y-81969500D01*
X18563543Y-81969500D01*
X18563537Y-81969500D01*
X18563533Y-81969501D01*
X18342547Y-81998594D01*
X18342540Y-81998595D01*
X18342537Y-81998596D01*
X18127219Y-82056290D01*
X18127209Y-82056293D01*
X17921277Y-82141593D01*
X17921273Y-82141595D01*
X17728226Y-82253052D01*
X17728217Y-82253058D01*
X17551377Y-82388751D01*
X17551370Y-82388757D01*
X17393757Y-82546370D01*
X17393751Y-82546377D01*
X17258058Y-82723217D01*
X17258052Y-82723226D01*
X17146595Y-82916273D01*
X17146593Y-82916277D01*
X17061293Y-83122209D01*
X17061290Y-83122219D01*
X17003597Y-83337534D01*
X17003594Y-83337547D01*
X16974501Y-83558533D01*
X16974500Y-83558549D01*
X12858882Y-83558549D01*
X12825195Y-76888549D01*
X29299500Y-76888549D01*
X29299500Y-77111450D01*
X29299501Y-77111466D01*
X29328594Y-77332452D01*
X29328595Y-77332457D01*
X29328596Y-77332463D01*
X29328597Y-77332465D01*
X29386290Y-77547780D01*
X29386293Y-77547790D01*
X29471593Y-77753722D01*
X29471595Y-77753726D01*
X29583052Y-77946774D01*
X29583057Y-77946780D01*
X29583058Y-77946782D01*
X29718751Y-78123622D01*
X29718757Y-78123629D01*
X29876370Y-78281242D01*
X29876376Y-78281247D01*
X30053226Y-78416948D01*
X30246274Y-78528405D01*
X30452219Y-78613710D01*
X30667537Y-78671404D01*
X30888543Y-78700500D01*
X30888550Y-78700500D01*
X31111450Y-78700500D01*
X31111457Y-78700500D01*
X31332463Y-78671404D01*
X31547781Y-78613710D01*
X31753726Y-78528405D01*
X31946774Y-78416948D01*
X32123624Y-78281247D01*
X32281247Y-78123624D01*
X32416948Y-77946774D01*
X32528405Y-77753726D01*
X32613710Y-77547781D01*
X32671404Y-77332463D01*
X32700500Y-77111457D01*
X32700500Y-76888549D01*
X44299500Y-76888549D01*
X44299500Y-77111450D01*
X44299501Y-77111466D01*
X44328594Y-77332452D01*
X44328595Y-77332457D01*
X44328596Y-77332463D01*
X44328597Y-77332465D01*
X44386290Y-77547780D01*
X44386293Y-77547790D01*
X44471593Y-77753722D01*
X44471595Y-77753726D01*
X44583052Y-77946774D01*
X44583057Y-77946780D01*
X44583058Y-77946782D01*
X44718751Y-78123622D01*
X44718757Y-78123629D01*
X44876370Y-78281242D01*
X44876376Y-78281247D01*
X45053226Y-78416948D01*
X45246274Y-78528405D01*
X45452219Y-78613710D01*
X45667537Y-78671404D01*
X45888543Y-78700500D01*
X45888550Y-78700500D01*
X46111450Y-78700500D01*
X46111457Y-78700500D01*
X46332463Y-78671404D01*
X46547781Y-78613710D01*
X46753726Y-78528405D01*
X46946774Y-78416948D01*
X47123624Y-78281247D01*
X47281247Y-78123624D01*
X47416948Y-77946774D01*
X47528405Y-77753726D01*
X47613710Y-77547781D01*
X47671404Y-77332463D01*
X47700500Y-77111457D01*
X47700500Y-76888543D01*
X47671404Y-76667537D01*
X47613710Y-76452219D01*
X47528405Y-76246274D01*
X47416948Y-76053226D01*
X47281247Y-75876376D01*
X47281242Y-75876370D01*
X47123629Y-75718757D01*
X47123622Y-75718751D01*
X46946782Y-75583058D01*
X46946780Y-75583057D01*
X46946774Y-75583052D01*
X46753726Y-75471595D01*
X46753722Y-75471593D01*
X46547790Y-75386293D01*
X46547783Y-75386291D01*
X46547781Y-75386290D01*
X46332463Y-75328596D01*
X46332457Y-75328595D01*
X46332452Y-75328594D01*
X46111466Y-75299501D01*
X46111463Y-75299500D01*
X46111457Y-75299500D01*
X45888543Y-75299500D01*
X45888537Y-75299500D01*
X45888533Y-75299501D01*
X45667547Y-75328594D01*
X45667540Y-75328595D01*
X45667537Y-75328596D01*
X45452219Y-75386290D01*
X45452209Y-75386293D01*
X45246277Y-75471593D01*
X45246273Y-75471595D01*
X45053226Y-75583052D01*
X45053217Y-75583058D01*
X44876377Y-75718751D01*
X44876370Y-75718757D01*
X44718757Y-75876370D01*
X44718751Y-75876377D01*
X44583058Y-76053217D01*
X44583052Y-76053226D01*
X44471595Y-76246273D01*
X44471593Y-76246277D01*
X44386293Y-76452209D01*
X44386290Y-76452219D01*
X44328597Y-76667534D01*
X44328594Y-76667547D01*
X44299501Y-76888533D01*
X44299500Y-76888549D01*
X32700500Y-76888549D01*
X32700500Y-76888543D01*
X32671404Y-76667537D01*
X32613710Y-76452219D01*
X32528405Y-76246274D01*
X32416948Y-76053226D01*
X32281247Y-75876376D01*
X32281242Y-75876370D01*
X32123629Y-75718757D01*
X32123622Y-75718751D01*
X31946782Y-75583058D01*
X31946780Y-75583057D01*
X31946774Y-75583052D01*
X31753726Y-75471595D01*
X31753722Y-75471593D01*
X31547790Y-75386293D01*
X31547783Y-75386291D01*
X31547781Y-75386290D01*
X31332463Y-75328596D01*
X31332457Y-75328595D01*
X31332452Y-75328594D01*
X31111466Y-75299501D01*
X31111463Y-75299500D01*
X31111457Y-75299500D01*
X30888543Y-75299500D01*
X30888537Y-75299500D01*
X30888533Y-75299501D01*
X30667547Y-75328594D01*
X30667540Y-75328595D01*
X30667537Y-75328596D01*
X30452219Y-75386290D01*
X30452209Y-75386293D01*
X30246277Y-75471593D01*
X30246273Y-75471595D01*
X30053226Y-75583052D01*
X30053217Y-75583058D01*
X29876377Y-75718751D01*
X29876370Y-75718757D01*
X29718757Y-75876370D01*
X29718751Y-75876377D01*
X29583058Y-76053217D01*
X29583052Y-76053226D01*
X29471595Y-76246273D01*
X29471593Y-76246277D01*
X29386293Y-76452209D01*
X29386290Y-76452219D01*
X29328597Y-76667534D01*
X29328594Y-76667547D01*
X29299501Y-76888533D01*
X29299500Y-76888549D01*
X12825195Y-76888549D01*
X12783124Y-68558549D01*
X16974500Y-68558549D01*
X16974500Y-68781450D01*
X16974501Y-68781466D01*
X17003594Y-69002452D01*
X17003595Y-69002457D01*
X17003596Y-69002463D01*
X17061290Y-69217780D01*
X17061293Y-69217790D01*
X17146593Y-69423722D01*
X17146595Y-69423726D01*
X17258052Y-69616774D01*
X17258057Y-69616780D01*
X17258058Y-69616782D01*
X17393751Y-69793622D01*
X17393757Y-69793629D01*
X17551370Y-69951242D01*
X17551376Y-69951247D01*
X17728226Y-70086948D01*
X17921274Y-70198405D01*
X18127219Y-70283710D01*
X18342537Y-70341404D01*
X18563543Y-70370500D01*
X18563550Y-70370500D01*
X18786450Y-70370500D01*
X18786457Y-70370500D01*
X19007463Y-70341404D01*
X19222781Y-70283710D01*
X19428726Y-70198405D01*
X19621774Y-70086948D01*
X19798624Y-69951247D01*
X19956247Y-69793624D01*
X20091948Y-69616774D01*
X20203405Y-69423726D01*
X20288710Y-69217781D01*
X20346404Y-69002463D01*
X20375500Y-68781457D01*
X20375500Y-68558543D01*
X20355437Y-68406153D01*
X33674500Y-68406153D01*
X33674500Y-68563846D01*
X33705261Y-68718489D01*
X33705264Y-68718501D01*
X33765602Y-68864172D01*
X33765609Y-68864185D01*
X33853210Y-68995288D01*
X33853213Y-68995292D01*
X33964707Y-69106786D01*
X33964711Y-69106789D01*
X34095814Y-69194390D01*
X34095827Y-69194397D01*
X34152304Y-69217790D01*
X34241503Y-69254737D01*
X34396153Y-69285499D01*
X34396156Y-69285500D01*
X34396158Y-69285500D01*
X34553844Y-69285500D01*
X34553845Y-69285499D01*
X34708497Y-69254737D01*
X34854179Y-69194394D01*
X34985289Y-69106789D01*
X35096789Y-68995289D01*
X35184394Y-68864179D01*
X35244737Y-68718497D01*
X35275500Y-68563842D01*
X35275500Y-68406158D01*
X35275500Y-68406155D01*
X35275499Y-68406153D01*
X35244738Y-68251510D01*
X35244737Y-68251503D01*
X35244735Y-68251498D01*
X35184397Y-68105827D01*
X35184390Y-68105814D01*
X35096789Y-67974711D01*
X35096786Y-67974707D01*
X34985292Y-67863213D01*
X34985288Y-67863210D01*
X34854185Y-67775609D01*
X34854172Y-67775602D01*
X34708501Y-67715264D01*
X34708489Y-67715261D01*
X34553845Y-67684500D01*
X34553842Y-67684500D01*
X34396158Y-67684500D01*
X34396155Y-67684500D01*
X34241510Y-67715261D01*
X34241498Y-67715264D01*
X34095827Y-67775602D01*
X34095814Y-67775609D01*
X33964711Y-67863210D01*
X33964707Y-67863213D01*
X33853213Y-67974707D01*
X33853210Y-67974711D01*
X33765609Y-68105814D01*
X33765602Y-68105827D01*
X33705264Y-68251498D01*
X33705261Y-68251510D01*
X33674500Y-68406153D01*
X20355437Y-68406153D01*
X20346404Y-68337537D01*
X20288710Y-68122219D01*
X20203405Y-67916274D01*
X20091948Y-67723226D01*
X19956247Y-67546376D01*
X19956242Y-67546370D01*
X19798629Y-67388757D01*
X19798622Y-67388751D01*
X19621782Y-67253058D01*
X19621780Y-67253057D01*
X19621774Y-67253052D01*
X19428726Y-67141595D01*
X19428722Y-67141593D01*
X19222790Y-67056293D01*
X19222783Y-67056291D01*
X19222781Y-67056290D01*
X19007463Y-66998596D01*
X19007457Y-66998595D01*
X19007452Y-66998594D01*
X18786466Y-66969501D01*
X18786463Y-66969500D01*
X18786457Y-66969500D01*
X18563543Y-66969500D01*
X18563537Y-66969500D01*
X18563533Y-66969501D01*
X18342547Y-66998594D01*
X18342540Y-66998595D01*
X18342537Y-66998596D01*
X18127219Y-67056290D01*
X18127209Y-67056293D01*
X17921277Y-67141593D01*
X17921273Y-67141595D01*
X17728226Y-67253052D01*
X17728217Y-67253058D01*
X17551377Y-67388751D01*
X17551370Y-67388757D01*
X17393757Y-67546370D01*
X17393751Y-67546377D01*
X17258058Y-67723217D01*
X17258052Y-67723226D01*
X17146595Y-67916273D01*
X17146593Y-67916277D01*
X17061293Y-68122209D01*
X17061290Y-68122219D01*
X17003597Y-68337534D01*
X17003594Y-68337547D01*
X16974501Y-68558533D01*
X16974500Y-68558549D01*
X12783124Y-68558549D01*
X12749417Y-61884635D01*
X59574500Y-61884635D01*
X59574500Y-63980370D01*
X59574501Y-63980376D01*
X59580908Y-64039983D01*
X59631202Y-64174828D01*
X59631206Y-64174835D01*
X59717452Y-64290044D01*
X59717455Y-64290047D01*
X59832664Y-64376293D01*
X59832671Y-64376297D01*
X59967517Y-64426591D01*
X59967516Y-64426591D01*
X59974444Y-64427335D01*
X60027127Y-64433000D01*
X62122872Y-64432999D01*
X62182483Y-64426591D01*
X62317331Y-64376296D01*
X62432546Y-64290046D01*
X62518796Y-64174831D01*
X62569091Y-64039983D01*
X62575500Y-63980373D01*
X62575499Y-61884628D01*
X62569091Y-61825017D01*
X62518796Y-61690169D01*
X62518795Y-61690168D01*
X62518793Y-61690164D01*
X62432547Y-61574955D01*
X62432544Y-61574952D01*
X62317335Y-61488706D01*
X62317328Y-61488702D01*
X62182482Y-61438408D01*
X62182483Y-61438408D01*
X62122883Y-61432001D01*
X62122881Y-61432000D01*
X62122873Y-61432000D01*
X62122864Y-61432000D01*
X60027129Y-61432000D01*
X60027123Y-61432001D01*
X59967516Y-61438408D01*
X59832671Y-61488702D01*
X59832664Y-61488706D01*
X59717455Y-61574952D01*
X59717452Y-61574955D01*
X59631206Y-61690164D01*
X59631202Y-61690171D01*
X59580908Y-61825017D01*
X59574501Y-61884616D01*
X59574501Y-61884623D01*
X59574500Y-61884635D01*
X12749417Y-61884635D01*
X12736634Y-59353653D01*
X23274500Y-59353653D01*
X23274500Y-59511346D01*
X23305261Y-59665989D01*
X23305264Y-59666001D01*
X23365602Y-59811672D01*
X23365609Y-59811685D01*
X23453210Y-59942788D01*
X23453213Y-59942792D01*
X23564707Y-60054286D01*
X23564711Y-60054289D01*
X23695814Y-60141890D01*
X23695827Y-60141897D01*
X23841498Y-60202235D01*
X23841503Y-60202237D01*
X23996153Y-60232999D01*
X23996156Y-60233000D01*
X23996158Y-60233000D01*
X24153844Y-60233000D01*
X24153845Y-60232999D01*
X24308497Y-60202237D01*
X24454179Y-60141894D01*
X24585289Y-60054289D01*
X24696789Y-59942789D01*
X24784394Y-59811679D01*
X24844737Y-59665997D01*
X24875500Y-59511342D01*
X24875500Y-59353658D01*
X24875500Y-59353655D01*
X24875499Y-59353653D01*
X24844738Y-59199010D01*
X24844737Y-59199003D01*
X24831062Y-59165989D01*
X24784397Y-59053327D01*
X24784390Y-59053314D01*
X24696790Y-58922212D01*
X24696784Y-58922205D01*
X24628232Y-58853653D01*
X41274500Y-58853653D01*
X41274500Y-59011346D01*
X41305261Y-59165989D01*
X41305264Y-59166001D01*
X41365602Y-59311672D01*
X41365609Y-59311685D01*
X41453210Y-59442788D01*
X41453213Y-59442792D01*
X41564707Y-59554286D01*
X41564711Y-59554289D01*
X41695814Y-59641890D01*
X41695827Y-59641897D01*
X41841498Y-59702235D01*
X41841503Y-59702237D01*
X41996153Y-59732999D01*
X41996156Y-59733000D01*
X41996158Y-59733000D01*
X42153844Y-59733000D01*
X42153845Y-59732999D01*
X42308497Y-59702237D01*
X42454179Y-59641894D01*
X42585289Y-59554289D01*
X42696789Y-59442789D01*
X42784394Y-59311679D01*
X42844737Y-59165997D01*
X42875500Y-59011342D01*
X42875500Y-58853658D01*
X42875500Y-58853655D01*
X42875499Y-58853653D01*
X42849531Y-58723106D01*
X42844737Y-58699003D01*
X42844735Y-58698998D01*
X42784397Y-58553327D01*
X42784390Y-58553314D01*
X42696789Y-58422211D01*
X42696786Y-58422207D01*
X42585292Y-58310713D01*
X42585288Y-58310710D01*
X42454185Y-58223109D01*
X42454172Y-58223102D01*
X42308501Y-58162764D01*
X42308489Y-58162761D01*
X42153845Y-58132000D01*
X42153842Y-58132000D01*
X41996158Y-58132000D01*
X41996155Y-58132000D01*
X41841510Y-58162761D01*
X41841498Y-58162764D01*
X41695827Y-58223102D01*
X41695814Y-58223109D01*
X41564711Y-58310710D01*
X41564707Y-58310713D01*
X41453213Y-58422207D01*
X41453210Y-58422211D01*
X41365609Y-58553314D01*
X41365602Y-58553327D01*
X41305264Y-58698998D01*
X41305261Y-58699010D01*
X41274500Y-58853653D01*
X24628232Y-58853653D01*
X24585292Y-58810713D01*
X24585288Y-58810710D01*
X24454185Y-58723109D01*
X24454172Y-58723102D01*
X24308501Y-58662764D01*
X24308489Y-58662761D01*
X24153845Y-58632000D01*
X24153842Y-58632000D01*
X23996158Y-58632000D01*
X23996155Y-58632000D01*
X23841510Y-58662761D01*
X23841498Y-58662764D01*
X23695827Y-58723102D01*
X23695814Y-58723109D01*
X23564711Y-58810710D01*
X23564707Y-58810713D01*
X23453213Y-58922207D01*
X23453210Y-58922211D01*
X23365609Y-59053314D01*
X23365602Y-59053327D01*
X23305264Y-59198998D01*
X23305261Y-59199010D01*
X23274500Y-59353653D01*
X12736634Y-59353653D01*
X12694858Y-51081982D01*
X12714202Y-51014850D01*
X12766775Y-50968829D01*
X12835882Y-50958537D01*
X12850942Y-50961585D01*
X13027537Y-51008904D01*
X13248543Y-51038000D01*
X13248550Y-51038000D01*
X13471450Y-51038000D01*
X13471457Y-51038000D01*
X13692463Y-51008904D01*
X13907781Y-50951210D01*
X14113726Y-50865905D01*
X14306774Y-50754448D01*
X14483624Y-50618747D01*
X14641247Y-50461124D01*
X14776948Y-50284274D01*
X14888405Y-50091226D01*
X14973710Y-49885281D01*
X15031404Y-49669963D01*
X15060500Y-49448957D01*
X15060500Y-49226049D01*
X26659500Y-49226049D01*
X26659500Y-49448950D01*
X26659501Y-49448966D01*
X26688594Y-49669952D01*
X26688595Y-49669957D01*
X26688596Y-49669963D01*
X26746117Y-49884635D01*
X26746290Y-49885280D01*
X26746293Y-49885290D01*
X26831593Y-50091222D01*
X26831595Y-50091226D01*
X26943052Y-50284274D01*
X26943057Y-50284280D01*
X26943058Y-50284282D01*
X27078751Y-50461122D01*
X27078757Y-50461129D01*
X27236370Y-50618742D01*
X27236376Y-50618747D01*
X27413226Y-50754448D01*
X27606274Y-50865905D01*
X27812219Y-50951210D01*
X28027537Y-51008904D01*
X28248543Y-51038000D01*
X28248550Y-51038000D01*
X28471450Y-51038000D01*
X28471457Y-51038000D01*
X28692463Y-51008904D01*
X28907781Y-50951210D01*
X29113726Y-50865905D01*
X29306774Y-50754448D01*
X29483624Y-50618747D01*
X29641247Y-50461124D01*
X29776948Y-50284274D01*
X29888405Y-50091226D01*
X29973710Y-49885281D01*
X29973883Y-49884635D01*
X53574500Y-49884635D01*
X53574500Y-51980370D01*
X53574501Y-51980376D01*
X53580908Y-52039983D01*
X53631202Y-52174828D01*
X53631206Y-52174835D01*
X53717452Y-52290044D01*
X53717455Y-52290047D01*
X53832664Y-52376293D01*
X53832671Y-52376297D01*
X53967517Y-52426591D01*
X53967516Y-52426591D01*
X53974444Y-52427335D01*
X54027127Y-52433000D01*
X56122872Y-52432999D01*
X56182483Y-52426591D01*
X56317331Y-52376296D01*
X56432546Y-52290046D01*
X56518796Y-52174831D01*
X56569091Y-52039983D01*
X56575500Y-51980373D01*
X56575499Y-49884628D01*
X56569091Y-49825017D01*
X56523297Y-49702238D01*
X56518797Y-49690171D01*
X56518793Y-49690164D01*
X56432547Y-49574955D01*
X56432544Y-49574952D01*
X56317335Y-49488706D01*
X56317328Y-49488702D01*
X56182482Y-49438408D01*
X56182483Y-49438408D01*
X56122883Y-49432001D01*
X56122881Y-49432000D01*
X56122873Y-49432000D01*
X56122864Y-49432000D01*
X54027129Y-49432000D01*
X54027123Y-49432001D01*
X53967516Y-49438408D01*
X53832671Y-49488702D01*
X53832664Y-49488706D01*
X53717455Y-49574952D01*
X53717452Y-49574955D01*
X53631206Y-49690164D01*
X53631202Y-49690171D01*
X53580908Y-49825017D01*
X53574501Y-49884616D01*
X53574501Y-49884623D01*
X53574500Y-49884635D01*
X29973883Y-49884635D01*
X30031404Y-49669963D01*
X30060500Y-49448957D01*
X30060500Y-49226043D01*
X30031404Y-49005037D01*
X29990841Y-48853653D01*
X41774500Y-48853653D01*
X41774500Y-49011346D01*
X41805261Y-49165989D01*
X41805264Y-49166001D01*
X41865602Y-49311672D01*
X41865609Y-49311685D01*
X41953210Y-49442788D01*
X41953213Y-49442792D01*
X42064707Y-49554286D01*
X42064711Y-49554289D01*
X42195814Y-49641890D01*
X42195827Y-49641897D01*
X42341498Y-49702235D01*
X42341503Y-49702237D01*
X42496153Y-49732999D01*
X42496156Y-49733000D01*
X42496158Y-49733000D01*
X42653844Y-49733000D01*
X42653845Y-49732999D01*
X42808497Y-49702237D01*
X42954179Y-49641894D01*
X43085289Y-49554289D01*
X43196789Y-49442789D01*
X43284394Y-49311679D01*
X43344737Y-49165997D01*
X43375500Y-49011342D01*
X43375500Y-48853658D01*
X43375500Y-48853655D01*
X43375499Y-48853653D01*
X43344737Y-48699003D01*
X43321080Y-48641890D01*
X43284397Y-48553327D01*
X43284390Y-48553314D01*
X43196789Y-48422211D01*
X43196786Y-48422207D01*
X43085292Y-48310713D01*
X43085288Y-48310710D01*
X42954185Y-48223109D01*
X42954172Y-48223102D01*
X42808501Y-48162764D01*
X42808489Y-48162761D01*
X42653845Y-48132000D01*
X42653842Y-48132000D01*
X42496158Y-48132000D01*
X42496155Y-48132000D01*
X42341510Y-48162761D01*
X42341498Y-48162764D01*
X42195827Y-48223102D01*
X42195814Y-48223109D01*
X42064711Y-48310710D01*
X42064707Y-48310713D01*
X41953213Y-48422207D01*
X41953210Y-48422211D01*
X41865609Y-48553314D01*
X41865602Y-48553327D01*
X41805264Y-48698998D01*
X41805261Y-48699010D01*
X41774500Y-48853653D01*
X29990841Y-48853653D01*
X29973710Y-48789719D01*
X29888405Y-48583774D01*
X29776948Y-48390726D01*
X29716298Y-48311685D01*
X29641248Y-48213877D01*
X29641242Y-48213870D01*
X29483629Y-48056257D01*
X29483622Y-48056251D01*
X29405379Y-47996213D01*
X29306774Y-47920552D01*
X29190902Y-47853653D01*
X55774500Y-47853653D01*
X55774500Y-48011346D01*
X55805261Y-48165989D01*
X55805264Y-48166001D01*
X55865602Y-48311672D01*
X55865609Y-48311685D01*
X55953210Y-48442788D01*
X55953213Y-48442792D01*
X56064707Y-48554286D01*
X56064711Y-48554289D01*
X56195814Y-48641890D01*
X56195827Y-48641897D01*
X56333683Y-48698998D01*
X56341503Y-48702237D01*
X56496153Y-48732999D01*
X56496156Y-48733000D01*
X56496158Y-48733000D01*
X56653844Y-48733000D01*
X56653845Y-48732999D01*
X56808497Y-48702237D01*
X56954179Y-48641894D01*
X57085289Y-48554289D01*
X57196789Y-48442789D01*
X57284394Y-48311679D01*
X57344737Y-48165997D01*
X57375500Y-48011342D01*
X57375500Y-47853658D01*
X57375500Y-47853655D01*
X57375499Y-47853653D01*
X61274500Y-47853653D01*
X61274500Y-48011346D01*
X61305261Y-48165989D01*
X61305264Y-48166001D01*
X61365602Y-48311672D01*
X61365609Y-48311685D01*
X61453210Y-48442788D01*
X61453213Y-48442792D01*
X61564707Y-48554286D01*
X61564711Y-48554289D01*
X61695814Y-48641890D01*
X61695827Y-48641897D01*
X61833683Y-48698998D01*
X61841503Y-48702237D01*
X61996153Y-48732999D01*
X61996156Y-48733000D01*
X61996158Y-48733000D01*
X62153844Y-48733000D01*
X62153845Y-48732999D01*
X62308497Y-48702237D01*
X62454179Y-48641894D01*
X62585289Y-48554289D01*
X62696789Y-48442789D01*
X62784394Y-48311679D01*
X62844737Y-48165997D01*
X62875500Y-48011342D01*
X62875500Y-47853658D01*
X62875500Y-47853655D01*
X62875499Y-47853653D01*
X62849667Y-47723790D01*
X62844737Y-47699003D01*
X62844735Y-47698998D01*
X62784397Y-47553327D01*
X62784390Y-47553314D01*
X62696789Y-47422211D01*
X62696786Y-47422207D01*
X62585292Y-47310713D01*
X62585288Y-47310710D01*
X62454185Y-47223109D01*
X62454172Y-47223102D01*
X62308501Y-47162764D01*
X62308489Y-47162761D01*
X62153845Y-47132000D01*
X62153842Y-47132000D01*
X61996158Y-47132000D01*
X61996155Y-47132000D01*
X61841510Y-47162761D01*
X61841498Y-47162764D01*
X61695827Y-47223102D01*
X61695814Y-47223109D01*
X61564711Y-47310710D01*
X61564707Y-47310713D01*
X61453213Y-47422207D01*
X61453210Y-47422211D01*
X61365609Y-47553314D01*
X61365602Y-47553327D01*
X61305264Y-47698998D01*
X61305261Y-47699010D01*
X61274500Y-47853653D01*
X57375499Y-47853653D01*
X57349667Y-47723790D01*
X57344737Y-47699003D01*
X57344735Y-47698998D01*
X57284397Y-47553327D01*
X57284390Y-47553314D01*
X57196789Y-47422211D01*
X57196786Y-47422207D01*
X57085292Y-47310713D01*
X57085288Y-47310710D01*
X56954185Y-47223109D01*
X56954172Y-47223102D01*
X56808501Y-47162764D01*
X56808489Y-47162761D01*
X56653845Y-47132000D01*
X56653842Y-47132000D01*
X56496158Y-47132000D01*
X56496155Y-47132000D01*
X56341510Y-47162761D01*
X56341498Y-47162764D01*
X56195827Y-47223102D01*
X56195814Y-47223109D01*
X56064711Y-47310710D01*
X56064707Y-47310713D01*
X55953213Y-47422207D01*
X55953210Y-47422211D01*
X55865609Y-47553314D01*
X55865602Y-47553327D01*
X55805264Y-47698998D01*
X55805261Y-47699010D01*
X55774500Y-47853653D01*
X29190902Y-47853653D01*
X29113726Y-47809095D01*
X29113722Y-47809093D01*
X28907790Y-47723793D01*
X28907783Y-47723791D01*
X28907781Y-47723790D01*
X28692463Y-47666096D01*
X28692457Y-47666095D01*
X28692452Y-47666094D01*
X28471466Y-47637001D01*
X28471463Y-47637000D01*
X28471457Y-47637000D01*
X28248543Y-47637000D01*
X28248537Y-47637000D01*
X28248533Y-47637001D01*
X28027547Y-47666094D01*
X28027540Y-47666095D01*
X28027537Y-47666096D01*
X27812219Y-47723790D01*
X27812209Y-47723793D01*
X27606277Y-47809093D01*
X27606273Y-47809095D01*
X27413226Y-47920552D01*
X27413217Y-47920558D01*
X27236377Y-48056251D01*
X27236370Y-48056257D01*
X27078757Y-48213870D01*
X27078751Y-48213877D01*
X26943058Y-48390717D01*
X26943052Y-48390726D01*
X26831595Y-48583773D01*
X26831593Y-48583777D01*
X26746293Y-48789709D01*
X26746291Y-48789716D01*
X26746290Y-48789719D01*
X26729159Y-48853655D01*
X26688597Y-49005034D01*
X26688594Y-49005047D01*
X26659501Y-49226033D01*
X26659500Y-49226049D01*
X15060500Y-49226049D01*
X15060500Y-49226043D01*
X15031404Y-49005037D01*
X14973710Y-48789719D01*
X14888405Y-48583774D01*
X14776948Y-48390726D01*
X14716298Y-48311685D01*
X14641248Y-48213877D01*
X14641242Y-48213870D01*
X14483629Y-48056257D01*
X14483622Y-48056251D01*
X14306782Y-47920558D01*
X14306780Y-47920557D01*
X14306774Y-47920552D01*
X14113726Y-47809095D01*
X14113722Y-47809093D01*
X13907790Y-47723793D01*
X13907783Y-47723791D01*
X13907781Y-47723790D01*
X13692463Y-47666096D01*
X13692457Y-47666095D01*
X13692452Y-47666094D01*
X13471466Y-47637001D01*
X13471463Y-47637000D01*
X13471457Y-47637000D01*
X13248543Y-47637000D01*
X13248537Y-47637000D01*
X13248533Y-47637001D01*
X13027547Y-47666094D01*
X13027540Y-47666095D01*
X13027537Y-47666096D01*
X12833357Y-47718125D01*
X12763508Y-47716463D01*
X12705646Y-47677300D01*
X12678142Y-47613072D01*
X12677267Y-47598986D01*
X12663402Y-44853653D01*
X33274500Y-44853653D01*
X33274500Y-45011346D01*
X33305261Y-45165989D01*
X33305264Y-45166001D01*
X33365602Y-45311672D01*
X33365609Y-45311685D01*
X33453210Y-45442788D01*
X33453213Y-45442792D01*
X33564707Y-45554286D01*
X33564711Y-45554289D01*
X33695814Y-45641890D01*
X33695827Y-45641897D01*
X33841498Y-45702235D01*
X33841503Y-45702237D01*
X33996153Y-45732999D01*
X33996156Y-45733000D01*
X33996158Y-45733000D01*
X34153844Y-45733000D01*
X34153845Y-45732999D01*
X34308497Y-45702237D01*
X34454179Y-45641894D01*
X34585289Y-45554289D01*
X34696789Y-45442789D01*
X34784394Y-45311679D01*
X34844737Y-45165997D01*
X34875500Y-45011342D01*
X34875500Y-44853658D01*
X34875500Y-44853655D01*
X34875499Y-44853653D01*
X38774500Y-44853653D01*
X38774500Y-45011346D01*
X38805261Y-45165989D01*
X38805264Y-45166001D01*
X38865602Y-45311672D01*
X38865609Y-45311685D01*
X38953210Y-45442788D01*
X38953213Y-45442792D01*
X39064707Y-45554286D01*
X39064711Y-45554289D01*
X39195814Y-45641890D01*
X39195827Y-45641897D01*
X39341498Y-45702235D01*
X39341503Y-45702237D01*
X39496153Y-45732999D01*
X39496156Y-45733000D01*
X39496158Y-45733000D01*
X39653844Y-45733000D01*
X39653845Y-45732999D01*
X39808497Y-45702237D01*
X39954179Y-45641894D01*
X40085289Y-45554289D01*
X40196789Y-45442789D01*
X40284394Y-45311679D01*
X40344737Y-45165997D01*
X40375500Y-45011342D01*
X40375500Y-44853658D01*
X40375500Y-44853655D01*
X40375499Y-44853653D01*
X43774500Y-44853653D01*
X43774500Y-45011346D01*
X43805261Y-45165989D01*
X43805264Y-45166001D01*
X43865602Y-45311672D01*
X43865609Y-45311685D01*
X43953210Y-45442788D01*
X43953213Y-45442792D01*
X44064707Y-45554286D01*
X44064711Y-45554289D01*
X44195814Y-45641890D01*
X44195827Y-45641897D01*
X44341498Y-45702235D01*
X44341503Y-45702237D01*
X44496153Y-45732999D01*
X44496156Y-45733000D01*
X44496158Y-45733000D01*
X44653844Y-45733000D01*
X44653845Y-45732999D01*
X44808497Y-45702237D01*
X44954179Y-45641894D01*
X45085289Y-45554289D01*
X45196789Y-45442789D01*
X45284394Y-45311679D01*
X45344737Y-45165997D01*
X45375500Y-45011342D01*
X45375500Y-44853658D01*
X45375500Y-44853655D01*
X45375499Y-44853653D01*
X45344738Y-44699010D01*
X45344737Y-44699003D01*
X45344735Y-44698998D01*
X45284397Y-44553327D01*
X45284390Y-44553314D01*
X45196789Y-44422211D01*
X45196786Y-44422207D01*
X45085292Y-44310713D01*
X45085288Y-44310710D01*
X44954185Y-44223109D01*
X44954172Y-44223102D01*
X44808501Y-44162764D01*
X44808489Y-44162761D01*
X44653845Y-44132000D01*
X44653842Y-44132000D01*
X44496158Y-44132000D01*
X44496155Y-44132000D01*
X44341510Y-44162761D01*
X44341498Y-44162764D01*
X44195827Y-44223102D01*
X44195814Y-44223109D01*
X44064711Y-44310710D01*
X44064707Y-44310713D01*
X43953213Y-44422207D01*
X43953210Y-44422211D01*
X43865609Y-44553314D01*
X43865602Y-44553327D01*
X43805264Y-44698998D01*
X43805261Y-44699010D01*
X43774500Y-44853653D01*
X40375499Y-44853653D01*
X40344738Y-44699010D01*
X40344737Y-44699003D01*
X40344735Y-44698998D01*
X40284397Y-44553327D01*
X40284390Y-44553314D01*
X40196789Y-44422211D01*
X40196786Y-44422207D01*
X40085292Y-44310713D01*
X40085288Y-44310710D01*
X39954185Y-44223109D01*
X39954172Y-44223102D01*
X39808501Y-44162764D01*
X39808489Y-44162761D01*
X39653845Y-44132000D01*
X39653842Y-44132000D01*
X39496158Y-44132000D01*
X39496155Y-44132000D01*
X39341510Y-44162761D01*
X39341498Y-44162764D01*
X39195827Y-44223102D01*
X39195814Y-44223109D01*
X39064711Y-44310710D01*
X39064707Y-44310713D01*
X38953213Y-44422207D01*
X38953210Y-44422211D01*
X38865609Y-44553314D01*
X38865602Y-44553327D01*
X38805264Y-44698998D01*
X38805261Y-44699010D01*
X38774500Y-44853653D01*
X34875499Y-44853653D01*
X34844738Y-44699010D01*
X34844737Y-44699003D01*
X34844735Y-44698998D01*
X34784397Y-44553327D01*
X34784390Y-44553314D01*
X34696789Y-44422211D01*
X34696786Y-44422207D01*
X34585292Y-44310713D01*
X34585288Y-44310710D01*
X34454185Y-44223109D01*
X34454172Y-44223102D01*
X34308501Y-44162764D01*
X34308489Y-44162761D01*
X34153845Y-44132000D01*
X34153842Y-44132000D01*
X33996158Y-44132000D01*
X33996155Y-44132000D01*
X33841510Y-44162761D01*
X33841498Y-44162764D01*
X33695827Y-44223102D01*
X33695814Y-44223109D01*
X33564711Y-44310710D01*
X33564707Y-44310713D01*
X33453213Y-44422207D01*
X33453210Y-44422211D01*
X33365609Y-44553314D01*
X33365602Y-44553327D01*
X33305264Y-44698998D01*
X33305261Y-44699010D01*
X33274500Y-44853653D01*
X12663402Y-44853653D01*
X12635780Y-39384635D01*
X13074500Y-39384635D01*
X13074500Y-41480370D01*
X13074501Y-41480376D01*
X13080908Y-41539983D01*
X13131202Y-41674828D01*
X13131206Y-41674835D01*
X13217452Y-41790044D01*
X13217455Y-41790047D01*
X13332664Y-41876293D01*
X13332671Y-41876297D01*
X13467517Y-41926591D01*
X13467516Y-41926591D01*
X13474444Y-41927335D01*
X13527127Y-41933000D01*
X15622872Y-41932999D01*
X15682483Y-41926591D01*
X15817331Y-41876296D01*
X15932546Y-41790046D01*
X16018796Y-41674831D01*
X16069091Y-41539983D01*
X16075500Y-41480373D01*
X16075500Y-41384635D01*
X27074500Y-41384635D01*
X27074500Y-43480370D01*
X27074501Y-43480376D01*
X27080908Y-43539983D01*
X27131202Y-43674828D01*
X27131206Y-43674835D01*
X27217452Y-43790044D01*
X27217455Y-43790047D01*
X27332664Y-43876293D01*
X27332671Y-43876297D01*
X27467517Y-43926591D01*
X27467516Y-43926591D01*
X27474444Y-43927335D01*
X27527127Y-43933000D01*
X29622872Y-43932999D01*
X29682483Y-43926591D01*
X29817331Y-43876296D01*
X29932546Y-43790046D01*
X30018796Y-43674831D01*
X30069091Y-43539983D01*
X30075500Y-43480373D01*
X30075499Y-41884635D01*
X47074500Y-41884635D01*
X47074500Y-43980370D01*
X47074501Y-43980376D01*
X47080908Y-44039983D01*
X47131202Y-44174828D01*
X47131206Y-44174835D01*
X47217452Y-44290044D01*
X47217455Y-44290047D01*
X47332664Y-44376293D01*
X47332671Y-44376297D01*
X47467517Y-44426591D01*
X47467516Y-44426591D01*
X47474444Y-44427335D01*
X47527127Y-44433000D01*
X49622872Y-44432999D01*
X49682483Y-44426591D01*
X49817331Y-44376296D01*
X49932546Y-44290046D01*
X50018796Y-44174831D01*
X50069091Y-44039983D01*
X50075500Y-43980373D01*
X50075499Y-41884628D01*
X50069091Y-41825017D01*
X50018796Y-41690169D01*
X50018795Y-41690168D01*
X50018793Y-41690164D01*
X49932547Y-41574955D01*
X49932544Y-41574952D01*
X49817335Y-41488706D01*
X49817328Y-41488702D01*
X49682482Y-41438408D01*
X49682483Y-41438408D01*
X49622883Y-41432001D01*
X49622881Y-41432000D01*
X49622873Y-41432000D01*
X49622864Y-41432000D01*
X47527129Y-41432000D01*
X47527123Y-41432001D01*
X47467516Y-41438408D01*
X47332671Y-41488702D01*
X47332664Y-41488706D01*
X47217455Y-41574952D01*
X47217452Y-41574955D01*
X47131206Y-41690164D01*
X47131202Y-41690171D01*
X47080908Y-41825017D01*
X47074501Y-41884616D01*
X47074501Y-41884623D01*
X47074500Y-41884635D01*
X30075499Y-41884635D01*
X30075499Y-41384628D01*
X30069091Y-41325017D01*
X30023297Y-41202238D01*
X30018797Y-41190171D01*
X30018793Y-41190164D01*
X29932547Y-41074955D01*
X29932544Y-41074952D01*
X29817335Y-40988706D01*
X29817328Y-40988702D01*
X29682482Y-40938408D01*
X29682483Y-40938408D01*
X29622883Y-40932001D01*
X29622881Y-40932000D01*
X29622873Y-40932000D01*
X29622864Y-40932000D01*
X27527129Y-40932000D01*
X27527123Y-40932001D01*
X27467516Y-40938408D01*
X27332671Y-40988702D01*
X27332664Y-40988706D01*
X27217455Y-41074952D01*
X27217452Y-41074955D01*
X27131206Y-41190164D01*
X27131202Y-41190171D01*
X27080908Y-41325017D01*
X27074857Y-41381306D01*
X27074501Y-41384623D01*
X27074500Y-41384635D01*
X16075500Y-41384635D01*
X16075499Y-40353653D01*
X37274500Y-40353653D01*
X37274500Y-40511346D01*
X37305261Y-40665989D01*
X37305264Y-40666001D01*
X37365602Y-40811672D01*
X37365609Y-40811685D01*
X37453210Y-40942788D01*
X37453213Y-40942792D01*
X37564707Y-41054286D01*
X37564711Y-41054289D01*
X37695814Y-41141890D01*
X37695827Y-41141897D01*
X37841498Y-41202235D01*
X37841503Y-41202237D01*
X37996153Y-41232999D01*
X37996156Y-41233000D01*
X37996158Y-41233000D01*
X38153844Y-41233000D01*
X38153845Y-41232999D01*
X38308497Y-41202237D01*
X38454179Y-41141894D01*
X38585289Y-41054289D01*
X38696789Y-40942789D01*
X38784394Y-40811679D01*
X38844737Y-40665997D01*
X38875500Y-40511342D01*
X38875500Y-40353658D01*
X38875500Y-40353655D01*
X38875499Y-40353653D01*
X39274500Y-40353653D01*
X39274500Y-40511346D01*
X39305261Y-40665989D01*
X39305264Y-40666001D01*
X39365602Y-40811672D01*
X39365609Y-40811685D01*
X39453210Y-40942788D01*
X39453213Y-40942792D01*
X39564707Y-41054286D01*
X39564711Y-41054289D01*
X39695814Y-41141890D01*
X39695827Y-41141897D01*
X39841498Y-41202235D01*
X39841503Y-41202237D01*
X39996153Y-41232999D01*
X39996156Y-41233000D01*
X39996158Y-41233000D01*
X40153844Y-41233000D01*
X40153845Y-41232999D01*
X40308497Y-41202237D01*
X40454179Y-41141894D01*
X40585289Y-41054289D01*
X40696789Y-40942789D01*
X40784394Y-40811679D01*
X40844737Y-40665997D01*
X40875500Y-40511342D01*
X40875500Y-40353658D01*
X40875500Y-40353655D01*
X40875499Y-40353653D01*
X40844738Y-40199010D01*
X40844737Y-40199003D01*
X40784794Y-40054286D01*
X40784397Y-40053327D01*
X40784390Y-40053314D01*
X40696789Y-39922211D01*
X40696786Y-39922207D01*
X40585292Y-39810713D01*
X40585288Y-39810710D01*
X40454185Y-39723109D01*
X40454172Y-39723102D01*
X40308501Y-39662764D01*
X40308489Y-39662761D01*
X40153845Y-39632000D01*
X40153842Y-39632000D01*
X39996158Y-39632000D01*
X39996155Y-39632000D01*
X39841510Y-39662761D01*
X39841498Y-39662764D01*
X39695827Y-39723102D01*
X39695814Y-39723109D01*
X39564711Y-39810710D01*
X39564707Y-39810713D01*
X39453213Y-39922207D01*
X39453210Y-39922211D01*
X39365609Y-40053314D01*
X39365602Y-40053327D01*
X39305264Y-40198998D01*
X39305261Y-40199010D01*
X39274500Y-40353653D01*
X38875499Y-40353653D01*
X38844738Y-40199010D01*
X38844737Y-40199003D01*
X38784794Y-40054286D01*
X38784397Y-40053327D01*
X38784390Y-40053314D01*
X38696789Y-39922211D01*
X38696786Y-39922207D01*
X38585292Y-39810713D01*
X38585288Y-39810710D01*
X38454185Y-39723109D01*
X38454172Y-39723102D01*
X38308501Y-39662764D01*
X38308489Y-39662761D01*
X38153845Y-39632000D01*
X38153842Y-39632000D01*
X37996158Y-39632000D01*
X37996155Y-39632000D01*
X37841510Y-39662761D01*
X37841498Y-39662764D01*
X37695827Y-39723102D01*
X37695814Y-39723109D01*
X37564711Y-39810710D01*
X37564707Y-39810713D01*
X37453213Y-39922207D01*
X37453210Y-39922211D01*
X37365609Y-40053314D01*
X37365602Y-40053327D01*
X37305264Y-40198998D01*
X37305261Y-40199010D01*
X37274500Y-40353653D01*
X16075499Y-40353653D01*
X16075499Y-39384628D01*
X16069091Y-39325017D01*
X16064118Y-39311685D01*
X16018797Y-39190171D01*
X16018793Y-39190164D01*
X15932547Y-39074955D01*
X15932544Y-39074952D01*
X15817335Y-38988706D01*
X15817328Y-38988702D01*
X15750421Y-38963748D01*
X15682482Y-38938408D01*
X15682483Y-38938408D01*
X15622883Y-38932001D01*
X15622881Y-38932000D01*
X15622873Y-38932000D01*
X15622864Y-38932000D01*
X13527129Y-38932000D01*
X13527123Y-38932001D01*
X13467516Y-38938408D01*
X13332671Y-38988702D01*
X13332664Y-38988706D01*
X13217455Y-39074952D01*
X13217452Y-39074955D01*
X13131206Y-39190164D01*
X13131202Y-39190171D01*
X13080908Y-39325017D01*
X13074501Y-39384616D01*
X13074501Y-39384623D01*
X13074500Y-39384635D01*
X12635780Y-39384635D01*
X12633098Y-38853653D01*
X25274500Y-38853653D01*
X25274500Y-39011346D01*
X25305261Y-39165989D01*
X25305264Y-39166001D01*
X25365602Y-39311672D01*
X25365609Y-39311685D01*
X25453210Y-39442788D01*
X25453213Y-39442792D01*
X25564707Y-39554286D01*
X25564711Y-39554289D01*
X25695814Y-39641890D01*
X25695827Y-39641897D01*
X25841498Y-39702235D01*
X25841503Y-39702237D01*
X25996153Y-39732999D01*
X25996156Y-39733000D01*
X25996158Y-39733000D01*
X26153844Y-39733000D01*
X26153845Y-39732999D01*
X26308497Y-39702237D01*
X26454179Y-39641894D01*
X26585289Y-39554289D01*
X26696789Y-39442789D01*
X26784394Y-39311679D01*
X26844737Y-39165997D01*
X26875500Y-39011342D01*
X26875500Y-38853658D01*
X26875500Y-38853655D01*
X26875499Y-38853653D01*
X26866957Y-38810710D01*
X26844737Y-38699003D01*
X26831062Y-38665989D01*
X26784397Y-38553327D01*
X26784390Y-38553314D01*
X26696790Y-38422212D01*
X26696784Y-38422205D01*
X26628232Y-38353653D01*
X34774500Y-38353653D01*
X34774500Y-38511346D01*
X34805261Y-38665989D01*
X34805264Y-38666001D01*
X34865602Y-38811672D01*
X34865609Y-38811685D01*
X34953210Y-38942788D01*
X34953213Y-38942792D01*
X35064707Y-39054286D01*
X35064711Y-39054289D01*
X35195814Y-39141890D01*
X35195827Y-39141897D01*
X35333683Y-39198998D01*
X35341503Y-39202237D01*
X35496153Y-39232999D01*
X35496156Y-39233000D01*
X35496158Y-39233000D01*
X35653844Y-39233000D01*
X35653845Y-39232999D01*
X35808497Y-39202237D01*
X35954179Y-39141894D01*
X36085289Y-39054289D01*
X36196789Y-38942789D01*
X36284394Y-38811679D01*
X36344737Y-38665997D01*
X36375500Y-38511342D01*
X36375500Y-38353658D01*
X36375500Y-38353655D01*
X36375499Y-38353653D01*
X36349531Y-38223106D01*
X36344737Y-38199003D01*
X36331062Y-38165989D01*
X36284397Y-38053327D01*
X36284390Y-38053314D01*
X36196789Y-37922211D01*
X36196786Y-37922207D01*
X36085292Y-37810713D01*
X36085288Y-37810710D01*
X36017878Y-37765668D01*
X35954185Y-37723109D01*
X35954172Y-37723102D01*
X35822719Y-37668653D01*
X43724500Y-37668653D01*
X43724500Y-37826346D01*
X43755261Y-37980989D01*
X43755264Y-37981001D01*
X43815602Y-38126672D01*
X43815609Y-38126685D01*
X43903210Y-38257788D01*
X43903213Y-38257792D01*
X44014707Y-38369286D01*
X44014711Y-38369289D01*
X44145814Y-38456890D01*
X44145827Y-38456897D01*
X44291498Y-38517235D01*
X44291503Y-38517237D01*
X44446153Y-38547999D01*
X44446156Y-38548000D01*
X44446158Y-38548000D01*
X44603844Y-38548000D01*
X44603845Y-38547999D01*
X44758497Y-38517237D01*
X44904179Y-38456894D01*
X45035289Y-38369289D01*
X45146789Y-38257789D01*
X45234394Y-38126679D01*
X45294737Y-37980997D01*
X45320067Y-37853653D01*
X50774500Y-37853653D01*
X50774500Y-38011346D01*
X50805261Y-38165989D01*
X50805264Y-38166001D01*
X50865602Y-38311672D01*
X50865609Y-38311685D01*
X50953210Y-38442788D01*
X50953213Y-38442792D01*
X51064707Y-38554286D01*
X51064711Y-38554289D01*
X51195814Y-38641890D01*
X51195827Y-38641897D01*
X51276847Y-38675456D01*
X51341503Y-38702237D01*
X51496153Y-38732999D01*
X51496156Y-38733000D01*
X51496158Y-38733000D01*
X51653844Y-38733000D01*
X51653845Y-38732999D01*
X51808497Y-38702237D01*
X51855121Y-38682924D01*
X51924588Y-38675456D01*
X51987067Y-38706731D01*
X52022720Y-38766819D01*
X52020227Y-38836644D01*
X51990254Y-38885166D01*
X51953214Y-38922206D01*
X51953210Y-38922211D01*
X51865609Y-39053314D01*
X51865602Y-39053327D01*
X51805264Y-39198998D01*
X51805261Y-39199010D01*
X51774500Y-39353653D01*
X51774500Y-39511346D01*
X51805261Y-39665989D01*
X51805264Y-39666001D01*
X51865602Y-39811672D01*
X51865609Y-39811685D01*
X51953210Y-39942788D01*
X51953213Y-39942792D01*
X52064707Y-40054286D01*
X52064711Y-40054289D01*
X52195814Y-40141890D01*
X52195827Y-40141897D01*
X52333683Y-40198998D01*
X52341503Y-40202237D01*
X52496153Y-40232999D01*
X52496156Y-40233000D01*
X52496158Y-40233000D01*
X52653844Y-40233000D01*
X52653845Y-40232999D01*
X52808497Y-40202237D01*
X52954179Y-40141894D01*
X53085289Y-40054289D01*
X53196789Y-39942789D01*
X53284394Y-39811679D01*
X53344737Y-39665997D01*
X53375500Y-39511342D01*
X53375500Y-39353658D01*
X53375500Y-39353655D01*
X53375499Y-39353653D01*
X53344738Y-39199010D01*
X53344737Y-39199003D01*
X53284794Y-39054286D01*
X53284397Y-39053327D01*
X53284390Y-39053314D01*
X53196789Y-38922211D01*
X53196786Y-38922207D01*
X53085292Y-38810713D01*
X53085288Y-38810710D01*
X52954185Y-38723109D01*
X52954172Y-38723102D01*
X52808501Y-38662764D01*
X52808489Y-38662761D01*
X52653845Y-38632000D01*
X52653842Y-38632000D01*
X52496158Y-38632000D01*
X52496155Y-38632000D01*
X52341510Y-38662761D01*
X52341502Y-38662763D01*
X52294878Y-38682075D01*
X52225408Y-38689542D01*
X52162930Y-38658266D01*
X52127278Y-38598177D01*
X52129773Y-38528352D01*
X52148207Y-38493139D01*
X52153499Y-38486078D01*
X52196789Y-38442789D01*
X52235646Y-38384635D01*
X54574500Y-38384635D01*
X54574500Y-40480370D01*
X54574501Y-40480376D01*
X54580908Y-40539983D01*
X54631202Y-40674828D01*
X54631206Y-40674835D01*
X54717452Y-40790044D01*
X54717455Y-40790047D01*
X54832664Y-40876293D01*
X54832671Y-40876297D01*
X54967517Y-40926591D01*
X54967516Y-40926591D01*
X54974444Y-40927335D01*
X55027127Y-40933000D01*
X57122872Y-40932999D01*
X57182483Y-40926591D01*
X57317331Y-40876296D01*
X57432546Y-40790046D01*
X57518796Y-40674831D01*
X57569091Y-40539983D01*
X57575500Y-40480373D01*
X57575499Y-38384628D01*
X57569091Y-38325017D01*
X57564118Y-38311685D01*
X57518797Y-38190171D01*
X57518793Y-38190164D01*
X57432547Y-38074955D01*
X57432544Y-38074952D01*
X57317335Y-37988706D01*
X57317328Y-37988702D01*
X57182482Y-37938408D01*
X57182483Y-37938408D01*
X57122883Y-37932001D01*
X57122881Y-37932000D01*
X57122873Y-37932000D01*
X57122864Y-37932000D01*
X55027129Y-37932000D01*
X55027123Y-37932001D01*
X54967516Y-37938408D01*
X54832671Y-37988702D01*
X54832664Y-37988706D01*
X54717455Y-38074952D01*
X54717452Y-38074955D01*
X54631206Y-38190164D01*
X54631202Y-38190171D01*
X54580908Y-38325017D01*
X54576149Y-38369286D01*
X54574501Y-38384623D01*
X54574500Y-38384635D01*
X52235646Y-38384635D01*
X52284394Y-38311679D01*
X52344737Y-38165997D01*
X52375500Y-38011342D01*
X52375500Y-37853658D01*
X52375500Y-37853655D01*
X52375499Y-37853653D01*
X52366957Y-37810710D01*
X52344737Y-37699003D01*
X52332166Y-37668653D01*
X52284397Y-37553327D01*
X52284390Y-37553314D01*
X52196789Y-37422211D01*
X52196786Y-37422207D01*
X52085292Y-37310713D01*
X52085288Y-37310710D01*
X51954185Y-37223109D01*
X51954172Y-37223102D01*
X51808501Y-37162764D01*
X51808489Y-37162761D01*
X51653845Y-37132000D01*
X51653842Y-37132000D01*
X51496158Y-37132000D01*
X51496155Y-37132000D01*
X51341510Y-37162761D01*
X51341498Y-37162764D01*
X51195827Y-37223102D01*
X51195814Y-37223109D01*
X51064711Y-37310710D01*
X51064707Y-37310713D01*
X50953213Y-37422207D01*
X50953210Y-37422211D01*
X50865609Y-37553314D01*
X50865602Y-37553327D01*
X50805264Y-37698998D01*
X50805261Y-37699010D01*
X50774500Y-37853653D01*
X45320067Y-37853653D01*
X45325500Y-37826342D01*
X45325500Y-37668658D01*
X45325500Y-37668655D01*
X45325499Y-37668653D01*
X45294738Y-37514010D01*
X45294737Y-37514003D01*
X45261185Y-37433000D01*
X45234397Y-37368327D01*
X45234390Y-37368314D01*
X45146789Y-37237211D01*
X45146786Y-37237207D01*
X45035292Y-37125713D01*
X45035288Y-37125710D01*
X44904185Y-37038109D01*
X44904172Y-37038102D01*
X44758501Y-36977764D01*
X44758489Y-36977761D01*
X44603845Y-36947000D01*
X44603842Y-36947000D01*
X44446158Y-36947000D01*
X44446155Y-36947000D01*
X44291510Y-36977761D01*
X44291498Y-36977764D01*
X44145827Y-37038102D01*
X44145814Y-37038109D01*
X44014711Y-37125710D01*
X44014707Y-37125713D01*
X43903213Y-37237207D01*
X43903210Y-37237211D01*
X43815609Y-37368314D01*
X43815602Y-37368327D01*
X43755264Y-37513998D01*
X43755261Y-37514010D01*
X43724500Y-37668653D01*
X35822719Y-37668653D01*
X35808501Y-37662764D01*
X35808489Y-37662761D01*
X35653845Y-37632000D01*
X35653842Y-37632000D01*
X35496158Y-37632000D01*
X35496155Y-37632000D01*
X35341510Y-37662761D01*
X35341498Y-37662764D01*
X35195827Y-37723102D01*
X35195814Y-37723109D01*
X35064711Y-37810710D01*
X35064707Y-37810713D01*
X34953213Y-37922207D01*
X34953210Y-37922211D01*
X34865609Y-38053314D01*
X34865602Y-38053327D01*
X34805264Y-38198998D01*
X34805261Y-38199010D01*
X34774500Y-38353653D01*
X26628232Y-38353653D01*
X26585292Y-38310713D01*
X26585288Y-38310710D01*
X26454185Y-38223109D01*
X26454172Y-38223102D01*
X26308501Y-38162764D01*
X26308489Y-38162761D01*
X26153845Y-38132000D01*
X26153842Y-38132000D01*
X25996158Y-38132000D01*
X25996155Y-38132000D01*
X25841510Y-38162761D01*
X25841498Y-38162764D01*
X25695827Y-38223102D01*
X25695814Y-38223109D01*
X25564711Y-38310710D01*
X25564707Y-38310713D01*
X25453213Y-38422207D01*
X25453210Y-38422211D01*
X25365609Y-38553314D01*
X25365602Y-38553327D01*
X25305264Y-38698998D01*
X25305261Y-38699010D01*
X25274500Y-38853653D01*
X12633098Y-38853653D01*
X12613053Y-34884635D01*
X20574500Y-34884635D01*
X20574500Y-36980370D01*
X20574501Y-36980376D01*
X20580908Y-37039983D01*
X20631202Y-37174828D01*
X20631206Y-37174835D01*
X20717452Y-37290044D01*
X20717455Y-37290047D01*
X20832664Y-37376293D01*
X20832671Y-37376297D01*
X20967517Y-37426591D01*
X20967516Y-37426591D01*
X20974444Y-37427335D01*
X21027127Y-37433000D01*
X23122872Y-37432999D01*
X23182483Y-37426591D01*
X23317331Y-37376296D01*
X23432546Y-37290046D01*
X23518796Y-37174831D01*
X23569091Y-37039983D01*
X23575500Y-36980373D01*
X23575499Y-35668653D01*
X43724500Y-35668653D01*
X43724500Y-35826346D01*
X43755261Y-35980989D01*
X43755264Y-35981001D01*
X43815602Y-36126672D01*
X43815609Y-36126685D01*
X43903210Y-36257788D01*
X43903213Y-36257792D01*
X44014707Y-36369286D01*
X44014711Y-36369289D01*
X44145814Y-36456890D01*
X44145827Y-36456897D01*
X44291498Y-36517235D01*
X44291503Y-36517237D01*
X44446153Y-36547999D01*
X44446156Y-36548000D01*
X44446158Y-36548000D01*
X44603844Y-36548000D01*
X44603845Y-36547999D01*
X44758497Y-36517237D01*
X44904179Y-36456894D01*
X45035289Y-36369289D01*
X45146789Y-36257789D01*
X45234394Y-36126679D01*
X45294737Y-35980997D01*
X45325500Y-35826342D01*
X45325500Y-35668658D01*
X45325500Y-35668655D01*
X45325499Y-35668653D01*
X45294738Y-35514010D01*
X45294737Y-35514003D01*
X45261185Y-35433000D01*
X45234397Y-35368327D01*
X45234390Y-35368314D01*
X45146789Y-35237211D01*
X45146786Y-35237207D01*
X45035292Y-35125713D01*
X45035288Y-35125710D01*
X44904185Y-35038109D01*
X44904172Y-35038102D01*
X44758501Y-34977764D01*
X44758489Y-34977761D01*
X44603845Y-34947000D01*
X44603842Y-34947000D01*
X44446158Y-34947000D01*
X44446155Y-34947000D01*
X44291510Y-34977761D01*
X44291498Y-34977764D01*
X44145827Y-35038102D01*
X44145814Y-35038109D01*
X44014711Y-35125710D01*
X44014707Y-35125713D01*
X43903213Y-35237207D01*
X43903210Y-35237211D01*
X43815609Y-35368314D01*
X43815602Y-35368327D01*
X43755264Y-35513998D01*
X43755261Y-35514010D01*
X43724500Y-35668653D01*
X23575499Y-35668653D01*
X23575499Y-34884628D01*
X23569091Y-34825017D01*
X23518796Y-34690169D01*
X23518795Y-34690168D01*
X23518793Y-34690164D01*
X23432547Y-34574955D01*
X23432544Y-34574952D01*
X23317335Y-34488706D01*
X23317328Y-34488702D01*
X23182482Y-34438408D01*
X23182483Y-34438408D01*
X23122883Y-34432001D01*
X23122881Y-34432000D01*
X23122873Y-34432000D01*
X23122864Y-34432000D01*
X21027129Y-34432000D01*
X21027123Y-34432001D01*
X20967516Y-34438408D01*
X20832671Y-34488702D01*
X20832664Y-34488706D01*
X20717455Y-34574952D01*
X20717452Y-34574955D01*
X20631206Y-34690164D01*
X20631202Y-34690171D01*
X20580908Y-34825017D01*
X20574501Y-34884616D01*
X20574501Y-34884623D01*
X20574500Y-34884635D01*
X12613053Y-34884635D01*
X12602952Y-32884635D01*
X54074500Y-32884635D01*
X54074500Y-34980370D01*
X54074501Y-34980376D01*
X54080908Y-35039983D01*
X54131202Y-35174828D01*
X54131206Y-35174835D01*
X54217452Y-35290044D01*
X54217455Y-35290047D01*
X54332664Y-35376293D01*
X54332671Y-35376297D01*
X54467517Y-35426591D01*
X54467516Y-35426591D01*
X54474444Y-35427335D01*
X54527127Y-35433000D01*
X56622872Y-35432999D01*
X56682483Y-35426591D01*
X56817331Y-35376296D01*
X56932546Y-35290046D01*
X57018796Y-35174831D01*
X57069091Y-35039983D01*
X57075500Y-34980373D01*
X57075499Y-32884628D01*
X57069091Y-32825017D01*
X57018796Y-32690169D01*
X57018795Y-32690168D01*
X57018793Y-32690164D01*
X56932547Y-32574955D01*
X56932544Y-32574952D01*
X56817335Y-32488706D01*
X56817328Y-32488702D01*
X56682482Y-32438408D01*
X56682483Y-32438408D01*
X56622883Y-32432001D01*
X56622881Y-32432000D01*
X56622873Y-32432000D01*
X56622864Y-32432000D01*
X54527129Y-32432000D01*
X54527123Y-32432001D01*
X54467516Y-32438408D01*
X54332671Y-32488702D01*
X54332664Y-32488706D01*
X54217455Y-32574952D01*
X54217452Y-32574955D01*
X54131206Y-32690164D01*
X54131202Y-32690171D01*
X54080908Y-32825017D01*
X54074501Y-32884616D01*
X54074501Y-32884623D01*
X54074500Y-32884635D01*
X12602952Y-32884635D01*
X12572649Y-26884635D01*
X23074500Y-26884635D01*
X23074500Y-28980370D01*
X23074501Y-28980376D01*
X23080908Y-29039983D01*
X23131202Y-29174828D01*
X23131206Y-29174835D01*
X23217452Y-29290044D01*
X23217455Y-29290047D01*
X23332664Y-29376293D01*
X23332671Y-29376297D01*
X23467517Y-29426591D01*
X23467516Y-29426591D01*
X23474444Y-29427335D01*
X23527127Y-29433000D01*
X25622872Y-29432999D01*
X25682483Y-29426591D01*
X25817331Y-29376296D01*
X25932546Y-29290046D01*
X26018796Y-29174831D01*
X26069091Y-29039983D01*
X26075500Y-28980373D01*
X26075499Y-26884628D01*
X26069091Y-26825017D01*
X26018796Y-26690169D01*
X26018795Y-26690168D01*
X26018793Y-26690164D01*
X25932547Y-26574955D01*
X25932544Y-26574952D01*
X25817335Y-26488706D01*
X25817328Y-26488702D01*
X25682482Y-26438408D01*
X25682483Y-26438408D01*
X25622883Y-26432001D01*
X25622881Y-26432000D01*
X25622873Y-26432000D01*
X25622864Y-26432000D01*
X23527129Y-26432000D01*
X23527123Y-26432001D01*
X23467516Y-26438408D01*
X23332671Y-26488702D01*
X23332664Y-26488706D01*
X23217455Y-26574952D01*
X23217452Y-26574955D01*
X23131206Y-26690164D01*
X23131202Y-26690171D01*
X23080908Y-26825017D01*
X23074501Y-26884616D01*
X23074501Y-26884623D01*
X23074500Y-26884635D01*
X12572649Y-26884635D01*
X12549641Y-22329030D01*
X38024500Y-22329030D01*
X38024500Y-22535969D01*
X38064868Y-22738912D01*
X38064870Y-22738920D01*
X38144058Y-22930096D01*
X38259024Y-23102157D01*
X38405342Y-23248475D01*
X38405345Y-23248477D01*
X38577402Y-23363441D01*
X38768580Y-23442630D01*
X38971530Y-23482999D01*
X38971534Y-23483000D01*
X38971535Y-23483000D01*
X39178466Y-23483000D01*
X39178467Y-23482999D01*
X39381420Y-23442630D01*
X39572598Y-23363441D01*
X39744655Y-23248477D01*
X39890977Y-23102155D01*
X40005941Y-22930098D01*
X40085130Y-22738920D01*
X40125500Y-22535965D01*
X40125500Y-22329035D01*
X40085130Y-22126080D01*
X40005941Y-21934902D01*
X39890977Y-21762845D01*
X39890975Y-21762842D01*
X39744657Y-21616524D01*
X39658626Y-21559041D01*
X39572598Y-21501559D01*
X39381420Y-21422370D01*
X39381412Y-21422368D01*
X39178469Y-21382000D01*
X39178465Y-21382000D01*
X38971535Y-21382000D01*
X38971530Y-21382000D01*
X38768587Y-21422368D01*
X38768579Y-21422370D01*
X38577403Y-21501558D01*
X38405342Y-21616524D01*
X38259024Y-21762842D01*
X38144058Y-21934903D01*
X38064870Y-22126079D01*
X38064868Y-22126087D01*
X38024500Y-22329030D01*
X12549641Y-22329030D01*
X12536950Y-19816153D01*
X63074500Y-19816153D01*
X63074500Y-19973846D01*
X63105261Y-20128489D01*
X63105264Y-20128501D01*
X63165602Y-20274172D01*
X63165609Y-20274185D01*
X63253210Y-20405288D01*
X63253213Y-20405292D01*
X63364707Y-20516786D01*
X63364711Y-20516789D01*
X63495814Y-20604390D01*
X63495827Y-20604397D01*
X63641498Y-20664735D01*
X63641503Y-20664737D01*
X63796153Y-20695499D01*
X63796156Y-20695500D01*
X63796158Y-20695500D01*
X63953844Y-20695500D01*
X63953845Y-20695499D01*
X64108497Y-20664737D01*
X64254179Y-20604394D01*
X64385289Y-20516789D01*
X64496789Y-20405289D01*
X64584394Y-20274179D01*
X64644737Y-20128497D01*
X64675500Y-19973842D01*
X64675500Y-19816158D01*
X64675500Y-19816155D01*
X64675499Y-19816153D01*
X64644738Y-19661510D01*
X64644737Y-19661503D01*
X64644735Y-19661498D01*
X64584397Y-19515827D01*
X64584390Y-19515814D01*
X64496789Y-19384711D01*
X64496786Y-19384707D01*
X64385292Y-19273213D01*
X64385288Y-19273210D01*
X64254185Y-19185609D01*
X64254172Y-19185602D01*
X64108501Y-19125264D01*
X64108489Y-19125261D01*
X63953845Y-19094500D01*
X63953842Y-19094500D01*
X63796158Y-19094500D01*
X63796155Y-19094500D01*
X63641510Y-19125261D01*
X63641498Y-19125264D01*
X63495827Y-19185602D01*
X63495814Y-19185609D01*
X63364711Y-19273210D01*
X63364707Y-19273213D01*
X63253213Y-19384707D01*
X63253210Y-19384711D01*
X63165609Y-19515814D01*
X63165602Y-19515827D01*
X63105264Y-19661498D01*
X63105261Y-19661510D01*
X63074500Y-19816153D01*
X12536950Y-19816153D01*
X12521988Y-16853653D01*
X28274500Y-16853653D01*
X28274500Y-17011346D01*
X28305261Y-17165989D01*
X28305264Y-17166001D01*
X28365602Y-17311672D01*
X28365609Y-17311685D01*
X28453210Y-17442788D01*
X28453213Y-17442792D01*
X28564707Y-17554286D01*
X28564711Y-17554289D01*
X28695814Y-17641890D01*
X28695827Y-17641897D01*
X28841498Y-17702235D01*
X28841503Y-17702237D01*
X28996153Y-17732999D01*
X28996156Y-17733000D01*
X28996158Y-17733000D01*
X29153844Y-17733000D01*
X29153845Y-17732999D01*
X29308497Y-17702237D01*
X29454179Y-17641894D01*
X29585289Y-17554289D01*
X29696789Y-17442789D01*
X29784394Y-17311679D01*
X29844737Y-17165997D01*
X29875500Y-17011342D01*
X29875500Y-16853658D01*
X29875500Y-16853655D01*
X29875499Y-16853653D01*
X29844738Y-16699010D01*
X29844737Y-16699003D01*
X29844735Y-16698998D01*
X29784397Y-16553327D01*
X29784390Y-16553314D01*
X29696789Y-16422211D01*
X29696786Y-16422207D01*
X29585292Y-16310713D01*
X29585288Y-16310710D01*
X29454185Y-16223109D01*
X29454172Y-16223102D01*
X29308501Y-16162764D01*
X29308489Y-16162761D01*
X29153845Y-16132000D01*
X29153842Y-16132000D01*
X28996158Y-16132000D01*
X28996155Y-16132000D01*
X28841510Y-16162761D01*
X28841498Y-16162764D01*
X28695827Y-16223102D01*
X28695814Y-16223109D01*
X28564711Y-16310710D01*
X28564707Y-16310713D01*
X28453213Y-16422207D01*
X28453210Y-16422211D01*
X28365609Y-16553314D01*
X28365602Y-16553327D01*
X28305264Y-16698998D01*
X28305261Y-16699010D01*
X28274500Y-16853653D01*
X12521988Y-16853653D01*
X12514288Y-15329030D01*
X38024500Y-15329030D01*
X38024500Y-15535969D01*
X38064868Y-15738912D01*
X38064870Y-15738920D01*
X38144058Y-15930096D01*
X38259024Y-16102157D01*
X38405342Y-16248475D01*
X38405345Y-16248477D01*
X38577402Y-16363441D01*
X38768580Y-16442630D01*
X38971530Y-16482999D01*
X38971534Y-16483000D01*
X38971535Y-16483000D01*
X39178466Y-16483000D01*
X39178467Y-16482999D01*
X39381420Y-16442630D01*
X39572598Y-16363441D01*
X39744655Y-16248477D01*
X39890977Y-16102155D01*
X40005941Y-15930098D01*
X40085130Y-15738920D01*
X40125500Y-15535965D01*
X40125500Y-15329035D01*
X40085130Y-15126080D01*
X40005941Y-14934902D01*
X39890977Y-14762845D01*
X39890975Y-14762842D01*
X39744657Y-14616524D01*
X39658626Y-14559041D01*
X39572598Y-14501559D01*
X39381420Y-14422370D01*
X39381412Y-14422368D01*
X39178469Y-14382000D01*
X39178465Y-14382000D01*
X38971535Y-14382000D01*
X38971530Y-14382000D01*
X38768587Y-14422368D01*
X38768579Y-14422370D01*
X38577403Y-14501558D01*
X38405342Y-14616524D01*
X38259024Y-14762842D01*
X38144058Y-14934903D01*
X38064870Y-15126079D01*
X38064868Y-15126087D01*
X38024500Y-15329030D01*
X12514288Y-15329030D01*
X12500629Y-12624624D01*
X12519974Y-12557488D01*
X12572547Y-12511467D01*
X12624627Y-12500000D01*
X70876000Y-12500000D01*
X70943039Y-12519685D01*
G37*
%TD.AperFunction*%
%TD*%
M02*
